<?xml version="1.0" encoding="UTF-8"?>
<svg version="1.1" xmlns="http://www.w3.org/2000/svg" width="600" height="600">
<path d="M0 0 C0.70125 0.598125 1.4025 1.19625 2.125 1.8125 C3.300625 2.7715625 3.300625 2.7715625 4.5 3.75 C10.35398009 8.72588308 15.03813675 14.23759649 19.56640625 20.39453125 C21.22926167 22.65322721 22.95073456 24.82095543 24.77734375 26.94921875 C51.56965763 58.49430654 64.04893984 106.02797041 63.125 146.8125 C63.94484375 146.39097656 64.7646875 145.96945313 65.609375 145.53515625 C66.68703125 144.98730469 67.7646875 144.43945312 68.875 143.875 C69.94234375 143.32972656 71.0096875 142.78445312 72.109375 142.22265625 C79.42692453 138.80084876 88.3716691 138.30320784 96.08984375 140.75390625 C102.12073704 143.64692123 106.39477616 147.21716424 110.125 152.8125 C110.91261719 151.97847656 111.70023437 151.14445313 112.51171875 150.28515625 C132.22974291 129.77926617 132.22974291 129.77926617 143.1875 128.4375 C146.125 128.8125 146.125 128.8125 147.80859375 130.58203125 C150.85889543 135.75034656 148.30760572 142.20059871 146.93359375 147.69140625 C145.7151499 152.41287617 144.43204562 157.11485264 143.125 161.8125 C144.08277344 161.83828125 145.04054688 161.8640625 146.02734375 161.890625 C160.19899248 162.43029175 178.82523608 163.85956842 189.25 174.6875 C191.54010155 178.50433591 191.92064743 180.43643912 191.125 184.8125 C187.48512366 190.1509853 182.22466763 191.64022013 176.125 192.8125 C174.45891334 192.85646618 172.7907082 192.8690151 171.125 192.8125 C171.125 193.4725 171.125 194.1325 171.125 194.8125 C171.82238281 195.05742187 172.51976562 195.30234375 173.23828125 195.5546875 C182.53291116 199.60458037 195.50417984 208.38126977 201.125 216.8125 C201.44662076 219.9000593 201.61224515 221.95265561 200.0625 224.6875 C196.58761852 226.70517312 192.78409805 226.2015315 188.95413208 225.3034668 C186.51371449 224.57599689 184.10312773 223.78631902 181.69140625 222.96875 C180.81346909 222.68020142 179.93553192 222.39165283 179.0309906 222.09436035 C176.246518 221.17674213 173.46706113 220.24487681 170.6875 219.3125 C168.79263161 218.68524886 166.89745214 218.05893663 165.00195312 217.43359375 C160.37263082 215.90407321 155.74775068 214.36176331 151.125 212.8125 C153.10500294 215.34573905 154.93359853 217.64768206 157.375 219.75 C159.125 221.8125 159.125 221.8125 159.5625 224.8125 C159.07236826 228.17340336 158.40942941 229.35537331 156.125 231.8125 C149.80654176 234.25431781 142.56287424 234.13251046 135.875 234.0625 C134.96983643 234.05863281 134.06467285 234.05476562 133.13208008 234.05078125 C125.66491902 233.95543043 118.47190105 233.19544608 111.125 231.8125 C111.62 232.43125 112.115 233.05 112.625 233.6875 C114.125 235.8125 114.125 235.8125 114.125 237.8125 C114.85847656 238.06 115.59195312 238.3075 116.34765625 238.5625 C125.35974418 242.61857333 131.56759023 252.48678569 135.15625 261.36328125 C138.93008786 273.15652455 138.33882617 285.59487401 133.125 296.8125 C131.59705919 299.33919237 130.03462764 301.78070955 128.296875 304.16796875 C124.9830156 311.64624479 127.77622762 321.01901344 129.0625 328.75 C129.42836622 330.98786017 129.7916853 333.22613839 130.15234375 335.46484375 C130.39585571 336.93425415 130.39585571 336.93425415 130.64428711 338.43334961 C137.47051512 386.41802301 133.92137591 446.17981226 120.0234375 492.671875 C119.14195979 495.75321449 118.73626781 498.56038455 118.5 501.75 C118.42523438 502.70777344 118.35046875 503.66554688 118.2734375 504.65234375 C118.22445313 505.36519531 118.17546875 506.07804688 118.125 506.8125 C119.10339844 507.17601562 120.08179688 507.53953125 121.08984375 507.9140625 C139.93718379 515.07682139 139.93718379 515.07682139 145.125 522.8125 C146.30591507 526.01784092 146.23299724 527.47410866 145.1875 530.75 C136.34201167 543.88420995 115.77255956 547.75030149 101.125 550.8125 C65.97233535 557.5030674 29.90860889 558.94800351 -5.75 556.8125 C-8.19570815 556.66795001 -10.64147196 556.52473247 -13.08743286 556.38452148 C-14.59139215 556.29814538 -16.09521425 556.20932627 -17.59884644 556.11743164 C-27.58853757 555.2725 -27.58853757 555.2725 -37.3203125 556.984375 C-38.07554199 557.23485596 -38.83077148 557.48533691 -39.60888672 557.7434082 C-40.79248779 558.14885864 -40.79248779 558.14885864 -42 558.5625 C-71.76860493 568.1005349 -104.05527797 569.03501337 -134.875 564.8125 C-135.59558594 564.71598145 -136.31617188 564.61946289 -137.05859375 564.52001953 C-157.0990819 561.72078621 -179.88961585 556.5148398 -193.875 540.8125 C-196.92721999 536.5489302 -197.39146404 532.15552975 -196.5625 527.078125 C-194.35456889 519.80198839 -189.11449486 516.00156458 -182.80151367 512.32202148 C-177.64501319 509.6622532 -172.23084096 507.81118284 -166.75 505.9375 C-165.60273438 505.5353125 -164.45546875 505.133125 -163.2734375 504.71875 C-160.4773919 503.74013404 -157.6766669 502.77490466 -154.875 501.8125 C-153.39 491.4175 -153.39 491.4175 -151.875 480.8125 C-154.185 479.1625 -156.495 477.5125 -158.875 475.8125 C-159.205 474.94625 -159.535 474.08 -159.875 473.1875 C-161.40646594 469.5502684 -164.33875496 469.27577381 -167.875 467.8125 C-170.29426415 465.6413655 -171.66169312 464.14364295 -172.18359375 460.88671875 C-172.29056316 457.54549784 -172.0779632 455.2611555 -170.6875 452.1875 C-170.419375 451.40375 -170.15125 450.62 -169.875 449.8125 C-170.5865625 448.55953125 -170.5865625 448.55953125 -171.3125 447.28125 C-173.37721212 442.6975891 -173.20800935 438.89227986 -173.0625 433.9375 C-173.04219727 432.61878906 -173.04219727 432.61878906 -173.02148438 431.2734375 C-172.98636623 429.11952448 -172.93256694 426.96592996 -172.875 424.8125 C-171.555 424.4825 -170.235 424.1525 -168.875 423.8125 C-164.915 428.1025 -160.955 432.3925 -156.875 436.8125 C-156.400625 435.20375 -155.92625 433.595 -155.4375 431.9375 C-154 427.0625 -154 427.0625 -152.875 424.8125 C-149.16220216 426.25636582 -147.9263557 427.93486392 -146.125 431.4375 C-145.69703125 432.25476563 -145.2690625 433.07203125 -144.828125 433.9140625 C-144.51359375 434.54054688 -144.1990625 435.16703125 -143.875 435.8125 C-144.019375 435.27882813 -144.16375 434.74515625 -144.3125 434.1953125 C-145.61527466 428.96611978 -146.00254356 424.35768154 -145.65234375 418.9765625 C-145.9331598 416.24722757 -146.90980482 415.6229554 -148.875 413.8125 C-148.75 411.25 -148.75 411.25 -147.875 408.8125 C-146.885 408.1525 -145.895 407.4925 -144.875 406.8125 C-144.16789322 405.16258418 -143.50712929 403.49256987 -142.875 401.8125 C-141.77223412 399.89129583 -140.62414426 397.99555966 -139.4375 396.125 C-138.84066406 395.17238281 -138.24382812 394.21976562 -137.62890625 393.23828125 C-135.875 390.8125 -135.875 390.8125 -132.875 388.8125 C-132.57425471 386.28866659 -132.46857743 384.00641574 -132.49023438 381.47973633 C-132.4848616 380.72325302 -132.47948883 379.96676971 -132.47395325 379.18736267 C-132.4641519 377.53954946 -132.46123819 375.89168449 -132.46430969 374.24384499 C-132.46878792 371.62233154 -132.45478037 369.00149341 -132.43591309 366.38005066 C-132.39905379 360.79504519 -132.38544439 355.21010909 -132.375 349.625 C-132.36286517 343.19395735 -132.34085706 336.76324015 -132.29499817 330.33234215 C-132.28160103 327.7740627 -132.28557084 325.21621291 -132.29040527 322.65791321 C-132.24318062 308.26887799 -131.71254631 292.64140713 -121.0625 281.75 C-120.340625 281.110625 -119.61875 280.47125 -118.875 279.8125 C-132.57470652 281.49593851 -144.7274571 286.45043778 -156.0078125 294.2734375 C-159.28503881 296.03260258 -161.20863134 296.27988411 -164.875 295.8125 C-167.83946738 292.84803262 -167.67324441 290.0262922 -167.9609375 285.9453125 C-167.68559535 275.90783941 -162.36735602 267.85642299 -156.875 259.8125 C-156.545 259.1525 -156.215 258.4925 -155.875 257.8125 C-156.78266113 257.73209473 -157.69032227 257.65168945 -158.62548828 257.56884766 C-162.01424137 257.26518974 -165.40227579 256.95506264 -168.79003906 256.640625 C-170.25237006 256.5062172 -171.71493625 256.37434195 -173.17773438 256.24511719 C-175.28844047 256.0582018 -177.39811417 255.86199229 -179.5078125 255.6640625 C-180.77512207 255.54885254 -182.04243164 255.43364258 -183.34814453 255.31494141 C-186.78057962 254.82595128 -189.68602249 254.17002149 -192.875 252.8125 C-194.875 249.8125 -194.875 249.8125 -194.69921875 247.41015625 C-192.90651921 241.76017903 -188.57521298 237.35078794 -184.25 233.4375 C-173.20700957 228.12050461 -160.8864921 228.18032816 -148.875 227.8125 C-149.36266846 227.43552979 -149.85033691 227.05855957 -150.3527832 226.67016602 C-158.84857076 220.09746216 -167.33785788 213.52923277 -175.61328125 206.6796875 C-177.23688922 205.33929957 -178.89986351 204.04606749 -180.5859375 202.78515625 C-184.2874483 199.59528773 -184.55650636 195.76896091 -185.3125 191.125 C-184.875 188.8125 -184.875 188.8125 -182.8125 186.625 C-170.85074458 179.2443424 -150.31673963 180.04923093 -136.98632812 183.09887695 C-131.60042643 184.48193441 -126.78893483 186.19423549 -121.875 188.8125 C-122.41125 188.090625 -122.9475 187.36875 -123.5 186.625 C-124.875 183.8125 -124.875 183.8125 -124.0625 181.1875 C-123.670625 180.40375 -123.27875 179.62 -122.875 178.8125 C-122.875 177.8225 -122.875 176.8325 -122.875 175.8125 C-124.52736304 174.21210409 -124.52736304 174.21210409 -126.75 172.73828125 C-127.98169922 171.85946289 -127.98169922 171.85946289 -129.23828125 170.96289062 C-130.10839844 170.35638672 -130.97851562 169.74988281 -131.875 169.125 C-148.8103072 157.27548782 -148.8103072 157.27548782 -151.875 149.8125 C-151.66472856 135.30377092 -141.4620164 124.43054234 -131.875 114.8125 C-136.59908377 109.62359674 -142.17564211 106.21989557 -148.10546875 102.53710938 C-154.4164169 98.48007128 -160.28096499 93.98941207 -163.02734375 86.79296875 C-162.8196324 82.72928264 -161.32442547 79.6448336 -159.4375 76.125 C-159.07132568 75.42165527 -158.70515137 74.71831055 -158.32788086 73.99365234 C-152.88276241 63.78420098 -145.78749328 55.20368505 -137.875 46.8125 C-137.27429688 46.14734375 -136.67359375 45.4821875 -136.0546875 44.796875 C-112.30852335 19.50875214 -33.83112393 -27.48778819 0 0 Z M21.125 463.8125 C19.98582782 467.23001653 20.01161519 469.84737937 20.02734375 473.44921875 C20.03056641 474.74794922 20.03378906 476.04667969 20.03710938 477.38476562 C20.04546469 478.75651108 20.05392963 480.12825587 20.0625 481.5 C20.06751665 482.88346195 20.07207927 484.26692563 20.07617188 485.65039062 C20.08797462 489.03777896 20.10591033 492.4251449 20.125 495.8125 C25.405 495.8125 30.685 495.8125 36.125 495.8125 C35.465 485.2525 34.805 474.6925 34.125 463.8125 C29.835 463.8125 25.545 463.8125 21.125 463.8125 Z " fill="#050705" transform="translate(284.875,17.1875)"/>
<path d="M0 0 C0.8765625 0.8559375 1.753125 1.711875 2.65625 2.59375 C3.60242188 3.51285156 4.54859375 4.43195312 5.5234375 5.37890625 C8.88591643 8.84615084 12.08924149 12.36360451 15.15625 16.09375 C15.85234375 16.91359375 16.5484375 17.7334375 17.265625 18.578125 C35.85491528 40.75707133 47.18835642 66.29831816 54.09375 94.28125 C54.30563965 95.13025879 54.5175293 95.97926758 54.73583984 96.85400391 C56.01892483 102.38778647 56.34460727 107.41449288 56.15625 113.09375 C55.60477295 112.95227539 55.0532959 112.81080078 54.48510742 112.66503906 C46.79532236 110.89268961 39.33449535 110.78741347 31.46875 110.84375 C30.79050171 110.84685181 30.11225342 110.84995361 29.41345215 110.85314941 C6.01354307 110.97797453 -16.13381098 113.52671615 -38.50341797 120.51879883 C-41.40571741 121.42270647 -43.78225071 122.09375 -46.84375 122.09375 C-47.17246094 121.17078125 -47.50117188 120.2478125 -47.83984375 119.296875 C-55.34401671 95.50612468 -55.34401671 95.50612468 -69.84375 76.09375 C-79.66129147 73.45156206 -88.83742614 79.22260318 -97.20703125 83.89453125 C-101.39985874 86.3440886 -105.1261979 89.25055284 -108.79296875 92.4296875 C-110.74920911 94.01703682 -112.58419661 95.01215864 -114.84375 96.09375 C-115.30112549 95.72612549 -115.75850098 95.35850098 -116.22973633 94.97973633 C-128.60861813 84.98345509 -128.60861813 84.98345509 -142.84375 78.09375 C-141.98072036 71.92144939 -138.51425762 67.96641999 -134.84375 63.09375 C-134.21984375 62.26230469 -133.5959375 61.43085937 -132.953125 60.57421875 C-112.69965663 34.43407157 -80.39581843 14.53266382 -48.84375 5.09375 C-47.58691406 4.71605469 -46.33007812 4.33835937 -45.03515625 3.94921875 C-8.85767755 -5.93756407 -8.85767755 -5.93756407 0 0 Z " fill="#4A7441" transform="translate(276.84375,26.90625)"/>
<path d="M0 0 C5.28 0 10.56 0 16 0 C16.04898438 1.22332031 16.09796875 2.44664062 16.1484375 3.70703125 C16.38061535 9.14118927 16.67928485 14.57041471 17 20 C17.04850098 20.87479004 17.09700195 21.74958008 17.14697266 22.65087891 C17.85759494 36.94308198 17.85759494 36.94308198 25 49 C28.1935027 51.23285555 30.93164547 52.42027014 34.75 53.125 C38.91020408 53.91020408 38.91020408 53.91020408 40 55 C52.40091977 56.98512747 65.0831909 57.10342955 77 53 C77.77859375 52.74863281 78.5571875 52.49726562 79.359375 52.23828125 C80.84236294 51.75503173 82.32059011 51.25685679 83.79296875 50.7421875 C85.34296803 50.2209488 86.91078001 49.75121551 88.48828125 49.3203125 C93.43027358 48.07747077 93.43027358 48.07747077 96.5625 44.3125 C96.706875 43.549375 96.85125 42.78625 97 42 C97.66257812 42.42667969 98.32515625 42.85335937 99.0078125 43.29296875 C101.88139451 44.93233603 104.72266865 46.19499199 107.77490234 47.44726562 C123.0158772 53.72650474 123.0158772 53.72650474 126.625 61.5 C127.09721215 65.90731342 126.5969025 67.4101642 124 71 C98.58315541 97.02847989 38.89467062 94.48667475 5.64453125 95.05761719 C-4.56000461 95.13682799 -14.69260311 94.60979788 -24.875 94 C-27.32070815 93.85545001 -29.76647196 93.71223247 -32.21243286 93.57202148 C-33.71639215 93.48564538 -35.22021425 93.39682627 -36.72384644 93.30493164 C-46.71353757 92.46 -46.71353757 92.46 -56.4453125 94.171875 C-57.20054199 94.42235596 -57.95577148 94.67283691 -58.73388672 94.9309082 C-59.5229541 95.2012085 -60.31202148 95.47150879 -61.125 95.75 C-90.89360493 105.2880349 -123.18027797 106.22251337 -154 102 C-154.72058594 101.90348145 -155.44117188 101.80696289 -156.18359375 101.70751953 C-176.2240819 98.90828621 -199.01461585 93.7023398 -213 78 C-216.05221999 73.7364302 -216.51646404 69.34302975 -215.6875 64.265625 C-213.47956889 56.98948839 -208.23949486 53.18906458 -201.92651367 49.50952148 C-196.77001319 46.8497532 -191.35584096 44.99868284 -185.875 43.125 C-184.72773438 42.7228125 -183.58046875 42.320625 -182.3984375 41.90625 C-179.60223815 40.92758023 -176.80296123 39.95909325 -174 39 C-173.505 34.05 -173.505 34.05 -173 29 C-172.67 29 -172.34 29 -172 29 C-171.67 37.58 -171.34 46.16 -171 55 C-176 53 -176 53 -178 52 C-185.3143575 50.89654089 -190.87337111 53.0740916 -197 57 C-198.7342884 58.57091847 -198.7342884 58.57091847 -200 60 C-198.91588142 63.25235574 -198.4367504 63.69929701 -195.75 65.5625 C-194.87601563 66.18318359 -194.87601563 66.18318359 -193.984375 66.81640625 C-189.48362444 69.50090905 -185.73920886 70.31379429 -180.5 70.375 C-179.3965625 70.40335938 -178.293125 70.43171875 -177.15625 70.4609375 C-173.36687115 69.90753811 -171.81579848 68.50844019 -169 66 C-168.34 66 -167.68 66 -167 66 C-165.7734375 67.7578125 -165.7734375 67.7578125 -164.375 70.125 C-157.59736814 80.46980652 -147.45064663 84.09019344 -135.6640625 86.75390625 C-125.60597135 88.49519806 -115.75716155 89.86187578 -106.53515625 84.94921875 C-101.94037571 83.22883097 -97.01675809 83.39983555 -92.16015625 83.2734375 C-88.90416984 83.33318236 -88.90416984 83.33318236 -87 81 C-85.72125 80.71125 -84.4425 80.4225 -83.125 80.125 C-79.3499416 79.21898598 -77.15725774 78.41565809 -75 75 C-74.31402479 69.02221607 -75.33628219 65.32743562 -78 60 C-78.33 59.34 -78.66 58.68 -79 58 C-78.27554688 57.67128906 -77.55109375 57.34257813 -76.8046875 57.00390625 C-69.77222961 53.54393697 -65.3245335 50.20315592 -62 43 C-60.68955387 39.42616073 -60.68955387 39.42616073 -61 36 C-62.27551996 33.96264225 -63.60417205 31.95689604 -65 30 C-64.26064209 29.98018066 -63.52128418 29.96036133 -62.75952148 29.93994141 C-44.22259965 29.4885285 -44.22259965 29.4885285 -25.8203125 27.40234375 C-23.16693492 27.02381481 -20.67530639 26.92596016 -18 27 C-17.97236643 28.35404497 -17.95332578 29.70826555 -17.9375 31.0625 C-17.92589844 31.81660156 -17.91429687 32.57070313 -17.90234375 33.34765625 C-18.02250523 36.61124192 -18.49871814 39.77521826 -19 43 C-26.98214061 44.82876132 -34.81911794 46.4533512 -43 47 C-40.75162398 49.28339745 -38.44198772 51.47843718 -36.0625 53.625 C-35.39347656 54.23601563 -34.72445312 54.84703125 -34.03515625 55.4765625 C-31.90858112 57.06843256 -30.62599007 57.7145663 -28 58 C-25.22655375 57.10685629 -22.66514223 56.14624701 -20 55 C-19.26136719 54.69707031 -18.52273438 54.39414062 -17.76171875 54.08203125 C-15.47570926 53.11472153 -13.24292036 52.06284728 -11 51 C-10.26007813 50.71125 -9.52015625 50.4225 -8.7578125 50.125 C-6.28432055 48.96526751 -4.8093009 48.0683792 -3 46 C-1.41061838 41.31185756 -0.73767156 36.93317855 0 32 C5.61 32.33 11.22 32.66 17 33 C16.67 31.4325 16.34 29.865 16 28.25 C14.45940128 19.22339342 14.83767462 10.1262934 15 1 C12.87465341 1.14069196 10.74972471 1.28770921 8.625 1.4375 C6.84996094 1.55931641 6.84996094 1.55931641 5.0390625 1.68359375 C2.08481099 1.81084936 2.08481099 1.81084936 0 3 C0 2.01 0 1.02 0 0 Z " fill="#363D3A" transform="translate(304,480)"/>
<path d="M0 0 C4.32680531 1.37908749 8.45146987 3.02720889 12.625 4.8125 C21.78991789 8.61814102 31.35121163 10.78616632 41 13 C40.67386719 13.6084375 40.34773438 14.216875 40.01171875 14.84375 C31.00533313 32.90965626 30.13019677 55.76575998 36.25927734 74.93115234 C41.33104467 89.09666201 48.35869032 100.15395554 61.95703125 107.23828125 C68.8929792 110.50276611 76.49606572 111.71574078 84 113 C84.95519531 113.19464844 85.91039062 113.38929688 86.89453125 113.58984375 C91.33003052 114.17566441 95.7184782 114.14878404 100.1875 114.125 C101.12932129 114.12016602 102.07114258 114.11533203 103.04150391 114.11035156 C118.34454408 113.97794942 132.05092226 111.83870525 145.92578125 104.953125 C148 104 148 104 150 104 C150.50388084 108.08286424 151.00243268 112.16636193 151.5 116.25 C151.64308594 117.40886719 151.78617188 118.56773437 151.93359375 119.76171875 C152.06894531 120.87675781 152.20429688 121.99179687 152.34375 123.140625 C152.46943359 124.16704102 152.59511719 125.19345703 152.72460938 126.25097656 C153 129 153 129 153 133 C144.09398345 135.91442734 135.19977439 138.2225489 126 140 C124.91912109 140.25378418 124.91912109 140.25378418 123.81640625 140.51269531 C114.37843562 142.5492714 104.86169015 142.4829281 95.25 142.5 C93.83069687 142.50451675 93.83069687 142.50451675 92.38272095 142.50912476 C76.83895671 142.50604701 61.59516938 141.32255104 46.1875 139.3125 C45.23854858 139.19052246 44.28959717 139.06854492 43.31188965 138.94287109 C-13.51520684 131.48479316 -13.51520684 131.48479316 -20 125 C-20.11426748 121.86369368 -20.16422304 118.75040364 -20.16796875 115.61328125 C-20.17129715 114.64585495 -20.17462555 113.67842865 -20.17805481 112.6816864 C-20.18313812 110.61437455 -20.18546271 108.54705442 -20.18530273 106.47973633 C-20.18744037 103.398449 -20.20544043 100.31754955 -20.22460938 97.23632812 C-20.27449125 80.01944587 -19.5017716 62.74980881 -16.1875 45.8125 C-16.01863281 44.92014648 -15.84976563 44.02779297 -15.67578125 43.10839844 C-9.14284761 9.65078359 -9.14284761 9.65078359 0 0 Z " fill="#1D35CD" transform="translate(236,237)"/>
<path d="M0 0 C3.51381637 1.68416995 5.56548163 4.00004511 8 7 C8.71285156 7.81082031 9.42570312 8.62164062 10.16015625 9.45703125 C18.31262312 19.00786293 25.170198 29.40823492 31.5625 40.1875 C32.00456787 40.93080566 32.44663574 41.67411133 32.90209961 42.43994141 C36 47.75045165 36 47.75045165 36 50 C35.3709375 50.07476562 34.741875 50.14953125 34.09375 50.2265625 C26.27176965 51.42813177 21.13872823 53.95452806 16.2421875 60.265625 C12.55195296 65.93468096 10.8253277 71.3119997 10 78 C3.38223141 76.98100103 -0.89382313 73.63979558 -5.03515625 68.44921875 C-7.19513799 65.38443973 -9.32119949 62.35760101 -11 59 C-11.99 59 -12.98 59 -14 59 C-13.49075686 63.78122724 -12.17745158 66.77771528 -9.5 70.75 C-6 76 -6 76 -5 78 C-6.11375 77.5359375 -6.11375 77.5359375 -7.25 77.0625 C-9.50692176 76.1905075 -11.6450153 75.52332993 -14 75 C-14.66 76.32 -15.32 77.64 -16 79 C-15.48824219 79.23203125 -14.97648437 79.4640625 -14.44921875 79.703125 C-11.08170655 81.48624151 -7.96630542 83.62018803 -4.8125 85.75 C-4.14919678 86.19520996 -3.48589355 86.64041992 -2.80249023 87.09912109 C-1.4790724 87.98741396 -0.15622438 88.87655642 1.16601562 89.76660156 C3.58496782 91.39340488 6.0108033 93.00977831 8.4375 94.625 C9.625 95.41666667 10.8125 96.20833333 12 97 C8 101 4 105 0 109 C-0.82242188 108.35933594 -1.64484375 107.71867188 -2.4921875 107.05859375 C-13.79956728 97.07731484 -13.79956728 97.07731484 -27 91 C-24.42662787 95.74042234 -21.14743054 99.10258216 -17.12109375 102.66015625 C-16.48300781 103.24667969 -15.84492188 103.83320312 -15.1875 104.4375 C-14.28064453 105.23994141 -14.28064453 105.23994141 -13.35546875 106.05859375 C-11.48198396 108.74194229 -11.77098668 110.80728493 -12 114 C-13.08539063 113.97679687 -14.17078125 113.95359375 -15.2890625 113.9296875 C-16.73436807 113.9109173 -18.17968115 113.89271844 -19.625 113.875 C-20.69427734 113.84986328 -20.69427734 113.84986328 -21.78515625 113.82421875 C-26.2612164 113.78315398 -29.77949278 114.30913433 -34 116 C-34 116.66 -34 117.32 -34 118 C-32.18628906 118.02126953 -32.18628906 118.02126953 -30.3359375 118.04296875 C-18.68336241 118.32831357 -7.9967614 119.3354924 2 126 C1.83701416 126.57975586 1.67402832 127.15951172 1.50610352 127.75683594 C0.72322444 131.22673123 0.89687641 134.712623 0.9375 138.25 C0.94201172 138.99507812 0.94652344 139.74015625 0.95117188 140.5078125 C0.96290754 142.3385764 0.9808415 144.16929873 1 146 C-8.94046767 150.97023384 -25.91339857 146.6013923 -35.96484375 143.48046875 C-40.78398987 141.81251423 -44.52724335 139.78104314 -48 136 C-48.81791016 135.20916016 -48.81791016 135.20916016 -49.65234375 134.40234375 C-58.29550772 124.78708799 -58.76554889 109.72163991 -58.30859375 97.46875 C-57.60486605 85.58802326 -53.528941 76.25997712 -48.02514648 65.92822266 C-42.56845161 55.66459414 -39.82215228 46.21456558 -39.30859375 34.49609375 C-39 32 -39 32 -37 29 C-34.375 28.8125 -34.375 28.8125 -32 29 C-35.72616179 24.93185778 -39.48099271 22.30974958 -44.3125 19.6875 C-44.95767578 19.32849609 -45.60285156 18.96949219 -46.26757812 18.59960938 C-47.84089355 17.72554525 -49.41987465 16.86169217 -51 16 C-51 15.67 -51 15.34 -51 15 C-50.20303711 14.9498877 -49.40607422 14.89977539 -48.58496094 14.84814453 C-44.97267143 14.6159936 -41.36139569 14.37064823 -37.75 14.125 C-36.49574219 14.04636719 -35.24148437 13.96773438 -33.94921875 13.88671875 C-32.14130859 13.76103516 -32.14130859 13.76103516 -30.296875 13.6328125 C-29.18666992 13.55949707 -28.07646484 13.48618164 -26.93261719 13.41064453 C-24.13173682 13.01844666 -22.34363738 12.55613404 -20 11 C-18.94321728 8.63500522 -18.94321728 8.63500522 -18.375 5.9375 C-17.97016976 4.27769601 -17.52215443 2.62671188 -17 1 C-12.04142708 -1.47928646 -5.38641595 -0.6537455 0 0 Z " fill="#EEF0EA" transform="translate(195,415)"/>
<path d="M0 0 C2.02692416 -0.00856862 4.05383381 -0.02217145 6.08068848 -0.04101562 C26.8193358 -0.21359917 26.8193358 -0.21359917 35.74835205 3.29956055 C36.50156738 3.58992188 37.25478271 3.8802832 38.03082275 4.17944336 C43.51138269 6.42906394 47.51038427 10.37177833 50.74835205 15.29956055 C50.74835205 16.28956055 50.74835205 17.27956055 50.74835205 18.29956055 C51.40835205 18.29956055 52.06835205 18.29956055 52.74835205 18.29956055 C54.74835205 21.29956055 54.74835205 21.29956055 54.74835205 25.29956055 C55.40835205 25.29956055 56.06835205 25.29956055 56.74835205 25.29956055 C59.22373002 34.73693904 60.4387069 43.37924973 55.89678955 52.3503418 C54.39044637 54.90702631 52.8140198 57.16503721 50.74835205 59.29956055 C50.08835205 59.29956055 49.42835205 59.29956055 48.74835205 59.29956055 C48.74835205 59.95956055 48.74835205 60.61956055 48.74835205 61.29956055 C47.15671201 62.27855771 45.54902866 63.23147269 43.93585205 64.17456055 C43.04253174 64.70823242 42.14921143 65.2419043 41.2288208 65.79174805 C30.06251577 70.629227 17.49199181 69.65533721 5.56085205 69.61206055 C4.09443268 69.61032333 4.09443268 69.61032333 2.59838867 69.60855103 C-37.60984468 69.51411516 -37.60984468 69.51411516 -47.25164795 63.29956055 C-50.63998549 59.68839996 -51.8428214 57.05301646 -52.51727295 52.1706543 C-52.68533447 50.97972168 -52.853396 49.78878906 -53.02655029 48.56176758 C-53.18333252 47.29961426 -53.34011475 46.03746094 -53.50164795 44.73706055 C-53.75422363 42.79742432 -53.75422363 42.79742432 -54.01190186 40.81860352 C-54.94631325 33.18521036 -55.6118333 25.61706789 -55.62664795 17.92456055 C-55.62825928 17.14266357 -55.62987061 16.3607666 -55.63153076 15.55517578 C-55.53753802 10.81428615 -54.73700508 6.80316338 -53.25164795 2.29956055 C-35.508883 0.82394019 -17.80507546 0.07183584 0 0 Z " fill="#586F77" transform="translate(343.25164794921875,258.700439453125)"/>
<path d="M0 0 C-1.72078008 17.36629366 -3.87009936 34.68021845 -6 52 C-12.9862227 53.12690077 -19.85980927 53.18608469 -26.91308594 53.18530273 C-29.0985102 53.18747369 -31.28341574 53.20562576 -33.46875 53.22460938 C-42.16074242 53.25822482 -50.43048963 52.64083161 -59 51 C-59.13277344 49.73542969 -59.26554687 48.47085938 -59.40234375 47.16796875 C-59.58055463 45.50779375 -59.75894963 43.84763852 -59.9375 42.1875 C-60.02451172 41.35412109 -60.11152344 40.52074219 -60.20117188 39.66210938 C-60.28818359 38.85966797 -60.37519531 38.05722656 -60.46484375 37.23046875 C-60.543396 36.49207764 -60.62194824 35.75368652 -60.70288086 34.99291992 C-60.97151996 32.79730622 -60.97151996 32.79730622 -62 30 C-60.02 29.01 -58.04 28.02 -56 27 C-55.957279 25.33388095 -55.95936168 23.66617115 -56 22 C-57.88473596 20.11526404 -61.13401293 20.86944455 -63.640625 20.8671875 C-64.31865173 20.86623077 -64.99667847 20.86527405 -65.69525146 20.86428833 C-67.14123629 20.86360558 -68.58722413 20.86546643 -70.03320312 20.86962891 C-72.19929354 20.87487714 -74.36516697 20.86973975 -76.53125 20.86328125 C-90.99293977 19.74846979 -90.99293977 19.74846979 -103.79541016 23.43408203 C-108.57167078 29.64302723 -108.43268956 37.87229817 -108.69140625 45.3515625 C-109.01733816 49.20498532 -109.82617565 52.33238816 -111 56 C-121.72769952 57.90882036 -132.01861777 58.24755341 -142.875 58.125 C-144.44921297 58.11493595 -146.02343226 58.10581623 -147.59765625 58.09765625 C-151.39859821 58.07594651 -155.19922599 58.04161198 -159 58 C-158.65066406 57.45730469 -158.30132812 56.91460937 -157.94140625 56.35546875 C-157.25884766 55.28232422 -157.25884766 55.28232422 -156.5625 54.1875 C-156.11003906 53.47980469 -155.65757812 52.77210938 -155.19140625 52.04296875 C-151.8381228 46.29291222 -152.33291427 39.17844905 -153.35546875 32.7734375 C-155.51306763 25.27252328 -160.06947121 18.46776167 -163.99438477 11.7800293 C-165.06538525 9.88426224 -166.04134825 7.95463962 -167 6 C-158.6637904 6.57553005 -150.58032899 7.89043722 -142.375 9.4375 C-116.75708184 14.09303194 -93.00982841 14.83604194 -67.0625 12.1875 C-66.24328064 12.10481873 -65.42406128 12.02213745 -64.58001709 11.93695068 C-54.46740166 10.89936305 -44.49168692 9.49876153 -34.50024414 7.62207031 C-31.77281237 7.13734574 -29.13303951 6.76430777 -26.375 6.5625 C-17.46941508 5.7226806 -8.48977124 0 0 0 Z " fill="#193E25" transform="translate(398,443)"/>
<path d="M0 0 C14.76559015 4.16465363 29.57738434 16.36607651 38 29 C40.07056215 37.33316406 35.89766452 43.94547832 32.09375 51.015625 C30.23782331 54.46566014 28.73097044 57.96971079 27.3125 61.625 C24.79975891 67.74514167 22.27681767 71.99253532 16.375 75.375 C10.7912414 77.65713919 5.07792866 77.19500692 -0.84277344 77.07275391 C-16.26055275 76.76825729 -30.13336799 80.96309935 -43.41796875 88.609375 C-46 90 -46 90 -48 90 C-46.74773725 81.83116975 -42.01589404 75.21771743 -35.609375 70.171875 C-34.28785968 69.20960656 -32.95760513 68.25935101 -31.625 67.3125 C-29.70008089 65.99911296 -29.70008089 65.99911296 -29 63 C-28.34 63 -27.68 63 -27 63 C-31.86757436 57.19031447 -37.06570739 55.47142113 -44.54321289 54.57543945 C-48.54865345 54.2611151 -52.55050079 54.01966574 -56.5625 53.8125 C-57.96686248 53.73093963 -59.37116076 53.6482658 -60.77539062 53.56445312 C-64.18312548 53.36537583 -67.59108654 53.17753762 -71 53 C-63.9887821 45.9887821 -48.20947784 47.73016381 -38.9609375 47.5703125 C-37.46820313 47.52390625 -37.46820313 47.52390625 -35.9453125 47.4765625 C-35.04312988 47.45674316 -34.14094727 47.43692383 -33.21142578 47.41650391 C-32.48165527 47.27905762 -31.75188477 47.14161133 -31 47 C-30.34 46.01 -29.68 45.02 -29 44 C-27.0546875 43.48828125 -27.0546875 43.48828125 -24.875 43.3125 C-22.956875 43.1578125 -22.956875 43.1578125 -21 43 C-21.578104 37.56582238 -23.41761041 35.26924587 -27.625 31.8125 C-29.73726285 30.18683173 -31.85876511 28.58618853 -34 27 C-35.27677302 26.03742764 -36.5527839 25.07384374 -37.828125 24.109375 C-40.53214804 22.07001148 -43.24376392 20.04133445 -45.9609375 18.01953125 C-51.69271486 13.74757886 -57.34696627 9.37529323 -63 5 C-62.67 4.34 -62.34 3.68 -62 3 C-58.05315009 2.92494288 -54.10658573 2.87097785 -50.15917969 2.83520508 C-48.16847095 2.81298521 -46.17796032 2.77483405 -44.1875 2.73632812 C-36.57321093 2.67864412 -30.10312942 3.18449297 -23 6 C-21.6078125 6.54720703 -21.6078125 6.54720703 -20.1875 7.10546875 C-14.57183286 9.88321839 -10.06432758 13.21174292 -5.421875 17.42578125 C-2.4058052 19.38622662 -0.531476 19.37409703 3 19 C3.495 18.505 3.495 18.505 4 18 C3.96006263 12.04933248 3.63241237 6.89586015 0 2 C0 1.34 0 0.68 0 0 Z " fill="#A9AED1" transform="translate(177,208)"/>
<path d="M0 0 C0.94532805 3.19599736 1.1288359 6.07535117 1.1328125 9.40234375 C1.13474609 10.45107666 1.13667969 11.49980957 1.13867188 12.58032227 C1.13416016 13.68819092 1.12964844 14.79605957 1.125 15.9375 C1.12306641 17.07179443 1.12113281 18.20608887 1.11914062 19.37475586 C1.08521446 25.93428568 0.847838 32.40523186 0.2265625 38.9375 C-0.0603804 42.81617643 -0.11453055 46.67440662 -0.125 50.5625 C-0.12951172 51.24256104 -0.13402344 51.92262207 -0.13867188 52.62329102 C-0.12880786 55.89444486 -0.00284702 58.87207239 1 62 C-1.56151683 62.81571218 -4.12412628 63.62766131 -6.6875 64.4375 C-7.40873047 64.66759766 -8.12996094 64.89769531 -8.87304688 65.13476562 C-9.93168945 65.46831055 -9.93168945 65.46831055 -11.01171875 65.80859375 C-11.97791138 66.11494751 -11.97791138 66.11494751 -12.96362305 66.42749023 C-19.65841214 68.30967228 -26.15071552 68.18372513 -33.0625 68.1875 C-34.83850586 68.20586914 -34.83850586 68.20586914 -36.65039062 68.22460938 C-37.78798828 68.22654297 -38.92558594 68.22847656 -40.09765625 68.23046875 C-41.65238647 68.23663208 -41.65238647 68.23663208 -43.23852539 68.24291992 C-46.06455807 67.99432099 -47.68846319 67.63091211 -50 66 C-50.37125 64.865625 -50.7425 63.73125 -51.125 62.5625 C-52.48759196 58.43769716 -54.63331957 56.00056737 -57.625 52.875 C-66.62733731 43.37616223 -72.6720654 31.98625918 -78.98046875 20.6015625 C-81.18256973 16.64210464 -83.54202109 12.80590282 -86 9 C-71.04292039 -0.9713864 -41.73000474 1.68911259 -24.4375 1.4375 C-21.67814647 1.39335613 -18.91889846 1.34679012 -16.15968323 1.29469299 C-14.46586923 1.26304546 -12.77195958 1.23606298 -11.07798767 1.21446228 C-7.25218342 1.14620213 -3.69267152 0 0 0 Z " fill="#0C4B41" transform="translate(335,149)"/>
<path d="M0 0 C5.89027447 1.50624482 11.60460746 3.21599919 17.3125 5.3125 C29.79514518 9.58630754 43.05810561 11.57488617 56 14 C56.09265137 14.60956543 56.18530273 15.21913086 56.28076172 15.84716797 C57.18463213 18.55264294 58.06609077 19.03929025 60.5078125 20.4453125 C61.23959717 20.8774707 61.97138184 21.30962891 62.7253418 21.75488281 C63.517229 22.20702148 64.30911621 22.65916016 65.125 23.125 C66.78165115 24.09867033 68.43657562 25.0752839 70.08984375 26.0546875 C70.91983887 26.54549805 71.74983398 27.03630859 72.60498047 27.54199219 C76.06014675 29.6453819 79.36591032 31.94402194 82.6875 34.25 C89.74384706 39.08858367 97.18105484 42.58103267 105 46 C105.69738281 46.4125 106.39476562 46.825 107.11328125 47.25 C109.87780552 48.34894132 111.15117806 47.91795374 114 47 C117.06822214 45.62417023 120.03311205 44.08096736 123 42.5 C123.83635986 42.0580127 124.67271973 41.61602539 125.53442383 41.16064453 C132.74840812 37.27677642 139.42651479 32.88585795 146 28 C147.6855556 31.0060089 148.39446371 33.57691127 148.8515625 36.984375 C148.98046875 37.91894531 149.109375 38.85351562 149.2421875 39.81640625 C149.36851562 40.78449219 149.49484375 41.75257813 149.625 42.75 C149.7590625 43.73355469 149.893125 44.71710938 150.03125 45.73046875 C150.36050768 48.15286456 150.68318477 50.57595084 151 53 C142.54676872 54.50234926 134.09744895 55.64125194 125.5625 56.5625 C124.43779297 56.68818359 123.31308594 56.81386719 122.15429688 56.94335938 C118.77117412 57.31451184 115.38674544 57.66358643 112 58 C111.0107251 58.10006348 110.0214502 58.20012695 109.00219727 58.30322266 C99.55676381 59.14921887 90.11297185 59.22050708 80.63647461 59.24023438 C77.83481954 59.24992282 75.03390548 59.28104199 72.23242188 59.3125 C60.50679912 59.38171581 49.47961412 58.36250651 38 56 C36.31789429 55.66983887 36.31789429 55.66983887 34.60180664 55.33300781 C31.76656269 54.75851528 28.94603032 54.14020454 26.125 53.5 C25.19042969 53.30019531 24.25585938 53.10039062 23.29296875 52.89453125 C22.39449219 52.69214844 21.49601562 52.48976563 20.5703125 52.28125 C19.39106201 52.01924805 19.39106201 52.01924805 18.18798828 51.75195312 C15.65797833 50.88245629 13.99170537 49.77801256 12 48 C11.7525 47.195625 11.505 46.39125 11.25 45.5625 C9.77323653 42.53513489 8.89158165 42.23300295 5.921875 40.83984375 C5.1906543 40.49171631 4.45943359 40.14358887 3.70605469 39.78491211 C3.14305664 39.52589111 2.58005859 39.26687012 2 39 C1.97494385 38.37544922 1.9498877 37.75089844 1.92407227 37.10742188 C1.80699619 34.23812877 1.68478249 31.36907575 1.5625 28.5 C1.52318359 27.51773437 1.48386719 26.53546875 1.44335938 25.5234375 C1.25551604 21.18859142 1.03849923 16.89694912 0.46875 12.59375 C0.08681149 9.66555473 -0.10848815 6.9432414 -0.0625 4 C-0.05347656 3.236875 -0.04445312 2.47375 -0.03515625 1.6875 C-0.02355469 1.130625 -0.01195312 0.57375 0 0 Z " fill="#37592C" transform="translate(212,375)"/>
<path d="M0 0 C0.36351562 0.93199219 0.72703125 1.86398438 1.1015625 2.82421875 C3.51047229 8.9489914 5.95110863 15.00632461 8.8125 20.9375 C11.84704954 27.39605999 14.40440526 34.01807979 16.9375 40.6875 C17.35169189 41.76443115 17.76588379 42.8413623 18.19262695 43.95092773 C18.5712085 44.96098877 18.94979004 45.9710498 19.33984375 47.01171875 C19.85599243 48.38009888 19.85599243 48.38009888 20.38256836 49.77612305 C21 52 21 52 20 54 C18.906875 53.79375 17.81375 53.5875 16.6875 53.375 C12.9161599 52.59653475 12.9161599 52.59653475 10 55 C9.78721942 50.53160785 10.40861915 47.17737474 12 43 C9.60482512 43.95806995 8.26148493 44.58665613 6.86328125 46.796875 C5.37662889 50.59086564 5.90778095 54.13467932 7 58 C9.64985054 61.10411063 11.08258349 61.88991002 15.125 62.375 C18.19380972 62.19032214 18.19380972 62.19032214 21 60 C21.66 59.01 22.32 58.02 23 57 C24.61989062 60.54351073 25.10414268 63.12719419 25 67 C24.34773438 67.24234375 23.69546875 67.4846875 23.0234375 67.734375 C19.05254916 69.25713454 15.47847905 70.67775901 11.9375 73.0625 C9.28438263 74.81242848 7.60641319 75.47953277 4.625 76.3125 C-1.18564654 78.10190384 -6.26182708 81.84019044 -9.22265625 87.22265625 C-9.47917969 87.80917969 -9.73570312 88.39570313 -10 89 C-15.49946881 88.61631613 -17.29658648 86.9419936 -21 83 C-29.12003313 74.45222644 -37.08956835 67.46811855 -47 61 C-49.07365799 59.57864324 -51.13688918 58.14190976 -53.1875 56.6875 C-54.06792969 56.07261719 -54.94835937 55.45773438 -55.85546875 54.82421875 C-58.01676087 52.98574258 -58.96766518 51.61255684 -60 49 C-56.01491814 44.32039457 -52.01528926 39.65371397 -48 35 C-47.19175781 34.06285156 -46.38351563 33.12570313 -45.55078125 32.16015625 C-40.40264738 26.30958401 -34.90736222 21.07747599 -29 16 C-28.14664063 15.23558594 -27.29328125 14.47117187 -26.4140625 13.68359375 C-19.33540013 7.54944498 -9.72947414 0 0 0 Z " fill="#A69182" transform="translate(204,113)"/>
<path d="M0 0 C3.06032368 -0.00981975 6.12000519 -0.04102445 9.18017578 -0.07226562 C28.15238487 -0.17419947 28.15238487 -0.17419947 36.66845703 3.24023438 C37.42046387 3.53067627 38.1724707 3.82111816 38.94726562 4.12036133 C44.43047185 6.36620762 48.43022588 10.31205134 51.66845703 15.24023438 C51.66845703 16.23023438 51.66845703 17.22023438 51.66845703 18.24023438 C52.32845703 18.24023438 52.98845703 18.24023438 53.66845703 18.24023438 C56.66845703 24.74023438 56.66845703 24.74023438 56.66845703 29.24023438 C42.79553875 33.48006669 28.97112298 36.81732808 14.66845703 39.24023438 C13.72631348 39.41603027 12.78416992 39.59182617 11.81347656 39.77294922 C6.56138564 40.55330181 1.30467788 40.50386773 -3.99731445 40.53540039 C-5.996328 40.55253962 -7.9950539 40.59642995 -9.99365234 40.640625 C-20.77127309 40.71057461 -30.12266102 38.91053207 -38.68310547 32.00976562 C-41.60424872 28.87403602 -42.86190259 25.20187365 -44.33154297 21.24023438 C-45.19779297 19.56960938 -45.19779297 19.56960938 -46.08154297 17.86523438 C-47.33154297 15.24023438 -47.33154297 15.24023438 -47.33154297 12.24023438 C-47.99154297 12.24023438 -48.65154297 12.24023438 -49.33154297 12.24023438 C-49.66154297 9.27023437 -49.99154297 6.30023438 -50.33154297 3.24023438 C-33.65965359 0.25379158 -16.89353483 0.0327447 0 0 Z " fill="#94C1D3" transform="translate(342.33154296875,258.759765625)"/>
<path d="M0 0 C-0.433125 1.55847656 -0.433125 1.55847656 -0.875 3.1484375 C-4.23145511 14.42796433 -4.23145511 14.42796433 -4 26 C-2.8302177 28.16347914 -2.8302177 28.16347914 -1 30 C1.28336086 30.66588615 1.28336086 30.66588615 3.8671875 30.6875 C4.83003662 30.74437988 5.79288574 30.80125977 6.78491211 30.85986328 C7.80464111 30.9061084 8.82437012 30.95235352 9.875 31 C18.82956669 31.56834443 26.60413172 32.68032847 35 36 C34.505 36.99 34.505 36.99 34 38 C30.92427763 38.92646759 27.84821474 39.68040349 24.72265625 40.41210938 C20.69360125 41.40552077 17.34557369 42.50821165 14 45 C13.11341534 47.59122743 13.11341534 47.59122743 13 50 C13.66 50 14.32 50 15 50 C15.39832031 50.74636719 15.79664063 51.49273437 16.20703125 52.26171875 C18.5225216 55.7980123 20.93840875 56.91939452 24.6875 58.8125 C25.29400391 59.12380859 25.90050781 59.43511719 26.52539062 59.75585938 C28.01075619 60.51608584 29.50457634 61.25975462 31 62 C27.06008995 63.31330335 24.24288812 62.23951589 20.375 61.1875 C18.92331291 60.81067427 17.47149084 60.43436815 16.01953125 60.05859375 C14.67957184 59.70616862 13.3397157 59.35335044 12 59 C5.81290169 57.38482312 0.41456612 56.79636298 -6 57 C-4.26375242 63.4188547 -2.14819255 69.13784836 1 75 C-16.12487488 75.36915898 -33.78712917 74.96421464 -48 64 C-47.36848453 60.7396178 -46.18509832 58.51838566 -44.375 55.75 C-41.61534777 51.26805878 -39.4030151 46.69271255 -37.3125 41.875 C-36.88493408 40.89031738 -36.88493408 40.89031738 -36.44873047 39.88574219 C-34.99389458 36.47950457 -33.66384816 33.06420389 -32.43359375 29.5703125 C-31 26 -31 26 -28.75 25 C-27.8425 24.67 -26.935 24.34 -26 24 C-24.2624474 22.25778908 -22.73530094 20.38236113 -21.16015625 18.4921875 C-18.52090464 15.44726431 -15.72395368 12.59764622 -12.875 9.75 C-12.37218506 9.24291504 -11.86937012 8.73583008 -11.35131836 8.21337891 C-3.10946785 0 -3.10946785 0 0 0 Z " fill="#AAAED2" transform="translate(423,161)"/>
<path d="M0 0 C2.78317516 1.38435229 3.95814445 2.597817 6 5 C3.46203863 21.28792929 -6.24582957 43.35798519 -19 54 C-27.78257207 59.97630644 -37.76942509 61.94547056 -48 64 C-49.34516053 64.27942638 -50.69021605 64.5593588 -52.03515625 64.83984375 C-55.68589975 65.58633352 -59.3386709 66.30731612 -63 67 C-63.80630859 67.17136475 -64.61261719 67.34272949 -65.44335938 67.51928711 C-88.73764042 72.23070262 -110.05433713 68.20959559 -131.8359375 59.9375 C-144.14530016 54.92140761 -144.14530016 54.92140761 -157.14453125 53.04296875 C-164.04391262 53.10512534 -167.47530689 49.42562888 -172.19067383 44.86157227 C-173.47356177 43.58744978 -174.73867506 42.29547249 -176 41 C-175.43997584 37.46340908 -174.32225676 36.04440308 -171.5625 33.8125 C-170.94503906 33.30332031 -170.32757813 32.79414063 -169.69140625 32.26953125 C-166.40166109 29.80032299 -163.98456312 29.73121106 -159.90625 30.25390625 C-154.04341996 31.7590145 -148.78238885 34.93351555 -143.44873047 37.73193359 C-114.64287639 52.64894317 -82.69075013 65.14406705 -50 55 C-39.58186542 51.34471029 -29.98406497 46.77853458 -22 39 C-21.42121094 38.44828125 -20.84242188 37.8965625 -20.24609375 37.328125 C-13.44662388 30.1707883 -8.18959578 18.12480995 -7.92578125 8.2109375 C-7.95027344 7.48132813 -7.97476563 6.75171875 -8 6 C-12.455 4.02 -12.455 4.02 -17 2 C-11.91984249 -1.38677167 -5.92405232 -0.69894317 0 0 Z " fill="#486F3F" transform="translate(378,168)"/>
<path d="M0 0 C5.54982336 4.13516251 11.04764495 8.33273576 16.51831055 12.57177734 C18.96977029 14.46566893 21.42097331 16.28064887 24 18 C25.42892578 17.25943359 25.42892578 17.25943359 26.88671875 16.50390625 C28.15348171 15.85644963 29.42041801 15.20933206 30.6875 14.5625 C31.31333984 14.23701172 31.93917969 13.91152344 32.58398438 13.57617188 C40.8797297 9.36314938 50.52642304 8.40561754 59.6328125 10.6484375 C73.55099634 16.32240095 83.00250353 31.11107038 88.81640625 44.40234375 C91.12432548 51.41750418 92.06522601 58.69400332 93 66 C91.39743892 66.50512244 89.79288208 67.00391627 88.1875 67.5 C87.29417969 67.7784375 86.40085937 68.056875 85.48046875 68.34375 C83 69 83 69 80 69 C79.67128906 68.07703125 79.34257812 67.1540625 79.00390625 66.203125 C71.49973329 42.41237468 71.49973329 42.41237468 57 23 C47.18245853 20.35781206 38.00632386 26.12885318 29.63671875 30.80078125 C25.44389126 33.2503386 21.7175521 36.15680284 18.05078125 39.3359375 C16.09454089 40.92328682 14.25955339 41.91840864 12 43 C11.54262451 42.63237549 11.08524902 42.26475098 10.61401367 41.88598633 C-1.76486813 31.88970509 -1.76486813 31.88970509 -16 25 C-15.44279425 21.01492089 -14.29248862 18.55798546 -11.9375 15.3125 C-11.00550781 14.02666016 -11.00550781 14.02666016 -10.0546875 12.71484375 C-6.7920239 8.40390991 -3.42578357 4.18212539 0 0 Z " fill="#285E1D" transform="translate(150,80)"/>
<path d="M0 0 C0.78375 0.00451172 1.5675 0.00902344 2.375 0.01367188 C4.29170014 0.02535907 6.20836048 0.04329092 8.125 0.0625 C8.17587496 7.321584 8.210807 14.5806217 8.23486328 21.83984375 C8.24489626 24.30730915 8.25852573 26.77476273 8.27587891 29.2421875 C8.30024592 32.79690474 8.31151042 36.35146422 8.3203125 39.90625 C8.33063507 41.00239624 8.34095764 42.09854248 8.35159302 43.22790527 C8.35246417 49.22813807 7.79445475 54.30290172 6.125 60.0625 C6.04930406 62.72936684 6.04930406 62.72936684 6.4375 65.125 C6.54578125 65.97320312 6.6540625 66.82140625 6.765625 67.6953125 C7.05968358 69.63226361 7.37112044 71.56656936 7.6875 73.5 C7.831875 74.675625 7.97625 75.85125 8.125 77.0625 C8.26164062 77.94164062 8.39828125 78.82078125 8.5390625 79.7265625 C8.82739353 82.78287146 8.90921003 85.08698307 8.125 88.0625 C5.14226586 90.87240281 1.85762492 92.43937371 -1.875 94.0625 C-3.21101244 94.72378132 -4.54541532 95.38838814 -5.875 96.0625 C-5.875 96.7225 -5.875 97.3825 -5.875 98.0625 C-11.5 101.0625 -11.5 101.0625 -14.875 101.0625 C-16.67855227 84.50149625 -17.16037176 68.11476236 -17.08081055 51.46166992 C-17.0623783 47.47366916 -17.06030297 43.48608606 -17.06054688 39.49804688 C-17.05563536 36.91406052 -17.04980865 34.33007572 -17.04296875 31.74609375 C-17.04185593 30.57807724 -17.0407431 29.41006073 -17.03959656 28.20664978 C-16.92056429 7.19919287 -16.92056429 7.19919287 -14.875 1.0625 C-9.85891475 0.0448597 -5.08891694 -0.05606434 0 0 Z " fill="#131B8D" transform="translate(188.875,307.9375)"/>
<path d="M0 0 C0.36351562 0.93199219 0.72703125 1.86398438 1.1015625 2.82421875 C3.51047229 8.9489914 5.95110863 15.00632461 8.8125 20.9375 C11.84704954 27.39605999 14.40440526 34.01807979 16.9375 40.6875 C17.35169189 41.76443115 17.76588379 42.8413623 18.19262695 43.95092773 C18.5712085 44.96098877 18.94979004 45.9710498 19.33984375 47.01171875 C19.85599243 48.38009888 19.85599243 48.38009888 20.38256836 49.77612305 C21 52 21 52 20 54 C18.906875 53.79375 17.81375 53.5875 16.6875 53.375 C12.9161599 52.59653475 12.9161599 52.59653475 10 55 C9.78721942 50.53160785 10.40861915 47.17737474 12 43 C9.65765733 43.93693707 8.27477723 44.58020146 6.875 46.71875 C5.79805943 49.52648792 5.8036057 51.75143928 5.875 54.75 C5.89304688 55.73484375 5.91109375 56.7196875 5.9296875 57.734375 C5.95289063 58.48203125 5.97609375 59.2296875 6 60 C5.01 60 4.02 60 3 60 C2.90501221 59.37246826 2.81002441 58.74493652 2.7121582 58.09838867 C0.57028201 44.14250809 -2.09494487 30.57166703 -6 17 C-6.99 17 -7.98 17 -9 17 C-8.35815732 21.09556756 -7.53684956 25.09634222 -6.5625 29.125 C-1.26425209 52.08407427 -1.26425209 52.08407427 -3 63 C-4.88049686 65.87229938 -6.87732798 67.57996137 -10 69 C-10.66 69 -11.32 69 -12 69 C-12 68.34 -12 67.68 -12 67 C-13.32 66.34 -14.64 65.68 -16 65 C-15.21625 64.401875 -14.4325 63.80375 -13.625 63.1875 C-10.49348054 60.57790045 -9.14397028 59.00779193 -8.5625 54.9375 C-9.30229997 48.27930029 -12.00894319 42.15677064 -17.3125 37.875 C-21.28979141 35.417416 -24.40935991 35.47320524 -29 36 C-31.40557853 36.86265968 -31.40557853 36.86265968 -33 38 C-33.21192221 43.19209404 -32.5912689 47.126739 -31 52 C-34.72784046 50.68081702 -37.44619758 49.06253191 -40.5 46.5625 C-43.55739664 44.11249935 -46.55371787 41.88989665 -50 40 C-49.51835797 35.70621255 -46.78050233 33.18443337 -43.9375 30.1875 C-43.44016357 29.65487549 -42.94282715 29.12225098 -42.43041992 28.57348633 C-39.08180983 25.02970688 -35.62069369 21.69675844 -31.875 18.5703125 C-30.61625517 17.5161137 -29.38660203 16.42626138 -28.1875 15.3046875 C-20.87916374 8.51402506 -10.31230403 0 0 0 Z " fill="#C8B3A4" transform="translate(204,113)"/>
<path d="M0 0 C0.309375 0.639375 0.61875 1.27875 0.9375 1.9375 C1.8345163 3.93610821 1.8345163 3.93610821 3 5 C3.12191536 6.41316133 3.17977431 7.8319319 3.2109375 9.25 C4.22260812 44.74699291 11.3882058 77.82832667 24 111 C16.3356158 109.81619248 8.82521727 108.35988855 1.3125 106.4375 C0.42111328 106.21642578 -0.47027344 105.99535156 -1.38867188 105.76757812 C-7.86842315 104.13157685 -7.86842315 104.13157685 -9 103 C-9.11426748 99.86369368 -9.16422304 96.75040364 -9.16796875 93.61328125 C-9.17129715 92.64585495 -9.17462555 91.67842865 -9.17805481 90.6816864 C-9.18313812 88.61437455 -9.18546271 86.54705442 -9.18530273 84.47973633 C-9.18744037 81.398449 -9.20544043 78.31754955 -9.22460938 75.23632812 C-9.27509803 57.87094343 -8.46646747 40.50809233 -5.0625 23.4375 C-4.89137695 22.53692871 -4.72025391 21.63635742 -4.54394531 20.70849609 C-3.20534395 13.7649689 -1.70911826 6.86236877 0 0 Z " fill="#131B8C" transform="translate(225,259)"/>
<path d="M0 0 C8.38413274 2.4721094 16.46245211 5.00605793 24.3515625 8.8203125 C27.22872519 10.10188054 30.11326359 11.01956522 33.125 11.9375 C40.86241984 14.4295521 47.36632473 18.15021917 52 25 C44.89647271 29.95594927 40.41459012 31.25065317 31.9375 31 C15.43371397 30.78057644 0.8982826 34.36930772 -13.41796875 42.609375 C-16 44 -16 44 -18 44 C-16.74773725 35.83116975 -12.01589404 29.21771743 -5.609375 24.171875 C-4.28785968 23.20960656 -2.95760513 22.25935101 -1.625 21.3125 C0.29991911 19.99911296 0.29991911 19.99911296 1 17 C1.66 17 2.32 17 3 17 C-1.86757436 11.19031447 -7.06570739 9.47142113 -14.54321289 8.57543945 C-18.54865345 8.2611151 -22.55050079 8.01966574 -26.5625 7.8125 C-27.96686248 7.73093963 -29.37116076 7.6482658 -30.77539062 7.56445312 C-34.18312548 7.36537583 -37.59108654 7.17753762 -41 7 C-34.00535526 0.00535526 -18.12188877 1.7003717 -8.87304688 1.39453125 C-7.87466797 1.35714844 -6.87628906 1.31976563 -5.84765625 1.28125 C-4.4865271 1.23581055 -4.4865271 1.23581055 -3.09790039 1.18945312 C-1.01349903 1.22704695 -1.01349903 1.22704695 0 0 Z " fill="#8B8FAE" transform="translate(147,254)"/>
<path d="M0 0 C6.2797583 1.60584256 12.43388806 3.45341324 18.5625 5.5625 C24.30615127 7.53146038 29.99824825 9.05384149 36 10 C35.34 10.33 34.68 10.66 34 11 C35.25328801 25.67475339 36.57793501 40.34062788 38 55 C32.47120333 54.3794841 27.1040528 53.51846562 21.6875 52.25 C20.98560547 52.105625 20.28371094 51.96125 19.56054688 51.8125 C16.03689151 50.97945278 14.30299418 50.40523913 12.1015625 47.4609375 C11.73804688 46.64882813 11.37453125 45.83671875 11 45 C8.54055169 41.95496876 5.47701558 40.698623 2 39 C1.97494385 38.37544922 1.9498877 37.75089844 1.92407227 37.10742188 C1.80699619 34.23812877 1.68478249 31.36907575 1.5625 28.5 C1.52318359 27.51773437 1.48386719 26.53546875 1.44335938 25.5234375 C1.25551604 21.18859142 1.03849923 16.89694912 0.46875 12.59375 C0.08681149 9.66555473 -0.10848815 6.9432414 -0.0625 4 C-0.05347656 3.236875 -0.04445312 2.47375 -0.03515625 1.6875 C-0.02355469 1.130625 -0.01195312 0.57375 0 0 Z " fill="#193E26" transform="translate(212,375)"/>
<path d="M0 0 C0.9568497 1.40581467 1.84900137 2.85600183 2.70703125 4.32421875 C3.23893066 5.23091309 3.77083008 6.13760742 4.31884766 7.07177734 C5.97931188 9.96396554 7.62401527 12.86440041 9.26171875 15.76953125 C15.05128788 26.01906386 20.69567295 35.73360256 28.6953125 44.4140625 C32.41495014 48.58762203 35.33573866 52.35377859 36 58 C16.34009904 54.1324785 -1.94927839 44.25908964 -19 34 C-19 33.34 -19 32.68 -19 32 C-17.02678947 30.6273318 -15.02456848 29.29572383 -13 28 C-10.63589512 26.06268472 -10.63589512 26.06268472 -10.6875 22.5625 C-10.80633873 17.14543455 -12.45581007 12.15263376 -14 7 C-14.34173542 5.66879536 -14.67843306 4.33621989 -15 3 C-12.87790224 2.30359327 -10.75221473 1.61811643 -8.625 0.9375 C-6.84996094 0.36322266 -6.84996094 0.36322266 -5.0390625 -0.22265625 C-2 -1 -2 -1 0 0 Z " fill="#082A25" transform="translate(250,158)"/>
<path d="M0 0 C4.63226537 2.02932186 9.0746163 4.38316164 13.55126953 6.73193359 C29.47849445 14.97979064 45.28366353 22.58105787 63 26 C61.515 26.495 61.515 26.495 60 27 C60.99 28.485 60.99 28.485 62 30 C61.64484971 32.84120234 60.90650749 35.28047752 60 38 C46.74609375 37.33191692 35.12846305 32.72637762 22.82714844 28.0546875 C11.64043744 23.63981502 11.64043744 23.63981502 -0.14453125 22.04296875 C-7.04391262 22.10512534 -10.47530689 18.42562888 -15.19067383 13.86157227 C-16.47356177 12.58744978 -17.73867506 11.29547249 -19 10 C-18.43997584 6.46340908 -17.32225676 5.04440308 -14.5625 2.8125 C-13.94503906 2.30332031 -13.32757813 1.79414063 -12.69140625 1.26953125 C-8.55879698 -1.83231174 -4.80520132 -1.23359335 0 0 Z " fill="#285C1C" transform="translate(221,199)"/>
<path d="M0 0 C2.65615083 1.15434462 4.60839299 2.15142746 6.6875 4.16796875 C7.75872808 7.14732184 7.9360916 10.01914183 7.6875 13.16796875 C5.92246686 16.08940292 4.72902365 17.64720692 1.6875 19.16796875 C-2.87455538 19.42141627 -6.89701367 19.1064544 -11.375 18.23046875 C-15.6233576 17.42775851 -19.71120252 17.09289914 -24.0234375 17.0234375 C-25.0455835 17.00337646 -26.06772949 16.98331543 -27.12084961 16.96264648 C-29.18135392 16.93322678 -31.24237383 16.92820595 -33.30297852 16.94946289 C-40.36886078 16.83512439 -40.36886078 16.83512439 -43.09399414 14.90844727 C-45.47704856 12.19614114 -46.31203088 10.17093987 -46.875 6.60546875 C-46.22679589 2.64422138 -45.12450626 0.97997501 -42.3125 -1.83203125 C-31.65857586 -7.15899332 -11.16132446 -3.43526614 0 0 Z " fill="#F7F7F8" transform="translate(371.3125,264.83203125)"/>
<path d="M0 0 C0.33 0 0.66 0 1 0 C2.73372194 8.66860969 2.05420475 15.0202145 -0.9375 23.1875 C-1.49094655 24.74254356 -2.0418052 26.29851104 -2.58984375 27.85546875 C-2.84233887 28.5726709 -3.09483398 29.28987305 -3.35498047 30.02880859 C-4.10640137 32.32516451 -4.62228343 34.61417004 -5 37 C1.59175549 40.84519071 9.32250009 42.94162699 16.9375 43.0625 C20 44 20 44 21.53125 46.28125 C22.81428949 48.81881699 23.95838182 51.35515384 25 54 C7.87512512 54.36915898 -9.78712917 53.96421464 -24 43 C-23.36848453 39.7396178 -22.18509832 37.51838566 -20.375 34.75 C-17.61534777 30.26805878 -15.4030151 25.69271255 -13.3125 20.875 C-12.88493408 19.89031738 -12.88493408 19.89031738 -12.44873047 18.88574219 C-10.99669447 15.48606002 -9.67313859 12.07977709 -8.453125 8.58984375 C-7 5 -7 5 -4.4375 3.6875 C-3.633125 3.460625 -2.82875 3.23375 -2 3 C-1.34 2.01 -0.68 1.02 0 0 Z " fill="#8B8FAE" transform="translate(399,182)"/>
<path d="M0 0 C5.36280043 -0.17299356 10.46298008 0.01179464 15.78726196 0.71609497 C27.40923335 2.22861123 38.92376373 2.22958103 50.625 2.125 C52.61457875 2.11493522 54.60416252 2.10581565 56.59375 2.09765625 C61.39596071 2.07595405 66.19792236 2.04162356 71 2 C65.75822085 7.37306105 65.75822085 7.37306105 62.65234375 9.4296875 C62.05276855 9.82953857 61.45319336 10.22938965 60.83544922 10.64135742 C60.20912598 11.04845947 59.58280273 11.45556152 58.9375 11.875 C58.28281738 12.30337158 57.62813477 12.73174316 56.95361328 13.1730957 C54.97518615 14.45852124 52.98882645 15.73073888 51 17 C50.4107373 17.3810791 49.82147461 17.7621582 49.21435547 18.15478516 C47.6125659 19.18354667 45.99416409 20.18630684 44.375 21.1875 C43.45460938 21.75855469 42.53421875 22.32960938 41.5859375 22.91796875 C38.45781296 24.22686678 37.16769906 24.13712274 34 23 C31.9140625 21.64453125 31.9140625 21.64453125 29.625 19.8125 C22.64628421 14.52296162 15.13774061 10.13944328 7.62158203 5.66137695 C6.14794189 4.77905396 6.14794189 4.77905396 4.64453125 3.87890625 C3.75096924 3.3485376 2.85740723 2.81816895 1.93676758 2.27172852 C1.29763428 1.85205811 0.65850098 1.4323877 0 1 C0 0.67 0 0.34 0 0 Z " fill="#59814B" transform="translate(284,392)"/>
<path d="M0 0 C1.20970459 0.00523682 2.41940918 0.01047363 3.66577148 0.01586914 C4.97094727 0.0190918 6.27612305 0.02231445 7.62084961 0.02563477 C9.00952213 0.03399138 10.39819401 0.04245634 11.78686523 0.05102539 C13.17944179 0.05603873 14.57202005 0.06060193 15.96459961 0.06469727 C19.38456394 0.07653105 22.80444367 0.09301659 26.22436523 0.11352539 C24.24436523 1.10352539 24.24436523 1.10352539 22.22436523 2.11352539 C22.92561523 2.58661133 23.62686523 3.05969727 24.34936523 3.54711914 C33.65860995 10.0357639 41.92212315 16.51203097 44.22436523 28.11352539 C44.63835184 31.28742272 44.77613262 32.38619566 42.84936523 34.92602539 C41.22436523 36.11352539 41.22436523 36.11352539 39.22436523 36.11352539 C38.89436523 37.10352539 38.56436523 38.09352539 38.22436523 39.11352539 C37.89694336 38.09516602 37.56952148 37.07680664 37.23217773 36.02758789 C35.10297945 31.09250783 31.34813668 28.58154526 27.09936523 25.48852539 C26.30836426 24.89313965 25.51736328 24.29775391 24.70239258 23.68432617 C23.04952373 22.44115117 21.39205156 21.20407491 19.73022461 19.97290039 C16.49360772 17.57129534 13.28440468 15.13496191 10.08032227 12.69018555 C8.62638472 11.5811962 7.16917364 10.4764815 5.70825195 9.37670898 C2.31261316 6.80375475 -0.85847766 4.24011942 -3.77563477 1.11352539 C-2.77563477 0.11352539 -2.77563477 0.11352539 0 0 Z " fill="#8C8FAE" transform="translate(117.775634765625,210.886474609375)"/>
<path d="M0 0 C0.33 0 0.66 0 1 0 C0.67 7.92 0.34 15.84 0 24 C-10.12929768 27.37643256 -10.12929768 27.37643256 -14.04296875 27.73046875 C-14.88923828 27.81103516 -15.73550781 27.89160156 -16.60742188 27.97460938 C-17.45884766 28.04486328 -18.31027344 28.11511719 -19.1875 28.1875 C-20.48204102 28.3102832 -20.48204102 28.3102832 -21.80273438 28.43554688 C-26.25177324 28.84062386 -30.50995331 29 -35 29 C-35 19.76 -35 10.52 -35 1 C-25.5625 5.4375 -25.5625 5.4375 -22.64672852 6.83374023 C-16.98574771 9.43579294 -12.22595967 10.65165027 -6 11 C-5.62609131 10.41516846 -5.25218262 9.83033691 -4.86694336 9.2277832 C-3.97509766 7.83284505 -3.08325195 6.4379069 -2.19140625 5.04296875 C-0.85913661 2.91865448 -0.85913661 2.91865448 0 0 Z " fill="#36582B" transform="translate(401,398)"/>
<path d="M0 0 C0.02763357 1.35404497 0.04667422 2.70826555 0.0625 4.0625 C0.07410156 4.81660156 0.08570313 5.57070313 0.09765625 6.34765625 C-0.02250523 9.61124192 -0.49871814 12.77521826 -1 16 C-8.31831066 17.67667348 -15.51124539 19.25961732 -23.01171875 19.7890625 C-25.20796599 19.95022281 -25.20796599 19.95022281 -28 21 C-29.796875 20.2578125 -29.796875 20.2578125 -31.75 19.125 C-35.58828763 17.06369739 -38.67703514 16.36024707 -43 16 C-42.9175 14.96875 -42.835 13.9375 -42.75 12.875 C-43.04027942 8.37566899 -44.41417669 6.59368358 -47 3 C-45.89096313 2.970271 -45.89096313 2.970271 -44.75952148 2.93994141 C-26.22259965 2.4885285 -26.22259965 2.4885285 -7.8203125 0.40234375 C-5.16693492 0.02381481 -2.67530639 -0.07403984 0 0 Z " fill="#363327" transform="translate(286,507)"/>
<path d="M0 0 C1.629375 0.144375 3.25875 0.28875 4.9375 0.4375 C5.95585937 0.52773438 6.97421875 0.61796875 8.0234375 0.7109375 C10.38476773 0.94025303 12.71417289 1.23504403 15.0625 1.5625 C27.47466143 2.94162905 39.73267643 2.08805508 52 0 C52 3.96 52 7.92 52 12 C40.89879604 12.64155565 29.80838709 13.11510428 18.6875 13.1875 C17.26715454 13.20683594 17.26715454 13.20683594 15.81811523 13.2265625 C10.19396546 13.23456912 5.39642024 12.60057951 0 11 C0 7.37 0 3.74 0 0 Z " fill="#363428" transform="translate(339,502)"/>
<path d="M0 0 C0.33 1.65 0.66 3.3 1 5 C0.01 5.33 -0.98 5.66 -2 6 C-1.37466625 8.52363988 -1.37466625 8.52363988 0 11 C2.54775306 11.89386164 2.54775306 11.89386164 5 12 C5.59214059 15.01219342 6.0371782 17.92483209 6 21 C3.86187194 24.0884072 1.43560146 25.59235773 -2 27 C-9.24569308 27.72930506 -15.5873238 27.57916811 -22 24 C-22.72678772 17.31355294 -20.66606609 12.57028488 -17 7 C-12.01965106 0.91531281 -7.82910596 -1.14174462 0 0 Z " fill="#EAECE6" transform="translate(231,471)"/>
<path d="M0 0 C5.66603697 3.77379443 8.67661809 8.62820682 10.8828125 15.00390625 C11.5078125 18.81640625 11.5078125 18.81640625 10.8828125 22.00390625 C8.5131628 25.27959848 7.01542412 26.72704563 3.0703125 27.69140625 C-3.6837243 26.23465321 -8.47347106 21.31700697 -12.15234375 15.65625 C-14.83118228 11.06860344 -15.81191994 7.36327078 -15.1171875 2.00390625 C-10.92566141 -2.05663465 -5.14114897 -2.41880625 0 0 Z " fill="#080707" transform="translate(185.1171875,148.99609375)"/>
<path d="M0 0 C3.774375 0.0309375 3.774375 0.0309375 7.625 0.0625 C7.625 6.6625 7.625 13.2625 7.625 20.0625 C4.56510417 20.48567708 1.50520833 20.90885417 -1.5546875 21.33203125 C-6.28016991 22.23557441 -10.79358238 23.60908077 -15.375 25.0625 C-15.40401394 21.6250177 -15.42180335 18.18756688 -15.4375 14.75 C-15.44587891 13.77353516 -15.45425781 12.79707031 -15.46289062 11.79101562 C-15.46611328 10.85322266 -15.46933594 9.91542969 -15.47265625 8.94921875 C-15.48051147 7.65310669 -15.48051147 7.65310669 -15.48852539 6.33081055 C-15.375 4.0625 -15.375 4.0625 -14.375 1.0625 C-9.51803391 0.08957462 -4.92346633 -0.05741504 0 0 Z " fill="#1E36CB" transform="translate(188.375,307.9375)"/>
<path d="M0 0 C5.26104036 1.70372521 10.36180183 3.71300246 15.48828125 5.78125 C24.16230872 8.79159101 32.40932371 9.38186084 41.5625 9.625 C42.76197266 9.66367187 43.96144531 9.70234375 45.19726562 9.7421875 C48.13136425 9.83570459 51.06546884 9.92145635 54 10 C54.495 14.455 54.495 14.455 55 19 C45.05953233 23.97023384 28.08660143 19.6013923 18.03515625 16.48046875 C9.70129027 13.59603464 4.65494273 8.38795834 0 1 C0 0.67 0 0.34 0 0 Z " fill="#B2B3AF" transform="translate(141,542)"/>
<path d="M0 0 C2.8961496 0.3097647 5.79189576 0.62271188 8.6875 0.9375 C9.50412109 1.02451172 10.32074219 1.11152344 11.16210938 1.20117188 C11.95810547 1.28818359 12.75410156 1.37519531 13.57421875 1.46484375 C14.66609497 1.58267212 14.66609497 1.58267212 15.7800293 1.70288086 C18 2 18 2 20.15942383 2.52294922 C24.39255046 3.23386709 28.58974959 3.16277254 32.875 3.16796875 C33.83591553 3.17129715 34.79683105 3.17462555 35.78686523 3.17805481 C37.82095869 3.18311121 39.85506042 3.18546353 41.88916016 3.18530273 C44.96140745 3.18747274 48.03328571 3.20559651 51.10546875 3.22460938 C60.34828147 3.25036493 69.29836076 3.22543029 78.3972168 1.44311523 C82.58978488 0.72934438 86.76237071 0.82781642 91 1 C91 2.65 91 4.3 91 6 C68.87690619 17.0615469 25.58772025 9.30996856 2 5 C1.01 4.67 0.02 4.34 -1 4 C-0.67 2.68 -0.34 1.36 0 0 Z " fill="#1E1D19" transform="translate(250,440)"/>
<path d="M0 0 C1.8133204 5.4399612 0.12618309 10.81015252 -2 16 C-4.9961184 19.25796405 -8.33677277 21.55383182 -12 24 C-13.02839769 24.97077196 -14.04181485 25.95986481 -15 27 C-19.84015316 25.23465356 -24.2835127 22.80463275 -28.8125 20.375 C-29.60076172 19.95476562 -30.38902344 19.53453125 -31.20117188 19.1015625 C-33.13535326 18.0699991 -35.06823983 17.03608828 -37 16 C-33.98032897 13.98688598 -32.29554053 13.52832488 -28.8125 12.8125 C-23.48875174 11.54154426 -18.62247412 9.74958219 -13.625 7.5625 C-12.62690308 7.12997925 -12.62690308 7.12997925 -11.60864258 6.6887207 C-7.43148325 4.81489895 -3.74315137 2.63643015 0 0 Z " fill="#587F4A" transform="translate(405,376)"/>
<path d="M0 0 C0.14695313 0.96099609 0.14695313 0.96099609 0.296875 1.94140625 C1.04726133 6.28200304 1.74621949 9.99625061 4.125 13.75 C6.14818012 17.25684554 6.46143213 19.03168365 6 23 C5.67 23.66 5.34 24.32 5 25 C-3.91 25 -12.82 25 -22 25 C-12.67692308 9.46153846 -12.67692308 9.46153846 -8 8 C-5.75 8.375 -5.75 8.375 -4 9 C-4.33 8.4225 -4.66 7.845 -5 7.25 C-6 5 -6 5 -6 1 C-4 0 -4 0 0 0 Z " fill="#0D5F81" transform="translate(167,399)"/>
<path d="M0 0 C7.27568076 0.92209149 11.14023478 6.41050158 15.48681641 11.86621094 C39 42.41940173 39 42.41940173 39 50 C37.68 50 36.36 50 35 50 C34.67128906 49.34515625 34.34257812 48.6903125 34.00390625 48.015625 C31.14232132 42.52510432 28.03224446 37.362358 24.375 32.375 C23.64023438 31.37210937 22.90546875 30.36921875 22.1484375 29.3359375 C20.00217685 27.00236683 19.0959125 26.29418173 16 26 C16 26.66 16 27.32 16 28 C13.125 28.625 13.125 28.625 10 29 C8 27 8 27 7.625 23.5625 C8 20 8 20 10.0234375 18.27734375 C10.67570313 17.85582031 11.32796875 17.43429687 12 17 C10.37915112 15.01730109 8.75360546 13.03881048 7.125 11.0625 C6.66480469 10.49853516 6.20460937 9.93457031 5.73046875 9.35351562 C3.24449218 6.22954674 3.24449218 6.22954674 0 4 C0 2.68 0 1.36 0 0 Z " fill="#AFB0AC" transform="translate(192,415)"/>
<path d="M0 0 C3.88014936 1.52059907 5.73906562 3.86078531 8.25 7.125 C8.95640625 8.03507812 9.6628125 8.94515625 10.390625 9.8828125 C11.18726562 10.93082031 11.18726562 10.93082031 12 12 C11.67 12.66 11.34 13.32 11 14 C10.7647268 16.10854036 10.7647268 16.10854036 10.75 18.4375 C10.72421875 19.21996094 10.6984375 20.00242187 10.671875 20.80859375 C11.08021021 23.53568964 12.0217372 24.15918474 14 26 C14.80859375 27.9375 14.80859375 27.9375 15.4375 30 C16.62372931 33.43249331 17.71671171 35.1885306 21 37 C20.67 38.98 20.34 40.96 20 43 C16.86493389 42.66410006 15.974751 41.97334828 13.75 39.625 C12 37 12 37 12 34 C11.278125 33.773125 10.55625 33.54625 9.8125 33.3125 C6.32748519 31.68615975 4.3536473 30.04589651 2 27 C2.12202777 24.01031961 2.66076868 21.80893622 3.8125 19.0625 C4.08356917 16.08073916 2.4685124 14.51541131 0.92578125 12.08203125 C-0.78781059 8.22825719 -0.29911809 4.12949147 0 0 Z " fill="#DEE0DB" transform="translate(116,450)"/>
<path d="M0 0 C1.98 0.495 1.98 0.495 4 1 C7.56150108 13.67348323 10.45216207 26.21611063 11.9375 39.3125 C12.06552002 40.43253418 12.19354004 41.55256836 12.32543945 42.70654297 C13.14060725 50.57817825 13.14060725 50.57817825 12 54 C10.68 54 9.36 54 8 54 C6.97633099 48.29153986 6.05953821 42.58644413 5.33984375 36.83203125 C4.093967 26.94899923 2.65415618 17.51562171 -0.328125 7.99609375 C-1.02491966 4.88887572 -0.87976114 3.02840853 0 0 Z " fill="#090808" transform="translate(195,129)"/>
<path d="M0 0 C-3.18593204 10.42387473 -8.86311514 18.81417961 -17 26 C-18.99916641 20.00250078 -17.62088323 11.76505617 -15 6 C-10.6656894 2.16086452 -5.82585232 0 0 0 Z " fill="#26591B" transform="translate(363,179)"/>
<path d="M0 0 C8.15160653 0.90269468 12.97613126 7.81886798 17.875 13.8125 C18.61492187 14.74707031 19.35484375 15.68164062 20.1171875 16.64453125 C21.9389555 19.0128446 21.9389555 19.0128446 24 21 C23.625 23.625 23.625 23.625 23 26 C19.80081886 25.42890154 18.27592236 24.62166468 16.125 22.19921875 C15.61453125 21.63396484 15.1040625 21.06871094 14.578125 20.48632812 C14.05734375 19.89271484 13.5365625 19.29910156 13 18.6875 C11.95901863 17.52412602 10.91736637 16.36135196 9.875 15.19921875 C9.38515625 14.64669434 8.8953125 14.09416992 8.390625 13.52490234 C7.18616795 12.20414414 5.91095907 10.94857397 4.625 9.70703125 C3 8 3 8 3 6 C2.01 6 1.02 6 0 6 C-0.38218767 4.34385343 -0.71395102 2.67542976 -1 1 C-0.67 0.67 -0.34 0.34 0 0 Z " fill="#0C0B0A" transform="translate(160,161)"/>
<path d="M0 0 C0.99 0 1.98 0 3 0 C2.67 3.63 2.34 7.26 2 11 C2.66 10.34 3.32 9.68 4 9 C10.17784711 9.33697348 10.17784711 9.33697348 12.9375 11.5625 C13.288125 12.036875 13.63875 12.51125 14 13 C12.75023244 16.65316671 12.32901247 17.78065836 9 20 C4.93746285 20.63195022 3.27051865 20.15822789 -0.3125 18.0625 C-3.4049975 15.19031235 -4.03471844 12.36211236 -4.2421875 8.2265625 C-3.85486214 4.66566802 -2.38685593 2.5857606 0 0 Z " fill="#151312" transform="translate(213,156)"/>
<path d="M0 0 C0.52078125 0.74636719 1.0415625 1.49273437 1.578125 2.26171875 C4.37056883 5.41898185 7.00721183 6.90367803 10.75 8.8125 C11.92046875 9.41707031 13.0909375 10.02164063 14.296875 10.64453125 C15.18890625 11.09183594 16.0809375 11.53914062 17 12 C13.06008995 13.31330335 10.24288812 12.23951589 6.375 11.1875 C4.92331291 10.81067427 3.47149084 10.43436815 2.01953125 10.05859375 C0.67957184 9.70616862 -0.6602843 9.35335044 -2 9 C-8.18709831 7.38482312 -13.58543388 6.79636298 -20 7 C-19.125 2.125 -19.125 2.125 -18 1 C-15.34346557 0.89997545 -12.71870728 0.86122537 -10.0625 0.875 C-8.9497168 0.86919922 -8.9497168 0.86919922 -7.81445312 0.86328125 C-2.25327002 0.87336499 -2.25327002 0.87336499 0 2 C0 1.34 0 0.68 0 0 Z " fill="#8488A5" transform="translate(437,211)"/>
<path d="M0 0 C0.81984375 0.42152344 1.6396875 0.84304688 2.484375 1.27734375 C3.56203125 1.82519531 4.6396875 2.37304688 5.75 2.9375 C6.81734375 3.48277344 7.8846875 4.02804687 8.984375 4.58984375 C11.38445885 5.71216275 13.41856752 6.50501659 16 7 C14.58707905 11.8274799 12.57025846 15.7162359 10 20 C7.6875 19.4375 7.6875 19.4375 5 18 C3.3125 14.5625 3.3125 14.5625 2 11 C1.34 10.01 0.68 9.02 0 8 C-0.25760279 5.30547479 -0.08900053 2.71451625 0 0 Z " fill="#E5E6E1" transform="translate(130,464)"/>
<path d="M0 0 C2.87498795 1.40326793 5.43706137 3.09142868 8 5 C7 8 7 8 5.19921875 9.16015625 C0.53095967 10.94288396 -3.99733748 10.86822378 -8.5859375 8.87890625 C-10.78073889 7.65687961 -12.90569648 6.3863002 -15 5 C-10.57592397 0.47678501 -6.45658681 -1.19609432 0 0 Z " fill="#0D5978" transform="translate(125,536)"/>
<path d="M0 0 C4.96591186 0.52153412 8.69884073 2.17467165 12.9375 4.6875 C13.54996582 5.04328125 14.16243164 5.3990625 14.79345703 5.765625 C19.31936495 8.4529957 23.19748647 11.37855854 27 15 C26.01 16.65 25.02 18.3 24 20 C17.85700692 16.09515168 12.06793947 11.82565349 6.34301758 7.34033203 C3.31448403 4.95145957 3.31448403 4.95145957 0 3 C0 2.01 0 1.02 0 0 Z " fill="#B2B3AF" transform="translate(172,504)"/>
<path d="M0 0 C17.07744875 -0.738041 17.07744875 -0.738041 23 4 C22.5205537 8.21912747 21.83374881 10.79663178 19 14 C18.32582031 13.26394531 17.65164062 12.52789062 16.95703125 11.76953125 C13.89710939 8.70960939 10.46867577 6.73969323 6.6875 4.6875 C6.04232422 4.32849609 5.39714844 3.96949219 4.73242188 3.59960938 C3.15910645 2.72554525 1.58012535 1.86169217 0 1 C0 0.67 0 0.34 0 0 Z " fill="#B2B3AF" transform="translate(144,430)"/>
<path d="M0 0 C0.09796875 0.64066406 0.1959375 1.28132813 0.296875 1.94140625 C1.04956218 6.29531228 1.76615414 10.03165486 4.125 13.8125 C5.9971434 16.99514378 6.4354491 18.40754495 6 22 C0.72736234 19.25822842 -3.03453987 16.44905283 -7 12 C-7 11.34 -7 10.68 -7 10 C-6.01 10 -5.02 10 -4 10 C-4.33 9.2575 -4.66 8.515 -5 7.75 C-6 5 -6 5 -6 1 C-4 0 -4 0 0 0 Z " fill="#0594CE" transform="translate(167,399)"/>
<path d="M0 0 C1.9375 1.1875 1.9375 1.1875 3 3 C2.77669287 6.64734979 2.61627165 8.38372835 0 11 C-1.875 11.30078125 -1.875 11.30078125 -4 11.3125 C-4.70125 11.32925781 -5.4025 11.34601563 -6.125 11.36328125 C-6.74375 11.24339844 -7.3625 11.12351562 -8 11 C-10.31361802 7.52957297 -10.51020728 6.08165827 -10 2 C-6.95385927 -1.63193703 -4.33992064 -1.29274232 0 0 Z " fill="#0E0E0E" transform="translate(187,448)"/>
<path d="M0 0 C6.07793107 1.59183909 10.10256561 4.47008748 13.875 9.5 C15.10117831 12.2248407 15.25316792 14.04637429 15 17 C11.66590928 17 9.61134706 16.55312353 7.11328125 14.29296875 C0 6.25511006 0 6.25511006 0 0 Z " fill="#BEAA9C" transform="translate(175,153)"/>
<path d="M0 0 C3.42009706 1.14003235 4.28869442 2.22170198 6.5625 4.9375 C8.33130568 7.03343963 10.05994888 9.05994888 12 11 C5.34362157 12.23839599 -1.2471936 12.09139136 -8 12 C-7.04532436 10.37284844 -6.08613152 8.74834654 -5.125 7.125 C-4.59132812 6.22007812 -4.05765625 5.31515625 -3.5078125 4.3828125 C-2 2 -2 2 0 0 Z " fill="#0596D1" transform="translate(153,412)"/>
<path d="M0 0 C2.41405333 0.97867027 3.6655685 1.94384608 5.3125 3.9375 C4.21351298 7.23446105 3.36652613 7.98420589 0.75 10.125 C0.10933594 10.65480469 -0.53132812 11.18460938 -1.19140625 11.73046875 C-1.68511719 12.12878906 -2.17882812 12.52710938 -2.6875 12.9375 C-4.625 12.125 -4.625 12.125 -6.6875 10.9375 C-7.0175 9.9475 -7.3475 8.9575 -7.6875 7.9375 C-8.3475 7.9375 -9.0075 7.9375 -9.6875 7.9375 C-9.5625 6.1875 -9.5625 6.1875 -8.6875 3.9375 C-3.89728593 -0.09063456 -3.89728593 -0.09063456 0 0 Z " fill="#858585" transform="translate(211.6875,516.0625)"/>
<path d="M0 0 C3.3 0 6.6 0 10 0 C13.80573507 6.30324871 15.06861755 11.61908344 14 19 C13.34 19.66 12.68 20.32 12 21 C11.67 18.36 11.34 15.72 11 13 C10.21625 13.04125 9.4325 13.0825 8.625 13.125 C6 13 6 13 4 11 C4 9.68 4 8.36 4 7 C4.66 6.67 5.32 6.34 6 6 C6 4.35 6 2.7 6 1 C4.02 1 2.04 1 0 1 C0 0.67 0 0.34 0 0 Z " fill="#9D9E9A" transform="translate(225,470)"/>
<path d="M0 0 C0.87527344 0.19078125 1.75054687 0.3815625 2.65234375 0.578125 C3.53019531 0.75859375 4.40804688 0.9390625 5.3125 1.125 C7.58984375 1.828125 7.58984375 1.828125 9.58984375 3.828125 C5.9470195 5.07435435 2.28941775 6.20381373 -1.41015625 7.265625 C-5.31632185 8.42213324 -8.83136936 9.85037435 -12.41015625 11.828125 C-12.74015625 10.178125 -13.07015625 8.528125 -13.41015625 6.828125 C-12.86746094 6.49039063 -12.32476562 6.15265625 -11.765625 5.8046875 C-11.05019531 5.35867187 -10.33476562 4.91265625 -9.59765625 4.453125 C-8.88996094 4.01226562 -8.18226563 3.57140625 -7.453125 3.1171875 C-2.25769091 -0.16100227 -2.25769091 -0.16100227 0 0 Z " fill="#8689A6" transform="translate(448.41015625,194.171875)"/>
<path d="M0 0 C3.45139967 1.24633877 6.3696539 2.40359385 9 5 C9.20703125 7.7421875 9.20703125 7.7421875 8.8125 10.875 C8.69519531 11.90367187 8.57789063 12.93234375 8.45703125 13.9921875 C8.04811022 16.68337721 7.56489034 19.33764729 7 22 C1.93976443 16.93976443 0.65170683 7.0058484 0 0 Z " fill="#0C5978" transform="translate(143,437)"/>
<path d="M0 0 C0 1.65 0 3.3 0 5 C-3.1653986 6.5826993 -6.64641509 6.65696549 -10.125 7.0625 C-10.87910156 7.15337891 -11.63320313 7.24425781 -12.41015625 7.33789062 C-14.27304188 7.56190852 -16.13647252 7.78138573 -18 8 C-18 6.02 -18 4.04 -18 2 C-16.12612523 1.6603981 -14.25083303 1.32861309 -12.375 1 C-11.33085937 0.814375 -10.28671875 0.62875 -9.2109375 0.4375 C-6.09425135 0.01284203 -3.14069188 -0.07545206 0 0 Z " fill="#ACA598" transform="translate(369,437)"/>
<path d="M0 0 C-0.33 1.65 -0.66 3.3 -1 5 C-3.41575607 5.50478485 -5.83244361 6.00397642 -8.25 6.5 C-8.93191406 6.64308594 -9.61382812 6.78617187 -10.31640625 6.93359375 C-13.64633121 7.61251049 -16.58332551 8 -20 8 C-20 6.35 -20 4.7 -20 3 C-13.36857149 0.51321431 -7.05292315 -0.17632308 0 0 Z " fill="#1E1D19" transform="translate(399,432)"/>
<path d="M0 0 C0.33 0 0.66 0 1 0 C0.67 7.92 0.34 15.84 0 24 C-1.32 24.33 -2.64 24.66 -4 25 C-6.44926037 15.85216005 -6.14628508 10.42394252 -1.3828125 2.16796875 C-0.92648437 1.45253906 -0.47015625 0.73710937 0 0 Z " fill="#183A24" transform="translate(401,398)"/>
<path d="M0 0 C5.12524666 0.63315791 9.96530771 1.68160656 14.9375 3.0625 C15.96327148 3.3419043 15.96327148 3.3419043 17.00976562 3.62695312 C18.67420293 4.08089057 20.33725312 4.53990916 22 5 C21.67 5.99 21.34 6.98 21 8 C7.3667426 7.22095672 7.3667426 7.22095672 1 5 C0.67 3.35 0.34 1.7 0 0 Z " fill="#11130E" transform="translate(228,435)"/>
<path d="M0 0 C2.5625 0.3125 2.5625 0.3125 4.4375 1.5 C5.5625 3.3125 5.5625 3.3125 5.4375 5.8125 C4.49624198 8.50180863 3.96223442 9.76981359 1.5625 11.3125 C-2.85855263 10.89144737 -2.85855263 10.89144737 -4.4375 9.3125 C-4.625 5.875 -4.625 5.875 -4.4375 2.3125 C-2.4375 0.3125 -2.4375 0.3125 0 0 Z " fill="#0E0E0E" transform="translate(204.4375,432.6875)"/>
<path d="M0 0 C-0.31929993 5.26844884 -3.27366826 8.54110834 -7 12 C-9.875 13.4375 -9.875 13.4375 -12 14 C-11.63303189 6.7829605 -11.63303189 6.7829605 -8.625 3.0625 C-5.56496032 0.65818311 -3.88358581 0 0 0 Z " fill="#3F403F" transform="translate(237,518)"/>
<path d="M0 0 C2.36067035 1.96955337 4.68544948 3.97650074 7 6 C7.59425781 6.50273438 8.18851563 7.00546875 8.80078125 7.5234375 C10.4375 9 10.4375 9 13 12 C13 13.98 13 15.96 13 18 C8.71 17.67 4.42 17.34 0 17 C0 16.67 0 16.34 0 16 C2.31 16 4.62 16 7 16 C7 13.69 7 11.38 7 9 C6.1028125 8.566875 6.1028125 8.566875 5.1875 8.125 C3 7 3 7 0 5 C-0.1875 2.375 -0.1875 2.375 0 0 Z " fill="#AFB0AC" transform="translate(170,511)"/>
<path d="M0 0 C2.53533725 1.86814324 4.70281816 4.19500566 6.9296875 6.421875 C-4.4553125 5.926875 -4.4553125 5.926875 -16.0703125 5.421875 C-13.604491 2.9560535 -11.48242717 2.31312264 -8.1953125 1.171875 C-6.62136719 0.60726562 -6.62136719 0.60726562 -5.015625 0.03125 C-2.0703125 -0.578125 -2.0703125 -0.578125 0 0 Z " fill="#182DB0" transform="translate(359.0703125,237.578125)"/>
<path d="M0 0 C0.66 0.33 1.32 0.66 2 1 C2.34375 2.92578125 2.34375 2.92578125 2.5 5.3125 C2.72437865 8.70622701 3.31526681 11.03133709 5 14 C0.25 13.25 0.25 13.25 -2 11 C-2.265625 8.90625 -2.265625 8.90625 -2.25 6.5 C-2.25515625 5.7059375 -2.2603125 4.911875 -2.265625 4.09375 C-2 2 -2 2 0 0 Z " fill="#222322" transform="translate(128,462)"/>
<path d="M0 0 C2.82928932 2.55071314 4.67893264 5.46621272 6.6875 8.6875 C7.31011719 9.68136719 7.93273437 10.67523438 8.57421875 11.69921875 C9.04472656 12.45847656 9.51523438 13.21773438 10 14 C1.99561404 11.37938596 1.99561404 11.37938596 0 9 C-0.33403659 5.97211997 -0.2289126 3.03309189 0 0 Z " fill="#9FA09C" transform="translate(134,452)"/>
<path d="M0 0 C0.33 0.66 0.66 1.32 1 2 C1.66 2 2.32 2 3 2 C4.7143618 3.95927063 6.38405168 5.95880212 8 8 C7.01 9.485 7.01 9.485 6 11 C4.68 10.67 3.36 10.34 2 10 C2 9.34 2 8.68 2 8 C1.34 8 0.68 8 0 8 C0 7.34 0 6.68 0 6 C-0.66 6 -1.32 6 -2 6 C-1.125 1.125 -1.125 1.125 0 0 Z " fill="#414241" transform="translate(201,522)"/>
<path d="M0 0 C1.65 0.33 3.3 0.66 5 1 C5 3.64 5 6.28 5 9 C3.02 9 1.04 9 -1 9 C-0.67 6.03 -0.34 3.06 0 0 Z " fill="#838382" transform="translate(200,543)"/>
<path d="M0 0 C0.66 0 1.32 0 2 0 C4.32617985 3.63465602 4.31404687 6.76036719 4 11 C3.34 11.66 2.68 12.32 2 13 C1.01 13 0.02 13 -1 13 C-0.67 8.71 -0.34 4.42 0 0 Z " fill="#3E3E3E" transform="translate(220,543)"/>
<path d="M0 0 C0.625 1.875 0.625 1.875 1 4 C0.34 4.66 -0.32 5.32 -1 6 C-3.625 5.625 -3.625 5.625 -6 5 C-6.33 3.35 -6.66 1.7 -7 0 C-4.3333581 -1.33332095 -2.83319697 -0.67102033 0 0 Z " fill="#151515" transform="translate(236,477)"/>
<path d="M0 0 C2.89504691 0.55337919 4.21643261 2.0711289 5.94140625 4.37109375 C0.78969002 4.46147474 -3.97772579 4.21790508 -9.05859375 3.37109375 C-6.739281 -0.10787538 -3.99636234 -0.12511632 0 0 Z " fill="#068CC3" transform="translate(123.05859375,535.62890625)"/>
<path d="M0 0 C1.299375 0.7115625 1.299375 0.7115625 2.625 1.4375 C5.85387374 2.93234895 8.49033826 3.58218313 12 4 C10 6 10 6 6.9609375 6.1953125 C5.77757812 6.17210937 4.59421875 6.14890625 3.375 6.125 C2.18648437 6.10695313 0.99796875 6.08890625 -0.2265625 6.0703125 C-1.14179688 6.04710937 -2.05703125 6.02390625 -3 6 C-2.01 4.02 -1.02 2.04 0 0 Z " fill="#0D5F81" transform="translate(148,418)"/>
<path d="M0 0 C-1.24962896 4.4778371 -2.74148594 7.64274309 -6 11 C-6.99 11 -7.98 11 -9 11 C-8.40300869 7.66864109 -7.27987719 5.78724333 -5.0625 3.25 C-4.53785156 2.63640625 -4.01320312 2.0228125 -3.47265625 1.390625 C-2 0 -2 0 0 0 Z " fill="#3B3C3B" transform="translate(220,527)"/>
<path d="M0 0 C7.425 0.99 7.425 0.99 15 2 C9.99705015 5.75221239 9.99705015 5.75221239 7 6 C5.078125 5.0390625 5.078125 5.0390625 3.25 3.625 C2.63640625 3.16351563 2.0228125 2.70203125 1.390625 2.2265625 C0.93171875 1.82179688 0.4728125 1.41703125 0 1 C0 0.67 0 0.34 0 0 Z " fill="#A3A4A1" transform="translate(208,503)"/>
<path d="M0 0 C2.31 0.33 4.62 0.66 7 1 C7.33 4.3 7.66 7.6 8 11 C2.19794344 5.35475578 2.19794344 5.35475578 0 2 C0 1.34 0 0.68 0 0 Z " fill="#454236" transform="translate(213,422)"/>
<path d="M0 0 C0.33 0 0.66 0 1 0 C1.0272415 1.41655793 1.04650467 2.83327045 1.0625 4.25 C1.07410156 5.03890625 1.08570313 5.8278125 1.09765625 6.640625 C1.00385306 8.90691002 0.63241063 10.8288895 0 13 C-1.65 13 -3.3 13 -5 13 C-5.33 11.35 -5.66 9.7 -6 8 C-4.02 8 -2.04 8 0 8 C0 5.36 0 2.72 0 0 Z " fill="#414141" transform="translate(205,544)"/>
<path d="M0 0 C2.8125 -0.3125 2.8125 -0.3125 6 0 C7.875 2.5 7.875 2.5 9 5 C7.35 5.66 5.7 6.32 4 7 C0 2.25 0 2.25 0 0 Z " fill="#7F7F7E" transform="translate(224,509)"/>
<path d="M0 0 C2.57112831 1.76765071 3.07659703 3.45089059 4 6.375 C2.68 6.705 1.36 7.035 0 7.375 C-4 2.625 -4 2.625 -4 0.375 C-2 -0.625 -2 -0.625 0 0 Z " fill="#424242" transform="translate(224,510.625)"/>
<path d="M0 0 C0.66 0 1.32 0 2 0 C2.05391993 1.79133978 2.09275571 3.58313899 2.125 5.375 C2.14820313 6.37273437 2.17140625 7.37046875 2.1953125 8.3984375 C2 11 2 11 0 13 C-0.39222105 11.58800422 -0.76311059 10.17007236 -1.125 8.75 C-1.33382812 7.96109375 -1.54265625 7.1721875 -1.7578125 6.359375 C-2.04314411 3.5796929 -1.44977894 2.34112451 0 0 Z " fill="#AAABA7" transform="translate(237,478)"/>
<path d="M0 0 C1.32 0.33 2.64 0.66 4 1 C2.44396229 4.81936528 0.04395069 7.26044438 -3 10 C-3.66 10 -4.32 10 -5 10 C-3.55746343 6.63408134 -1.66735273 4.48952921 1 2 C0.67 1.34 0.34 0.68 0 0 Z " fill="#153009" transform="translate(165,295)"/>
<path d="M0 0 C1.2077558 3.62326739 0.54311128 4.64146369 -1 8 C-2.98 7.34 -4.96 6.68 -7 6 C-2.25 1.125 -2.25 1.125 0 0 Z " fill="#A2A39F" transform="translate(198,400)"/>
<path d="M0 0 C1.98 0.495 1.98 0.495 4 1 C3.67 2.65 3.34 4.3 3 6 C1.68 5.67 0.36 5.34 -1 5 C-0.67 3.35 -0.34 1.7 0 0 Z " fill="#191919" transform="translate(219,485)"/>
<path d="M0 0 C2.09749995 2.35968744 2.96905704 3.54616994 3.1875 6.75 C3.125625 7.4925 3.06375 8.235 3 9 C2.01 9 1.02 9 0 9 C-1.125 2.25 -1.125 2.25 0 0 Z " fill="#BEA99C" transform="translate(207,164)"/>
<path d="M0 0 C3.63 0 7.26 0 11 0 C11 0.33 11 0.66 11 1 C8.03 1 5.06 1 2 1 C1.67 2.32 1.34 3.64 1 5 C0.34 5 -0.32 5 -1 5 C-0.67 3.35 -0.34 1.7 0 0 Z " fill="#495C63" transform="translate(290,261)"/>
<path d="M0 0 C1.65 1.65 3.3 3.3 5 5 C1.30581799 5 -0.77836178 3.71820705 -4 2 C-2.68 1.34 -1.36 0.68 0 0 Z " fill="#ACADA9" transform="translate(185,487)"/>
<path d="M0 0 C0.99 0 1.98 0 3 0 C3 2.31 3 4.62 3 7 C1.5 5.75 1.5 5.75 0 4 C0 2.68 0 1.36 0 0 Z " fill="#068BC1" transform="translate(145,445)"/>
</svg>
