<?xml version="1.0" encoding="UTF-8"?>
<svg version="1.1" xmlns="http://www.w3.org/2000/svg" width="600" height="600">
<path d="M0 0 C6.52745635 5.19229483 11.21280474 10.05586798 13.75 18.1875 C13.75 19.1775 13.75 20.1675 13.75 21.1875 C14.62736816 20.8318396 14.62736816 20.8318396 15.52246094 20.46899414 C18.18054521 19.39326606 20.84024686 18.32159476 23.5 17.25 C24.42039062 16.87681641 25.34078125 16.50363281 26.2890625 16.11914062 C27.17851562 15.76142578 28.06796875 15.40371094 28.984375 15.03515625 C29.80131836 14.70523682 30.61826172 14.37531738 31.45996094 14.03540039 C35.99038242 12.35798527 39.88541509 11.76078203 44.75 12.1875 C47.50329021 13.98312405 49.27627461 15.24004922 50.75 18.1875 C51.27124108 22.00993458 51.04371293 23.73306433 48.9296875 27.00390625 C45.02826087 31.45813863 39.71404646 33.76135155 34.5 36.375 C33.50097656 36.89513672 32.50195312 37.41527344 31.47265625 37.95117188 C17.33270474 45.1875 17.33270474 45.1875 10.75 45.1875 C10.52054687 46.05375 10.29109375 46.92 10.0546875 47.8125 C6.92654137 55.90447082 -0.56460521 62.73856713 -8.125 66.75 C-23.08080546 73.25002314 -41.760789 75.24849561 -57.25 69.1875 C-62.08800414 66.78816461 -66.21962556 64.73306166 -69.25 60.1875 C-78.61616956 64.49759573 -87.01233429 73.87747685 -91.25 83.1875 C-90.73695313 83.043125 -90.22390625 82.89875 -89.6953125 82.75 C-76.58717725 79.57227024 -61.84111908 79.41465607 -49.875 86.0625 C-44.17412734 90.67749215 -40.89676442 96.05717985 -39.25 103.1875 C-38.95038225 106.39871415 -38.8812277 109.58841888 -38.875 112.8125 C-38.87258301 114.01156982 -38.87258301 114.01156982 -38.87011719 115.23486328 C-38.96792182 120.50218609 -39.80141526 125.12324773 -41.25 130.1875 C-40.73203857 130.44853516 -40.21407715 130.70957031 -39.68041992 130.97851562 C-25.33433253 138.25106331 -12.97667848 146.07120069 -1.25 157.1875 C0.03777344 158.39599609 0.03777344 158.39599609 1.3515625 159.62890625 C7.59099092 165.65155694 12.64190943 171.98620558 17.08984375 179.4296875 C20.04774168 184.24806036 23.43799159 187.85704856 27.6875 191.5625 C37.41442912 200.12476915 42.93360999 209.76840024 44.0625 222.79296875 C44.41633385 233.6401877 42.41531039 242.26373992 36.5 251.375 C33.41102581 256.31267844 33.02833014 259.48794826 33.75 265.1875 C33.90663571 266.56115399 34.06284736 267.93485637 34.21875 269.30859375 C34.68444272 273.27486011 35.20631409 277.2312141 35.75 281.1875 C36.74 281.5175 37.73 281.8475 38.75 282.1875 C47.38856316 299.46462632 42.44226229 333.24957482 40.5078125 352.09375 C40.37644394 353.3859848 40.24507538 354.6782196 40.10972595 356.00961304 C38.75032795 369.05575568 36.88561412 382.02248793 34.89819336 394.98681641 C34.30747573 398.84531797 33.73012502 402.70565736 33.15429688 406.56640625 C31.37754654 418.36171225 29.53827889 430.11663615 27.02796936 441.78140259 C25.93567989 446.9059047 25.26299256 451.97127054 24.75 457.1875 C25.57371094 457.27644531 26.39742188 457.36539062 27.24609375 457.45703125 C31.493516 458.34250278 34.95366152 459.94017622 38.8125 461.875 C39.50666016 462.20177734 40.20082031 462.52855469 40.91601562 462.86523438 C46.42024775 465.59905527 50.39611546 468.80278864 52.75 474.6875 C52.75 478.9251475 51.22975872 481.6601351 48.29296875 484.69140625 C13.90833008 513.38272784 -56.05061486 508.65104295 -97.8125 506.4375 C-99.00332184 506.37613861 -99.00332184 506.37613861 -100.21820068 506.3135376 C-112.74864403 505.65018878 -125.08976468 504.40650767 -137.49438477 502.50878906 C-147.85966884 500.94293334 -157.46667104 501.08316009 -167.88867188 501.95166016 C-193.32590028 503.73640468 -227.81069306 505.16938324 -251.25 493.1875 C-254.90092337 489.91887227 -256.13782617 488.3279339 -256.625 483.375 C-256.55420964 480.11274435 -256.29912838 479.25955496 -254.375 476.4375 C-246.84548458 471.0162489 -237.97708584 469.24136555 -229 467.5625 C-227.90695557 467.35085205 -226.81391113 467.1392041 -225.68774414 466.92114258 C-217.90511855 465.43662218 -210.11859011 464.13060472 -202.25 463.1875 C-198.56608811 453.71213593 -195.63405729 444.10695476 -197.72265625 433.87109375 C-198.37690797 430.54167943 -198.59105831 427.25989445 -198.8125 423.875 C-198.89628906 422.62074219 -198.98007813 421.36648438 -199.06640625 420.07421875 C-199.12699219 419.12160156 -199.18757813 418.16898437 -199.25 417.1875 C-200.38211434 419.058213 -201.50538095 420.93428191 -202.625 422.8125 C-203.25148437 423.85664063 -203.87796875 424.90078125 -204.5234375 425.9765625 C-208.00836453 432.45758063 -208.81717712 438.7185243 -209.6875 445.9453125 C-210.18359281 448.80473632 -210.77836343 450.72250874 -212.25 453.1875 C-215.0625 453.5 -215.0625 453.5 -218.25 453.1875 C-221.59018009 449.50178404 -222.36411794 445.0413162 -222.25 440.1875 C-220.66546467 427.41891435 -215.98193446 417.54314407 -207.25 408.1875 C-207.78109375 407.7028125 -208.3121875 407.218125 -208.859375 406.71875 C-225.00873437 391.39454038 -224.46554841 367.15006377 -225.25 346.1875 C-225.42512072 339.36185141 -225.4389164 332.53456091 -225.453125 325.70703125 C-225.45595238 324.77139532 -225.45877975 323.83575939 -225.46169281 322.87177086 C-225.47652407 317.93314728 -225.48585804 312.99455177 -225.49023438 308.0559082 C-225.49573865 303.00654766 -225.5198544 297.95745401 -225.54820633 292.90817738 C-225.56695727 288.97270472 -225.57204459 285.03729537 -225.57357025 281.10178185 C-225.57656216 279.24134529 -225.58447056 277.38090888 -225.59775543 275.52051735 C-225.82016861 242.02522171 -225.82016861 242.02522171 -214.43359375 230.3203125 C-205.9361184 223.41933252 -195.61954729 220.60573052 -184.77734375 221.359375 C-182.92758696 221.58121532 -181.0867184 221.87560442 -179.25 222.1875 C-179.21334229 221.53338135 -179.17668457 220.8792627 -179.13891602 220.20532227 C-178.61663563 212.89662482 -177.20037678 206.15988601 -175.1875 199.125 C-174.87804443 198.03662842 -174.56858887 196.94825684 -174.24975586 195.8269043 C-169.1396557 178.4546083 -161.41463353 160.7041375 -149.40234375 146.95703125 C-148.83193359 146.08111328 -148.83193359 146.08111328 -148.25 145.1875 C-148.58 144.1975 -148.91 143.2075 -149.25 142.1875 C-149.65234375 138.859375 -149.65234375 138.859375 -149.25 135.1875 C-147.47106907 132.93599351 -145.93181951 131.29591663 -143.8125 129.4375 C-142.69932476 128.39466681 -141.589991 127.34771914 -140.484375 126.296875 C-139.65776367 125.51666992 -139.65776367 125.51666992 -138.81445312 124.72070312 C-134.90027238 120.88470826 -131.60560281 116.50714339 -128.25 112.1875 C-127.58097656 111.35863281 -126.91195312 110.52976562 -126.22265625 109.67578125 C-120.10258138 101.86898183 -114.99358472 93.48519626 -109.7746582 85.06176758 C-96.75466634 64.06384759 -96.75466634 64.06384759 -88.78125 56.67578125 C-87.1419133 55.24607193 -87.1419133 55.24607193 -86.25 53.1875 C-97.95641787 50.93835027 -104.68365089 55.79123139 -114.25 62.1875 C-114.96414063 62.6928125 -115.67828125 63.198125 -116.4140625 63.71875 C-121.080457 66.91643866 -125.47895688 68.77161368 -131.25 68.1875 C-133.4375 66.625 -133.4375 66.625 -134.25 64.1875 C-131.92386075 54.63324445 -123.38906296 47.23686595 -115.25 42.1875 C-107.30254243 37.50279894 -99.89623425 33.82367737 -90.546875 35.7421875 C-86.56456754 36.87167236 -82.91904104 38.26921142 -79.25 40.1875 C-79.09144531 39.22070312 -78.93289063 38.25390625 -78.76953125 37.2578125 C-76.33281193 23.28356911 -71.57621219 12.20852565 -59.83203125 3.3671875 C-42.18016654 -7.80203691 -18.44185664 -10.28488159 0 0 Z M-100.25 96.1875 C-100.86746094 97.21488281 -101.48492187 98.24226563 -102.12109375 99.30078125 C-107.30181056 107.81387014 -112.66352909 115.67828679 -119.25 123.1875 C-115.63655542 124.39198153 -113.57222823 123.55795687 -109.96191406 122.69433594 C-104.72217972 121.71506978 -99.44033562 121.80663804 -94.125 121.8125 C-92.90973633 121.81121094 -91.69447266 121.80992187 -90.44238281 121.80859375 C-78.78339112 121.94229081 -67.61487126 123.68416573 -56.25 126.1875 C-55.90552351 124.46757946 -55.57006363 122.74585184 -55.23828125 121.0234375 C-55.05048096 120.0648584 -54.86268066 119.1062793 -54.66918945 118.11865234 C-53.87573816 112.57050078 -54.33751189 107.44470744 -56.4375 102.25 C-59.6601178 98.58288319 -63.09233193 97.29012604 -67.9128418 96.86279297 C-69.25846657 96.86993797 -70.6040771 96.89293125 -71.94921875 96.9296875 C-73.02451591 96.93961227 -73.02451591 96.93961227 -74.12153625 96.94973755 C-76.39397687 96.97299033 -78.6654121 97.01668691 -80.9375 97.0625 C-83.22017533 97.09762178 -85.50279513 97.12839313 -87.78559875 97.15383911 C-89.20136997 97.17075308 -90.61708423 97.19384318 -92.03263855 97.22384644 C-95.07934093 97.27022288 -97.3305131 97.1606623 -100.25 96.1875 Z M-179.25 412.1875 C-178.28114628 413.87246298 -177.28013277 415.53928756 -176.25 417.1875 C-175.92 417.1875 -175.59 417.1875 -175.25 417.1875 C-175.25 415.5375 -175.25 413.8875 -175.25 412.1875 C-176.57 412.1875 -177.89 412.1875 -179.25 412.1875 Z M-72.25 413.1875 C-73.71098845 416.1094769 -73.36134901 418.68643475 -73.34765625 421.9453125 C-73.3462413 422.60836395 -73.34482635 423.27141541 -73.34336853 423.95455933 C-73.33776754 426.07391863 -73.325215 428.19317259 -73.3125 430.3125 C-73.30748512 431.74869639 -73.30292219 433.18489444 -73.29882812 434.62109375 C-73.28864833 438.14330248 -73.26907338 441.66528321 -73.25 445.1875 C-67.97 445.1875 -62.69 445.1875 -57.25 445.1875 C-57.91 434.6275 -58.57 424.0675 -59.25 413.1875 C-63.54 413.1875 -67.83 413.1875 -72.25 413.1875 Z M-186.25 424.1875 C-186.30410687 425.95799689 -186.34284119 427.72896849 -186.375 429.5 C-186.39820313 430.48613281 -186.42140625 431.47226562 -186.4453125 432.48828125 C-186.45682639 435.41156527 -186.45682639 435.41156527 -184.25 438.1875 C-181.61569555 439.63806981 -181.61569555 439.63806981 -178.625 440.875 C-177.62210938 441.31199219 -176.61921875 441.74898438 -175.5859375 442.19921875 C-174.81507813 442.52535156 -174.04421875 442.85148437 -173.25 443.1875 C-172.81780035 440.10807748 -172.56734604 438.16303751 -173.25 435.1875 C-175.56574574 432.37592549 -178.31922561 430.32734452 -181.25 428.1875 C-182.24 427.383125 -183.23 426.57875 -184.25 425.75 C-184.91 425.234375 -185.57 424.71875 -186.25 424.1875 Z M-185.25 451.1875 C-186.735 457.6225 -186.735 457.6225 -188.25 464.1875 C-184.62 462.5375 -180.99 460.8875 -177.25 459.1875 C-179.03601804 455.61546392 -180.31686817 453.75399035 -183.25 451.1875 C-183.91 451.1875 -184.57 451.1875 -185.25 451.1875 Z " fill="#0E110E" transform="translate(378.25,67.8125)"/>
<path d="M0 0 C1.88512349 0.57783755 3.78325326 1.11369661 5.6875 1.625 C16.91911585 5.0194439 27.10682995 10.37617486 36.6875 17.125 C37.25138428 17.52025879 37.81526855 17.91551758 38.39624023 18.32275391 C42.27890074 21.17093799 44.99152286 24.30092256 48 28 C46.75202637 28.02505615 45.50405273 28.0501123 44.21826172 28.07592773 C39.47292207 28.17194703 34.72766498 28.27164644 29.98242188 28.37231445 C27.9502153 28.41494481 25.91798904 28.4566496 23.88574219 28.49731445 C12.9227007 28.71733585 1.96383713 28.99262588 -8.9921875 29.44921875 C-9.88205353 29.48317245 -10.77191956 29.51712616 -11.68875122 29.55210876 C-21.13151009 29.97548491 -30.74533262 31.07028955 -39 36 C-48.94906039 48.56593484 -48.47003168 69.30380043 -46.72314453 84.39111328 C-44.43981373 99.23438285 -37.84264761 115.7329985 -25.4921875 124.8515625 C-5.19599798 137.84776015 23.2820221 139.20462319 46.3125 134.375 C53.19143299 132.81608673 59.3493827 130.40362979 65.62890625 127.171875 C68 126 68 126 70 126 C70.33774332 128.22850277 70.6700187 130.45783467 71 132.6875 C71.185625 133.92886719 71.37125 135.17023438 71.5625 136.44921875 C71.92211403 139.36787188 72.0351526 142.07134874 72 145 C68.71572929 146.12697377 65.4214536 147.2217294 62.125 148.3125 C61.22652344 148.62123047 60.32804688 148.92996094 59.40234375 149.24804688 C43.65591129 154.40636096 28.17674437 155.45295056 11.70288086 155.28125 C8.67353972 155.24985532 5.64472299 155.24023333 2.61523438 155.234375 C-2.12762904 155.21904273 -6.86639446 155.13954348 -11.60797119 155.03198242 C-13.64277159 155.00477629 -15.67833448 155.05033017 -17.71240234 155.11132812 C-26.47873838 155.10588066 -32.22537354 151.3958314 -39.40917969 146.84716797 C-44.11856855 143.87046919 -48.98657419 141.2878195 -53.9453125 138.75390625 C-54.78068542 138.32556488 -55.61605835 137.89722351 -56.47674561 137.4559021 C-58.1702582 136.59029598 -59.86486249 135.72682242 -61.56054688 134.86547852 C-64.16058001 133.54442208 -66.75630967 132.21518492 -69.3515625 130.88476562 C-71.02840565 130.0281755 -72.70548037 129.1720385 -74.3828125 128.31640625 C-75.14643097 127.92578506 -75.91004944 127.53516388 -76.69680786 127.13270569 C-85.72400387 122.53522953 -85.72400387 122.53522953 -95.4375 119.8125 C-96.73494141 119.57466797 -96.73494141 119.57466797 -98.05859375 119.33203125 C-98.69925781 119.22246094 -99.33992187 119.11289062 -100 119 C-100.86065462 80.270542 -95.94759176 32.15723049 -69 2 C-53.99924178 -12.60600143 -16.70135206 -11.13423471 0 0 Z " fill="#F1EF5D" transform="translate(316,215)"/>
<path d="M0 0 C4.59467325 1.4027597 8.78255685 3.27951452 13.03125 5.4921875 C13.69571136 5.83410629 14.36017273 6.17602509 15.04476929 6.52830505 C17.19908566 7.63897323 19.34977908 8.75642604 21.5 9.875 C22.23720276 10.25715668 22.97440552 10.63931335 23.73394775 11.03305054 C49.18084134 24.22501439 73.6053043 37.5543241 96.07128906 55.47998047 C99.44637598 58.13989074 102.93372997 60.63789912 106.42578125 63.140625 C109.33520439 65.24212032 112.19873168 67.39924789 115.0625 69.5625 C123.67832919 76.3273245 123.67832919 76.3273245 133 82 C129.78459895 90.57941122 123.45185232 100.77407384 115 105 C80.1530928 111.15081697 41.90060429 110.10012717 7 105 C6.87882813 104.03578125 6.75765625 103.0715625 6.6328125 102.078125 C6.46523437 100.81484375 6.29765625 99.5515625 6.125 98.25 C5.96257812 96.99703125 5.80015625 95.7440625 5.6328125 94.453125 C5.20846171 91.15965454 5.20846171 91.15965454 3.97938538 89.07385254 C2.84643161 86.6748183 2.73103271 85.00917105 2.69702148 82.36523438 C2.68037949 81.44907349 2.66373749 80.5329126 2.64659119 79.58898926 C2.63817703 78.6005603 2.62976288 77.61213135 2.62109375 76.59375 C2.60409927 75.55923706 2.5871048 74.52472412 2.56959534 73.4588623 C2.51649475 70.13930434 2.47631483 66.81975314 2.4375 63.5 C2.37854126 59.17700344 2.31423329 54.85411132 2.24609375 50.53125 C2.22944672 49.47260742 2.21279968 48.41396484 2.19564819 47.32324219 C2.07603905 40.49098906 1.8667485 33.66905386 1.53515625 26.84375 C1.49756699 26.04682739 1.45997772 25.24990479 1.42124939 24.42883301 C1.18116226 19.90218957 0.67529985 15.48676758 0 11 C-0.06252492 9.02171151 -0.08693365 7.04162549 -0.0625 5.0625 C-0.05347656 4.10472656 -0.04445312 3.14695312 -0.03515625 2.16015625 C-0.02355469 1.44730469 -0.01195312 0.73445313 0 0 Z " fill="#677989" transform="translate(213,346)"/>
<path d="M0 0 C1.40102463 -0.00855011 1.40102463 -0.00855011 2.83035278 -0.01727295 C4.79167574 -0.02664973 6.75301394 -0.03322745 8.71435547 -0.03710938 C11.68094797 -0.04682794 14.64685021 -0.077927 17.61328125 -0.109375 C32.89758193 -0.19451112 47.40889047 0.7915683 59.27734375 11.4921875 C63.00371052 15.62420939 64.8203125 19.66364619 64.8203125 25.203125 C65.4803125 25.203125 66.1403125 25.203125 66.8203125 25.203125 C67.6341856 30.23732395 68.03146181 35.16161572 68.0703125 40.265625 C68.0909375 40.94689453 68.1115625 41.62816406 68.1328125 42.33007812 C68.18693465 49.37272262 65.32277791 54.35963883 60.73828125 59.46484375 C49.01954516 70.08569417 34.09227838 69.52387042 19.2578125 69.390625 C17.63435962 69.38175189 16.01090582 69.37304506 14.38745117 69.36450195 C0.69114975 69.27304992 -12.86225708 69.04434001 -26.4296875 66.953125 C-27.12215576 66.85604248 -27.81462402 66.75895996 -28.52807617 66.65893555 C-33.80051783 65.73630702 -36.45097206 63.84144734 -40.1796875 60.203125 C-41.65317156 57.25615687 -41.74954601 54.12714298 -42.1171875 50.890625 C-42.69881307 45.89231497 -43.38867676 40.96598092 -44.3046875 36.015625 C-45.24223988 30.09267504 -45.39574369 24.24950734 -45.4296875 18.265625 C-45.43887207 17.36497314 -45.44805664 16.46432129 -45.45751953 15.53637695 C-45.4348735 10.69329692 -45.06649392 6.74793253 -43.1796875 2.203125 C-42.53531738 2.17806885 -41.89094727 2.1530127 -41.22705078 2.12719727 C-38.25279826 2.00977154 -35.27875179 1.887722 -32.3046875 1.765625 C-30.78488281 1.70665039 -30.78488281 1.70665039 -29.234375 1.64648438 C-28.22890625 1.60458984 -27.2234375 1.56269531 -26.1875 1.51953125 C-25.27629395 1.48287354 -24.36508789 1.44621582 -23.42626953 1.40844727 C-20.74703665 1.23900563 -18.10788965 0.98626775 -15.44042969 0.69604492 C-10.28571976 0.16761662 -5.17903327 0.02520676 0 0 Z " fill="#586F77" transform="translate(333.1796875,258.796875)"/>
<path d="M0 0 C1.41931824 -0.01123901 1.41931824 -0.01123901 2.86730957 -0.02270508 C18.61460334 -0.12519538 34.02043021 0.54567631 46.2734375 11.6796875 C51.09103315 16.98637915 52.07614132 22.45900375 52.8125 29.375 C39.03382879 33.82890335 25.05036907 36.78045823 10.8125 39.375 C9.84940918 39.55603271 8.88631836 39.73706543 7.89404297 39.92358398 C2.66385351 40.68975577 -2.57489924 40.63877383 -7.85327148 40.67016602 C-9.85228503 40.68730525 -11.85101094 40.73119557 -13.84960938 40.77539062 C-24.61723884 40.84527539 -34.0201133 39.05983178 -42.55078125 32.12109375 C-44.87371874 29.64292416 -45.9936406 27.09885544 -47.1796875 23.94140625 C-48.77558131 19.8774441 -50.94063242 16.10621307 -53.015625 12.26953125 C-54.31061119 9.07091536 -54.27621429 6.78961319 -54.1875 3.375 C-36.11017498 1.05676187 -18.22101698 0.05036592 0 0 Z " fill="#94C1D3" transform="translate(346.1875,258.625)"/>
<path d="M0 0 C0.78375 0.00451172 1.5675 0.00902344 2.375 0.01367188 C4.29170014 0.02535907 6.20836048 0.04329092 8.125 0.0625 C8.2573569 8.67899797 8.38785283 17.2955215 8.51615143 25.91208076 C8.57581885 29.91568478 8.63606157 33.9192782 8.69775391 37.92285156 C8.97030449 55.63705498 9.21269566 73.34554106 9.125 91.0625 C8.51011719 91.11438477 7.89523438 91.16626953 7.26171875 91.21972656 C6.45347656 91.29674805 5.64523438 91.37376953 4.8125 91.453125 C4.01199219 91.52563477 3.21148437 91.59814453 2.38671875 91.67285156 C-0.94990909 92.24768512 -2.65014 93.5595325 -4.875 96.0625 C-5.75443404 98.69710948 -5.75443404 98.69710948 -5.875 101.0625 C-3.61904437 101.96453655 -3.61904437 101.96453655 -0.875 102.0625 C1.66116697 100.21612299 1.66116697 100.21612299 3.875 97.625 C5.28398361 96.09704592 6.69867885 94.57428254 8.125 93.0625 C8.455 93.0625 8.785 93.0625 9.125 93.0625 C9.455 99.0025 9.785 104.9425 10.125 111.0625 C7.959375 111.145 5.79375 111.2275 3.5625 111.3125 C-2.46893579 111.72110081 -5.98394659 112.61653055 -10.875 116.0625 C-11.535 116.0625 -12.195 116.0625 -12.875 116.0625 C-15.85796092 93.81127755 -17.26512725 71.83204803 -17.1875 49.375 C-17.18468018 48.26186432 -17.18186035 47.14872864 -17.17895508 46.00186157 C-17.13547707 34.88246442 -16.94046749 23.77584605 -16.41796875 12.66796875 C-16.37996658 11.83646805 -16.34196442 11.00496735 -16.30281067 10.14826965 C-16.13140434 6.91638091 -15.90357108 4.14821324 -14.875 1.0625 C-9.85891475 0.0448597 -5.08891694 -0.05606434 0 0 Z " fill="#BE8728" transform="translate(188.875,307.9375)"/>
<path d="M0 0 C5.71847272 0.42002176 11.4140507 0.86244607 17.0859375 1.71875 C35.98469545 4.54675785 54.92854806 4.72879221 74 5 C73.86867676 5.89605957 73.73735352 6.79211914 73.60205078 7.71533203 C72.58076466 14.75929905 71.62586434 21.79718041 70.875 28.875 C70.78863281 29.67035156 70.70226562 30.46570313 70.61328125 31.28515625 C70.4067453 33.18987668 70.2030375 35.09490347 70 37 C47.46016541 42.35979082 25.72553582 42.30913095 3 38 C2.48964946 33.73033861 1.99364918 29.45912197 1.5 25.1875 C1.35691406 23.99189453 1.21382812 22.79628906 1.06640625 21.56445312 C0.23933818 14.33745358 -0.20108695 7.27357561 0 0 Z " fill="#293151" transform="translate(218,463)"/>
<path d="M0 0 C1.24943893 -0.00095673 2.49887787 -0.00191345 3.78617859 -0.00289917 C6.40880382 -0.00357448 9.03143079 -0.00176592 11.65405273 0.00244141 C15.61641288 0.00778512 19.57865899 0.00248108 23.54101562 -0.00390625 C35.18400081 -0.00706278 46.76701447 0.06338771 58.38305664 0.87890625 C66.04165955 1.37230568 73.71564652 1.50406261 81.38671875 1.6953125 C83.04362641 1.73868024 84.70052752 1.782299 86.35742188 1.82617188 C90.34628505 1.93126191 94.33521979 2.03301533 98.32421875 2.1328125 C95.77403118 6.71483503 93.50887112 10.32557325 89.69921875 14.0078125 C88.53519531 15.14863281 88.53519531 15.14863281 87.34765625 16.3125 C72.31627894 29.83493596 23.20557092 22.86048299 4.32421875 22.1328125 C-5.38783045 21.59839335 -15.05205016 20.53915641 -24.67578125 19.1328125 C-24.80855469 18.16859375 -24.94132813 17.204375 -25.078125 16.2109375 C-25.34302734 14.31601562 -25.34302734 14.31601562 -25.61328125 12.3828125 C-25.78730469 11.12984375 -25.96132812 9.876875 -26.140625 8.5859375 C-26.53752378 6.0249264 -27.0228754 3.62963925 -27.67578125 1.1328125 C-18.434169 0.36647886 -9.27188216 -0.01611072 0 0 Z " fill="#697A84" transform="translate(244.67578125,431.8671875)"/>
<path d="M0 0 C3.96217717 3.07640198 5.85806284 5.68803846 6.49609375 10.64453125 C6.67968479 19.60809373 5.26784492 25.88778355 -0.6015625 32.79296875 C-9.10548519 41.05192247 -18.91097644 42.35213286 -30.29736328 42.31591797 C-38.96256343 42.02996473 -46.13813134 39.63015308 -53.875 35.76171875 C-56.2619189 28.60096204 -56.06308261 19.21983399 -52.9375 12.32421875 C-47.83477243 3.70978259 -40.37874965 -1.45324203 -30.875 -4.23828125 C-20.13537243 -6.84824 -9.31475086 -6.15161671 0 0 Z " fill="#FBFBFB" transform="translate(369.875,82.23828125)"/>
<path d="M0 0 C0.33 0 0.66 0 1 0 C0.90654993 6.82802293 0.79911726 13.65573028 0.68261719 20.48339844 C0.64467587 22.79910477 0.60976703 25.11486309 0.578125 27.43066406 C0.39821753 40.44022273 -0.04116475 53.12931156 -2 66 C-2.21901242 67.75943031 -2.4310905 69.51975356 -2.6328125 71.28125 C-2.71660156 71.99667969 -2.80039062 72.71210938 -2.88671875 73.44921875 C-2.96535156 74.12597656 -3.04398437 74.80273438 -3.125 75.5 C-3.21136719 76.23863281 -3.29773438 76.97726562 -3.38671875 77.73828125 C-3.59171304 79.4921213 -3.79595132 81.24604969 -4 83 C-5.11761719 82.9484375 -6.23523438 82.896875 -7.38671875 82.84375 C-12.45673077 82.84375 -16.96369455 84.13018928 -21.8125 85.5 C-28.97640003 87.42290687 -35.53149805 88.77083162 -43 88 C-46.36695972 79.91549221 -47.03368585 71.55516884 -45 63 C-42.71484375 60.390625 -42.71484375 60.390625 -40 58 C-32.94935512 49.73851092 -27.16956511 40.72367136 -21.40917969 31.53979492 C-17.33802997 25.05978918 -13.14598133 18.68260234 -8.8125 12.375 C-8.00171997 11.19429932 -8.00171997 11.19429932 -7.17456055 9.98974609 C-2.16706887 2.73619424 -2.16706887 2.73619424 0 0 Z " fill="#B1C0D4" transform="translate(404,359)"/>
<path d="M0 0 C0.33 0 0.66 0 1 0 C1.16727069 5.60967622 0.54246673 10.83682856 -0.390625 16.36328125 C-0.53651062 17.23647507 -0.68239624 18.10966888 -0.83270264 19.00932312 C-1.14215766 20.84279594 -1.45497853 22.67570354 -1.77099609 24.50805664 C-2.25103747 27.31857414 -2.70569745 30.13251351 -3.16015625 32.94726562 C-3.46458999 34.73203692 -3.77052684 36.51655261 -4.078125 38.30078125 C-4.21059631 39.14345047 -4.34306763 39.98611969 -4.47955322 40.85432434 C-5.51846459 46.6348119 -5.51846459 46.6348119 -7.98046875 48.50195312 C-8.64691406 48.66630859 -9.31335938 48.83066406 -10 49 C-10.73734375 49.22042969 -11.4746875 49.44085938 -12.234375 49.66796875 C-20.59370386 51.39435188 -28.58267526 50.79353511 -37 50 C-38.37140137 49.8750415 -38.37140137 49.8750415 -39.77050781 49.74755859 C-45.84978222 49.19240616 -51.92585819 48.60865453 -58 48 C-59.23402862 43.22907044 -59.11265112 38.57530554 -59.0625 33.6875 C-59.05798828 32.85154297 -59.05347656 32.01558594 -59.04882812 31.15429688 C-59.03710548 29.10283351 -59.01917203 27.05140727 -59 25 C-58.28972656 24.68546875 -57.57945312 24.3709375 -56.84765625 24.046875 C-55.92855469 23.61890625 -55.00945312 23.1909375 -54.0625 22.75 C-53.14597656 22.33234375 -52.22945313 21.9146875 -51.28515625 21.484375 C-48.82736093 20.23537539 -48.82736093 20.23537539 -48.35717773 17.90722656 C-48.23930908 17.2778418 -48.12144043 16.64845703 -48 16 C-47.34628418 15.89977539 -46.69256836 15.79955078 -46.01904297 15.69628906 C-20.89068725 12.79311269 -20.89068725 12.79311269 0 0 Z " fill="#171F35" transform="translate(398,445)"/>
<path d="M0 0 C6.34024709 1.96079668 12.06328269 4.92793503 17.93334961 7.9675293 C19.81960459 8.94116721 21.71319166 9.89941195 23.60742188 10.85742188 C24.80776907 11.47563644 26.00765604 12.09474558 27.20703125 12.71484375 C28.2947583 13.27292725 29.38248535 13.83101074 30.50317383 14.40600586 C33 16 33 16 34 19 C33.76899369 21.07017192 33.46405673 23.13225884 33.125 25.1875 C31.46841758 36.0583001 31.37203998 47.0248205 31 58 C21.76 58 12.52 58 3 58 C2.86722656 55.19371094 2.73445312 52.38742187 2.59765625 49.49609375 C2.46604095 46.76224938 2.33329406 44.02846213 2.20043945 41.29467773 C2.10908761 39.40248185 2.01890246 37.51022925 1.92993164 35.61791992 C1.80144966 32.88965163 1.66869964 30.16161842 1.53515625 27.43359375 C1.49656998 26.59477158 1.4579837 25.7559494 1.41822815 24.89170837 C1.18420439 20.20548365 0.70726835 15.64400582 0 11 C-0.06252492 9.02171151 -0.08693365 7.04162549 -0.0625 5.0625 C-0.05347656 4.10472656 -0.04445312 3.14695312 -0.03515625 2.16015625 C-0.02355469 1.44730469 -0.01195312 0.73445313 0 0 Z " fill="#BCAA2B" transform="translate(213,346)"/>
<path d="M0 0 C1.63021117 1.00041576 3.23566888 2.04239953 4.8125 3.125 C5.60269531 3.66382813 6.39289063 4.20265625 7.20703125 4.7578125 C7.79871094 5.16773438 8.39039063 5.57765625 9 6 C7.125 10.875 7.125 10.875 6 12 C3.53224413 12.10141987 1.09321921 12.13966639 -1.375 12.1328125 C-2.13232422 12.13376923 -2.88964844 12.13472595 -3.66992188 12.13571167 C-5.28743573 12.13639474 -6.90495229 12.13453168 -8.52246094 12.13037109 C-10.93431259 12.1251424 -13.34596764 12.13024868 -15.7578125 12.13671875 C-17.33854206 12.13605569 -18.91927151 12.13476987 -20.5 12.1328125 C-21.19657715 12.13483673 -21.8931543 12.13686096 -22.61083984 12.13894653 C-27.7514923 12.11632246 -32.862853 11.837642 -37.99194336 11.51147461 C-46.87124923 10.95526053 -55.73439149 10.78161094 -64.62890625 10.68359375 C-66.24129162 10.66294252 -67.85367258 10.64194448 -69.46604919 10.62062073 C-73.64643713 10.56624092 -77.82686677 10.51647233 -82.00732422 10.46777344 C-86.29853896 10.4169316 -90.58969546 10.36157771 -94.88085938 10.30664062 C-103.25385657 10.2000928 -111.62690348 10.09843234 -120 10 C-120 6.37 -120 2.74 -120 -1 C-116.74958113 -0.88258943 -113.49987818 -0.75604348 -110.25 -0.625 C-109.36828125 -0.5940625 -108.4865625 -0.563125 -107.578125 -0.53125 C-102.95694569 -0.33870086 -98.36974633 -0.06258467 -93.77563477 0.4765625 C-80.22480747 2.05441751 -66.80591514 2.30748781 -53.16967773 2.26074219 C-49.41178595 2.24992599 -45.65436264 2.26075103 -41.89648438 2.2734375 C-39.47135313 2.27211723 -37.04622217 2.26955758 -34.62109375 2.265625 C-33.51567734 2.26967346 -32.41026093 2.27372192 -31.27134705 2.27789307 C-23.15127191 2.22940599 -15.28755941 1.58798497 -7.625 -1.25 C-4.24589088 -2.21545975 -3.13998151 -1.47928018 0 0 Z " fill="#D6F530" transform="translate(337,422)"/>
<path d="M0 0 C1.74265137 0.03335449 1.74265137 0.03335449 3.52050781 0.06738281 C26.73884495 0.73186982 26.73884495 0.73186982 35.6875 7.5625 C37.23774464 10.66298928 36.97742015 13.14144218 36.6875 16.5625 C34.77805208 20.07588418 33.56825115 21.28140921 29.75 22.5 C25.37978718 22.83687057 21.19790457 21.85601637 16.91015625 21.09375 C10.34611196 20.11812504 3.62652585 20.20805982 -2.99780273 20.16845703 C-10.58934673 20.00104592 -10.58934673 20.00104592 -14.46875 17.6484375 C-16.84598736 14.95893591 -17.26988092 13.9318654 -17.6875 10.3125 C-17.31418929 6.57939287 -16.66915472 4.61472257 -14.17675781 1.80615234 C-10.04231662 -0.95194659 -4.77617916 -0.16413453 0 0 Z " fill="#F7F8F8" transform="translate(342.3125,261.4375)"/>
<path d="M0 0 C7.3078352 3.6539176 14.28044975 7.1478567 21.125 11.5 C21.9190625 12.00265381 22.713125 12.50530762 23.53125 13.02319336 C33.51233582 19.46307966 43.58242208 26.58242208 52 35 C35.17 35 18.34 35 1 35 C0.505 17.675 0.505 17.675 0 0 Z " fill="#D4F231" transform="translate(262,371)"/>
<path d="M0 0 C0.33 0 0.66 0 1 0 C1.12528076 0.55236328 1.25056152 1.10472656 1.37963867 1.67382812 C5.24799242 18.61388426 9.94562499 34.70687034 16.36328125 50.8515625 C17.72349293 54.27503409 19.00969314 57.71844249 20.25 61.1875 C21.6867315 65.20043972 23.26898929 69.1052259 25 73 C20.35371631 71.5747596 16.09473645 69.64577694 11.75 67.5 C5.93624933 64.69338653 0.46636153 62.74553345 -6 62 C-6.46843299 40.92051566 -4.14808773 20.65590701 0 0 Z " fill="#BD8728" transform="translate(222,272)"/>
<path d="M0 0 C10.02864083 0.7661224 20.00884075 1.85656733 30 3 C30 3.33 30 3.66 30 4 C28.35 4 26.7 4 25 4 C25.16226074 4.54422607 25.32452148 5.08845215 25.49169922 5.64916992 C26.07834159 8.36232044 26.12962328 10.83706692 26.1328125 13.61328125 C26.13474609 15.2384668 26.13474609 15.2384668 26.13671875 16.89648438 C26.13285156 18.02376953 26.12898438 19.15105469 26.125 20.3125 C26.13080078 21.98602539 26.13080078 21.98602539 26.13671875 23.69335938 C26.13015026 29.23388464 25.99190164 34.54454096 25 40 C25.66 40.33 26.32 40.66 27 41 C23.93709203 40.69141842 20.87476048 40.37743707 17.8125 40.0625 C16.94818359 39.97548828 16.08386719 39.88847656 15.19335938 39.79882812 C14.35224609 39.71181641 13.51113281 39.62480469 12.64453125 39.53515625 C11.87471924 39.456604 11.10490723 39.37805176 10.31176758 39.29711914 C7.84429953 38.97998865 5.43345507 38.51379214 3 38 C2.48964946 33.73033861 1.99364918 29.45912197 1.5 25.1875 C1.35691406 23.99189453 1.21382812 22.79628906 1.06640625 21.56445312 C0.23933818 14.33745358 -0.20108695 7.27357561 0 0 Z " fill="#171F34" transform="translate(218,463)"/>
<path d="M0 0 C0.66 0.33 1.32 0.66 2 1 C-5.79209644 12.16314525 -13.76882276 23.15644558 -22 34 C-25.45703884 32.73603903 -28.23993132 31.29198368 -31.1875 29.09375 C-31.96303223 28.51915039 -32.73856445 27.94455078 -33.53759766 27.35253906 C-34.35019043 26.74120117 -35.1627832 26.12986328 -36 25.5 C-36.83708496 24.87577148 -37.67416992 24.25154297 -38.53662109 23.60839844 C-41.02935608 21.74541205 -43.51540751 19.87382638 -46 18 C-46.70543945 17.47083984 -47.41087891 16.94167969 -48.13769531 16.39648438 C-58.80762341 8.38475318 -58.80762341 8.38475318 -60 6 C-58.47584473 5.98598145 -58.47584473 5.98598145 -56.92089844 5.97167969 C-28.07650791 5.9572273 -28.07650791 5.9572273 0 0 Z " fill="#3F5AC5" transform="translate(374,379)"/>
<path d="M0 0 C2.60546875 1.92578125 2.60546875 1.92578125 5.1875 4.3125 C6.04730469 5.09238281 6.90710938 5.87226563 7.79296875 6.67578125 C12.19690772 11.31355769 12.45416032 15.06785769 12.3046875 21.3125 C11.77287154 26.00338953 9.79398712 28.41284904 6.33984375 31.46875 C1.66483993 34.92460498 -2.59961313 35.82329898 -8.375 35.55859375 C-13.37812215 34.49394127 -16.42618784 31.40576001 -19.16015625 27.2265625 C-21.08017078 22.13629143 -20.50233641 16.33344833 -20 11 C-17.42652484 5.4717941 -13.56481042 2.12210456 -8 -0.3125 C-4.69359201 -1.0702185 -3.21597714 -0.9909974 0 0 Z " fill="#CCD8DF" transform="translate(197,428)"/>
<path d="M0 0 C0.33 0 0.66 0 1 0 C1.16727069 5.60967622 0.54246673 10.83682856 -0.390625 16.36328125 C-0.53651062 17.23647507 -0.68239624 18.10966888 -0.83270264 19.00932312 C-1.14215766 20.84279594 -1.45497853 22.67570354 -1.77099609 24.50805664 C-2.25103747 27.31857414 -2.70569745 30.13251351 -3.16015625 32.94726562 C-3.46458999 34.73203692 -3.77052684 36.51655261 -4.078125 38.30078125 C-4.21059631 39.14345047 -4.34306763 39.98611969 -4.47955322 40.85432434 C-5.5176839 46.63046816 -5.5176839 46.63046816 -7.96386719 48.50463867 C-8.63579102 48.66810791 -9.30771484 48.83157715 -10 49 C-10.825 49.20625 -11.65 49.4125 -12.5 49.625 C-17.66539039 50.17843469 -22.81035617 50.07557734 -28 50 C-27.91435791 49.45287354 -27.82871582 48.90574707 -27.74047852 48.34204102 C-25.86690414 36.22642874 -24.46571156 24.25303164 -24 12 C-23.05898438 11.75765625 -22.11796875 11.5153125 -21.1484375 11.265625 C-19.90320313 10.93046875 -18.65796875 10.5953125 -17.375 10.25 C-16.14523437 9.92515625 -14.91546875 9.6003125 -13.6484375 9.265625 C-8.00294104 7.30723008 -4.10272146 4.2546741 0 0 Z " fill="#293150" transform="translate(398,445)"/>
<path d="M0 0 C0.33 1.32 0.66 2.64 1 4 C1.85335938 3.855625 2.70671875 3.71125 3.5859375 3.5625 C16.71536144 1.61338964 29.75126949 1.81823388 43 2 C42.34 7.94 41.68 13.88 41 20 C38.36 20 35.72 20 33 20 C30.47273983 20.40548217 30.47273983 20.40548217 28.23046875 21.09375 C27.40901367 21.31973877 26.58755859 21.54572754 25.74121094 21.77856445 C24.89848633 22.01663818 24.05576172 22.25471191 23.1875 22.5 C16.02359997 24.42290687 9.46850195 25.77083162 2 25 C-1.57849273 16.40757395 -1.00267437 9.06031058 0 0 Z " fill="#647787" transform="translate(359,422)"/>
<path d="M0 0 C3.35950823 0.46906341 6.70948453 0.9490389 10.05078125 1.53515625 C18.47215835 2.89669626 26.72916783 3.21561505 35.25 3.25 C36.88255737 3.26365601 36.88255737 3.26365601 38.5480957 3.27758789 C44.7653528 3.2544719 50.56726517 2.72674395 56.65136719 1.42871094 C59 1 59 1 63 1 C62.67 3.97 62.34 6.94 62 10 C58.31430633 11.24330733 54.62619213 12.47670965 50.9296875 13.6875 C48.7377799 14.40812716 46.59515094 15.15847303 44.4453125 16 C30.3105066 21.23138724 14.64385589 18.16299758 1 13 C0 12 0 12 -0.09765625 9.27734375 C-0.08605469 8.17519531 -0.07445312 7.07304688 -0.0625 5.9375 C-0.05347656 4.83277344 -0.04445312 3.72804688 -0.03515625 2.58984375 C-0.02355469 1.73519531 -0.01195312 0.88054687 0 0 Z " fill="#352A21" transform="translate(222,511)"/>
<path d="M0 0 C1.70618923 2.218046 3.24529906 4.40883176 4.6875 6.8125 C12.65038472 17.78836813 23.02860391 21.69666798 36 24 C39.66286015 24.45349697 43.31568323 24.78588139 47 25 C40.28011937 31.28633995 32.22339518 32.56368664 23.3125 32.5 C22.44834473 32.49863037 21.58418945 32.49726074 20.69384766 32.49584961 C11.95708439 32.28945025 4.79610789 29.89805395 -3 26 C-5.05733687 19.8279894 -5.11877802 11.45892942 -3.10546875 5.234375 C-2 3.0625 -2 3.0625 0 0 Z " fill="#B7BFDD" transform="translate(319,92)"/>
<path d="M0 0 C4.021875 0.0309375 4.021875 0.0309375 8.125 0.0625 C8.125 7.3225 8.125 14.5825 8.125 22.0625 C5.155 22.7225 2.185 23.3825 -0.875 24.0625 C-4.0440053 25.59720667 -4.0440053 25.59720667 -6.75 27.5 C-7.65492188 28.09683594 -8.55984375 28.69367188 -9.4921875 29.30859375 C-11.85352928 30.9498258 -11.85352928 30.9498258 -13.5703125 32.78515625 C-14.875 34.0625 -14.875 34.0625 -16.875 34.0625 C-16.75666798 29.84478161 -16.63241398 25.62729177 -16.50268555 21.40991211 C-16.45939207 19.97538997 -16.41771301 18.54081816 -16.37768555 17.10620117 C-16.31984733 15.0433048 -16.25619247 12.98065717 -16.19140625 10.91796875 C-16.15474854 9.67684326 -16.11809082 8.43571777 -16.08032227 7.15698242 C-15.875 4.0625 -15.875 4.0625 -14.875 1.0625 C-9.85918549 0.04491463 -5.08749767 -0.05560913 0 0 Z " fill="#EDEB58" transform="translate(188.875,307.9375)"/>
<path d="M0 0 C0.33 0 0.66 0 1 0 C0.67 12.87 0.34 25.74 0 39 C-8.58 39.33 -17.16 39.66 -26 40 C-19.24809758 27.62151222 -19.24809758 27.62151222 -15.80078125 22.59765625 C-15.06666016 21.52322266 -14.33253906 20.44878906 -13.57617188 19.34179688 C-12.4556543 17.71854492 -12.4556543 17.71854492 -11.3125 16.0625 C-10.54576932 14.94236836 -9.77949118 13.82192681 -9.01367188 12.70117188 C-2.16451133 2.70853076 -2.16451133 2.70853076 0 0 Z " fill="#D4F22E" transform="translate(404,359)"/>
<path d="M0 0 C12.56918277 0.45401991 25.03997124 1.15992175 37.54296875 2.54296875 C41.33996839 2.95769936 45.1209697 3.14940041 48.9375 3.3125 C52.51109261 3.58544767 54.61112975 3.95129167 57.25 6.4375 C59 9 59 9 59 11 C39.53 11 20.06 11 0 11 C0 7.37 0 3.74 0 0 Z " fill="#BBA92E" transform="translate(217,421)"/>
<path d="M0 0 C2.16685309 0.14303665 4.3334751 0.28957551 6.5 0.4375 C7.7065625 0.51871094 8.913125 0.59992188 10.15625 0.68359375 C12.66368549 0.8899985 15.1664781 1.16948827 17.65625 1.53125 C23.41466761 2.28043188 29.20422562 2.10565296 35 2.0625 C36.15628906 2.05798828 37.31257813 2.05347656 38.50390625 2.04882812 C41.33599225 2.03712529 44.16796811 2.02072996 47 2 C47 5.3 47 8.6 47 12 C13.05128205 12.51282051 13.05128205 12.51282051 -1 9 C-0.67 6.03 -0.34 3.06 0 0 Z " fill="#342921" transform="translate(340,504)"/>
<path d="M0 0 C0.66 0.33 1.32 0.66 2 1 C1.62875 1.495 1.2575 1.99 0.875 2.5 C-0.44526675 6.27219072 0.48734548 9.43748655 2 13 C4.60426394 16.13847192 6.13088625 17.71029542 10 19 C12.73289293 19.22797562 15.45042204 19.41668187 18.1875 19.5625 C18.93708984 19.60568359 19.68667969 19.64886719 20.45898438 19.69335938 C22.30578375 19.79922685 24.15286834 19.9000976 26 20 C23.1924396 25.95691076 20.11546175 29.40422847 14 32 C9.44499712 32.72545222 4.93275658 33.055477 0.796875 30.796875 C-3.39915232 27.30606236 -5.76200351 24.29694284 -6.3359375 18.7578125 C-6.46529081 6.72795497 -6.46529081 6.72795497 -2 2 C-1.34 1.34 -0.68 0.68 0 0 Z " fill="#90AAB8" transform="translate(183,431)"/>
<path d="M0 0 C0.66 0.33 1.32 0.66 2 1 C-5.79209644 12.16314525 -13.76882276 23.15644558 -22 34 C-26.43458973 32.6062718 -28.87378374 30.39417765 -32 27 C-31.25234375 25.98679687 -30.5046875 24.97359375 -29.734375 23.9296875 C-28.73951296 22.5781768 -27.74472524 21.22661139 -26.75 19.875 C-26.25886719 19.20984375 -25.76773437 18.5446875 -25.26171875 17.859375 C-22.40142541 13.96937606 -19.64342101 10.04065783 -17 6 C-17.33 5.34 -17.66 4.68 -18 4 C-16.95199219 3.79503906 -15.90398437 3.59007812 -14.82421875 3.37890625 C-13.44529231 3.10687314 -12.06638717 2.83473209 -10.6875 2.5625 C-9.65206055 2.36043945 -9.65206055 2.36043945 -8.59570312 2.15429688 C-5.65710993 1.57225668 -2.84543315 0.94847772 0 0 Z " fill="#3144AF" transform="translate(374,379)"/>
<path d="M0 0 C0.77730469 0.6496875 1.55460937 1.299375 2.35546875 1.96875 C3.14566406 2.6184375 3.93585938 3.268125 4.75 3.9375 C5.34167969 4.4428125 5.93335938 4.948125 6.54296875 5.46875 C3.76763132 6.85641871 1.51798283 6.59084514 -1.58740234 6.58569336 C-3.51983292 6.58459816 -3.51983292 6.58459816 -5.49130249 6.58348083 C-6.90436342 6.57618472 -8.31741939 6.56786394 -9.73046875 6.55859375 C-10.44075855 6.55413301 -11.15104836 6.54967228 -11.88286209 6.54507637 C-15.64172583 6.51939455 -19.40043215 6.48552496 -23.15917969 6.4465332 C-26.27099515 6.41593025 -29.38217769 6.40225831 -32.49414062 6.40356445 C-36.25114813 6.40508708 -40.0068833 6.37756322 -43.76356888 6.32913399 C-45.19482046 6.31548831 -46.62620651 6.31200256 -48.05750656 6.31889153 C-50.06105186 6.32633357 -52.0646225 6.2928417 -54.06787109 6.25756836 C-55.20767426 6.25011093 -56.34747742 6.2426535 -57.52182007 6.23497009 C-60.45703125 5.46875 -60.45703125 5.46875 -62.85635376 2.41944885 C-63.38457733 1.44571823 -63.9128009 0.47198761 -64.45703125 -0.53125 C-63.51861893 -0.52791908 -63.51861893 -0.52791908 -62.56124878 -0.52452087 C-56.03986178 -0.50236797 -49.51848549 -0.48730161 -42.99707031 -0.47631836 C-40.56444871 -0.47129496 -38.13183011 -0.46447509 -35.69921875 -0.45581055 C-32.19921118 -0.44365774 -28.6992436 -0.43800168 -25.19921875 -0.43359375 C-24.11462372 -0.42843246 -23.03002869 -0.42327118 -21.91256714 -0.41795349 C-0.66812199 -0.41638127 -0.66812199 -0.41638127 0 0 Z " fill="#AFBED0" transform="translate(324.45703125,412.53125)"/>
<path d="M0 0 C5 1 5 1 8 3 C8.3616445 5.81015562 8.55868379 8.43156115 8.625 11.25 C8.67664034 12.75531596 8.73127535 14.26053248 8.7890625 15.765625 C8.83027222 16.85689697 8.83027222 16.85689697 8.87231445 17.97021484 C8.97734134 20.19130429 8.97734134 20.19130429 9.51953125 23.1171875 C10.06911011 26.41466068 10.09658827 29.53434984 10.0625 32.875 C10.05347656 34.02742188 10.04445313 35.17984375 10.03515625 36.3671875 C10.02355469 37.23601562 10.01195312 38.10484375 10 39 C6.7 39 3.4 39 0 39 C0 26.13 0 13.26 0 0 Z " fill="#B1C0D4" transform="translate(250,366)"/>
<path d="M0 0 C0.125 6.625 0.125 6.625 -1 10 C-2.05574219 10.03758423 -2.05574219 10.03758423 -3.1328125 10.07592773 C-16.43422651 10.55454421 -29.7223131 11.05732434 -43 12 C-42.25 7.25 -42.25 7.25 -40 5 C-37.453125 4.52929688 -37.453125 4.52929688 -34.25 4.21875 C-33.08339844 4.09886719 -31.91679687 3.97898437 -30.71484375 3.85546875 C-29.48894531 3.73816406 -28.26304687 3.62085938 -27 3.5 C-19.57693459 2.77130642 -12.27397334 2.01945452 -4.98828125 0.38476562 C-3 0 -3 0 0 0 Z " fill="#D3F033" transform="translate(403,414)"/>
<path d="M0 0 C-0.66 2.31 -1.32 4.62 -2 7 C-6.22768438 7.84097414 -10.45736656 8.67144025 -14.6875 9.5 C-15.88568359 9.73847656 -17.08386719 9.97695313 -18.31835938 10.22265625 C-20.05375977 10.56103516 -20.05375977 10.56103516 -21.82421875 10.90625 C-22.88729248 11.11572266 -23.95036621 11.32519531 -25.0456543 11.54101562 C-27.75880423 11.96252805 -30.26112659 12.08856503 -33 12 C-34.76462683 8.91190305 -35 7.76687864 -35 4 C-28.05031294 2.89836327 -21.09395594 1.84773562 -14.125 0.875 C-12.93132812 0.70742188 -11.73765625 0.53984375 -10.5078125 0.3671875 C-6.97758143 -0.00234671 -3.54670607 -0.06349602 0 0 Z " fill="#B0BFD2" transform="translate(394,432)"/>
<path d="M0 0 C0.92389526 0.03758423 0.92389526 0.03758423 1.86645508 0.07592773 C18.57632984 0.75404081 35.28748825 1.39045489 52 2 C51.34 3.32 50.68 4.64 50 6 C44.33750732 6.45299941 38.67509437 6.75390524 33 7 C31.85402344 7.05285156 30.70804687 7.10570312 29.52734375 7.16015625 C25.76834538 7.31431076 22.01109836 7.41264546 18.25 7.5 C17.02442383 7.55478516 15.79884766 7.60957031 14.53613281 7.66601562 C5.96477693 7.79440764 5.96477693 7.79440764 3.06445312 5.40625 C1.671875 3.46875 1.671875 3.46875 0 0 Z " fill="#AFBED1" transform="translate(285,439)"/>
<path d="M0 0 C0 1.65 0 3.3 0 5 C-13.25599831 8.3531193 -26.29851672 10.4592676 -40 10 C-38.86294768 7.18729162 -38.2908982 5.89225002 -36 4 C-32.95339045 3.37843515 -30.03728774 3.30254476 -26.9296875 3.2109375 C-21.59008141 2.92431849 -16.43484652 1.97237253 -11.18115234 1.01489258 C-7.40012643 0.34188499 -3.86070272 -0.17618286 0 0 Z " fill="#66798B" transform="translate(403,409)"/>
<path d="M0 0 C2.52644049 -0.04272946 5.04760232 -0.03255157 7.57421875 -0.00732422 C8.44433594 -0.0028125 9.31445312 0.00169922 10.2109375 0.00634766 C12.33206168 0.01800218 14.45314985 0.03593221 16.57421875 0.05517578 C16.57421875 3.68517578 16.57421875 7.31517578 16.57421875 11.05517578 C16.24421875 11.05517578 15.91421875 11.05517578 15.57421875 11.05517578 C15.57421875 9.40517578 15.57421875 7.75517578 15.57421875 6.05517578 C13.95 6.28527344 13.95 6.28527344 12.29296875 6.52001953 C6.90084452 7.19403506 1.50073219 7.40047282 -3.92578125 7.61767578 C-4.93898438 7.66085937 -5.9521875 7.70404297 -6.99609375 7.74853516 C-9.47254915 7.8536677 -11.94908874 7.95581415 -14.42578125 8.05517578 C-13.22961677 5.31396552 -12.33328051 3.29642006 -10.42578125 1.05517578 C-6.75998165 0.11107438 -3.73982797 0.08506453 0 0 Z " fill="#697B8A" transform="translate(387.42578125,397.94482421875)"/>
<path d="M0 0 C1.22589844 0.01353516 1.22589844 0.01353516 2.4765625 0.02734375 C3.41628906 0.04474609 3.41628906 0.04474609 4.375 0.0625 C2.9126608 3.3846347 1.06693394 5.75563983 -1.4375 8.375 C-2.43716797 9.45201172 -2.43716797 9.45201172 -3.45703125 10.55078125 C-5.625 12.0625 -5.625 12.0625 -8.38671875 11.79296875 C-9.12535156 11.55191406 -9.86398438 11.31085938 -10.625 11.0625 C-11.4375 9.4375 -11.4375 9.4375 -11.625 7.0625 C-7.97688508 2.03401727 -6.15103539 -0.08787193 0 0 Z " fill="#100C05" transform="translate(193.625,398.9375)"/>
<path d="M0 0 C-0.33 0.99 -0.66 1.98 -1 3 C-3.4928827 3.9067785 -5.80609474 4.59010725 -8.375 5.1875 C-9.09365234 5.3618457 -9.81230469 5.53619141 -10.55273438 5.71582031 C-16.40810081 7.05038421 -21.99766315 7.45780535 -28 7 C-28 6.01 -28 5.02 -28 4 C-23.71043104 3.13505996 -19.41807029 2.28487565 -15.125 1.4375 C-13.90167969 1.19064453 -12.67835938 0.94378906 -11.41796875 0.68945312 C-9.66806641 0.34624023 -9.66806641 0.34624023 -7.8828125 -0.00390625 C-6.80402832 -0.21861572 -5.72524414 -0.4333252 -4.61376953 -0.65454102 C-2 -1 -2 -1 0 0 Z " fill="#5E6F83" transform="translate(389,440)"/>
<path d="M0 0 C0 0.66 0 1.32 0 2 C-8.91 1.67 -17.82 1.34 -27 1 C-27 0.67 -27 0.34 -27 0 C-5.63128492 -2.81564246 -5.63128492 -2.81564246 0 0 Z " fill="#A7CCDC" transform="translate(360,261)"/>
<path d="M0 0 C0 0.66 0 1.32 0 2 C-0.99 2 -1.98 2 -3 2 C-3.84888195 7.37625234 -4.0024305 11.65370398 -3 17 C-3.66 17 -4.32 17 -5 17 C-7.11045489 13.83431767 -7.47214345 10.74743167 -7.39453125 6.97265625 C-6.65955624 3.29778119 -3.87467087 0 0 0 Z " fill="#426C32" transform="translate(129,542)"/>
<path d="M0 0 C1.4731994 2.74997221 2.22404875 4.89619499 3 8 C-0.3 8.33 -3.6 8.66 -7 9 C-1.125 1.125 -1.125 1.125 0 0 Z " fill="#2C3E9B" transform="translate(351,444)"/>
<path d="M0 0 C0.66 0.33 1.32 0.66 2 1 C0.90344712 2.31886772 -0.20253423 3.62990057 -1.3125 4.9375 C-1.92738281 5.66839844 -2.54226562 6.39929688 -3.17578125 7.15234375 C-5 9 -5 9 -8 10 C-6.5682479 4.98886765 -4.01554307 3.05530451 0 0 Z " fill="#19390B" transform="translate(168,295)"/>
</svg>
