<?xml version="1.0" encoding="UTF-8"?>
<svg version="1.1" xmlns="http://www.w3.org/2000/svg" width="600" height="600">
<path d="M0 0 C4.17336804 3.4851284 8.0924837 7.22237344 12 11 C12.82757813 11.77601563 13.65515625 12.55203125 14.5078125 13.3515625 C20.42705171 19.0300191 25.13388096 25.2092487 29.34375 32.24609375 C32.29828713 37.06439413 35.68961754 40.67096633 39.9375 44.375 C49.66442912 52.93726915 55.18360999 62.58090024 56.3125 75.60546875 C56.69880066 87.44799838 54.15227779 96.76605403 47.171875 106.35546875 C43.91286413 113.70996996 46.61204276 122.77999244 47.9375 130.375 C50.38525392 144.59446094 51.24014447 158.34672165 51.25 172.75 C51.25067474 173.64437775 51.25134949 174.53875549 51.25204468 175.4602356 C51.2046844 215.52924474 47.75479184 256.98516878 39.015625 296.12890625 C37.99490916 300.73950532 37.43902721 305.29954559 37 310 C37.82371094 310.08894531 38.64742187 310.17789062 39.49609375 310.26953125 C43.743516 311.15500278 47.20366152 312.75267622 51.0625 314.6875 C51.75666016 315.01427734 52.45082031 315.34105469 53.16601562 315.67773438 C58.67024775 318.41155527 62.64611546 321.61528864 65 327.5 C65 331.27223672 64.18864957 332.87335775 62 336 C27.41939202 366.8828796 -46.42996437 361.40047513 -90 359 C-91.15016602 358.93796387 -92.30033203 358.87592773 -93.48535156 358.81201172 C-164.95747849 354.68171293 -164.95747849 354.68171293 -184 334 C-184.33 333.67 -184.66 333.34 -185 333 C-185.5751634 326.09803922 -185.5751634 326.09803922 -183.625 322.375 C-175.899591 315.38534424 -166.73614482 312.17056013 -157 309 C-157.64759991 301.39283129 -158.75110908 293.90454526 -160 286.375 C-161.11682912 279.59309564 -162.20641981 272.82809621 -163 266 C-163.94359375 266.03480469 -164.8871875 266.06960938 -165.859375 266.10546875 C-178.67177802 266.37560978 -189.95708652 265.10154578 -199.90234375 256.3203125 C-217.06922296 238.82679076 -213.15570778 201.30450644 -213.203125 178.51953125 C-213.20595238 177.58389532 -213.20877975 176.64825939 -213.21169281 175.68427086 C-213.22652407 170.74564728 -213.23585804 165.80705177 -213.24023438 160.8684082 C-213.24573865 155.81904766 -213.2698544 150.76995401 -213.29820633 145.72067738 C-213.31695727 141.78520472 -213.32204459 137.84979537 -213.32357025 133.91428185 C-213.32656216 132.05384529 -213.33447056 130.19340888 -213.34775543 128.33301735 C-213.57016861 94.83772171 -213.57016861 94.83772171 -202.18359375 83.1328125 C-193.6861184 76.23183252 -183.36954729 73.41823052 -172.52734375 74.171875 C-170.67758696 74.39371532 -168.8367184 74.68810442 -167 75 C-166.96334229 74.34588135 -166.92668457 73.6917627 -166.88891602 73.01782227 C-166.36663563 65.70912482 -164.95037678 58.97238601 -162.9375 51.9375 C-162.62804443 50.84912842 -162.31858887 49.76075684 -161.99975586 48.6394043 C-159.1628964 38.99521716 -155.56613436 29.947756 -151 21 C-150.52675293 20.06389893 -150.52675293 20.06389893 -150.04394531 19.10888672 C-141.0828922 1.69287106 -128.60033429 -14.54627286 -110 -22 C-108.97261719 -22.41378906 -107.94523437 -22.82757813 -106.88671875 -23.25390625 C-72.59308586 -34.60600849 -27.95518499 -21.37525709 0 0 Z M-60 266 C-61.46098845 268.9219769 -61.11134901 271.49893475 -61.09765625 274.7578125 C-61.0962413 275.42086395 -61.09482635 276.08391541 -61.09336853 276.76705933 C-61.08776754 278.88641863 -61.075215 281.00567259 -61.0625 283.125 C-61.05748512 284.56119639 -61.05292219 285.99739444 -61.04882812 287.43359375 C-61.03864833 290.95580248 -61.01907338 294.47778321 -61 298 C-55.72 298 -50.44 298 -45 298 C-45.66 287.44 -46.32 276.88 -47 266 C-51.29 266 -55.58 266 -60 266 Z " fill="#050603" transform="translate(366,215)"/>
<path d="M0 0 C0.75796875 0.22461914 1.5159375 0.44923828 2.296875 0.68066406 C19.0265035 5.77519189 33.58669818 13.825332 47 25 C47.55896973 25.46470703 48.11793945 25.92941406 48.69384766 26.40820312 C50.1308463 27.60353046 51.5656376 28.80151052 53 30 C50.72569355 31.13715322 49.51415969 31.1157894 46.99121094 31.09765625 C46.16143738 31.09435303 45.33166382 31.0910498 44.47674561 31.08764648 C43.57176331 31.07934814 42.66678101 31.0710498 41.734375 31.0625 C40.31865204 31.05682007 40.31865204 31.05682007 38.87432861 31.05102539 C34.84145623 31.0347922 30.8086859 31.00730008 26.77587891 30.97949219 C15.84523145 30.91059774 4.93820222 30.94605445 -5.984375 31.4140625 C-7.31991425 31.46820313 -7.31991425 31.46820313 -8.68243408 31.5234375 C-18.13625896 31.97985859 -27.72300269 33.09168271 -36 38 C-45.40985958 49.25447226 -45.20863222 70.12839692 -44 84 C-42.24667969 98.15953035 -36.45973294 115.74887014 -25 125 C-4.60173209 139.2313497 22.27660611 141.04781268 46.3125 136.8125 C52.51526549 135.61324381 58.3496579 133.63140211 64.16796875 131.18359375 C67.07293257 129.96951922 70.00362802 128.9632781 73 128 C73.12117187 129.12535156 73.24234375 130.25070312 73.3671875 131.41015625 C74.58073677 142.57065018 75.97296483 153.69080812 77.53515625 164.80859375 C77.70917969 166.06800781 77.88320313 167.32742188 78.0625 168.625 C78.21847656 169.73101562 78.37445313 170.83703125 78.53515625 171.9765625 C79.8487072 182.60501878 80.18643401 193.2255199 80.171875 203.92578125 C80.17144951 204.62467279 80.17102402 205.32356434 80.17058563 206.04363441 C80.14299022 222.50194963 79.4138372 238.91820929 78.51074219 255.34887695 C78.28599713 259.45276337 78.08690386 263.5575093 77.89313126 267.6629591 C77.73743951 270.87816341 77.56519711 274.09232382 77.388237 277.30642128 C77.30739287 278.82229642 77.23241274 280.33849728 77.16370392 281.85497093 C77.0669647 283.95180061 76.94702281 286.04609344 76.82128906 288.14135742 C76.75911194 289.32533615 76.69693481 290.50931488 76.63287354 291.72917175 C75.73321113 296.37882299 73.69401991 299.74274397 69.87890625 302.57421875 C59.07687725 307.7657504 45.45257056 311.79964669 33.546875 308.2734375 C28.60861129 306.02378403 25.44733016 302.89466033 23 298 C22.79160921 296.37068066 22.6324815 294.73489689 22.5 293.09765625 C22.4175 292.12505859 22.335 291.15246094 22.25 290.15039062 C22.1675 289.13138672 22.085 288.11238281 22 287.0625 C21.83669713 285.05310921 21.67017145 283.04397701 21.5 281.03515625 C21.39171875 279.69529663 21.39171875 279.69529663 21.28125 278.32836914 C21.06040394 275.84758074 21.06040394 275.84758074 20 273 C19.59795345 268.0749298 19.69559877 263.3951723 20.75 258.5625 C23.90348165 254.97103479 27.32356428 254.31182071 31.84375 253.01171875 C35.65808321 251.78905501 38.84942511 250.02562429 42.2578125 247.953125 C44 247 44 247 46 247 C45.67 246.34 45.34 245.68 45 245 C40.73161194 244.97508574 36.46326361 244.95703953 32.19482422 244.94506836 C30.74592348 244.94007215 29.29702769 244.93327291 27.84814453 244.92456055 C25.75291716 244.91228664 23.65775705 244.90672446 21.5625 244.90234375 C20.30566406 244.89710693 19.04882812 244.89187012 17.75390625 244.88647461 C14.4614143 244.98604594 11.29455688 245.32354117 8.03387451 245.76741028 C4.57241897 246.16325524 1.11351219 246.1755432 -2.3671875 246.2109375 C-3.9270947 246.23895781 -5.48699044 246.26762178 -7.046875 246.296875 C-9.47623956 246.3383857 -11.90537804 246.37532561 -14.33496094 246.40136719 C-16.7003007 246.42883809 -19.06470482 246.47463952 -21.4296875 246.5234375 C-22.15985077 246.52669037 -22.89001404 246.52994324 -23.64230347 246.53329468 C-25.90513015 246.55463422 -25.90513015 246.55463422 -29 247 C-31.31699725 250.47549587 -31.26193581 251.89831245 -31.30859375 256.00390625 C-31.33155518 257.21119385 -31.3545166 258.41848145 -31.37817383 259.66235352 C-31.40754028 261.59292603 -31.40754028 261.59292603 -31.4375 263.5625 C-31.7258485 274.97787335 -32.44399836 285.86642528 -35 297 C-35.26554687 298.21558594 -35.53109375 299.43117188 -35.8046875 300.68359375 C-36.61567015 303.73016132 -37.40085012 306.28584653 -39 309 C-42.27662453 310.52532521 -43.58537971 310.87510207 -47 311 C-48.50290136 311.16396509 -50.00549199 311.33079559 -51.5078125 311.5 C-57.42250069 312.09408256 -63.30840375 312.25693644 -69.25 312.3125 C-70.29929688 312.34150391 -71.34859375 312.37050781 -72.4296875 312.40039062 C-73.44804687 312.40876953 -74.46640625 312.41714844 -75.515625 312.42578125 C-76.88122559 312.44765503 -76.88122559 312.44765503 -78.27441406 312.4699707 C-82.17918785 311.79667354 -84.11681494 310.74349536 -87 308 C-87.86451874 304.82057138 -87.76662119 301.7304686 -87.69921875 298.453125 C-87.70467712 297.50166092 -87.7101355 296.55019684 -87.71575928 295.56990051 C-87.72557966 293.52571785 -87.72263027 291.48144185 -87.70822144 289.43728638 C-87.67343497 284.08657414 -87.73746792 278.7370833 -87.796875 273.38671875 C-87.81173195 271.79052956 -87.81173195 271.79052956 -87.82688904 270.16209412 C-87.93686515 261.07486386 -88.51715389 252.10064279 -89.4375 243.0625 C-89.56020264 241.85432617 -89.68290527 240.64615234 -89.80932617 239.40136719 C-90.30776013 234.75191797 -90.85203757 230.11210719 -91.46875 225.47680664 C-95.71502585 193.37688374 -97.39784919 160.79751937 -97.375 128.4375 C-97.37663147 127.36585602 -97.37826294 126.29421204 -97.37994385 125.19009399 C-97.37296629 85.00671029 -94.16904996 35.52417254 -66 4 C-49.81287675 -11.76114632 -19.26647483 -5.77534058 0 0 Z " fill="#7A0E3F" transform="translate(313,213)"/>
<path d="M0 0 C0.75796875 0.22461914 1.5159375 0.44923828 2.296875 0.68066406 C19.0265035 5.77519189 33.58669818 13.825332 47 25 C47.55896973 25.46470703 48.11793945 25.92941406 48.69384766 26.40820312 C50.1308463 27.60353046 51.5656376 28.80151052 53 30 C50.72569355 31.13715322 49.51415969 31.1157894 46.99121094 31.09765625 C46.16143738 31.09435303 45.33166382 31.0910498 44.47674561 31.08764648 C43.57176331 31.07934814 42.66678101 31.0710498 41.734375 31.0625 C40.31865204 31.05682007 40.31865204 31.05682007 38.87432861 31.05102539 C34.84145623 31.0347922 30.8086859 31.00730008 26.77587891 30.97949219 C15.84523145 30.91059774 4.93820222 30.94605445 -5.984375 31.4140625 C-7.31991425 31.46820313 -7.31991425 31.46820313 -8.68243408 31.5234375 C-18.13625896 31.97985859 -27.72300269 33.09168271 -36 38 C-45.40985958 49.25447226 -45.20863222 70.12839692 -44 84 C-42.24667969 98.15953035 -36.45973294 115.74887014 -25 125 C-4.60173209 139.2313497 22.27660611 141.04781268 46.3125 136.8125 C52.51526549 135.61324381 58.3496579 133.63140211 64.16796875 131.18359375 C67.07293257 129.96951922 70.00362802 128.9632781 73 128 C73.13277344 129.25296875 73.26554688 130.5059375 73.40234375 131.796875 C73.58058291 133.44793246 73.7589764 135.09897327 73.9375 136.75 C74.02451172 137.575 74.11152344 138.4 74.20117188 139.25 C74.28818359 140.04921875 74.37519531 140.8484375 74.46484375 141.671875 C74.543396 142.4050293 74.62194824 143.13818359 74.70288086 143.89355469 C74.99761416 145.98308542 75.48853151 147.9546347 76 150 C76.74441735 157.13151821 75.02893876 160.51736919 70.75 166.125 C69.93462769 167.23186157 69.93462769 167.23186157 69.1027832 168.36108398 C59.86673751 180.73575995 49.45766337 192.19752202 38.66381836 203.2265625 C36.98163605 204.95528801 36.98163605 204.95528801 35.61938477 206.8359375 C34.16003987 208.65821604 33.03649755 209.84739125 31 211 C27.11063898 211.34020416 23.51092784 210.70051272 19.6875 210 C18.69298828 209.84660156 17.69847656 209.69320312 16.67382812 209.53515625 C11.38813385 208.69527574 6.17440085 207.62657634 0.9597168 206.42871094 C-1.65682292 205.85631231 -4.28372474 205.48174894 -6.9375 205.125 C-12.46499414 204.29815459 -17.91511797 203.24648998 -23.375 202.0625 C-24.49829712 201.82587646 -24.49829712 201.82587646 -25.64428711 201.58447266 C-26.72915405 201.34349854 -26.72915405 201.34349854 -27.8359375 201.09765625 C-28.47063965 200.95851807 -29.1053418 200.81937988 -29.75927734 200.67602539 C-38.33316181 198.08928687 -38.33316181 198.08928687 -40.75 194.14135742 C-41.1625 192.97451416 -41.575 191.8076709 -42 190.60546875 C-42.23790253 189.95826874 -42.47580505 189.31106873 -42.72091675 188.64425659 C-43.50408793 186.49970635 -44.25122864 184.34427486 -45 182.1875 C-45.83058752 179.89006463 -46.67045605 177.59614145 -47.51022339 175.30204773 C-48.09756013 173.69470306 -48.68175263 172.08620636 -49.26296997 170.47663879 C-52.59798828 161.25853347 -56.23804179 152.16465378 -59.875 143.0625 C-73.88075772 107.9758494 -73.88075772 107.9758494 -77.125 94.75 C-77.36452393 93.80817871 -77.60404785 92.86635742 -77.85083008 91.89599609 C-79.85144521 83.90807586 -81.61738329 75.86775636 -83.26416016 67.79980469 C-84.15702897 63.49815422 -85.1564274 59.45035884 -86.70703125 55.3359375 C-89.1438676 48.29376126 -87.04277082 42.14190407 -84.4375 35.375 C-84.17573975 34.68913818 -83.91397949 34.00327637 -83.64428711 33.29663086 C-77.77468134 18.46985991 -69.52109636 3.91165428 -54.76953125 -3.16796875 C-37.20843457 -8.4437284 -17.10336736 -5.12692501 0 0 Z " fill="#C41515" transform="translate(313,213)"/>
<path d="M0 0 C0.33 0 0.66 0 1 0 C1 9.57 1 19.14 1 29 C5.95 29.33 10.9 29.66 16 30 C16.99 33.0009375 16.99 33.0009375 18 36.0625 C20.464796 42.33031918 22.78384675 46.97358845 29 50 C32.68598281 50.85372379 36.25691806 51.36412736 40.0234375 51.7109375 C43 52 43 52 45 53 C48.11853561 53.2419203 51.24810906 53.18976668 54.375 53.1875 C55.27444336 53.18814453 56.17388672 53.18878906 57.10058594 53.18945312 C63.92259576 53.13556292 70.332688 52.51776208 77 51 C77 50.34 77 49.68 77 49 C77.86882812 48.82984375 78.73765625 48.6596875 79.6328125 48.484375 C90.40306311 46.36860548 90.40306311 46.36860548 98 39 C98 39.99 98 40.98 98 42 C99.23556641 42.13341797 99.23556641 42.13341797 100.49609375 42.26953125 C104.743516 43.15500278 108.20366152 44.75267622 112.0625 46.6875 C113.10374023 47.17766602 113.10374023 47.17766602 114.16601562 47.67773438 C119.67024775 50.41155527 123.64611546 53.61528864 126 59.5 C126 63.27223672 125.18864957 64.87335775 123 68 C88.41939202 98.8828796 14.57003563 93.40047513 -29 91 C-30.15016602 90.93796387 -31.30033203 90.87592773 -32.48535156 90.81201172 C-103.95747849 86.68171293 -103.95747849 86.68171293 -123 66 C-123.33 65.67 -123.66 65.34 -124 65 C-124.5751634 58.09803922 -124.5751634 58.09803922 -122.625 54.375 C-115.69057951 48.10100051 -107.68008944 44.9391596 -98.90625 42.078125 C-95.92333975 41.20135499 -95.92333975 41.20135499 -94 39 C-93.896875 40.134375 -93.79375 41.26875 -93.6875 42.4375 C-92.26798208 47.92956587 -88.64312389 50.82925713 -84.2265625 54.14453125 C-78.6776072 57.33551644 -73.29112051 57.82223574 -67 58 C-66.19675293 58.02884277 -65.39350586 58.05768555 -64.56591797 58.08740234 C-48.46938702 58.58598083 -33.78216635 58.01033041 -19 51 C-17.75217984 50.49458447 -16.50251316 49.99367073 -15.25 49.5 C-14.1775 49.005 -13.105 48.51 -12 48 C-11.3090625 47.75894531 -10.618125 47.51789062 -9.90625 47.26953125 C-6.0885874 45.57509767 -4.389328 44.00476058 -2.86328125 40.06640625 C-0.02669945 26.99045601 -0.26462011 13.32164903 0 0 Z " fill="#363D3A" transform="translate(305,483)"/>
<path d="M0 0 C1.98013126 -0.00922277 3.96024657 -0.02324214 5.94030762 -0.04229736 C36.32355059 -0.30108694 36.32355059 -0.30108694 46.41229248 9.22824097 C51.36932373 14.63051454 51.36932373 14.63051454 51.36932373 18.29855347 C52.02932373 18.29855347 52.68932373 18.29855347 53.36932373 18.29855347 C55.36932373 21.29855347 55.36932373 21.29855347 55.36932373 25.29855347 C56.02932373 25.29855347 56.68932373 25.29855347 57.36932373 25.29855347 C60.28163192 32.16327992 61.68573227 38.87363047 60.36932373 46.29855347 C56.383769 55.3277748 49.68719547 62.40844664 40.65203857 66.4225769 C29.81209694 70.58233205 17.59077289 69.65243604 6.18182373 69.61105347 C4.71540436 69.60931625 4.71540436 69.60931625 3.21936035 69.60754395 C-36.988873 69.51310808 -36.988873 69.51310808 -46.63067627 63.29855347 C-50.04484054 59.66705882 -51.22549015 57.01357903 -51.89630127 52.09933472 C-52.06428223 50.89817017 -52.23226318 49.69700562 -52.40533447 48.45944214 C-52.64062866 46.55448975 -52.64062866 46.55448975 -52.88067627 44.61105347 C-53.04978516 43.3120813 -53.21889404 42.01310913 -53.39312744 40.67477417 C-54.94755105 28.0408648 -55.35543203 15.93273995 -53.63067627 3.29855347 C-37.79270891 -1.98076899 -16.58688128 0.07495133 0 0 Z " fill="#576E77" transform="translate(342.63067626953125,258.7014465332031)"/>
<path d="M0 0 C0.78375 0.00451172 1.5675 0.00902344 2.375 0.01367188 C4.29170014 0.02535907 6.20836048 0.04329092 8.125 0.0625 C8.13530746 0.85143646 8.14561493 1.64037292 8.15623474 2.45321655 C8.2561906 10.0656285 8.35889655 17.67799694 8.46433926 25.2903347 C8.5183983 29.19939872 8.57156451 33.10846963 8.62231445 37.01757812 C8.75925258 78.64679915 8.75925258 78.64679915 11.6875 120.125 C12.80932952 130.86487769 13.43632376 141.26994308 13.125 152.0625 C1.74 151.5675 1.74 151.5675 -9.875 151.0625 C-10.05675781 148.25685547 -10.05675781 148.25685547 -10.2421875 145.39453125 C-10.41116706 142.88800118 -10.58045436 140.38149184 -10.75 137.875 C-10.86794922 136.03518555 -10.86794922 136.03518555 -10.98828125 134.15820312 C-11.39025817 128.29861647 -11.89795903 122.52508631 -12.84375 116.7265625 C-14.14292742 108.72588585 -14.86803514 100.70019619 -15.5 92.625 C-15.5657019 91.79343384 -15.63140381 90.96186768 -15.69909668 90.10510254 C-16.93945767 73.84606899 -17.14793067 57.61358153 -17.125 41.3125 C-17.12413391 40.14188019 -17.12326782 38.97126038 -17.12237549 37.76516724 C-17.11591217 34.39021867 -17.09973726 31.01550819 -17.078125 27.640625 C-17.0737442 26.6482634 -17.0693634 25.65590179 -17.06484985 24.63346863 C-16.89049723 7.10899169 -16.89049723 7.10899169 -14.875 1.0625 C-9.85891475 0.0448597 -5.08891694 -0.05606434 0 0 Z " fill="#7A0E3F" transform="translate(188.875,307.9375)"/>
<path d="M0 0 C1.97884952 -0.00855989 3.95768428 -0.02215196 5.9364624 -0.04101562 C36.3204823 -0.3001243 36.3204823 -0.3001243 46.40927124 9.22924805 C51.36630249 14.63152162 51.36630249 14.63152162 51.36630249 18.29956055 C52.02630249 18.29956055 52.68630249 18.29956055 53.36630249 18.29956055 C56.36630249 24.79956055 56.36630249 24.79956055 56.36630249 29.29956055 C35.172852 36.03467102 14.86249939 40.58224142 -7.44619751 40.79956055 C-8.69159302 40.81817139 -9.93698853 40.83678223 -11.22012329 40.85595703 C-21.5394746 40.7842852 -30.84796377 38.6865838 -38.99697876 32.04174805 C-41.31138718 29.57820113 -42.44325137 27.0754084 -43.62588501 23.93237305 C-45.27445513 19.62564335 -47.4228588 15.54628555 -49.46182251 11.4128418 C-50.70305 8.11531409 -50.72467119 5.7841556 -50.63369751 2.29956055 C-33.75866125 0.7807063 -16.94021547 0.06995201 0 0 Z " fill="#94C1D3" transform="translate(342.6336975097656,258.700439453125)"/>
<path d="M0 0 C1.1748999 -0.0112793 2.3497998 -0.02255859 3.56030273 -0.03417969 C5.42344116 -0.01919434 5.42344116 -0.01919434 7.32421875 -0.00390625 C8.5862915 0.0022168 9.84836426 0.00833984 11.14868164 0.01464844 C21.93405863 0.19515684 33.83016991 0.44472631 42.01171875 8.43359375 C42.70231261 13.26775079 42.76424148 15.25464148 40.13671875 19.37109375 C36.91884745 22.49432178 34.87318471 22.64488594 30.43359375 22.59765625 C27.85345432 22.42287261 25.42538093 21.9876844 22.88671875 21.49609375 C15.85357679 20.18697233 8.80288216 20.0866334 1.66552734 20.03930664 C-2.65453987 19.93554293 -5.30750654 19.83399903 -9.08984375 17.609375 C-11.72577656 14.58835735 -11.91871413 12.39891985 -11.98828125 8.43359375 C-10.33213408 1.80900509 -6.51869636 0.06014199 0 0 Z " fill="#F7F7F8" transform="translate(336.98828125,261.56640625)"/>
<path d="M0 0 C4.021875 0.0309375 4.021875 0.0309375 8.125 0.0625 C8.125 6.0025 8.125 11.9425 8.125 18.0625 C-0.0625 20.875 -0.0625 20.875 -2.61401367 21.74145508 C-6.68779687 23.16071795 -10.20289365 24.75965365 -13.875 27.0625 C-14.535 27.0625 -15.195 27.0625 -15.875 27.0625 C-15.90399599 23.29168278 -15.92179729 19.52089417 -15.9375 15.75 C-15.94587891 14.67814453 -15.95425781 13.60628906 -15.96289062 12.50195312 C-15.96611328 11.47392578 -15.96933594 10.44589844 -15.97265625 9.38671875 C-15.97789307 8.43885498 -15.98312988 7.49099121 -15.98852539 6.5144043 C-15.875 4.0625 -15.875 4.0625 -14.875 1.0625 C-9.85918549 0.04491463 -5.08749767 -0.05560913 0 0 Z " fill="#C11514" transform="translate(188.875,307.9375)"/>
<path d="M0 0 C0.66 0.33 1.32 0.66 2 1 C0.90344712 2.31886772 -0.20253423 3.62990057 -1.3125 4.9375 C-1.92738281 5.66839844 -2.54226562 6.39929688 -3.17578125 7.15234375 C-5 9 -5 9 -8 10 C-6.5682479 4.98886765 -4.01554307 3.05530451 0 0 Z " fill="#19390B" transform="translate(168,295)"/>
<path d="M0 0 C0.66 0.33 1.32 0.66 2 1 C0.90344712 2.31886772 -0.20253423 3.62990057 -1.3125 4.9375 C-1.92738281 5.66839844 -2.54226562 6.39929688 -3.17578125 7.15234375 C-5 9 -5 9 -8 10 C-6.34908222 5.70761377 -3.26245434 3.1206085 0 0 Z " fill="#19380B" transform="translate(240,202)"/>
</svg>
