<?xml version="1.0" encoding="UTF-8"?>
<svg version="1.1" xmlns="http://www.w3.org/2000/svg" width="600" height="600">
<path d="M0 0 C0.69697998 0.17934082 1.39395996 0.35868164 2.11206055 0.54345703 C37.19093695 9.92730775 63.92799596 38.03457977 82.0625 68.375 C82.49046875 69.12910156 82.9184375 69.88320312 83.359375 70.66015625 C84.20546671 72.29186486 84.20546671 72.29186486 85.3125 73.3125 C87.50064897 73.27984106 89.6882899 73.21079881 91.875 73.125 C97.92234922 73.11272112 102.63676005 73.22258362 107.3125 77.3125 C111.85997519 82.75947578 114.61303887 87.54805018 114.19921875 94.7265625 C113.77329129 105.1377893 113.86636472 111.7405116 120.3125 120.3125 C122.69499552 126.48532931 123.65781487 132.66782226 121.33203125 138.96875 C119.23294046 143.3606938 117.14630792 147.18865651 113.3125 150.3125 C113.6734375 150.86679688 114.034375 151.42109375 114.40625 151.9921875 C114.8703125 152.71664062 115.334375 153.44109375 115.8125 154.1875 C116.2765625 154.90679687 116.740625 155.62609375 117.21875 156.3671875 C118.3125 158.3125 118.3125 158.3125 118.3125 160.3125 C119.04597656 160.56 119.77945313 160.8075 120.53515625 161.0625 C129.54724418 165.11857333 135.75509023 174.98678569 139.34375 183.86328125 C143.11758786 195.65652455 142.52632617 208.09487401 137.3125 219.3125 C135.78455919 221.83919237 134.22212764 224.28070955 132.484375 226.66796875 C129.27228093 233.91659438 131.89885167 242.75653833 133.1875 250.25 C135.03898178 261.57594976 136.10130174 272.82988009 136.875 284.2734375 C137.29237355 290.38525475 137.93200088 296.45657848 138.70361328 302.53320312 C139.56215209 309.54720504 139.65371781 315.79390465 137.875 322.6875 C137.48665634 324.55354105 137.09900749 326.4197868 136.72900391 328.28955078 C136.44353561 329.67606326 136.13189938 331.05737038 135.79833984 332.43310547 C134.56521478 337.77188172 133.65225985 342.98297057 135.3125 348.3125 C139.21525888 354.29331804 144.84869911 358.81958564 150.21923828 363.43945312 C154.48525183 367.25667449 157.8789256 371.74777141 161.3125 376.3125 C161.78171875 376.89128906 162.2509375 377.47007812 162.734375 378.06640625 C165.57420836 381.79125617 165.89705909 384.71953569 165.3125 389.3125 C164.02847857 393.1645643 161.81880745 394.90871553 158.4375 396.9375 C152.19744182 399.90454103 145.512104 400.50655208 138.71337891 401.23681641 C131.94336469 401.85243708 131.94336469 401.85243708 126.3125 405.3125 C125.46015064 407.98359482 124.94098101 410.20112942 124.5625 412.9375 C124.44672607 413.65228516 124.33095215 414.36707031 124.21166992 415.10351562 C123.41321205 420.1541194 122.76724212 425.21938829 122.3125 430.3125 C123.13621094 430.40144531 123.95992187 430.49039062 124.80859375 430.58203125 C129.056016 431.46750278 132.51616152 433.06517622 136.375 435 C137.06916016 435.32677734 137.76332031 435.65355469 138.47851562 435.99023438 C143.98274775 438.72405527 147.95861546 441.92778864 150.3125 447.8125 C150.3125 452.0501475 148.79225872 454.7851351 145.85546875 457.81640625 C106.87714993 490.34079864 25.34160234 482.30343533 -21.84710693 478.12109375 C-83.52829365 472.1803049 -83.52829365 472.1803049 -98.40234375 455.375 C-100.41250166 452.14897149 -100.30617346 448.94447712 -99.6875 445.3125 C-94.6966055 435.78442868 -81.220122 432.41678324 -71.6875 429.3125 C-72.48653622 419.56425813 -74.11274017 409.959142 -75.6875 400.3125 C-76.3165625 400.28671875 -76.945625 400.2609375 -77.59375 400.234375 C-85.04360866 399.74070967 -90.46328526 398.05308253 -96.1875 393.1875 C-97.6875 391.3125 -97.6875 391.3125 -97.6875 389.3125 C-98.3475 389.3125 -99.0075 389.3125 -99.6875 389.3125 C-99.6875 387.9925 -99.6875 386.6725 -99.6875 385.3125 C-100.4609375 384.98378906 -101.234375 384.65507812 -102.03125 384.31640625 C-111.50877429 379.98818043 -118.20826092 375.0317915 -122 365.0625 C-128.19212409 343.49966079 -127.84362962 320.19213199 -127.890625 297.953125 C-127.89345238 297.02943871 -127.89627975 296.10575241 -127.89919281 295.15407562 C-127.91401 290.28028598 -127.92335319 285.40652469 -127.92773438 280.53271484 C-127.93324259 275.55176283 -127.95737056 270.57108084 -127.98570633 265.59021378 C-128.00445781 261.70535539 -128.00954458 257.82056111 -128.01107025 253.93566132 C-128.01406106 252.10034433 -128.02196553 250.26502747 -128.03525543 248.42975616 C-128.14076639 232.76321223 -127.94260732 217.12938438 -117.375 204.5625 C-108.40719162 197.0545674 -98.98846774 193.69924938 -87.19921875 194.4765625 C-85.35516768 194.70584061 -83.51952364 195.00140165 -81.6875 195.3125 C-81.6472168 194.64460449 -81.60693359 193.97670898 -81.56542969 193.28857422 C-81.05821754 186.40515245 -79.8265732 180.06636524 -77.9375 173.4375 C-77.67308105 172.48584961 -77.40866211 171.53419922 -77.13623047 170.55371094 C-75.29428021 164.06554864 -73.16326944 157.80774482 -70.5703125 151.578125 C-69.56647787 149.40716986 -69.56647787 149.40716986 -69.6875 147.3125 C-71.31589849 146.16102246 -71.31589849 146.16102246 -73.375 145.0625 C-78.85677436 141.76373313 -82.97832171 137.68307361 -84.6875 131.3125 C-84.76396165 128.9804198 -84.77893299 126.64404122 -84.6875 124.3125 C-85.80125 124.6425 -86.915 124.9725 -88.0625 125.3125 C-96.23342692 127.31560201 -104.04489952 126.98739027 -111.6875 123.3125 C-116.25681193 120.40929089 -119.62872512 116.72248531 -121.25390625 111.48828125 C-121.75640375 108.96673972 -121.81984586 106.63355257 -121.8125 104.0625 C-121.8125 103.09570312 -121.8125 102.12890625 -121.8125 101.1328125 C-121.70098531 98.61676229 -121.33495666 96.3911804 -120.8125 93.9375 C-120.77125 92.74125 -120.73 91.545 -120.6875 90.3125 C-123.0808946 88.0473349 -123.0808946 88.0473349 -124.984375 86.76953125 C-129.07951572 83.26611958 -131.23093638 77.94468851 -132.13671875 72.72265625 C-132.47084447 65.24515307 -130.09564432 60.02166236 -125.1875 54.5 C-124.3625 53.778125 -123.5375 53.05625 -122.6875 52.3125 C-122.06875 51.755625 -121.45 51.19875 -120.8125 50.625 C-115.65900251 47.44195743 -109.64320815 46.45331587 -103.6875 47.3125 C-100.29577885 48.32106936 -96.96723556 49.4267191 -93.640625 50.6328125 C-90.80834492 51.53249818 -90.80834492 51.53249818 -88.51953125 50.70703125 C-86.26601651 48.99166928 -84.82344989 47.14787344 -83.125 44.875 C-71.66476421 30.56855433 -58.51884486 17.65602024 -42.6875 8.3125 C-41.66527344 7.70148438 -40.64304687 7.09046875 -39.58984375 6.4609375 C-27.4003209 -0.19982465 -13.61065038 -3.55147437 0 0 Z M25.3125 405.3125 C24.9825 409.6025 24.6525 413.8925 24.3125 418.3125 C29.5925 418.3125 34.8725 418.3125 40.3125 418.3125 C40.17590064 411.47346359 40.17590064 411.47346359 36.66015625 409.31640625 C35.57605469 408.84074219 34.49195313 408.36507813 33.375 407.875 C32.29347656 407.38128906 31.21195313 406.88757813 30.09765625 406.37890625 C27.49826082 405.19330855 27.49826082 405.19330855 25.3125 405.3125 Z " fill="#040503" transform="translate(280.6875,94.6875)"/>
<path d="M0 0 C0.99 0.66 1.98 1.32 3 2 C2.34 2 1.68 2 1 2 C1.01160156 2.77085937 1.02320313 3.54171875 1.03515625 4.3359375 C1.04417969 5.33882813 1.05320312 6.34171875 1.0625 7.375 C1.07410156 8.37273437 1.08570313 9.37046875 1.09765625 10.3984375 C1 13 1 13 0 15 C5.28 15 10.56 15 16 15 C15.67 12.69 15.34 10.38 15 8 C15.99 8.495 15.99 8.495 17 9 C17.3194715 11.34574906 17.55474444 13.70316197 17.75 16.0625 C18.45897498 22.74170747 20.0107096 27.36879264 25 32 C25.57878906 32.53882813 26.15757812 33.07765625 26.75390625 33.6328125 C29.80911768 35.49250642 32.52425448 35.71573921 36.0625 36.125 C42.7888707 36.92962357 42.7888707 36.92962357 46 38 C55.08227753 38.38975842 64.25550574 38.77782962 73 36 C74.29264401 35.61868908 75.58565086 35.23860719 76.87890625 34.859375 C78.3157509 34.42923783 79.7519453 33.99692288 81.1875 33.5625 C81.86570801 33.35729736 82.54391602 33.15209473 83.24267578 32.94067383 C88.72799021 31.21800753 94.16754249 29.47120043 98 25 C98 25.66 98 26.32 98 27 C99.23556641 27.13341797 99.23556641 27.13341797 100.49609375 27.26953125 C104.743516 28.15500278 108.20366152 29.75267622 112.0625 31.6875 C113.10374023 32.17766602 113.10374023 32.17766602 114.16601562 32.67773438 C119.67024775 35.41155527 123.64611546 38.61528864 126 44.5 C126 48.7376475 124.47975872 51.4726351 121.54296875 54.50390625 C82.56464993 87.02829864 1.02910234 78.99093533 -46.15960693 74.80859375 C-107.84079365 68.8678049 -107.84079365 68.8678049 -122.71484375 52.0625 C-124.72500166 48.83647149 -124.61867346 45.63197712 -124 42 C-118.99461151 32.44425834 -105.49416439 29.16472146 -96 26 C-96.33 21.38 -96.66 16.76 -97 12 C-96.34 12.33 -95.68 12.66 -95 13 C-94.4901337 16.30846575 -94.16171025 19.58871795 -93.87695312 22.921875 C-93.30525842 28.52551319 -92.15529964 32.14249651 -87.73828125 35.94921875 C-86.53751953 36.80966797 -86.53751953 36.80966797 -85.3125 37.6875 C-83.84100735 38.74594208 -82.393211 39.84045122 -81 41 C-81 41.66 -81 42.32 -81 43 C-76.29013543 43.05024886 -71.58043418 43.08611102 -66.87036133 43.10986328 C-65.27528152 43.11978751 -63.68021923 43.13333127 -62.08520508 43.15087891 C-45.34691601 43.33012358 -30.45856557 41.88547462 -15 35 C-13.453125 34.319375 -13.453125 34.319375 -11.875 33.625 C-7.53954613 31.40686081 -4.66494168 29.49870169 -3 24.8125 C-1.23869965 16.7055218 -0.72024572 8.25316862 0 0 Z " fill="#363D39" transform="translate(305,498)"/>
<path d="M0 0 C-0.43271019 3.4616815 -1.14086967 6.52807008 -2.4375 9.75 C-9.40157676 27.6273626 -7.72442991 49.89844376 -0.19921875 67.32421875 C6.02000048 80.83977175 13.38455496 88.84880264 27.24609375 94.99609375 C29.47822893 95.81046443 31.69464242 96.42366061 34 97 C35.50820313 97.41572266 35.50820313 97.41572266 37.046875 97.83984375 C52.70861474 101.61606322 70.27631136 101.50388605 86 98 C87.51207031 97.690625 87.51207031 97.690625 89.0546875 97.375 C95.38274117 95.95803124 101.00183192 93.84692606 106.8203125 90.98828125 C109 90 109 90 111 90 C111.51104548 93.62352994 112.00675833 97.24900719 112.5 100.875 C112.64308594 101.88820313 112.78617188 102.90140625 112.93359375 103.9453125 C113.13662109 105.45351563 113.13662109 105.45351563 113.34375 106.9921875 C113.46943359 107.90339355 113.59511719 108.81459961 113.72460938 109.75341797 C114.09946911 114.17264204 114.0517414 118.56782908 114 123 C76.13649577 120.79500022 39.32628736 116.58995893 2.07763672 109.43896484 C-8.58456368 107.41623229 -18.95259986 106.73584603 -29.8125 106.6875 C-30.99295898 106.68186035 -32.17341797 106.6762207 -33.38964844 106.67041016 C-42.07326921 106.7417857 -50.42988283 107.68632143 -59 109 C-59.41847676 61.55761142 -59.41847676 61.55761142 -57 44 C-56.90348145 43.22543457 -56.80696289 42.45086914 -56.70751953 41.65283203 C-55.00907033 28.12938344 -51.64664388 15.11624023 -48 2 C-46.96939453 2.63228516 -46.96939453 2.63228516 -45.91796875 3.27734375 C-45.01691406 3.82519531 -44.11585938 4.37304688 -43.1875 4.9375 C-42.29417969 5.48277344 -41.40085938 6.02804687 -40.48046875 6.58984375 C-34.60655283 9.92918807 -28.4922202 9.84437387 -22.02734375 8.28125 C-16.06787762 6.37422084 -10.54974111 3.94665689 -5.05859375 0.953125 C-3 0 -3 0 0 0 Z " fill="#E858BA" transform="translate(275,251)"/>
<path d="M0 0 C3.03234485 0.00317063 6.06372162 -0.02040414 9.09594727 -0.0456543 C27.88589292 -0.10675149 27.88589292 -0.10675149 36.47290039 3.31567383 C37.22514893 3.60603516 37.97739746 3.89639648 38.75244141 4.19555664 C44.23501252 6.44265678 48.23462437 10.38742251 51.47290039 15.31567383 C51.47290039 16.30567383 51.47290039 17.29567383 51.47290039 18.31567383 C52.13290039 18.31567383 52.79290039 18.31567383 53.47290039 18.31567383 C55.47290039 21.31567383 55.47290039 21.31567383 55.47290039 25.31567383 C56.13290039 25.31567383 56.79290039 25.31567383 57.47290039 25.31567383 C60.79155348 33.13821326 62.40437276 42.07255487 59.28540039 50.25317383 C56.72672157 54.57645874 54.31411376 57.70193604 49.47290039 59.31567383 C49.47290039 59.97567383 49.47290039 60.63567383 49.47290039 61.31567383 C47.88126035 62.29467099 46.273577 63.24758597 44.66040039 64.19067383 C43.76708008 64.7243457 42.87375977 65.25801758 41.95336914 65.80786133 C30.78706411 70.64534028 18.21654015 69.67145049 6.28540039 69.62817383 C4.81898102 69.62643661 4.81898102 69.62643661 3.32293701 69.62466431 C-36.88529634 69.53022844 -36.88529634 69.53022844 -46.52709961 63.31567383 C-49.8075416 59.79109878 -51.10134924 57.22314763 -51.79272461 52.47583008 C-51.96070557 51.34024658 -52.12868652 50.20466309 -52.30175781 49.03466797 C-52.45862061 47.8280249 -52.6154834 46.62138184 -52.77709961 45.37817383 C-52.9462085 44.13865967 -53.11531738 42.89914551 -53.28955078 41.62207031 C-54.87473999 29.14620716 -56.22674242 15.72696578 -53.52709961 3.31567383 C-52.92349609 3.29585449 -52.31989258 3.27603516 -51.69799805 3.25561523 C-48.8906863 3.15875602 -46.08396229 3.0497488 -43.27709961 2.94067383 C-42.32834961 2.90973633 -41.37959961 2.87879883 -40.40209961 2.84692383 C-35.55910041 2.65058602 -30.95617921 2.25400876 -26.20288086 1.29614258 C-17.54277936 -0.24543144 -8.76789481 -0.01917955 0 0 Z " fill="#576E77" transform="translate(342.527099609375,258.684326171875)"/>
<path d="M0 0 C8.8107913 -0.30703817 17.02342525 0.57477601 25.6875 2.125 C26.97914063 2.34728271 28.27078125 2.56956543 29.6015625 2.79858398 C36.49029815 3.98826335 43.36597249 5.24656681 50.23828125 6.52734375 C52.99203591 7.03988185 55.74592578 7.5516817 58.5 8.0625 C59.18156158 8.18903961 59.86312317 8.31557922 60.56533813 8.44595337 C88.57608539 13.62052482 116.49506864 17.45959346 145 15 C145.02505615 15.61520508 145.0501123 16.23041016 145.07592773 16.86425781 C145.19218487 19.65970156 145.31477642 22.45483298 145.4375 25.25 C145.47681641 26.21808594 145.51613281 27.18617188 145.55664062 28.18359375 C145.61948242 29.58544922 145.61948242 29.58544922 145.68359375 31.015625 C145.72025146 31.87446289 145.75690918 32.73330078 145.79467773 33.61816406 C145.908412 35.90798853 145.908412 35.90798853 146.50892639 37.66448975 C147.21389321 41.01726052 147.104377 44.34185642 147.0625 47.75 C147.05798828 48.44738281 147.05347656 49.14476562 147.04882812 49.86328125 C147.0371002 51.57555803 147.01916653 53.28779033 147 55 C116.67463656 56.7567642 86.45402994 57.26468755 56.08190918 57.1373291 C50.51490902 57.11633567 44.94788825 57.10762489 39.38085938 57.09765625 C28.58718891 57.0766305 17.79360463 57.04281077 7 57 C6.97690765 56.35268417 6.95381531 55.70536835 6.93002319 55.03843689 C6.82059585 52.05535295 6.70331152 49.07262517 6.5859375 46.08984375 C6.54976318 45.07192749 6.51358887 44.05401123 6.47631836 43.00524902 C6.13532561 34.56314628 5.03775482 26.43622485 3.42041016 18.15380859 C2.97707429 15.88254901 2.55497314 13.60803618 2.13671875 11.33203125 C1.43976665 7.55165574 0.72518136 3.77505755 0 0 Z " fill="#E7748E" transform="translate(252,375)"/>
<path d="M0 0 C13.71732361 9.67330132 25.35160808 21.98715747 34.98828125 35.66943359 C35.42253418 36.28061035 35.85678711 36.89178711 36.30419922 37.52148438 C37.61712258 39.38989376 38.90138409 41.27457993 40.17578125 43.16943359 C40.77471191 44.03266235 40.77471191 44.03266235 41.38574219 44.91333008 C43.12958119 47.59002074 44.00915405 49.23049094 43.85546875 52.46240234 C42.78161723 55.19540285 41.45909891 56.15506148 38.98828125 57.66943359 C35.94332554 56.33070306 34.15251304 54.9218266 31.98828125 52.41943359 C26.83974297 47.13802981 19.40039396 42.48779316 11.86328125 42.04443359 C1.6770812 43.68736908 -4.91432734 48.2581191 -12.01171875 55.66943359 C-12.67171875 56.65943359 -13.33171875 57.64943359 -14.01171875 58.66943359 C-16.98372977 57.27044643 -19.58188862 55.62613007 -22.26171875 53.73193359 C-29.59323213 48.84027132 -36.09299024 46.52003791 -45.01171875 47.66943359 C-47.05081693 48.34209522 -47.05081693 48.34209522 -48.88671875 49.23193359 C-52.01171875 50.66943359 -52.01171875 50.66943359 -54.046875 50.43896484 C-57.61614397 49.0410603 -59.29143064 45.91569155 -61.01171875 42.66943359 C-63.31556946 36.80829616 -64.50424081 31.51020702 -63.40576172 25.2734375 C-62.93268992 22.14717737 -62.69489156 19.03361264 -62.46484375 15.88037109 C-62.37879883 14.71554199 -62.29275391 13.55071289 -62.20410156 12.35058594 C-62.14061523 11.46580566 -62.07712891 10.58102539 -62.01171875 9.66943359 C-63.00091309 10.12382812 -63.99010742 10.57822266 -65.00927734 11.04638672 C-68.67144355 12.7274328 -72.33585609 14.403531 -76.00097656 16.078125 C-77.5885108 16.80430982 -79.17542834 17.53184435 -80.76171875 18.26074219 C-83.03876462 19.30676013 -85.31796678 20.34794214 -87.59765625 21.38818359 C-88.3091684 21.71629028 -89.02068054 22.04439697 -89.75375366 22.38244629 C-94.78397534 24.66943359 -94.78397534 24.66943359 -97.01171875 24.66943359 C-89.71100024 8.05269407 -68.47091453 -5.50255717 -52.28125 -12.49072266 C-33.98437592 -19.26151083 -15.13393783 -10.00970403 0 0 Z " fill="#D61600" transform="translate(308.01171875,121.33056640625)"/>
<path d="M0 0 C6.27725553 2.85329797 10.3906159 8.59781301 14.23608398 14.12402344 C15.51594981 15.92935151 15.51594981 15.92935151 18 18 C21.87404874 18.08891259 24.02076725 17.79983133 27.046875 15.328125 C27.60890625 14.64234375 28.1709375 13.9565625 28.75 13.25 C33.56402579 8.06279392 39.27999365 4.74858197 46.33984375 3.62890625 C49.95927428 3.51432465 53.02856379 3.86056593 56 6 C57.66209151 9.32418301 57.90533108 12.45359963 57 16 C55.08282263 18.24859315 52.9887275 20.13513527 50.79296875 22.109375 C48.69166597 23.9910017 48.69166597 23.9910017 48.3125 27.375 C48.77595022 30.33045181 48.77595022 30.33045181 52 32 C52.54912448 35.02018463 52.60214012 37.03434566 50.9453125 39.69140625 C49.15522276 41.8892975 47.55733836 43.72133082 45 45 C40.5896533 45.36752889 37.98423694 45.4419023 33.9375 43.625 C29.82422634 39.94930865 26.9776893 35.61629939 24 31 C20.27917522 31.53831842 18.0754183 32.37965795 15.1796875 34.765625 C14.48464111 35.32403076 13.78959473 35.88243652 13.07348633 36.45776367 C12.34798584 37.04920166 11.62248535 37.64063965 10.875 38.25 C4.56960124 43.23662255 -1.37050872 47.27228807 -9 50 C-9.99 50.433125 -10.98 50.86625 -12 51.3125 C-17.81468255 52.64503142 -24.30436024 53.24312802 -29.8125 50.5625 C-34.04393822 47.75176205 -36.48733867 43.30741942 -39 39 C-43.59000013 39.50925549 -46.41101438 40.62188595 -50.1875 43.25 C-65.85782967 53.57623626 -65.85782967 53.57623626 -75 52 C-80.06000757 48.47999473 -80.92377253 44.77249279 -82 39 C-82.61488281 38.89042969 -83.22976562 38.78085938 -83.86328125 38.66796875 C-85.07564453 38.43013672 -85.07564453 38.43013672 -86.3125 38.1875 C-87.11300781 38.03667969 -87.91351563 37.88585937 -88.73828125 37.73046875 C-91.32165275 36.89611561 -92.41154901 36.19357518 -94 34 C-94.83343674 29.63671353 -94.44563298 25.909834 -92.5 21.9375 C-92.005 21.298125 -91.51 20.65875 -91 20 C-84.25 20.875 -84.25 20.875 -82 22 C-78.61718067 22.36769775 -76.73749975 22.53636345 -73.9375 20.5 C-72.31809366 18.41044344 -71.02517208 16.39209359 -69.6875 14.125 C-67.11201617 9.91916402 -64.28976098 6.52773012 -60 4 C-55.2012918 3.1275076 -51.60829376 4.09760525 -47.3046875 6.375 C-43.65809396 8.94615748 -40.5178726 12.11967731 -37.47583008 15.37817383 C-34.73128831 18.13289256 -33.34371402 18.98240244 -29.4140625 19.18359375 C-25.11279844 17.69242326 -23.92995014 16.01392102 -21.4375 12.25 C-15.76815633 4.02757442 -10.58787061 -1.6879214 0 0 Z " fill="#FBFBFB" transform="translate(324,177)"/>
<path d="M0 0 C0.309375 0.928125 0.61875 1.85625 0.9375 2.8125 C2.98675113 7.69688012 6.49096756 11.3968725 9.94140625 15.3515625 C11.89982622 17.87112368 12.99566643 19.99242811 14 23 C13.4652002 23.176521 12.93040039 23.35304199 12.37939453 23.53491211 C9.96074202 24.33420816 7.54286513 25.13582545 5.125 25.9375 C4.28324219 26.21529297 3.44148437 26.49308594 2.57421875 26.77929688 C1.76855469 27.04677734 0.96289062 27.31425781 0.1328125 27.58984375 C-0.61081543 27.83597412 -1.35444336 28.08210449 -2.12060547 28.33569336 C-4.05422313 28.97562425 -4.05422313 28.97562425 -6 30 C-12.9224193 30.73056674 -19.15131973 29.87143596 -25.8125 28 C-37.77514533 24.73110443 -47.91382753 25.40195522 -59.734375 29.0859375 C-70.55022155 32.11333952 -78.27279059 28.62042447 -88 24 C-95.17810179 21.6072994 -104.44751583 22.02544999 -111.52734375 24.73828125 C-114.28881105 26.1473712 -116.88318523 27.74063383 -119.51025391 29.38378906 C-131.11516473 36.62297515 -131.11516473 36.62297515 -135.63671875 36.7421875 C-139.860231 35.41579522 -143.22529663 32.57680196 -146.70068359 29.91333008 C-155.13567047 23.45802939 -163.3740785 20.8601046 -174 22 C-177.67765956 22.56126689 -181.33788984 23.20709798 -184.98681641 23.93188477 C-189.05873715 24.73231943 -192.85056315 25.15633671 -197 25 C-193.24040592 20.59852401 -189.45189879 16.22731564 -185.61328125 11.89453125 C-183.95832102 10.03721597 -183.95832102 10.03721597 -182.6730957 7.93115234 C-180.61011603 5.5499807 -179.70952879 5.43101671 -176.6171875 5.20703125 C-165.06421553 4.40030623 -153.51755856 3.82298653 -141.94140625 3.48046875 C-141.24193815 3.45946106 -140.54247005 3.43845337 -139.82180595 3.41680908 C-122.23852425 2.89462673 -104.65186709 2.69508714 -87.0625 2.5 C-68.45369087 2.29343433 -49.84921304 2.0510551 -31.24609375 1.53125 C-30.53365068 1.51244278 -29.82120762 1.49363556 -29.08717537 1.47425842 C-19.38037858 1.21376992 -9.68532226 -0.20607069 0 0 Z " fill="#DEB1BC" transform="translate(396,450)"/>
<path d="M0 0 C0.33 0 0.66 0 1 0 C1.02708567 1.60407328 1.04643483 3.2082785 1.0625 4.8125 C1.07410156 5.70582031 1.08570313 6.59914062 1.09765625 7.51953125 C1 10 1 10 0 13 C-0.58628468 20.03541615 1.2083363 23.9539739 5.15625 29.67578125 C8.13763015 34.30756826 9.1737611 38.52244821 8 44 C4.91029565 48.30686061 0.99143327 50.43967759 -4 52 C-6.82700646 52.40031417 -9.58604089 52.43018542 -12.4375 52.375 C-13.18668701 52.36557373 -13.93587402 52.35614746 -14.70776367 52.34643555 C-20.07324852 52.1994921 -24.25989651 51.69535297 -29 49 C-29.680625 48.13375 -30.36125 47.2675 -31.0625 46.375 C-32.89211223 43.76482131 -32.89211223 43.76482131 -36.125 42.625 C-41.52639546 43.14771569 -43.5981357 45.8240418 -47.40625 49.51171875 C-56.2466756 57.99266921 -66.34612834 63.02114627 -78.75 63.4375 C-87.37717177 63.03681858 -93.03836399 60.58675051 -99.2734375 54.62109375 C-101.75062998 52.29522299 -103.43510095 51.06586614 -106.84765625 50.66796875 C-110.58610274 51.06173325 -112.37696456 52.16701579 -115.4375 54.3125 C-123.86569554 59.90112899 -130.72847588 62.62395638 -141 61 C-145.4272606 57.47626197 -147.05504312 53.06442236 -149.10546875 47.85546875 C-149.85478034 45.81782998 -149.85478034 45.81782998 -152 45 C-154.98404535 44.76198161 -157.96692704 44.61771028 -160.95703125 44.4765625 C-165.31334904 43.79431504 -168.01164 42.19284828 -170.8125 38.8125 C-173.39398978 32.69844526 -172.1283003 27.11058026 -169.9140625 21.109375 C-167.63382896 15.84729759 -165.19254814 12.47777193 -160 10 C-156.44921875 9.70703125 -156.44921875 9.70703125 -152.6875 9.8125 C-151.43324219 9.83957031 -150.17898437 9.86664063 -148.88671875 9.89453125 C-147.93410156 9.92933594 -146.98148438 9.96414062 -146 10 C-146.66 10.804375 -147.32 11.60875 -148 12.4375 C-150.62628718 16.33967846 -150.78635218 20.42818502 -150 25 C-147.61026545 27.38973455 -146.87171094 27.19798038 -143.625 27.5 C-141.1953125 27.97265625 -141.1953125 27.97265625 -139 29 C-136.97623875 32.14503437 -135.97746892 35.41012902 -135 39 C-134.67 39.99 -134.34 40.98 -134 42 C-122.65974295 43.9627368 -112.38420172 37.03120476 -103.3125 30.9375 C-100 29 -100 29 -97.4765625 29.10546875 C-94.3091718 30.24952628 -93.68412841 31.47016998 -92.0625 34.375 C-89.48197936 38.47385728 -87.83270991 40.63225191 -83 42 C-69.95103804 43.87336583 -58.24345001 37.5197581 -48 30 C-45.12713616 27.5831463 -42.28805263 25.14796418 -39.5078125 22.625 C-37 21 -37 21 -34.3984375 20.9453125 C-31.24256977 22.33307192 -30.29331791 23.95662887 -28.5 26.875 C-26.08960734 30.77483341 -24.17800132 33.00771233 -20 35 C-15.91891282 35.85795583 -12.81147622 35.4233789 -9.125 33.5 C-6.23623047 30.10144762 -5.80009493 27.36415416 -5 23 C-6.98 22.01 -6.98 22.01 -9 21 C-9.5 18.5 -9.5 18.5 -9 15 C-7.25390625 13.06640625 -7.25390625 13.06640625 -5.0625 11.0625 C-2.23215541 8.4717613 -0.49300286 6.87359393 0 3 C0 2.01 0 1.02 0 0 Z " fill="#605A65" transform="translate(381,186)"/>
<path d="M0 0 C3.03234485 0.00317063 6.06372162 -0.02040414 9.09594727 -0.0456543 C27.88589292 -0.10675149 27.88589292 -0.10675149 36.47290039 3.31567383 C37.22514893 3.60603516 37.97739746 3.89639648 38.75244141 4.19555664 C44.23501252 6.44265678 48.23462437 10.38742251 51.47290039 15.31567383 C51.47290039 16.30567383 51.47290039 17.29567383 51.47290039 18.31567383 C52.13290039 18.31567383 52.79290039 18.31567383 53.47290039 18.31567383 C56.54634315 24.70843476 56.54634315 24.70843476 56.22802734 27.34033203 C55.8542395 28.31812622 55.8542395 28.31812622 55.47290039 29.31567383 C52.6392213 30.54402031 50.05573084 31.43517096 47.09790039 32.25317383 C45.76734619 32.62949951 45.76734619 32.62949951 44.40991211 33.01342773 C27.24765998 37.69082669 10.28032295 40.74838533 -7.52709961 40.87817383 C-9.37730713 40.90016846 -9.37730713 40.90016846 -11.26489258 40.92260742 C-21.50615911 40.80649963 -30.80138711 38.64125336 -38.89038086 32.06176758 C-41.21331835 29.58359798 -42.3332402 27.03952927 -43.51928711 23.88208008 C-45.11518092 19.81811793 -47.28023203 16.0468869 -49.35522461 12.21020508 C-50.64303333 9.02931754 -50.74865442 6.71452611 -50.52709961 3.31567383 C-48.67858398 3.24219727 -48.67858398 3.24219727 -46.79272461 3.16723633 C-45.1208325 3.09209511 -43.44895841 3.01655244 -41.77709961 2.94067383 C-40.56860352 2.89426758 -40.56860352 2.89426758 -39.33569336 2.84692383 C-34.88359336 2.6365884 -30.66673191 2.17678834 -26.29663086 1.29614258 C-17.60071609 -0.23097208 -8.80133416 -0.0192527 0 0 Z " fill="#94C2D4" transform="translate(342.527099609375,258.684326171875)"/>
<path d="M0 0 C0.78375 0.00451172 1.5675 0.00902344 2.375 0.01367188 C4.29170014 0.02535907 6.20836048 0.04329092 8.125 0.0625 C8.17128835 8.11173983 8.20685126 16.16092429 8.22862434 24.21026421 C8.23907298 27.9476783 8.2532517 31.6850015 8.27587891 35.42236328 C8.29756904 39.027405 8.30956049 42.63235917 8.31475449 46.23746109 C8.31845716 47.61461898 8.32568734 48.99177194 8.33646011 50.36889267 C8.35092335 52.29389545 8.35181648 54.21898587 8.35205078 56.14404297 C8.356492 57.24102509 8.36093323 58.3380072 8.36550903 59.4682312 C8.125 62.0625 8.125 62.0625 6.125 64.0625 C4.85810007 77.59684247 6.91057002 91.64414505 8.0625 105.125 C8.24737568 107.33393166 8.43162397 109.54291593 8.61523438 111.75195312 C8.74993637 113.36679092 8.74993637 113.36679092 8.88735962 115.01425171 C9.06237669 117.13334305 9.23461082 119.25266629 9.40390015 121.3722229 C9.76184532 125.84011447 10.13624002 130.2969228 10.65283203 134.74951172 C10.72369522 135.43702011 10.79455841 136.1245285 10.86756897 136.83287048 C11.04927255 138.58123239 11.2568221 140.32685858 11.46704102 142.07202148 C11.08273801 145.43199827 10.07721413 147.43608032 7.76231384 149.92225647 C4.66690475 152.07793371 1.44317132 151.69057629 -2.1875 151.4375 C-2.92806641 151.41042969 -3.66863281 151.38335937 -4.43164062 151.35546875 C-6.24735998 151.28518284 -8.06156801 151.17757089 -9.875 151.0625 C-9.98569824 149.80405273 -10.09639648 148.54560547 -10.21044922 147.24902344 C-10.63048417 142.4775965 -11.05209214 137.70630954 -11.47412109 132.93505859 C-11.65487355 130.88919668 -11.83522687 128.84329946 -12.01513672 126.79736328 C-12.85845817 117.20988203 -13.70182828 107.62382909 -14.68530273 98.04954529 C-16.43415136 81.00617385 -17.03486176 64.22449777 -17.00537109 47.09155273 C-16.99999688 43.37284294 -17.00535068 39.65425308 -17.01171875 35.93554688 C-17.01105811 33.53645807 -17.00977725 31.13736934 -17.0078125 28.73828125 C-17.00983673 27.64421463 -17.01186096 26.55014801 -17.01394653 25.42292786 C-16.95968418 7.31655255 -16.95968418 7.31655255 -14.875 1.0625 C-9.85891475 0.0448597 -5.08891694 -0.05606434 0 0 Z " fill="#A82EA8" transform="translate(188.875,307.9375)"/>
<path d="M0 0 C1.19882813 0.00322266 2.39765625 0.00644531 3.6328125 0.00976562 C5.4890625 0.02233398 5.4890625 0.02233398 7.3828125 0.03515625 C8.64351562 0.03966797 9.90421875 0.04417969 11.203125 0.04882812 C14.30473636 0.06057665 17.40624975 0.07700458 20.5078125 0.09765625 C19.1878125 0.42765625 17.8678125 0.75765625 16.5078125 1.09765625 C16.76175781 2.04382813 17.01570313 2.99 17.27734375 3.96484375 C22.08228303 22.23157442 24.00135746 39.17083988 23.5078125 58.09765625 C25.8178125 58.09765625 28.1278125 58.09765625 30.5078125 58.09765625 C30.5078125 58.42765625 30.5078125 58.75765625 30.5078125 59.09765625 C28.70763672 59.27155884 28.70763672 59.27155884 26.87109375 59.44897461 C22.39067847 59.88209542 17.91040687 60.31668739 13.43017578 60.75170898 C11.49629502 60.93928088 9.56237624 61.12646131 7.62841797 61.31323242 C4.83811358 61.58277496 2.0479519 61.85375555 -0.7421875 62.125 C-2.0254895 62.24850075 -2.0254895 62.24850075 -3.3347168 62.37449646 C-8.39954423 62.86852359 -13.44542296 63.44391709 -18.4921875 64.09765625 C-18.50620605 63.03744263 -18.50620605 63.03744263 -18.52050781 61.95581055 C-18.80083593 44.87915621 -20.21119975 28.54103561 -23.14086914 11.69946289 C-23.48777013 9.13037056 -23.55504391 6.68646347 -23.4921875 4.09765625 C-21.78493742 3.61464422 -20.07632776 3.13643667 -18.3671875 2.66015625 C-17.41585937 2.39332031 -16.46453125 2.12648438 -15.484375 1.8515625 C-10.27114761 0.53804698 -5.37601879 -0.02560009 0 0 Z " fill="#AA2543" transform="translate(235.4921875,373.90234375)"/>
<path d="M0 0 C0.17946247 6.8159484 -0.26682203 13.27634327 -1.375 20 C-1.56449219 21.26650391 -1.56449219 21.26650391 -1.7578125 22.55859375 C-1.88671875 23.36425781 -2.015625 24.16992188 -2.1484375 25 C-2.26364746 25.721875 -2.37885742 26.44375 -2.49755859 27.1875 C-3 29 -3 29 -5 31 C-8.68383796 32.22794599 -10.26027618 32.65781846 -14 32 C-17.0726655 30.12386659 -19.8500659 28.10031941 -22.69750977 25.91162109 C-31.14428253 19.46656638 -39.36670528 16.85931364 -50 18 C-53.67765956 18.56126689 -57.33788984 19.20709798 -60.98681641 19.93188477 C-65.05873715 20.73231943 -68.85056315 21.15633671 -73 21 C-69.24040592 16.59852401 -65.45189879 12.22731564 -61.61328125 7.89453125 C-59.95868943 6.03734244 -59.95868943 6.03734244 -58.6730957 3.93334961 C-56.61445314 1.55448043 -55.70410099 1.4206653 -52.6171875 1.171875 C-51.71226562 1.09437012 -50.80734375 1.01686523 -49.875 0.93701172 C-48.39 0.84444092 -48.39 0.84444092 -46.875 0.75 C-45.84632813 0.67410645 -44.81765625 0.59821289 -43.7578125 0.52001953 C-29.19923736 -0.42193053 -14.58002138 -0.17472371 0 0 Z " fill="#CE8999" transform="translate(272,454)"/>
<path d="M0 0 C0.309375 0.928125 0.61875 1.85625 0.9375 2.8125 C2.98675113 7.69688012 6.49096756 11.3968725 9.94140625 15.3515625 C11.89982622 17.87112368 12.99566643 19.99242811 14 23 C13.4652002 23.176521 12.93040039 23.35304199 12.37939453 23.53491211 C9.96074202 24.33420816 7.54286513 25.13582545 5.125 25.9375 C3.86236328 26.35418945 3.86236328 26.35418945 2.57421875 26.77929688 C1.76855469 27.04677734 0.96289062 27.31425781 0.1328125 27.58984375 C-0.61081543 27.83597412 -1.35444336 28.08210449 -2.12060547 28.33569336 C-4.05422313 28.97562425 -4.05422313 28.97562425 -6 30 C-15.82190039 31.03656734 -24.66034301 28.65492787 -34 26 C-33.34 25.67 -32.68 25.34 -32 25 C-32.2165625 24.16597656 -32.433125 23.33195312 -32.65625 22.47265625 C-34.30958224 15.79043845 -35.34980978 9.87959232 -35 3 C-39.95 3 -44.9 3 -50 3 C-50 2.67 -50 2.34 -50 2 C-49.01717041 1.97494385 -48.03434082 1.9498877 -47.02172852 1.92407227 C-43.33705031 1.82911881 -39.65252255 1.72912162 -35.96801758 1.62768555 C-34.38048855 1.58466614 -32.792923 1.54297163 -31.20532227 1.50268555 C-20.80072735 1.23757948 -10.37209981 -0.22068297 0 0 Z " fill="#CC8898" transform="translate(396,450)"/>
<path d="M0 0 C0.33 0 0.66 0 1 0 C1.16435547 1.56234375 1.16435547 1.56234375 1.33203125 3.15625 C3.89733564 26.73261889 10.09747854 48.50736185 17.4597168 71.00170898 C17.79011963 72.01563721 18.12052246 73.02956543 18.4609375 74.07421875 C18.75790527 74.97744873 19.05487305 75.88067871 19.36083984 76.8112793 C20 79 20 79 20 81 C11.75 81.99 3.5 82.98 -5 84 C-5.23180228 55.53983163 -4.86799512 28.10455848 0 0 Z " fill="#A72EA7" transform="translate(221,276)"/>
<path d="M0 0 C10.18016477 0.23061862 21.39824773 7.61520757 28.4765625 14.4765625 C33.23896049 19.86610755 38.85165226 26.35099348 39.75 33.6875 C39.375 36.625 39.375 36.625 37.875 38.5 C33.55772257 40.44277484 29.64665648 40.31263656 25.20703125 38.96875 C13.31544575 34.08583347 1.69289748 24.86444119 -4.8203125 13.6796875 C-6.22850012 10.08402398 -6.36957492 6.402738 -5.625 2.625 C-3.625 0.625 -3.625 0.625 0 0 Z " fill="#FE2E16" transform="translate(280.625,114.375)"/>
<path d="M0 0 C5.47004718 0.68730603 7.9785444 2.3811476 11.75 6.25 C18.90002431 13.10256737 24.76193378 17.20148187 35 17.5 C41.03852006 17.28858573 46.37497965 16.17742723 52 14 C50.95321512 25.7239906 50.95321512 25.7239906 48 30 C45.00229089 31.20960192 43.11962442 31.69375459 40 32 C39.27723877 32.08668945 38.55447754 32.17337891 37.80981445 32.26269531 C31.12016116 32.99152913 24.47682435 33.24959329 17.75 33.3125 C16.17605469 33.35600586 16.17605469 33.35600586 14.5703125 33.40039062 C13.55195313 33.40876953 12.53359375 33.41714844 11.484375 33.42578125 C10.11877441 33.44765503 10.11877441 33.44765503 8.72558594 33.4699707 C4.93931581 32.81710704 2.86594054 31.54724297 0 29 C-0.68115234 25.88378906 -0.68115234 25.88378906 -0.5859375 22.265625 C-0.56660156 20.97011719 -0.54726562 19.67460937 -0.52734375 18.33984375 C-0.477215 16.97653835 -0.42642536 15.61325711 -0.375 14.25 C-0.34489131 12.87115135 -0.31751703 11.4922401 -0.29296875 10.11328125 C-0.22221326 6.74060269 -0.12351802 3.37109173 0 0 Z " fill="#A62CA6" transform="translate(226,492)"/>
<path d="M0 0 C1.17167725 -0.00805664 2.34335449 -0.01611328 3.55053711 -0.02441406 C4.78425049 -0.00604492 6.01796387 0.01232422 7.2890625 0.03125 C9.17540405 0.04720215 9.17540405 0.04720215 11.09985352 0.06347656 C21.85324994 0.28300452 33.76289282 0.57204627 41.9140625 8.53125 C42.57962679 13.1902 42.55055735 15.33463968 40.3515625 19.46875 C37.22282877 22.11614008 34.9011646 22.6810338 30.9140625 22.53125 C27.99779954 22.10143628 25.10412614 21.57781885 22.203125 21.0546875 C18.6905992 20.53593058 15.23638507 20.43476809 11.6875 20.3828125 C10.57552246 20.36331543 9.46354492 20.34381836 8.31787109 20.32373047 C6.07357687 20.29572106 3.8288397 20.29159455 1.58447266 20.31298828 C-6.07306139 20.19859111 -6.07306139 20.19859111 -8.94091797 18.30908203 C-10.93605883 16.10045197 -11.99249399 14.03781218 -12.53125 11.1171875 C-12.42554688 10.38757813 -12.31984375 9.65796875 -12.2109375 8.90625 C-12.09105469 7.80410156 -12.09105469 7.80410156 -11.96875 6.6796875 C-9.76090236 1.30660695 -5.40169116 0.02317967 0 0 Z " fill="#F7F7F8" transform="translate(337.0859375,261.46875)"/>
<path d="M0 0 C10.06471861 -0.35366508 19.79099316 0.74988035 29.75 2 C31.33325333 2.19336455 32.9165864 2.38607731 34.5 2.578125 C38.33429228 3.0445894 42.16740374 3.519808 46 4 C45.50959019 7.67564901 45.03804682 10.51429279 42.92578125 13.5859375 C42.50844727 14.20331787 42.09111328 14.82069824 41.66113281 15.45678711 C41.21608398 16.08979736 40.77103516 16.72280762 40.3125 17.375 C39.85842773 18.03185791 39.40435547 18.68871582 38.93652344 19.36547852 C38.03672692 20.66210261 37.13239823 21.95559558 36.22314453 23.24560547 C35.18991785 24.72759487 34.19753638 26.23793622 33.21484375 27.75390625 C32.73144531 28.47449219 32.24804688 29.19507813 31.75 29.9375 C31.35296875 30.54464844 30.9559375 31.15179688 30.546875 31.77734375 C29 33 29 33 26.1015625 33.49609375 C21.97738745 32.83643351 21.09193235 31.43564155 18.625 28.125 C17.85800781 27.11566406 17.09101563 26.10632813 16.30078125 25.06640625 C15.16189453 23.54853516 15.16189453 23.54853516 14 22 C12.60626121 20.35239257 11.21053634 18.70646242 9.8125 17.0625 C5.59808104 11.81770205 2.80948628 6.07933799 0 0 Z " fill="#E9BAC4" transform="translate(329,388)"/>
<path d="M0 0 C7.83555936 2.38693574 15.41003783 2.85074774 23.5625 3.0625 C23.05740493 7.48208188 21.65608978 9.87916444 18.5625 13.0625 C7.96376751 19.07673676 -4.37166744 21.31068957 -16.4375 20.0625 C-21.7231067 18.51283718 -25.63065422 15.89027474 -28.4375 11.0625 C-29.1875 7.25 -29.1875 7.25 -29.4375 4.0625 C-10.64133448 -3.58969387 -10.64133448 -3.58969387 0 0 Z " fill="#A52CA5" transform="translate(365.4375,501.9375)"/>
<path d="M0 0 C4.33532656 2.29517289 7.23305481 4.95600319 10 9 C10 9.66 10 10.32 10 11 C10.495 10.835 10.99 10.67 11.5 10.5 C16.79582309 9.44083538 20.49874063 8.99916042 25 12 C25.66 12.66 26.32 13.32 27 14 C26.67497202 16.92525181 26.14220891 18.78668664 24.5 21.25 C20.8840125 23.78119125 17.32822466 23.81503313 13 24 C12.83564453 25.12148437 12.83564453 25.12148437 12.66796875 26.265625 C12.43013672 27.74289063 12.43013672 27.74289063 12.1875 29.25 C12.03667969 30.22453125 11.88585937 31.1990625 11.73046875 32.203125 C10.95199067 35.18382182 10.16245539 36.8170474 8 39 C4.4375 39.375 4.4375 39.375 1 39 C-1 37 -1 37 -1.13525391 35.02880859 C-1.08288574 34.24328613 -1.03051758 33.45776367 -0.9765625 32.6484375 C-0.925 31.79765625 -0.8734375 30.946875 -0.8203125 30.0703125 C-0.75585938 29.18085938 -0.69140625 28.29140625 -0.625 27.375 C-0.56828125 26.4778125 -0.5115625 25.580625 -0.453125 24.65625 C-0.31145247 22.43671376 -0.1600296 20.21827598 0 18 C-1.08410156 18.06316406 -2.16820312 18.12632812 -3.28515625 18.19140625 C-7 18 -7 18 -8.99609375 16.71484375 C-11.67105867 13.41644527 -12.91666042 11.55559717 -13.5625 7.25 C-13 4 -13 4 -11.6875 2.125 C-7.92597362 -0.38268425 -4.38633679 -0.37172346 0 0 Z " fill="#F9F9F9" transform="translate(182,157)"/>
<path d="M0 0 C11.55 0 23.1 0 35 0 C35.99 7.26 36.98 14.52 38 22 C29.9375 22.375 29.9375 22.375 27.44116211 22.47802734 C22.68452499 22.72978565 18.59281108 23.66922082 14 25 C10.5625 25.125 10.5625 25.125 8 25 C7.74307373 24.13048706 7.74307373 24.13048706 7.48095703 23.2434082 C6.69808664 20.59904012 5.91157788 17.95576753 5.125 15.3125 C4.85558594 14.40048828 4.58617187 13.48847656 4.30859375 12.54882812 C4.04433594 11.66259766 3.78007812 10.77636719 3.5078125 9.86328125 C3.26691895 9.05157471 3.02602539 8.23986816 2.77783203 7.40356445 C1.96626874 4.89576766 0.97892832 2.44732079 0 0 Z " fill="#DFB2BD" transform="translate(326,453)"/>
<path d="M0 0 C0 0.33 0 0.66 0 1 C-0.95712891 1.30744141 -0.95712891 1.30744141 -1.93359375 1.62109375 C-2.75988281 1.89050781 -3.58617187 2.15992188 -4.4375 2.4375 C-5.67306641 2.83775391 -5.67306641 2.83775391 -6.93359375 3.24609375 C-8.96219588 3.82155494 -8.96219588 3.82155494 -10 5 C-10.52228971 9.43946252 -10.29441099 11.51823656 -7.9375 15.375 C-4.47862808 18.46590682 -2.50941211 18.54321621 2 19 C1.99476318 19.57032959 1.98952637 20.14065918 1.98413086 20.72827148 C1.96341779 23.29800323 1.9503581 25.86771747 1.9375 28.4375 C1.92912109 29.33533203 1.92074219 30.23316406 1.91210938 31.15820312 C1.90888672 32.01220703 1.90566406 32.86621094 1.90234375 33.74609375 C1.89710693 34.53685303 1.89187012 35.3276123 1.88647461 36.14233398 C1.79504091 38.01592689 1.79504091 38.01592689 3 39 C5.33297433 39.04092937 7.66705225 39.04241723 10 39 C12.54521255 34.37234081 13.8545847 30.1103144 15 25 C16.15628906 24.85304687 16.15628906 24.85304687 17.3359375 24.703125 C18.33882812 24.55359375 19.34171875 24.4040625 20.375 24.25 C21.37273437 24.11078125 22.37046875 23.9715625 23.3984375 23.828125 C26.11025817 23.26780404 26.11025817 23.26780404 27.2265625 21.109375 C27.60941406 20.06523437 27.60941406 20.06523437 28 19 C28.66 18.01 29.32 17.02 30 16 C30.55178939 21.65584123 29.21198546 24.48585827 26 29 C25.154375 29.33 24.30875 29.66 23.4375 30 C20.69492205 30.82812711 20.69492205 30.82812711 19.375 33.9375 C17.81379242 38.04867997 16.9285022 42.34557269 16.0390625 46.64453125 C15 49 15 49 12.84375 50.3046875 C9.44754269 51.13507885 6.37152981 51.30136455 2.875 51.3125 C1.65554687 51.32925781 0.43609375 51.34601563 -0.8203125 51.36328125 C-4 51 -4 51 -5.91015625 49.73828125 C-8.32117143 45.89275524 -7.36530717 40.90147065 -6.54296875 36.62109375 C-6.19801518 35.15442065 -5.83185116 33.69245116 -5.4375 32.23828125 C-4.86534558 29.31109837 -4.63461534 26.9774963 -5 24 C-7.08720485 21.65737983 -7.08720485 21.65737983 -9.875 19.8125 C-12.95151537 17.59057224 -14.87778329 16.18332507 -17 13 C-17.53198456 8.28813675 -17.64536434 6.10633888 -15.25 2 C-10.34061709 -1.02115871 -5.61992525 -0.40334392 0 0 Z " fill="#56515B" transform="translate(180,156)"/>
<path d="M0 0 C17.82 0 35.64 0 54 0 C56.60510859 5.21021718 58.62012341 9.3429491 60.25 14.75 C60.58515625 15.83796875 60.9203125 16.9259375 61.265625 18.046875 C62 21 62 21 62 25 C62.66 25.33 63.32 25.66 64 26 C55.19035204 28.93654932 47.01196678 26.70225058 38.86328125 22.890625 C35.90650088 20.93826252 34.96822436 20.18539745 34.125 16.8125 C33.98813712 11.54327912 34 6.27099802 34 1 C22.78 1 11.56 1 0 1 C0 0.67 0 0.34 0 0 Z " fill="#CE8B9B" transform="translate(272,453)"/>
<path d="M0 0 C1.10623615 2.2124723 1.1955082 3.67194538 1.375 6.125 C2.21649715 14.19042654 5.18888321 21.18888321 11 27 C9.9790625 27.4640625 9.9790625 27.4640625 8.9375 27.9375 C5.92279493 29.71052274 5.92279493 29.71052274 4.84765625 32.2734375 C3.15054231 35.47089855 2.09031954 37.03540867 -1 39 C-7.98995606 39.63924624 -15.13323428 38.2338215 -22 37 C-20.41735768 30.91136331 -17.13249232 26.01258084 -13.8125 20.75 C-13.26013672 19.85925781 -12.70777344 18.96851563 -12.13867188 18.05078125 C-8.2893268 11.89004082 -4.22028276 5.91206498 0 0 Z " fill="#50070B" transform="translate(244,146)"/>
<path d="M0 0 C3.774375 0.0309375 3.774375 0.0309375 7.625 0.0625 C7.625 7.3225 7.625 14.5825 7.625 22.0625 C4.27213542 22.71354167 0.91927083 23.36458333 -2.43359375 24.015625 C-7.00854687 25.07202111 -11.15384048 27.04602638 -15.375 29.0625 C-15.40398097 24.95834811 -15.4217922 20.85422247 -15.4375 16.75 C-15.44587891 15.58275391 -15.45425781 14.41550781 -15.46289062 13.21289062 C-15.46611328 12.09462891 -15.46933594 10.97636719 -15.47265625 9.82421875 C-15.47789307 8.79256592 -15.48312988 7.76091309 -15.48852539 6.69799805 C-15.375 4.0625 -15.375 4.0625 -14.375 1.0625 C-9.51803391 0.08957462 -4.92346633 -0.05741504 0 0 Z " fill="#E657B7" transform="translate(188.375,307.9375)"/>
<path d="M0 0 C0.4640625 1.3921875 0.4640625 1.3921875 0.9375 2.8125 C2.98675113 7.69688012 6.49096756 11.3968725 9.94140625 15.3515625 C11.89982622 17.87112368 12.99566643 19.99242811 14 23 C11.60712296 23.8427743 9.21128981 24.67437002 6.8125 25.5 C6.13896484 25.73847656 5.46542969 25.97695313 4.77148438 26.22265625 C1.06795533 27.48727592 -2.07940536 28.30451221 -6 28 C-6.19335938 27.13117188 -6.38671875 26.26234375 -6.5859375 25.3671875 C-6.84632813 24.21476562 -7.10671875 23.06234375 -7.375 21.875 C-7.63023437 20.73804688 -7.88546875 19.60109375 -8.1484375 18.4296875 C-8.94636477 15.21601712 -9.90790559 12.12433966 -11 9 C-11.99 9.66 -12.98 10.32 -14 11 C-16.5625 11.25 -16.5625 11.25 -19 11 C-19.66 10.34 -20.32 9.68 -21 9 C-20.84968885 6.0689325 -20.41969875 4.48964854 -18.5 2.25 C-12.89497095 -0.55251452 -6.14905664 -0.13083099 0 0 Z " fill="#D9ADB8" transform="translate(396,450)"/>
<path d="M0 0 C0.66 0.33 1.32 0.66 2 1 C0.70642578 2.43472656 0.70642578 2.43472656 -0.61328125 3.8984375 C-4.287567 8.18672284 -7.22951381 12.82623913 -10.1875 17.625 C-10.70763672 18.45773438 -11.22777344 19.29046875 -11.76367188 20.1484375 C-14.2127666 24.07699814 -16.6360469 28.01946041 -19 32 C-21.56634828 30.76815282 -23.99958066 29.4013162 -26.4375 27.9375 C-29.26401892 26.29885002 -31.71952335 25.39763353 -35 25 C-33.6104447 21.03798593 -31.77266111 18.05188837 -29.1875 14.75 C-28.52105469 13.87859375 -27.85460937 13.0071875 -27.16796875 12.109375 C-24.62266802 9.63286618 -23.41062176 9.63949158 -20 9 C-18.3818976 8.34809544 -16.78380702 7.64477061 -15.20703125 6.8984375 C-14.32982422 6.49109375 -13.45261719 6.08375 -12.54882812 5.6640625 C-10.71200607 4.79875018 -8.87607875 3.93153624 -7.04101562 3.0625 C-6.16767578 2.65773437 -5.29433594 2.25296875 -4.39453125 1.8359375 C-3.20114136 1.27205322 -3.20114136 1.27205322 -1.98364258 0.69677734 C-1.32904053 0.46684082 -0.67443848 0.2369043 0 0 Z " fill="#51070B" transform="translate(235,135)"/>
<path d="M0 0 C1.29550781 0.00322266 2.59101563 0.00644531 3.92578125 0.00976562 C5.28906317 0.01812027 6.65234442 0.02658521 8.015625 0.03515625 C9.39452965 0.04017457 10.77343604 0.0447369 12.15234375 0.04882812 C15.52348159 0.06061532 18.89453128 0.0770699 22.265625 0.09765625 C21.13108569 3.57754573 20.00345587 6.87025607 18.265625 10.09765625 C17.67136719 9.90429688 17.07710937 9.7109375 16.46484375 9.51171875 C10.12589937 7.52032409 3.82198414 6.15714394 -2.734375 5.09765625 C-3.394375 6.41765625 -4.054375 7.73765625 -4.734375 9.09765625 C-7.109375 9.22265625 -7.109375 9.22265625 -9.734375 9.09765625 C-10.394375 8.43765625 -11.054375 7.77765625 -11.734375 7.09765625 C-11.359375 3.97265625 -11.359375 3.97265625 -10.734375 1.09765625 C-7.12801267 -0.03030773 -3.76293496 -0.0165041 0 0 Z " fill="#DCB0BA" transform="translate(233.734375,454.90234375)"/>
<path d="M0 0 C8.29683005 -0.19676277 15.95075394 -0.25943749 24 2 C21.33788628 3.37579827 18.93703384 4.37063561 16 5 C18.475 5.495 18.475 5.495 21 6 C19.66090471 10.38249366 17.91005056 12.57949251 14 15 C11.8125 15 11.8125 15 10 14 C9.31513275 12.67592331 8.65129797 11.34090759 8 10 C6.37064759 8.62131719 4.70250393 7.28725907 3 6 C1.1875 4.4375 1.1875 4.4375 0 3 C0 2.01 0 1.02 0 0 Z " fill="#E8E0E1" transform="translate(342,390)"/>
<path d="M0 0 C4.55555556 0.55555556 4.55555556 0.55555556 6 2 C6.1875 4.4375 6.1875 4.4375 6 7 C5.34 7.66 4.68 8.32 4 9 C-0.55555556 8.44444444 -0.55555556 8.44444444 -2 7 C-2.1875 4.5625 -2.1875 4.5625 -2 2 C-1.34 1.34 -0.68 0.68 0 0 Z " fill="#EBE1E3" transform="translate(335,456)"/>
<path d="M0 0 C2.5625 0.1875 2.5625 0.1875 4.5625 2.1875 C4.00694444 6.74305556 4.00694444 6.74305556 2.5625 8.1875 C0.125 8.375 0.125 8.375 -2.4375 8.1875 C-3.0975 7.5275 -3.7575 6.8675 -4.4375 6.1875 C-3.71780303 0.28598485 -3.71780303 0.28598485 0 0 Z " fill="#EADFE1" transform="translate(379.4375,452.8125)"/>
<path d="M0 0 C0.66 0.33 1.32 0.66 2 1 C1.42443359 1.56509277 0.84886719 2.13018555 0.25585938 2.71240234 C-2.33458544 5.26142102 -4.91735937 7.81807556 -7.5 10.375 C-8.85931641 11.70917969 -8.85931641 11.70917969 -10.24609375 13.0703125 C-11.10332031 13.92109375 -11.96054688 14.771875 -12.84375 15.6484375 C-14.03774414 16.82672119 -14.03774414 16.82672119 -15.25585938 18.02880859 C-17.22088598 19.81096779 -17.22088598 19.81096779 -17 22 C-18.32 22.33 -19.64 22.66 -21 23 C-16.89270764 13.65163146 -7.55588024 6.53055202 0 0 Z " fill="#BB1300" transform="translate(232,123)"/>
<path d="M0 0 C1.99954746 -0.04254356 4.00041636 -0.04080783 6 0 C7 1 7 1 7.125 4 C7 7 7 7 6 8 C3.5625 8.1875 3.5625 8.1875 1 8 C0.34 7.34 -0.32 6.68 -1 6 C-0.625 2.875 -0.625 2.875 0 0 Z " fill="#E9DFE0" transform="translate(223,456)"/>
<path d="M0 0 C2.01822917 0.06510417 4.03645833 0.13020833 6.0546875 0.1953125 C5.7246875 1.8453125 5.3946875 3.4953125 5.0546875 5.1953125 C1.17784663 6.38818661 -1.86153173 7.1953125 -5.9453125 7.1953125 C-3.42094902 0.34346878 -3.42094902 0.34346878 0 0 Z " fill="#CEA4AE" transform="translate(216.9453125,455.8046875)"/>
<path d="M0 0 C4.55555556 0.55555556 4.55555556 0.55555556 6 2 C6.125 4.5 6.125 4.5 6 7 C5 8 5 8 2 8.125 C-1 8 -1 8 -2 7 C-2.1875 4.5625 -2.1875 4.5625 -2 2 C-1.34 1.34 -0.68 0.68 0 0 Z " fill="#EBE2E4" transform="translate(351,466)"/>
<path d="M0 0 C2.00720923 0.28674418 4.0085944 0.61866701 6 1 C6.125 3.375 6.125 3.375 6 6 C5.34 6.66 4.68 7.32 4 8 C0.46428571 7.46428571 0.46428571 7.46428571 -1 6 C-1.125 3.5 -1.125 3.5 -1 1 C-0.67 0.67 -0.34 0.34 0 0 Z " fill="#EADFE1" transform="translate(316,466)"/>
<path d="M0 0 C1.66611905 -0.042721 3.33382885 -0.04063832 5 0 C6 1 6 1 6.0625 3.5625 C6.041875 4.366875 6.02125 5.17125 6 6 C3.625 6.625 3.625 6.625 1 7 C0.34 6.34 -0.32 5.68 -1 5 C-0.625 2.375 -0.625 2.375 0 0 Z " fill="#E8DCDE" transform="translate(261,470)"/>
<path d="M0 0 C5.54074074 1.51111111 5.54074074 1.51111111 7.9375 4.0625 C10.76406319 6.71775633 13.21942016 6.70918617 17 7 C17 7.33 17 7.66 17 8 C11.555 8.495 11.555 8.495 6 9 C4.02 6.03 2.04 3.06 0 0 Z " fill="#514E54" transform="translate(186,159)"/>
<path d="M0 0 C1.67542976 0.28604898 3.34385343 0.61781233 5 1 C5 2.65 5 4.3 5 6 C2.625 6.625 2.625 6.625 0 7 C-0.66 6.34 -1.32 5.68 -2 5 C-1.46428571 1.46428571 -1.46428571 1.46428571 0 0 Z " fill="#EBE1E3" transform="translate(396,465)"/>
<path d="M0 0 C2.125 0.375 2.125 0.375 4 1 C4.625 2.875 4.625 2.875 5 5 C4.34 5.66 3.68 6.32 3 7 C0.875 6.625 0.875 6.625 -1 6 C-1.625 4.125 -1.625 4.125 -2 2 C-1.34 1.34 -0.68 0.68 0 0 Z " fill="#EADFE1" transform="translate(282,457)"/>
<path d="M0 0 C0.66 0.33 1.32 0.66 2 1 C0.90344712 2.31886772 -0.20253423 3.62990057 -1.3125 4.9375 C-1.92738281 5.66839844 -2.54226562 6.39929688 -3.17578125 7.15234375 C-5 9 -5 9 -8 10 C-6.44303593 6.17836093 -3.96591316 3.81381505 -1 1 C-0.67 0.67 -0.34 0.34 0 0 Z " fill="#163109" transform="translate(168,295)"/>
<path d="M0 0 C0 2.31 0 4.62 0 7 C-0.66 6.34 -1.32 5.68 -2 5 C-4.32275177 4.59952556 -6.65739357 4.2602896 -9 4 C-6.10130984 1.70103884 -3.84906588 0 0 0 Z " fill="#570809" transform="translate(246,131)"/>
<path d="M0 0 C-1.485 1.485 -1.485 1.485 -3 3 C-5.31 2.34 -7.62 1.68 -10 1 C-10 0.67 -10 0.34 -10 0 C-6.33694766 -0.74926071 -3.57644848 -1.2380014 0 0 Z " fill="#EA889E" transform="translate(366,394)"/>
<path d="M0 0 C0.33 0 0.66 0 1 0 C1.125 5.75 1.125 5.75 0 8 C-1.65 8 -3.3 8 -5 8 C-4.34 7.67 -3.68 7.34 -3 7 C-1.69364726 4.69467163 -0.84142926 2.52428777 0 0 Z " fill="#76737A" transform="translate(209,172)"/>
<path d="M0 0 C0.66 0.33 1.32 0.66 2 1 C-0.31 3.31 -2.62 5.62 -5 8 C-5.66 7.67 -6.32 7.34 -7 7 C-4.66666667 4.66666667 -2.33333333 2.33333333 0 0 Z " fill="#173509" transform="translate(160,145)"/>
</svg>
