<?xml version="1.0" encoding="UTF-8"?>
<svg version="1.1" xmlns="http://www.w3.org/2000/svg" width="600" height="600">
<path d="M0 0 C6.20862972 3.19685541 12.00243947 6.9358288 17.77441406 10.85083008 C22.22608462 13.8568607 26.74937688 16.71537505 31.32568359 19.52758789 C47.99859168 29.81843544 61.19857612 41.76309842 66.3125 61.4375 C68.01904306 70.91461292 66.81395724 79.58452881 65 88.9375 C61.85430008 105.33634964 61.94356494 119.38050956 71.3125 133.92578125 C74.03421638 137.2712243 77.25563124 138.97565929 81 141 C95.47131452 150.0053691 95.47131452 150.0053691 97.546875 158.14453125 C97.79190999 160.08679388 97.90223921 162.04478413 98 164 C98.53339399 167.30230148 99.48217087 168.82736784 101.9140625 171.1015625 C102.50711182 171.6692334 103.10016113 172.2369043 103.71118164 172.82177734 C104.65852173 173.71437256 104.65852173 173.71437256 105.625 174.625 C111.18400711 180.01780493 115.90602804 185.39017935 120 192 C120.50273437 192.76570312 121.00546875 193.53140625 121.5234375 194.3203125 C125 199.67921271 125 199.67921271 125 202 C125.73347656 202.2475 126.46695312 202.495 127.22265625 202.75 C136.23042934 206.80413135 142.48419916 216.6914388 146.03125 225.5859375 C149.81055224 237.51873438 148.87140554 249.54481606 144 261 C142.95534727 262.77336172 141.87318136 264.52530445 140.75 266.25 C137.65643312 271.11689941 137.26610255 274.35871596 138 280 C138.09667969 281.06992187 138.19335938 282.13984375 138.29296875 283.2421875 C139.08173921 290.13026222 140.01453172 294.14572826 145 299 C145 299.66 145 300.32 145 301 C145.61875 301.2475 146.2375 301.495 146.875 301.75 C149.51483819 303.30284599 149.91856921 304.1447199 151 307 C151.30319241 309.5434274 151.51114446 312.00295781 151.6328125 314.5546875 C151.67437469 315.29268585 151.71593689 316.0306842 151.75875854 316.79104614 C151.84513154 318.35591561 151.9272346 319.92102578 152.00537109 321.48632812 C152.12287952 323.83265971 152.25355357 326.17794817 152.38671875 328.5234375 C153.76576394 353.66257006 151.62886944 377.33138088 146.77246094 402.00878906 C145.41386991 408.97195192 144.16723571 415.95639963 142.89501953 422.93572998 C142.00534219 427.80058919 141.10179287 432.66288275 140.19854736 437.52523804 C139.38838588 441.88969618 138.59208986 446.25636483 137.8046875 450.625 C137.47489238 452.39600753 137.14426904 454.16686119 136.8125 455.9375 C136.68222412 456.68636475 136.55194824 457.43522949 136.41772461 458.20678711 C135.45817866 463.19630836 133.67254828 466.75601546 131 471 C131.99 471.43570312 132.98 471.87140625 134 472.3203125 C151.08413707 479.9692483 151.08413707 479.9692483 156.125 486.9375 C157.33277357 491.16470751 156.91151849 493.03536906 155 497 C152.59110505 499.45073679 149.92942451 501.2205357 147 503 C146.28972656 503.43183594 145.57945312 503.86367188 144.84765625 504.30859375 C104.80479009 526.28083313 46.22811764 523.43673192 2 521 C0.27475098 520.9069458 0.27475098 520.9069458 -1.48535156 520.81201172 C-72.95747849 516.68171293 -72.95747849 516.68171293 -92 496 C-92.33 495.67 -92.66 495.34 -93 495 C-93.5751634 488.09803922 -93.5751634 488.09803922 -91.625 484.375 C-84.67022318 478.08258288 -74.55857596 472 -65 472 C-65.18175781 470.75089844 -65.36351562 469.50179688 -65.55078125 468.21484375 C-67.48738542 454.82486895 -69.28086896 441.41954061 -71 428 C-71.85980469 428.03480469 -72.71960938 428.06960938 -73.60546875 428.10546875 C-86.50585477 428.40089744 -98.00390359 427.0747355 -107.8984375 418.3203125 C-115.62147107 410.46693237 -117.11458627 400.43679578 -118.6875 389.9375 C-118.80706055 389.14255127 -118.92662109 388.34760254 -119.04980469 387.52856445 C-121.1829231 371.69247881 -121.16941916 355.59079524 -121.203125 339.640625 C-121.20595238 338.71693871 -121.20877975 337.79325241 -121.21169281 336.84157562 C-121.22651 331.96778598 -121.23585319 327.09402469 -121.24023438 322.22021484 C-121.24574259 317.23926283 -121.26987056 312.25858084 -121.29820633 307.27771378 C-121.31695781 303.39285539 -121.32204458 299.50806111 -121.32357025 295.62316132 C-121.32656106 293.78784433 -121.33446553 291.95252747 -121.34775543 290.11725616 C-121.45326639 274.45071223 -121.25510732 258.81688438 -110.6875 246.25 C-101.67326256 238.70319657 -93.59379731 236.75436859 -82 236 C-82.01885254 235.29979736 -82.03770508 234.59959473 -82.05712891 233.87817383 C-82.1789972 225.6949187 -81.46906484 217.79180115 -80.375 209.6875 C-80.20258789 208.39183105 -80.03017578 207.09616211 -79.85253906 205.76123047 C-78.20534854 193.90866793 -75.4143084 182.45743369 -72 171 C-72.99 171.33 -73.98 171.66 -75 172 C-78.5625 172.1875 -78.5625 172.1875 -82 172 C-82.99 171.01 -82.99 171.01 -84 170 C-83.625 166.375 -83.625 166.375 -83 163 C-83.92941406 163.3609375 -84.85882813 163.721875 -85.81640625 164.09375 C-87.06487858 164.5631005 -88.31358949 165.03181673 -89.5625 165.5 C-90.78066406 165.9640625 -91.99882812 166.428125 -93.25390625 166.90625 C-97.0817191 168.02385959 -100.03759953 168.31524606 -104 168 C-106.5 166.4375 -106.5 166.4375 -108 164 C-108.13417114 157.4256143 -104.83842142 151.79205551 -102 146 C-102.72445312 146.27714844 -103.44890625 146.55429688 -104.1953125 146.83984375 C-112.27351715 149.86647776 -120.2730662 152.26172537 -129 151 C-130.80078125 149.859375 -130.80078125 149.859375 -132 148 C-132.87636026 142.48455837 -130.74199881 138.58653655 -128.1875 133.875 C-127.78587646 133.12871338 -127.38425293 132.38242676 -126.97045898 131.61352539 C-120.80594843 120.6217416 -112.10993701 112.45635267 -102 105 C-102.95261719 104.55269531 -103.90523437 104.10539062 -104.88671875 103.64453125 C-106.15390985 103.0344022 -107.42082228 102.42369415 -108.6875 101.8125 C-109.31333984 101.52052734 -109.93917969 101.22855469 -110.58398438 100.92773438 C-114.82853008 98.8610184 -117.78935729 96.54376843 -121 93 C-121.7425 92.21625 -122.485 91.4325 -123.25 90.625 C-125.49671194 87.25493209 -126.07235379 85.0518122 -126 81 C-122.34192756 76.42917834 -118.61006749 74.69152334 -113.25 72.875 C-112.54423828 72.62347168 -111.83847656 72.37194336 -111.11132812 72.11279297 C-109.0792041 71.39296575 -107.04141901 70.69295875 -105 70 C-103.99453125 69.65453125 -102.9890625 69.3090625 -101.953125 68.953125 C-99.97438794 68.2851437 -97.98825858 67.63908311 -96 67 C-96.66 66.401875 -97.32 65.80375 -98 65.1875 C-112.59475577 50.46870947 -119.82757093 30.43704794 -121 10 C-120.73046875 6.18359375 -120.73046875 6.18359375 -120 3 C-117 1 -117 1 -114.59375 1.171875 C-111.65025679 2.111665 -109.91919093 3.33077519 -107.5 5.25 C-101.20004983 10.00710523 -94.53740004 14.07867413 -87.7890625 18.16699219 C-69.57328774 29.26168259 -55.22537397 40.9442732 -49.625 62.5625 C-48.00242266 71.99373079 -49.19633341 80.63837075 -51 89.9375 C-54.35532223 107.41594493 -53.27565681 119.90786973 -43.80078125 135.34765625 C-41.44582605 138.81623452 -39.31661062 141.42041397 -36 144 C-32.97652635 143.65601198 -30.96710149 142.45965805 -28.5 140.75 C-25.09160629 138.49472641 -21.79721539 137.19860703 -17.9375 135.875 C-11.91555839 133.46773262 -9.78965448 130.46352845 -6.6953125 124.91015625 C-2.08878047 117.00263007 4.40222973 111.27264264 12.03125 106.375 C14.12654946 105.14458465 14.12654946 105.14458465 15 103 C14.175 102.9175 13.35 102.835 12.5 102.75 C3.54893267 100.83191414 -3.3002745 95.48451576 -9.0625 88.5 C-10.41186002 84.90170661 -10.06636992 82.66564658 -9 79 C-5.36158193 75.51008879 -1.33858753 73.6475662 3.3125 71.875 C4.30455444 71.48707275 4.30455444 71.48707275 5.31665039 71.09130859 C9.83196904 69.35793194 14.26612221 67.96609751 19 67 C18.64808594 66.53851563 18.29617188 66.07703125 17.93359375 65.6015625 C16.8731832 64.20060234 15.8205639 62.79372929 14.7734375 61.3828125 C13.62844094 59.84438099 12.46794099 58.31731241 11.2890625 56.8046875 C0.59384177 42.52826163 -6.27128277 22.99354077 -5 5 C-2.5 2 -2.5 2 0 0 Z M37 428 C35.46765229 443.99698374 35.46765229 443.99698374 34 460 C38.29 460 42.58 460 47 460 C46.34 449.44 45.68 438.88 45 428 C42.36 428 39.72 428 37 428 Z " fill="#070805" transform="translate(274,53)"/>
<path d="M0 0 C2 0 2 0 3.69140625 1.64453125 C4.30886719 2.35996094 4.92632812 3.07539063 5.5625 3.8125 C6.18253906 4.52019531 6.80257812 5.22789062 7.44140625 5.95703125 C9 8 9 8 10 11 C11.31726866 11.69787212 12.65333212 12.36069738 14 13 C15.23608844 14.11583549 16.44142933 15.26610598 17.625 16.4375 C27.04192654 24.93719344 38.74230295 30.76273882 49.76342773 36.89794922 C74.05625047 50.43742976 94.32257042 67.24856461 112.19140625 88.62109375 C118.15942341 95.52790012 126.56593585 105.07388471 136.09375 106.4453125 C146.49499548 104.85157327 155.66333212 91.58627651 161.6171875 83.51171875 C168.94682636 73.25369937 175.2157469 62.34978574 181.55322266 51.46435547 C184.03501175 47.23702183 186.62525569 43.08000306 189.21484375 38.91796875 C191.78352361 34.71927322 194.22176564 30.44777941 196.65234375 26.16796875 C197.31943359 25.09482422 197.31943359 25.09482422 198 24 C198.33 24 198.66 24 199 24 C199.34959807 55.36970407 197.02874373 84.15375919 190.28184509 114.84796143 C189.33158924 119.21940614 188.58002806 123.56367742 188 128 C186.72382813 127.67257812 185.44765625 127.34515625 184.1328125 127.0078125 C176.12122856 125.40549571 168.00577543 125.78794321 159.875 125.875 C158.23438047 125.88505123 156.59375497 125.89417328 154.953125 125.90234375 C150.96860035 125.92418451 146.98436741 125.9585957 143 126 C148.46231133 120.51143025 148.46231133 120.51143025 151.4375 118 C152.02789062 117.49597656 152.61828125 116.99195313 153.2265625 116.47265625 C154.3711104 115.52222771 155.53183675 114.5908014 156.7109375 113.68359375 C160.12024194 111.03098858 161.57192712 109.02944508 163 105 C156.70037667 106.3654356 151.48461582 107.70334373 145.95703125 111.08203125 C136.99340994 115.28652428 125.26560655 114.19772378 115.625 114.25 C114.41239502 114.2593457 113.19979004 114.26869141 111.95043945 114.27832031 C105.58792974 114.25547941 100.09354612 113.8230982 94 112 C89.84039791 111.60227355 89.84039791 111.60227355 86.0625 113.0625 C84.3509896 116.18348955 85.20708009 118.64533884 86 122 C86.66 122.66 87.32 123.32 88 124 C87.625 127.625 87.625 127.625 87 131 C86.01 131 85.02 131 84 131 C82.11752816 131.00847725 80.23505636 131.01696369 78.35258484 131.0255127 C45.29598713 131.16424087 45.29598713 131.16424087 30.6875 130.5625 C29.73149902 130.52326416 28.77549805 130.48402832 27.79052734 130.44360352 C21.83498376 130.16472178 15.92962407 129.61278201 10 129 C9.97129822 128.40849655 9.94259644 127.8169931 9.9130249 127.20756531 C8.18124363 88.42548641 8.18124363 88.42548641 3 50 C0.75491204 37.50847105 -0.15146204 25.50669816 -0.0625 12.8125 C-0.05798828 11.57435547 -0.05347656 10.33621094 -0.04882812 9.06054688 C-0.03716699 6.04031215 -0.02080236 3.02018323 0 0 Z " fill="#DD852F" transform="translate(211,351)"/>
<path d="M0 0 C0.92490234 0.28746094 1.84980469 0.57492188 2.80273438 0.87109375 C7.56685951 2.40015423 11.91270532 4.12660598 16.3203125 6.50390625 C20.52018165 8.69034411 23.23014081 9.08973996 28 8.4375 C33.21489219 8.18617989 35.94536949 8.79932973 39.95922852 12.2668457 C42.11423917 14.33786255 44.14325521 16.45865673 46.0625 18.75 C46.0625 19.08 46.0625 19.41 46.0625 19.75 C44.19053955 19.78758423 44.19053955 19.78758423 42.28076172 19.82592773 C37.53542207 19.92194703 32.79016498 20.02164644 28.04492188 20.12231445 C26.0127153 20.16494481 23.98048904 20.2066496 21.94824219 20.24731445 C10.9852007 20.46733585 0.02633713 20.74262588 -10.9296875 21.19921875 C-11.81955353 21.23317245 -12.70941956 21.26712616 -13.62625122 21.30210876 C-23.06901009 21.72548491 -32.68283262 22.82028955 -40.9375 27.75 C-50.88656039 40.31593484 -50.40753168 61.05380043 -48.66064453 76.14111328 C-46.54557649 89.89055558 -40.61473803 105.39445891 -29.9375 114.75 C-28.29915371 115.79575295 -26.64382228 116.81927875 -24.9375 117.75 C-24.9375 118.41 -24.9375 119.07 -24.9375 119.75 C-23.85082031 119.93949219 -23.85082031 119.93949219 -22.7421875 120.1328125 C-20.01631426 120.73265647 -17.64823881 121.58587132 -15.0625 122.625 C8.59909506 131.22351067 38.40503354 130.59689147 61.375 120 C62.23738281 119.57203125 63.09976563 119.1440625 63.98828125 118.703125 C66.0625 117.75 66.0625 117.75 68.0625 117.75 C72.84414297 150.82726957 72.84414297 150.82726957 69.8137207 155.79858398 C64.50508834 161.71408635 53.16567997 161.57379701 45.75 162.375 C44.71166016 162.49617187 43.67332031 162.61734375 42.60351562 162.7421875 C39.42530122 163.10428747 36.24573448 163.43520966 33.0625 163.75 C32.10617676 163.84498779 31.14985352 163.93997559 30.16455078 164.0378418 C20.31789168 164.90410971 10.44971573 165.14464231 0.56982422 165.26489258 C-1.43537832 165.29663592 -3.44039033 165.34449674 -5.44482422 165.40844727 C-18.87470735 165.82861107 -27.08401956 165.21941502 -37.9375 156.75 C-39.4186384 155.86633307 -40.91844968 155.01259489 -42.44140625 154.203125 C-43.10881836 153.83977051 -43.77623047 153.47641602 -44.46386719 153.10205078 C-45.13579102 152.73837402 -45.80771484 152.37469727 -46.5 152 C-84.37102428 131.09971358 -84.37102428 131.09971358 -91.9375 119.75 C-91.1021875 119.58177734 -91.1021875 119.58177734 -90.25 119.41015625 C-82.97906504 117.53101259 -79.1396702 113.87316229 -74.9375 107.75 C-68.56254533 96.58732427 -62.76954505 84.98962122 -62.83984375 71.9140625 C-62.84467773 70.31884766 -62.84467773 70.31884766 -62.84960938 68.69140625 C-62.85798828 67.59699219 -62.86636719 66.50257813 -62.875 65.375 C-62.87951172 64.25738281 -62.88402344 63.13976562 -62.88867188 61.98828125 C-62.90040756 59.24213196 -62.91682637 56.49609414 -62.9375 53.75 C-64.071875 53.440625 -65.20625 53.13125 -66.375 52.8125 C-69.9375 51.75 -69.9375 51.75 -70.9375 50.75 C-73.62832872 50.92635452 -76.26601446 51.36835921 -78.9375 51.75 C-79.2675 52.74 -79.5975 53.73 -79.9375 54.75 C-81.875 54.375 -81.875 54.375 -83.9375 53.75 C-88.71744752 44.19010497 -85.29210414 24.98873025 -82.9375 14.75 C-82.78925781 13.88117188 -82.64101562 13.01234375 -82.48828125 12.1171875 C-81.70170171 8.64731182 -81.02834551 6.4846059 -78.01171875 4.453125 C-75.35597679 3.32302204 -72.71803067 2.52418697 -69.9375 1.75 C-68.35001953 1.22986328 -68.35001953 1.22986328 -66.73046875 0.69921875 C-45.50429518 -5.97186437 -21.22611129 -6.92315913 0 0 Z " fill="#D4DAEB" transform="translate(317.9375,223.25)"/>
<path d="M0 0 C1.47906892 -0.02689216 2.95827483 -0.04634621 4.4375 -0.0625 C5.26121094 -0.07410156 6.08492187 -0.08570313 6.93359375 -0.09765625 C9 0 9 0 10 1 C10.14630203 2.7959705 10.22744262 4.59732143 10.28125 6.3984375 C10.33732422 8.07873047 10.33732422 8.07873047 10.39453125 9.79296875 C10.42933594 10.97503906 10.46414063 12.15710938 10.5 13.375 C10.50624361 32.35313593 10.50624361 32.35313593 17.6875 49.4375 C20.61924794 51.41841077 23.32014077 51.92700992 26.78125 52.5078125 C29 53 29 53 30.78125 53.9921875 C36.67747941 56.67040438 44.00103417 56.19327701 50.375 56.1875 C51.21498535 56.18741943 52.0549707 56.18733887 52.92041016 56.18725586 C57.99290868 56.14051606 62.66624044 55.742066 67.6015625 54.50390625 C71.66211816 53.65079276 75.78532371 53.547521 79.921875 53.34375 C83.35727248 52.96010155 85.89661631 52.56036052 89 51 C90.41502063 48.70573037 91.13773644 46.58679068 92 44 C113.66910382 52.05097138 113.66910382 52.05097138 119 60 C120.14974896 63.12074717 120.09577734 64.66109557 119.1875 67.875 C108.345721 83.36325571 82.77349119 86.49769147 65.57324219 89.62255859 C32.40170703 95.15739655 -1.48222672 95.84664942 -35 94 C-36.15016602 93.93796387 -37.30033203 93.87592773 -38.48535156 93.81201172 C-109.95747849 89.68171293 -109.95747849 89.68171293 -129 69 C-129.33 68.67 -129.66 68.34 -130 68 C-130.5751634 61.09803922 -130.5751634 61.09803922 -128.625 57.375 C-121.67022318 51.08258288 -111.55857596 45 -102 45 C-101.67 44.34 -101.34 43.68 -101 43 C-100.76216797 43.99580078 -100.76216797 43.99580078 -100.51953125 45.01171875 C-98.16791411 53.91148526 -93.95209431 57.54131837 -86.4765625 62.5703125 C-70.0118174 72.07519689 -48.79858106 73.65846875 -30.64306641 68.85009766 C-24.36017821 67.00032137 -18.69922631 64.1763204 -13 61 C-12.25363281 60.69191406 -11.50726563 60.38382813 -10.73828125 60.06640625 C-8.86762647 59.15102854 -8.86762647 59.15102854 -8.27734375 57.28515625 C-8.16519531 56.55167969 -8.05304688 55.81820312 -7.9375 55.0625 C-7.79441406 54.18980469 -7.65132813 53.31710937 -7.50390625 52.41796875 C-7.33761719 51.29003906 -7.17132813 50.16210938 -7 49 C-6.74013345 47.37079723 -6.47824901 45.74191563 -6.21484375 44.11328125 C-5.45815593 39.41160433 -4.72484893 34.70668571 -4 30 C-3.505 31.485 -3.505 31.485 -3 33 C1.29 33 5.58 33 10 33 C9.67 31.4325 9.34 29.865 9 28.25 C7.45940128 19.22339342 7.83767462 10.1262934 8 1 C5.36 1 2.72 1 0 1 C0 0.67 0 0.34 0 0 Z " fill="#363D3A" transform="translate(311,480)"/>
<path d="M0 0 C2.03504173 -0.00923393 4.07006782 -0.02326552 6.1050415 -0.04229736 C26.97511941 -0.21502499 26.97511941 -0.21502499 35.88613892 3.29855347 C36.63919312 3.58891479 37.39224731 3.87927612 38.16812134 4.17843628 C43.64901661 6.42763632 47.64811991 10.3706933 50.88613892 15.29855347 C50.88613892 16.28855347 50.88613892 17.27855347 50.88613892 18.29855347 C51.54613892 18.29855347 52.20613892 18.29855347 52.88613892 18.29855347 C54.88613892 21.29855347 54.88613892 21.29855347 54.88613892 25.29855347 C55.54613892 25.29855347 56.20613892 25.29855347 56.88613892 25.29855347 C60.29420873 46.76094351 60.29420873 46.76094351 55.07363892 54.79855347 C52.98023948 57.48637497 52.19210269 58.19656554 48.88613892 59.29855347 C48.88613892 59.95855347 48.88613892 60.61855347 48.88613892 61.29855347 C47.36344309 62.28675198 45.81612061 63.23697948 44.26113892 64.17355347 C43.40262329 64.70722534 42.54410767 65.24089722 41.65957642 65.79074097 C30.57826064 70.99333583 15.96974816 69.65860343 4.01113892 69.61105347 C3.11204803 69.60989532 2.21295715 69.60873718 1.28662109 69.60754395 C-37.52143931 69.50875838 -37.52143931 69.50875838 -47.11386108 63.29855347 C-50.52740822 59.66644022 -51.70864983 57.01376316 -52.37948608 52.09933472 C-52.54746704 50.89817017 -52.715448 49.69700562 -52.88851929 48.45944214 C-53.12381348 46.55448975 -53.12381348 46.55448975 -53.36386108 44.61105347 C-53.53296997 43.3120813 -53.70207886 42.01310913 -53.87631226 40.67477417 C-55.43073586 28.0408648 -55.83861684 15.93273995 -54.11386108 3.29855347 C-38.13139812 -2.02893419 -16.72473444 0.07370194 0 0 Z " fill="#586F78" transform="translate(343.1138610839844,258.7014465332031)"/>
<path d="M0 0 C5.15143221 2.88130954 10.12335694 5.95770909 15.0625 9.1875 C16.56095633 10.16443316 18.05965811 11.14098992 19.55859375 12.1171875 C20.67403564 12.84373535 20.67403564 12.84373535 21.81201172 13.58496094 C23.85668278 14.90731236 25.91121154 16.2118097 27.97265625 17.5078125 C42.52543971 26.66296819 52.69248511 36.56028265 57 54 C58.16923278 62.54975086 57.35452899 70.62071179 55 78.875 C51.09695993 92.61274158 51.36620257 106.16795749 58 119 C58.79664063 120.57394531 58.79664063 120.57394531 59.609375 122.1796875 C64.95059819 132.00459804 71.92681863 138.6294684 81 145 C80.65447612 147.55687669 80.24912987 149.57501375 78.9375 151.8125 C75.75444301 153.7634059 72.67569327 153.1807718 69 153 C68.505 150.525 68.505 150.525 68 148 C66.31851803 151.76331678 64.85474168 155.42166359 63.6875 159.375 C62.03899911 164.47833786 59.34704918 168.82318097 56 173 C55.34 173.33 54.68 173.66 54 174 C54.495 171.03 54.495 171.03 55 168 C55.66 168 56.32 168 57 168 C57.103125 167.071875 57.20625 166.14375 57.3125 165.1875 C58.03762322 160.00500168 59.55669005 155.01981384 61 150 C57.81414169 156.25372188 54.87213619 162.59654883 52 169 C49.20085813 159.62287472 50.0029017 150.58622413 54.5 142.0625 C55.62364245 140.00919012 56.78933105 138.00439834 58 136 C54.87914607 139.03520443 52.04793557 142.07990035 49.4375 145.5625 C47.14671938 148.61511067 44.84061816 151.43821552 42 154 C41.34 154 40.68 154 40 154 C41.62184501 150.41486894 43.79256239 147.41007677 46.125 144.25 C46.84945312 143.26515625 47.57390625 142.2803125 48.3203125 141.265625 C48.87460938 140.51796875 49.42890625 139.7703125 50 139 C47.03 139.99 47.03 139.99 44 141 C45.49081649 136.39202176 47.87593899 133.60468578 51 130 C51.33 129.34 51.66 128.68 52 128 C48.3257347 128.60261299 46.27707664 130.14226256 43.4375 132.5 C42.56222656 133.21671875 41.68695313 133.9334375 40.78515625 134.671875 C38.91198826 136.23766479 37.04487822 137.8107275 35.18359375 139.390625 C30.01618109 143.73153911 25.29588077 147.48164769 19 150 C18.34 149.67 17.68 149.34 17 149 C20.99013758 144.2420009 25.11165097 139.75514847 29.609375 135.46484375 C33.00483862 132.203228 33.00483862 132.203228 35 128 C29.43087945 131.85730071 23.92402269 135.7502035 18.59375 139.93359375 C17 141 17 141 15 141 C16.65472513 135.11653287 21.14971466 130.65446421 25.53515625 126.5703125 C27.12310396 124.990023 27.12310396 124.990023 28.30078125 122.70703125 C30.50038491 119.20283507 33.22901251 116.55538599 36.1875 113.6875 C36.74630859 113.13771484 37.30511719 112.58792969 37.88085938 112.02148438 C39.24937412 110.67636304 40.62406833 109.33753357 42 108 C35.83823692 111.91677963 30.04465689 116.19628552 24.34301758 120.74755859 C20.21242944 124 20.21242944 124 18 124 C18 124.66 18 125.32 18 126 C-0.56233641 137.36469576 -0.56233641 137.36469576 -9.19165039 135.53540039 C-9.78840576 135.35871826 -10.38516113 135.18203613 -11 135 C-10.52804199 134.66379639 -10.05608398 134.32759277 -9.56982422 133.98120117 C-0.89280616 127.78828702 7.71659136 121.54777731 16.05957031 114.90966797 C21.61888807 110.48740903 27.29470381 106.23195047 33 102 C26.17318165 105.85914646 19.60403404 109.8793015 13.23046875 114.44921875 C11.35540497 115.75289707 9.49978485 116.90454676 7.5 118 C3.62970052 120.12183477 0.10586981 122.69611625 -3.48828125 125.25 C-6.91418362 127.63694287 -10.43767578 129.82302409 -14 132 C-12.95035753 121.06075733 -3.04323529 110.90187469 5 104 C13.36877076 97.54374308 13.36877076 97.54374308 18 96 C18.33 95.34 18.66 94.68 19 94 C20.27875 93.896875 21.5575 93.79375 22.875 93.6875 C27.9400684 93.25057717 31.88997354 91.47347787 36.421875 89.25390625 C39 88 39 88 41.765625 86.90234375 C43.93456708 86.19572413 43.93456708 86.19572413 45 85 C40.51489171 85.9012629 36.2887972 86.85565732 32.0625 88.625 C27.39441983 90.23326084 22.82883243 90.36491798 17.9375 90.4375 C17.18154541 90.4595752 16.42559082 90.48165039 15.64672852 90.50439453 C8.26365061 90.47708847 2.47594251 87.74338341 -3 82.8125 C-3.5775 82.30332031 -4.155 81.79414063 -4.75 81.26953125 C-6 80 -6 80 -6 79 C-4.89712646 79.00785522 -4.89712646 79.00785522 -3.77197266 79.01586914 C-0.38965739 79.03685916 2.9926441 79.04972951 6.375 79.0625 C8.10943359 79.07506836 8.10943359 79.07506836 9.87890625 79.08789062 C16.65400559 79.10702932 23.27639726 78.85222001 30 78 C26.64312422 77.02067962 23.43510365 76.76480733 19.94921875 76.5703125 C18.77552734 76.49683594 17.60183594 76.42335938 16.39257812 76.34765625 C13.93466022 76.19994795 11.47631029 76.05925154 9.01757812 75.92578125 C2.70680178 75.51818869 -2.40183348 75.02648293 -8 72 C-5.61610815 68.42416222 -4.50636214 68.23908108 -0.5 67 C1.11455078 66.49726563 1.11455078 66.49726563 2.76171875 65.984375 C3.83035156 65.65953125 4.89898437 65.3346875 6 65 C6.91394531 64.69578125 7.82789063 64.3915625 8.76953125 64.078125 C18.20396519 61.00577478 23.97515061 62.08262118 33.109375 65.90625 C35.95253791 67.17694605 35.95253791 67.17694605 39 67 C37.65808594 66.29037109 37.65808594 66.29037109 36.2890625 65.56640625 C23.35891068 58.56743441 14.38621444 50.19969878 6 38 C5.57976562 37.40832031 5.15953125 36.81664062 4.7265625 36.20703125 C-1.03327256 27.2447279 -3.76003182 15.49315425 -4 5 C-0.49928105 8.14523755 1.48199477 11.42428789 3.6875 15.5625 C7.42039243 22.35766278 11.90780247 28.14900105 17 34 C18.06734375 35.44246094 18.06734375 35.44246094 19.15625 36.9140625 C22.61648743 41.07942254 27.22636202 43.60484954 31.8125 46.375 C33.13797852 47.19291016 33.13797852 47.19291016 34.49023438 48.02734375 C36.65458184 49.36104976 38.82434807 50.68484569 41 52 C37.47571266 48.42407475 33.84560675 44.99653925 30.125 41.625 C29.05662638 40.64395318 27.98891391 39.66218585 26.921875 38.6796875 C25.29930021 37.1916042 23.67009134 35.71035578 22.015625 34.2578125 C12.79617714 25.78470089 5.68280708 13.04572105 0 2 C0 1.34 0 0.68 0 0 Z " fill="#F4CC92" transform="translate(163,63)"/>
<path d="M0 0 C0.33 0 0.66 0 1 0 C1.34959807 31.36970407 -0.97125627 60.15375919 -7.71815491 90.84796143 C-8.66841076 95.21940614 -9.41997194 99.56367742 -10 104 C-11.27617187 103.67257812 -12.55234375 103.34515625 -13.8671875 103.0078125 C-21.87877144 101.40549571 -29.99422457 101.78794321 -38.125 101.875 C-39.76561953 101.88505123 -41.40624503 101.89417328 -43.046875 101.90234375 C-47.03139965 101.92418451 -51.01563259 101.9585957 -55 102 C-49.53768867 96.51143025 -49.53768867 96.51143025 -46.5625 94 C-45.97210938 93.49597656 -45.38171875 92.99195313 -44.7734375 92.47265625 C-43.6288896 91.52222771 -42.46816325 90.5908014 -41.2890625 89.68359375 C-37.87975806 87.03098858 -36.42807288 85.02944508 -35 81 C-41.29962333 82.3654356 -46.51538418 83.70334373 -52.04296875 87.08203125 C-61.05878591 91.31100736 -72.8694582 90.19800335 -82.5625 90.25 C-83.8002417 90.2593457 -85.0379834 90.26869141 -86.31323242 90.27832031 C-87.48990479 90.27413086 -88.66657715 90.26994141 -89.87890625 90.265625 C-90.9366626 90.26336914 -91.99441895 90.26111328 -93.08422852 90.25878906 C-96.11836702 89.98949434 -98.28919524 89.37340181 -101 88 C-102.125 86 -102.125 86 -103 84 C-106.67137389 81.55241741 -109.6767257 81.59389369 -113.9375 81.4375 C-122.61137271 81.07055849 -122.61137271 81.07055849 -126 80 C-126.268125 78.865625 -126.53625 77.73125 -126.8125 76.5625 C-127.4003125 74.7990625 -127.4003125 74.7990625 -128 73 C-129.485 72.505 -129.485 72.505 -131 72 C-131 70.02 -131 68.04 -131 66 C-130.41992188 65.97421875 -129.83984375 65.9484375 -129.2421875 65.921875 C-123.90191349 65.53413233 -119.89843879 64.99839876 -116 61 C-115.17812203 57.21251237 -114.9966574 53.64994117 -117.0546875 50.265625 C-120.05113032 48.31613208 -123.21669564 48.42592498 -126.6875 48.3125 C-127.38939453 48.27833984 -128.09128906 48.24417969 -128.81445312 48.20898438 C-130.54241387 48.12670053 -132.27118072 48.0616676 -134 48 C-134.26941406 46.87335938 -134.53882813 45.74671875 -134.81640625 44.5859375 C-135.20699219 43.40257812 -135.59757812 42.21921875 -136 41 C-136.969375 40.54625 -137.93875 40.0925 -138.9375 39.625 C-142.4048428 37.78518545 -142.64291074 37.23049352 -143.875 33.6875 C-144.7047123 30.77879268 -144.99271886 28.81069024 -144.875 25.75 C-144.73184545 22.73765168 -144.73184545 22.73765168 -147.375 20.1875 C-149.77692523 18.01610433 -149.77692523 18.01610433 -152 17 C-152 15.35 -152 13.7 -152 12 C-146.57479062 13.51321213 -142.18260739 16.06010199 -137.4375 19 C-136.64174561 19.49201904 -135.84599121 19.98403809 -135.02612305 20.4909668 C-114.4484922 33.39783041 -97.11659363 50.69327234 -81.47265625 69.1640625 C-78.39299933 72.69582647 -75.29033518 75.32944276 -71.4375 78 C-69.82681641 79.1446875 -69.82681641 79.1446875 -68.18359375 80.3125 C-64.66544083 82.17733688 -62.91185085 82.61766066 -59 82 C-39.33693225 70.93159574 -27.32897887 46.15593718 -16.44677734 27.46435547 C-13.96498825 23.23702183 -11.37474431 19.08000306 -8.78515625 14.91796875 C-6.21647639 10.71927322 -3.77823436 6.44777941 -1.34765625 2.16796875 C-0.90292969 1.45253906 -0.45820313 0.73710937 0 0 Z " fill="#F6BB4B" transform="translate(409,375)"/>
<path d="M0 0 C3.94883499 1.83481222 7.5757591 4.17931005 11.25 6.5 C15.56582119 9.22361026 19.88162629 11.94049183 24.2578125 14.56640625 C32.2156739 19.36807986 39.51072048 24.24965751 46 31 C46.56976563 31.58652344 47.13953125 32.17304687 47.7265625 32.77734375 C55.9701546 42.4371427 59.11927091 55.36666971 58.4765625 67.7890625 C58.04253565 72.6345828 56.77508311 77.16458252 55.44189453 81.82666016 C52.66938405 92.10542052 51.81590658 104.97760413 56.80273438 114.67138672 C58.00365269 117.00710427 59.08317691 119.36974247 60.140625 121.7734375 C60.49157227 122.56927246 60.84251953 123.36510742 61.20410156 124.18505859 C61.46674805 124.78398926 61.72939453 125.38291992 62 126 C61.410979 125.91435791 60.82195801 125.82871582 60.21508789 125.74047852 C57.49777882 125.34628371 54.7801438 124.95438023 52.0625 124.5625 C50.67321289 124.36043945 50.67321289 124.36043945 49.25585938 124.15429688 C43.51218568 123.32801399 37.77076442 122.60962947 32 122 C33.42953228 119.03304621 34.93820393 116.72203034 37.125 114.25 C37.66382813 113.63640625 38.20265625 113.0228125 38.7578125 112.390625 C39.16773438 111.93171875 39.57765625 111.4728125 40 111 C35.80999376 111.55000082 33.4094519 113.97278017 30.1875 116.5625 C22.96014995 122.01954351 16.83990658 121.99036298 8 121 C8.40992188 120.52949219 8.81984375 120.05898437 9.2421875 119.57421875 C9.78101563 118.95160156 10.31984375 118.32898438 10.875 117.6875 C11.40867187 117.07261719 11.94234375 116.45773438 12.4921875 115.82421875 C14.1640447 113.86501788 14.1640447 113.86501788 16 111 C18.66294015 109.22470656 20.95705074 108.01431642 24 107 C24 106.34 24 105.68 24 105 C26.1875 103.2734375 26.1875 103.2734375 29 101.375 C29.928125 100.74335938 30.85625 100.11171875 31.8125 99.4609375 C32.534375 98.97882813 33.25625 98.49671875 34 98 C33.401875 98.33 32.80375 98.66 32.1875 99 C30 100 30 100 27 100 C27 100.66 27 101.32 27 102 C26.33613281 102.25394531 25.67226563 102.50789063 24.98828125 102.76953125 C16.96096756 105.72492439 16.96096756 105.72492439 10.25 110.84375 C6.78978922 114.15978533 2.72939107 116.46522222 -1.3203125 119 C-3.9018291 120.92672959 -4.92393356 122.02421131 -6 125 C-7.32 125 -8.64 125 -10 125 C-6.27458226 114.26770847 3.12409724 106.55471571 12 100 C12.71285156 99.47277344 13.42570312 98.94554687 14.16015625 98.40234375 C18.19718193 95.64946142 21.71569091 94.45837938 26.49609375 93.59375 C32.27097842 92.22435457 37.93818125 89.63297 43.16796875 86.84375 C45 86 45 86 48 86 C48 85.34 48 84.68 48 84 C46.75347656 84.433125 45.50695312 84.86625 44.22265625 85.3125 C30.77167471 89.79084497 16.50256209 93.6699485 2.9609375 87.22265625 C0.13395075 85.46001312 -1.86918956 83.55697253 -4 81 C-2.67548828 81.10828125 -2.67548828 81.10828125 -1.32421875 81.21875 C13.41347428 82.35850714 27.32860389 81.53640021 42 80 C40.8354126 79.95512451 39.6708252 79.91024902 38.47094727 79.86401367 C34.11486897 79.69266491 29.75967846 79.50399025 25.40454102 79.31030273 C23.52615611 79.22913895 21.64756691 79.15255936 19.76879883 79.08081055 C17.05482273 78.97634372 14.34203001 78.85493858 11.62890625 78.73046875 C10.80040665 78.70220505 9.97190704 78.67394135 9.11830139 78.64482117 C3.33795633 78.3571953 -1.6074553 77.08581987 -7 75 C-7 73.68 -7 72.36 -7 71 C15.85025126 60.41420144 15.85025126 60.41420144 25 63 C26.093125 63.495 27.18625 63.99 28.3125 64.5 C32.40115897 66.16318331 35.6364076 66.52972683 40 67 C38.91460937 66.40832031 37.82921875 65.81664063 36.7109375 65.20703125 C35.26543895 64.40919114 33.82013685 63.61099506 32.375 62.8125 C31.66214844 62.42513672 30.94929688 62.03777344 30.21484375 61.63867188 C14.63224628 52.98961548 5.19548608 38.2310295 -0.4375 21.625 C-0.6967627 20.86380859 -0.95602539 20.10261719 -1.22314453 19.31835938 C-2.58020717 15.08395088 -3.29296894 11.50171791 -3 7 C-0.19657072 9.48447625 1.34137666 12.22571562 3.125 15.5 C12.36140177 31.56668207 25.34985146 43.01760433 42 51 C33.40959855 42.98601617 33.40959855 42.98601617 24.625 35.1875 C13.65600831 25.64424727 3.39571021 14.5089436 0 0 Z " fill="#F5D4A4" transform="translate(278,62)"/>
<path d="M0 0 C1.86785156 0.01353516 1.86785156 0.01353516 3.7734375 0.02734375 C5.18496094 0.04474609 5.18496094 0.04474609 6.625 0.0625 C9.70754574 7.45079984 9.9963639 13.92238415 9.85092354 21.8812809 C9.81148872 24.04373574 9.79084951 26.20570683 9.77464294 28.36845398 C9.74993046 31.44896037 9.71786005 34.52925074 9.67965698 37.60961914 C9.58417748 45.54809091 9.54955758 53.48678536 9.53515625 61.42578125 C9.53363115 62.20205997 9.53210606 62.9783387 9.53053474 63.77814102 C9.5174612 76.25213498 9.875102 88.63730181 11.0625 101.0625 C11.13025635 101.77467682 11.1980127 102.48685364 11.26782227 103.22061157 C11.7538509 108.16943295 12.26226694 113.09922367 13.16601562 117.99072266 C13.68142154 121.44010418 13.73755937 124.72360728 13.72265625 128.2109375 C13.7212413 128.86832916 13.71982635 129.52572083 13.71836853 130.20303345 C13.71281762 132.28123731 13.70027465 134.35932927 13.6875 136.4375 C13.68247864 137.85546718 13.67791685 139.27343607 13.67382812 140.69140625 C13.66371962 144.14851421 13.64413533 147.60538338 13.625 151.0625 C6.365 151.0625 -0.895 151.0625 -8.375 151.0625 C-8.54515625 149.0721875 -8.7153125 147.081875 -8.890625 145.03125 C-9.00646417 143.69211352 -9.12256372 142.35299952 -9.23901367 141.01391602 C-9.43476102 138.76242858 -9.62938651 136.51087084 -9.82070923 134.25900269 C-10.56724823 125.47785904 -11.3833146 116.71938339 -12.46484375 107.97265625 C-14.96492667 87.27219538 -15.73450086 66.78454608 -15.6875 45.9375 C-15.68495209 44.65392609 -15.68240417 43.37035217 -15.67977905 42.04788208 C-15.56195968 7.62337904 -15.56195968 7.62337904 -13.375 1.0625 C-8.85684719 0.17972245 -4.59987306 -0.04339503 0 0 Z " fill="#8392BC" transform="translate(187.375,307.9375)"/>
<path d="M0 0 C2.03375999 -0.00857018 4.06750551 -0.02217492 6.10119629 -0.04101562 C26.97224501 -0.21396001 26.97224501 -0.21396001 35.88311768 3.29956055 C36.63617188 3.58992188 37.38922607 3.8802832 38.1651001 4.17944336 C43.64599537 6.4286434 47.64509867 10.37170038 50.88311768 15.29956055 C50.88311768 16.28956055 50.88311768 17.27956055 50.88311768 18.29956055 C51.54311768 18.29956055 52.20311768 18.29956055 52.88311768 18.29956055 C55.94966917 24.67798765 55.94966917 24.67798765 55.66680908 27.31982422 C54.88311768 29.29956055 54.88311768 29.29956055 53.15582275 30.25683594 C52.04050171 30.57382446 52.04050171 30.57382446 50.90264893 30.8972168 C50.07515137 31.13988281 49.24765381 31.38254883 48.39508057 31.63256836 C47.50425781 31.87330078 46.61343506 32.1140332 45.69561768 32.36206055 C44.78739258 32.61955078 43.87916748 32.87704102 42.94342041 33.14233398 C35.65338877 35.17496406 28.33914409 36.98331907 20.88311768 38.29956055 C19.96917236 38.4672998 19.05522705 38.63503906 18.11358643 38.80786133 C9.63103222 40.25834699 1.35484304 40.66585059 -7.24188232 40.67456055 C-8.52192139 40.69905273 -9.80196045 40.72354492 -11.12078857 40.7487793 C-21.72665959 40.78134594 -31.06934631 38.86876999 -39.47235107 32.05737305 C-42.40852862 28.91894099 -43.65374539 25.27746408 -45.11688232 21.29956055 C-45.85805853 19.67051701 -46.60786904 18.04537017 -47.36688232 16.42456055 C-48.64852472 13.67395879 -49.11688232 12.39919424 -49.11688232 9.29956055 C-49.77688232 9.29956055 -50.43688232 9.29956055 -51.11688232 9.29956055 C-51.11688232 6.98956055 -51.11688232 4.67956055 -51.11688232 2.29956055 C-34.08106999 0.75421303 -17.10226727 0.06886955 0 0 Z " fill="#94C1D3" transform="translate(343.11688232421875,258.700439453125)"/>
<path d="M0 0 C-0.20183963 2.95854403 -0.42642769 5.91248974 -0.6796875 8.8671875 C-0.93270051 11.87227182 -1.07873694 14.86951085 -1.1953125 17.8828125 C-1.83244342 30.25008552 -1.83244342 30.25008552 -4.60546875 34.40625 C-7.02040928 36.18234135 -9.14807927 37.07011043 -12 38 C-13.09957031 38.40089844 -14.19914062 38.80179688 -15.33203125 39.21484375 C-29.30624009 43.63480118 -43.00491424 43.08899897 -57 39 C-57 38.34 -57 37.68 -57 37 C-57.928125 36.896875 -58.85625 36.79375 -59.8125 36.6875 C-63.15771334 35.9659834 -64.01590165 35.65928406 -66 33 C-66.2578125 30.765625 -66.2578125 30.765625 -66.125 28.25 C-66.01375814 25.05643167 -66.08553003 22.49537284 -66.625 19.3125 C-67.24368163 13.84747895 -65.25602586 8.93505657 -63 4 C-61 2 -61 2 -57.01611328 1.8046875 C-55.28407705 1.81860779 -53.55210534 1.84279986 -51.8203125 1.875 C-50.43560257 1.88635986 -50.43560257 1.88635986 -49.0229187 1.89794922 C-45.07072084 1.93057933 -41.1189357 1.98621812 -37.16699219 2.04101562 C-22.71688419 2.3473472 -22.71688419 2.3473472 -8.43310547 0.4375 C-5.58782662 -0.07411345 -2.88477692 -0.06707565 0 0 Z " fill="#2C2B3A" transform="translate(295,493)"/>
<path d="M0 0 C1.98 0.33 3.96 0.66 6 1 C7.01945045 4.95982252 6.90110701 8.0184859 6.2578125 12.04296875 C6.07863281 13.19990234 5.89945312 14.35683594 5.71484375 15.54882812 C5.52019531 16.74958984 5.32554687 17.95035156 5.125 19.1875 C4.75033647 21.55563192 4.37790441 23.92411807 4.0078125 26.29296875 C3.74145996 27.99332275 3.74145996 27.99332275 3.46972656 29.72802734 C2.92183729 33.54445771 2.54276146 37.35739952 2.24169922 41.20043945 C2 43 2 43 1 44 C-1.80253909 44.10122296 -4.57987672 44.13968185 -7.3828125 44.1328125 C-8.23044159 44.13376923 -9.07807068 44.13472595 -9.9513855 44.13571167 C-11.75209629 44.13639394 -13.55280952 44.13453643 -15.35351562 44.13037109 C-18.09250538 44.12506297 -20.83132816 44.13029385 -23.5703125 44.13671875 C-25.32031286 44.1360572 -27.07031312 44.13477445 -28.8203125 44.1328125 C-30.04102951 44.13584885 -30.04102951 44.13584885 -31.28640747 44.13894653 C-35.93057358 44.1201072 -40.44617186 44.01366218 -45 43 C-47.59500704 39.10748944 -46.86590203 37.4869469 -46 33 C-45.773125 32.319375 -45.54625 31.63875 -45.3125 30.9375 C-44.81788739 28.82250314 -44.81788739 28.82250314 -45.9375 26.1875 C-47.14902618 22.55292145 -47.35924102 19.80795477 -47 16 C-45.87329102 14.32055664 -45.87329102 14.32055664 -44 13 C-41.15600586 12.59936523 -41.15600586 12.59936523 -37.71484375 12.55859375 C-36.46123047 12.53216797 -35.20761719 12.50574219 -33.91601562 12.47851562 C-32.60310547 12.46498047 -31.29019531 12.45144531 -29.9375 12.4375 C-13.14317446 12.37800615 -13.14317446 12.37800615 2 6 C2 4.68 2 3.36 2 2 C1.34 1.34 0.68 0.68 0 0 Z " fill="#2C2B39" transform="translate(391,477)"/>
<path d="M0 0 C0.33 0 0.66 0 1 0 C2.23568016 17.57411782 -2.4770327 35.40456861 -6.33666992 52.42529297 C-7.43562822 57.2757769 -8.38382625 62.06383883 -9 67 C-10.27617187 66.67257812 -11.55234375 66.34515625 -12.8671875 66.0078125 C-20.87877144 64.40549571 -28.99422457 64.78794321 -37.125 64.875 C-38.76561953 64.88505123 -40.40624503 64.89417328 -42.046875 64.90234375 C-46.03139965 64.92418451 -50.01563259 64.9585957 -54 65 C-48.53768867 59.51143025 -48.53768867 59.51143025 -45.5625 57 C-44.97210938 56.49597656 -44.38171875 55.99195313 -43.7734375 55.47265625 C-42.6288896 54.52222771 -41.46816325 53.5908014 -40.2890625 52.68359375 C-36.95865785 50.09237647 -35.16778818 48.08725862 -34 44 C-33.01 44 -32.02 44 -31 44 C-28.33094666 42.70833821 -26.05398062 41.14352746 -24 39 C-23.83329727 35.95826106 -23.83329727 35.95826106 -24 33 C-20.68898791 29.39683978 -17.8084187 28.44729476 -13 28 C-13.12375 27.0925 -13.2475 26.185 -13.375 25.25 C-13.375 18.67204163 -9.46707724 11.90377827 -5.30078125 7 C-3.89445322 5.63793895 -2.45017745 4.31527722 -1 3 C-0.67 2.01 -0.34 1.02 0 0 Z " fill="#DA832F" transform="translate(408,412)"/>
<path d="M0 0 C-0.42667969 0.68320312 -0.85335937 1.36640625 -1.29296875 2.0703125 C-6.46488771 10.40936533 -11.47185699 18.83946239 -16.43041992 27.30712891 C-19.16644376 31.96427868 -21.93866554 36.54917635 -25 41 C-28.57529506 39.80823498 -28.86057578 39.00634913 -30.75 35.875 C-33.24101141 31.98164143 -35.90604244 28.89603101 -39.2421875 25.71875 C-40.96636569 24.03288688 -42.50861768 22.28029511 -44.0625 20.4375 C-48.22892982 15.57986523 -52.81165457 11.13810899 -57.37719727 6.65991211 C-57.97330811 6.07218018 -58.56941895 5.48444824 -59.18359375 4.87890625 C-59.72556396 4.3485376 -60.26753418 3.81816895 -60.82592773 3.27172852 C-62 2 -62 2 -62 1 C-60.89301758 0.97494385 -59.78603516 0.9498877 -58.64550781 0.92407227 C-53.51359101 0.80691018 -48.381784 0.68532899 -43.25 0.5625 C-41.87675568 0.52990082 -41.87675568 0.52990082 -40.47576904 0.49664307 C-29.39445424 0.23048034 -18.32102136 -0.04448764 -7.25878906 -0.78295898 C-2.19924546 -1.09962273 -2.19924546 -1.09962273 0 0 Z " fill="#DFD4C6" transform="translate(373,400)"/>
<path d="M0 0 C0.66 6.27 1.32 12.54 2 19 C0.75863281 19.89203125 -0.48273438 20.7840625 -1.76171875 21.703125 C-3.40369523 22.88534806 -5.04561957 24.06764355 -6.6875 25.25 C-7.50412109 25.83652344 -8.32074219 26.42304688 -9.16210938 27.02734375 C-12.49317489 29.4278687 -15.77941639 31.81933707 -18.95703125 34.421875 C-21 36 -21 36 -23 36 C-23 36.66 -23 37.32 -23 38 C-41.56233641 49.36469576 -41.56233641 49.36469576 -50.19165039 47.53540039 C-51.08678345 47.2703772 -51.08678345 47.2703772 -52 47 C-51.29206299 46.49569458 -51.29206299 46.49569458 -50.56982422 45.98120117 C-41.89280616 39.78828702 -33.28340864 33.54777731 -24.94042969 26.90966797 C-19.38111193 22.48740903 -13.70529619 18.23195047 -8 14 C-14.82681835 17.85914646 -21.39596596 21.8793015 -27.76953125 26.44921875 C-29.64459503 27.75289707 -31.50021515 28.90454676 -33.5 30 C-37.37029948 32.12183477 -40.89413019 34.69611625 -44.48828125 37.25 C-47.91418362 39.63694287 -51.43767578 41.82302409 -55 44 C-53.95035753 33.06075733 -44.04323529 22.90187469 -36 16 C-27.63122924 9.54374308 -27.63122924 9.54374308 -23 8 C-22.67 7.34 -22.34 6.68 -22 6 C-20.72125 5.896875 -19.4425 5.79375 -18.125 5.6875 C-12.94352236 5.25501712 -8.90382044 3.35168582 -4.28515625 1.05859375 C-2 0 -2 0 0 0 Z " fill="#F39A19" transform="translate(204,151)"/>
<path d="M0 0 C3.09909368 1.40828381 5.34828178 2.88614069 7.78515625 5.265625 C8.45072054 9.924575 8.4216511 12.06901468 6.22265625 16.203125 C3.05246309 18.88559613 0.88921766 18.9164349 -3.21484375 19.265625 C-6.1171875 18.9609375 -6.1171875 18.9609375 -9.15234375 18.390625 C-13.91318705 17.59886488 -18.45634367 17.19023838 -23.28515625 17.1171875 C-24.88822632 17.08794189 -24.88822632 17.08794189 -26.52368164 17.05810547 C-28.66591742 17.03013601 -30.80861651 17.02593852 -32.95092773 17.04736328 C-40.2594814 16.93265902 -40.2594814 16.93265902 -43.01879883 15.00610352 C-45.39743291 12.30075022 -46.2160059 10.25826469 -46.77734375 6.703125 C-46.12913964 2.74187763 -45.02685001 1.07763126 -42.21484375 -1.734375 C-31.60671805 -7.03843785 -11.15034793 -3.34909139 0 0 Z " fill="#F7F7F8" transform="translate(371.21484375,264.734375)"/>
<path d="M0 0 C-0.70575168 14.16370604 -4.57579212 29.57579212 -15 40 C-21.33561965 40.15452731 -25.6050948 36.09733349 -30 32 C-36.55380374 24.83798341 -39.37301719 18.96937462 -39.125 9.125 C-39.11146484 8.09246094 -39.11146484 8.09246094 -39.09765625 7.0390625 C-39.07432513 5.35922162 -39.03846326 3.67956254 -39 2 C-38.34 2 -37.68 2 -37 2 C-36.29875 2.94875 -35.5975 3.8975 -34.875 4.875 C-31.89559252 8.56876834 -28.59473777 9.44431872 -24 10 C-23.28585938 10.11730469 -22.57171875 10.23460937 -21.8359375 10.35546875 C-15.59092649 10.94024893 -12.05060529 8.52402972 -7.1640625 4.82421875 C-5.02104141 3.08213309 -5.02104141 3.08213309 -3.3359375 1.26953125 C-2 0 -2 0 0 0 Z " fill="#AE7421" transform="translate(244,290)"/>
<path d="M0 0 C-0.10284302 1.06226807 -0.10284302 1.06226807 -0.20776367 2.14599609 C-0.91919275 9.97872196 -1.24593563 17.76152924 -1.3125 25.625 C-1.34150391 26.77484375 -1.37050781 27.9246875 -1.40039062 29.109375 C-1.4625274 37.50261963 -0.41438337 44.86135349 5.0625 51.5 C6.65770125 52.73499451 8.32142674 53.88095116 10 55 C5.183863 58.95611254 1.22932128 59.53701046 -5 59 C-10.24891857 56.63284064 -12.07698067 53.5912311 -14.23828125 48.51171875 C-16.10956155 42.34129191 -16.19387348 36.07755275 -16.1875 29.6875 C-16.1862915 28.42945557 -16.1862915 28.42945557 -16.18505859 27.14599609 C-16.12655111 21.23215099 -15.6677627 15.70114626 -14 10 C-13.773125 9.01 -13.54625 8.02 -13.3125 7 C-11.27273729 3.89179015 -8.50426755 3.84585769 -5 3 C-0.61538462 0 -0.61538462 0 0 0 Z " fill="#8A5B16" transform="translate(223,238)"/>
<path d="M0 0 C1.86785156 0.01353516 1.86785156 0.01353516 3.7734375 0.02734375 C5.18496094 0.04474609 5.18496094 0.04474609 6.625 0.0625 C9.18241002 8.01772216 10.08433767 15.78467502 8.625 24.0625 C5.85647191 27.50413746 2.74090409 28.66145715 -1.375 30.0625 C-2.37917969 30.46597656 -3.38335937 30.86945313 -4.41796875 31.28515625 C-11.54491525 34.0625 -11.54491525 34.0625 -14.375 34.0625 C-14.39973064 29.84497482 -14.41787453 25.62748814 -14.42993164 21.40991211 C-14.43495842 19.97533432 -14.44178079 18.54076164 -14.45043945 17.10620117 C-14.46257752 15.04344418 -14.46824486 12.98075496 -14.47265625 10.91796875 C-14.47789307 9.67684326 -14.48312988 8.43571777 -14.48852539 7.15698242 C-14.375 4.0625 -14.375 4.0625 -13.375 1.0625 C-8.85684719 0.17972245 -4.59987306 -0.04339503 0 0 Z " fill="#D3D9EB" transform="translate(187.375,307.9375)"/>
<path d="M0 0 C1.89610642 2.84415963 2.96430261 5.3272013 4.1875 8.5 C9.65463548 21.75900599 17.42637615 30.79324854 29 39 C28.65447612 41.55687669 28.24912987 43.57501375 26.9375 45.8125 C23.75444301 47.7634059 20.67569327 47.1807718 17 47 C16.505 44.525 16.505 44.525 16 42 C14.31851803 45.76331678 12.85474168 49.42166359 11.6875 53.375 C10.03899911 58.47833786 7.34704918 62.82318097 4 67 C3.01 67.495 3.01 67.495 2 68 C2.33 66.02 2.66 64.04 3 62 C3.66 62 4.32 62 5 62 C5.1546875 60.6078125 5.1546875 60.6078125 5.3125 59.1875 C6.03762322 54.00500168 7.55669005 49.01981384 9 44 C5.81414169 50.25372188 2.87213619 56.59654883 0 63 C-2.17132864 55.74414346 -2.49354247 47.40154298 0.5625 40.44140625 C1.83188796 38.26860306 3.12417881 36.10898259 4.44140625 33.96484375 C6.69144734 29.6846904 6.56138223 26.73165022 6 22 C5.34 22 4.68 22 4 22 C4 20.35 4 18.7 4 17 C3.34 17 2.68 17 2 17 C1.66291092 14.91727106 1.33046884 12.83378963 1 10.75 C0.814375 9.58984375 0.62875 8.4296875 0.4375 7.234375 C0 4 0 4 0 0 Z " fill="#EA9212" transform="translate(215,169)"/>
<path d="M0 0 C3.57056197 0.20646107 6.12091228 0.54766181 9.0078125 2.76171875 C11.57237172 5.74166432 13.01248389 7.94521866 13.1171875 11.94140625 C12.796875 14.6328125 12.796875 14.6328125 12.28125 17.15625 C12.16523438 18.19652344 12.16523438 18.19652344 12.046875 19.2578125 C12.706875 19.9178125 13.366875 20.5778125 14.046875 21.2578125 C14.28021238 25.72233433 13.7500475 29.91539227 11.671875 33.8828125 C7.27520235 36.18583151 2.88688248 35.93083129 -1.953125 35.2578125 C-5.140625 33.8828125 -5.140625 33.8828125 -6.953125 31.2578125 C-7.24023771 28.7179693 -7.19686717 26.33300086 -7.0546875 23.78125 C-6.85771887 21.04996302 -6.85771887 21.04996302 -7.578125 17.5703125 C-8.19680663 12.10529145 -6.20915086 7.19286907 -3.953125 2.2578125 C-1.953125 0.2578125 -1.953125 0.2578125 0 0 Z " fill="#A6A8C4" transform="translate(235.953125,494.7421875)"/>
<path d="M0 0 C1.71703125 -0.01160156 1.71703125 -0.01160156 3.46875 -0.0234375 C6.5 0.375 6.5 0.375 8.28125 1.5859375 C11.96319349 6.99084172 11.83523745 12.16079855 11.8125 18.5 C11.82861328 19.40621094 11.84472656 20.31242187 11.86132812 21.24609375 C11.86229492 22.55126953 11.86229492 22.55126953 11.86328125 23.8828125 C11.86626221 24.67316895 11.86924316 25.46352539 11.87231445 26.27783203 C11.40882746 28.88855549 10.57360403 29.77156445 8.5 31.375 C3.38030718 32.20843837 -2.49418064 31.49875537 -7.5 30.375 C-10.09500704 26.48248944 -9.36590203 24.8619469 -8.5 20.375 C-8.273125 19.694375 -8.04625 19.01375 -7.8125 18.3125 C-7.31788739 16.19750314 -7.31788739 16.19750314 -8.4375 13.5625 C-9.64902618 9.92792145 -9.85924102 7.18295477 -9.5 3.375 C-7.04754134 -0.3338059 -4.19457857 -0.02834175 0 0 Z " fill="#A5A6C3" transform="translate(353.5,489.625)"/>
<path d="M0 0 C-0.42667969 0.68320312 -0.85335938 1.36640625 -1.29296875 2.0703125 C-6.46488771 10.40936533 -11.47185699 18.83946239 -16.43041992 27.30712891 C-19.16644376 31.96427868 -21.93866554 36.54917635 -25 41 C-28.48242829 39.83919057 -29.74267815 38.42712796 -31.4609375 35.20703125 C-32.60876448 30.50759469 -29.90839609 26.21622393 -28 22 C-27.5978125 20.9790625 -27.195625 19.958125 -26.78125 18.90625 C-24.38344259 12.81950811 -21.65224362 7.42619052 -18 2 C-19.32 1.34 -20.64 0.68 -22 0 C-18.70880065 -0.1964031 -15.41703066 -0.38060745 -12.125 -0.5625 C-11.18785156 -0.61857422 -10.25070312 -0.67464844 -9.28515625 -0.73242188 C-8.38925781 -0.78076172 -7.49335938 -0.82910156 -6.5703125 -0.87890625 C-5.74289551 -0.9260376 -4.91547852 -0.97316895 -4.06298828 -1.02172852 C-2 -1 -2 -1 0 0 Z " fill="#8D8579" transform="translate(373,400)"/>
<path d="M0 0 C13.70026214 -0.39647061 28.71994887 -0.77352027 41 6 C42.68167097 6.76298035 44.369232 7.51311485 46.0625 8.25 C47.375 8.83333333 48.6875 9.41666667 50 10 C49.46719784 14.22489602 48.12321801 16.54080716 45.4375 19.8125 C44.47650391 20.99779297 44.47650391 20.99779297 43.49609375 22.20703125 C43.00238281 22.79871094 42.50867188 23.39039063 42 24 C37.17362163 23.51170072 34.45250587 22.25889381 30.625 19.3125 C29.66464844 18.58804688 28.70429688 17.86359375 27.71484375 17.1171875 C26.1346985 15.88490156 24.5608863 14.64424056 23.00390625 13.3828125 C17.78498874 9.23012545 12.05905901 6.38313618 6.07421875 3.515625 C3 2 3 2 0 0 Z " fill="#BF904C" transform="translate(301,196)"/>
<path d="M0 0 C0.495 0.99 0.495 0.99 1 2 C-0.03125 1.87625 -1.0625 1.7525 -2.125 1.625 C-3.24841797 1.49158203 -3.24841797 1.49158203 -4.39453125 1.35546875 C-6.16978619 1.11326755 -7.93887281 0.82200819 -9.69921875 0.48828125 C-27.06530735 -2.58401297 -45.67457093 -2.07459039 -63 1 C-65.33243513 1.33956134 -67.66556528 1.67446953 -70 2 C-70 0.35 -70 -1.3 -70 -3 C-48.50609391 -17.38613291 -20.97833285 -12.1534991 0 0 Z " fill="#7F5414" transform="translate(318,209)"/>
<path d="M0 0 C-0.11532936 1.87561967 -0.2427359 3.75049841 -0.375 5.625 C-0.44460937 6.66914063 -0.51421875 7.71328125 -0.5859375 8.7890625 C-1 12 -1 12 -3 18 C-14.22 18 -25.44 18 -37 18 C-38.56555671 13.30332986 -39.24897486 11.21206998 -39.125 6.625 C-39.10695312 5.75101562 -39.08890625 4.87703125 -39.0703125 3.9765625 C-39.04710937 3.32429688 -39.02390625 2.67203125 -39 2 C-38.34 2 -37.68 2 -37 2 C-36.29875 2.94875 -35.5975 3.8975 -34.875 4.875 C-31.89559252 8.56876834 -28.59473777 9.44431872 -24 10 C-23.28585938 10.11730469 -22.57171875 10.23460937 -21.8359375 10.35546875 C-15.59092649 10.94024893 -12.05060529 8.52402972 -7.1640625 4.82421875 C-5.02104141 3.08213309 -5.02104141 3.08213309 -3.3359375 1.26953125 C-2 0 -2 0 0 0 Z " fill="#CCB492" transform="translate(244,290)"/>
<path d="M0 0 C-0.33 2.31 -0.66 4.62 -1 7 C0.65 7 2.3 7 4 7 C-2.76734176 11.51156117 -9.150287 12.31944347 -17.0625 12.4375 C-17.81797119 12.4595752 -18.57344238 12.48165039 -19.35180664 12.50439453 C-26.73558892 12.47710367 -32.52345432 9.74392655 -38 4.8125 C-38.5775 4.30332031 -39.155 3.79414063 -39.75 3.26953125 C-41 2 -41 2 -41 1 C-39.89712646 1.00785522 -39.89712646 1.00785522 -38.77197266 1.01586914 C-35.38965739 1.03685916 -32.0073559 1.04972951 -28.625 1.0625 C-26.89056641 1.07506836 -26.89056641 1.07506836 -25.12109375 1.08789062 C-19.08790241 1.10493354 -13.18760831 0.95620137 -7.19677734 0.21655273 C-4.78586823 -0.02110857 -2.42104524 -0.03379564 0 0 Z " fill="#EEAC4D" transform="translate(198,141)"/>
<path d="M0 0 C1.32451172 0.10828125 1.32451172 0.10828125 2.67578125 0.21875 C12.40133814 0.97088759 21.83207097 1.4754972 31.51953125 0.22265625 C36.66330028 -0.2390679 41.84055405 -0.07176973 47 0 C47 0.99 47 1.98 47 3 C47.99 3.33 48.98 3.66 50 4 C49.45472656 4.10957031 48.90945313 4.21914062 48.34765625 4.33203125 C44.39349528 5.16341894 40.73665986 6.08207391 37 7.625 C27.73997864 10.79846954 15.77970165 10.42135113 6.9609375 6.22265625 C4.13395075 4.46001312 2.13081044 2.55697253 0 0 Z " fill="#EDBC75" transform="translate(274,143)"/>
<path d="M0 0 C2.42675853 2.15786562 3.48304937 3.84887404 4.4375 6.9375 C6.16046594 11.85381642 8.69049185 14.12699457 13 17 C8.183863 20.95611254 4.22932128 21.53701046 -2 21 C-6.87342322 18.56328839 -9.12285752 16.10999899 -11 11 C-11.1875 8.125 -11.1875 8.125 -11 6 C-10.37351563 5.81824219 -9.74703125 5.63648438 -9.1015625 5.44921875 C-7.87566406 5.07216797 -7.87566406 5.07216797 -6.625 4.6875 C-5.81289062 4.44386719 -5.00078125 4.20023437 -4.1640625 3.94921875 C-1.66815371 3.08631815 -1.66815371 3.08631815 0 0 Z " fill="#C3B095" transform="translate(220,276)"/>
<path d="M0 0 C0.43505859 0.87205078 0.43505859 0.87205078 0.87890625 1.76171875 C1.56997833 3.14145499 2.26454678 4.51945421 2.96484375 5.89453125 C9.08538702 17.96355432 9.08538702 17.96355432 10 24 C4.89743113 21.25745027 0.56332755 18.22103351 -3.8125 14.4375 C-4.38419922 13.95603516 -4.95589844 13.47457031 -5.54492188 12.97851562 C-8.12271872 10.77633195 -10.10784407 8.83823389 -12 6 C-11.07767578 5.72736328 -11.07767578 5.72736328 -10.13671875 5.44921875 C-8.92435547 5.07216797 -8.92435547 5.07216797 -7.6875 4.6875 C-6.48673828 4.32205078 -6.48673828 4.32205078 -5.26171875 3.94921875 C-2.90035427 2.95817977 -1.66120007 1.91925057 0 0 Z " fill="#7E8DB4" transform="translate(238,337)"/>
<path d="M0 0 C3.63 0.33 7.26 0.66 11 1 C10.360625 2.093125 9.72125 3.18625 9.0625 4.3125 C5.72327514 10.96726727 5.49838168 17.82038741 7 25 C6.938125 26.175625 6.87625 27.35125 6.8125 28.5625 C6.66467032 32.08115493 6.66467032 32.08115493 9 34.4375 C9.66 34.953125 10.32 35.46875 11 36 C7.17077668 35.46816343 4.84139995 34.65135826 2 32 C1.36230469 29.79858398 1.36230469 29.79858398 1.171875 27.24609375 C1.09453125 26.30830078 1.0171875 25.37050781 0.9375 24.40429688 C0.875625 23.42525391 0.81375 22.44621094 0.75 21.4375 C0.67265625 20.48552734 0.5953125 19.53355469 0.515625 18.55273438 C0.04315679 12.35580759 -0.06796793 6.21340117 0 0 Z " fill="#2E2D3B" transform="translate(223,494)"/>
<path d="M0 0 C2 3.75 2 3.75 2 6 C3.45599609 5.75636719 3.45599609 5.75636719 4.94140625 5.5078125 C9.28128012 4.8901689 13.56045144 4.85283773 17.9375 4.875 C18.69740234 4.87113281 19.45730469 4.86726563 20.24023438 4.86328125 C25.24363828 4.87182677 30.04697326 5.29000982 35 6 C34.67 7.65 34.34 9.3 34 11 C29.25 12 29.25 12 27 12 C27 11.34 27 10.68 27 10 C26.030625 10.144375 25.06125 10.28875 24.0625 10.4375 C21.10667782 10.85372802 18.14960035 11.25593572 15.1875 11.625 C14.43855469 11.72039062 13.68960938 11.81578125 12.91796875 11.9140625 C11 12 11 12 9 11 C7.32345271 11.27942455 5.65391846 11.60828247 4 12 C-0.57142857 4.71428571 -0.57142857 4.71428571 0 0 Z " fill="#BF8F49" transform="translate(205,302)"/>
<path d="M0 0 C0.66 0.33 1.32 0.66 2 1 C1.39671875 1.56847656 0.7934375 2.13695312 0.171875 2.72265625 C-4.46508319 7.20255618 -8.16075618 11.19806697 -11 17 C-8.93588378 15.58564218 -6.87369683 14.16860148 -4.8125 12.75 C-3.9452832 12.15638672 -3.9452832 12.15638672 -3.06054688 11.55078125 C-0.34741404 9.68071229 2.24908769 7.79572725 4.80078125 5.703125 C7 4 7 4 9 4 C8.44040477 7.82246588 6.78682643 9.58971741 4.0625 12.25 C3.35222656 12.95640625 2.64195312 13.6628125 1.91015625 14.390625 C0 16 0 16 -2 16 C-2.268125 16.7425 -2.53625 17.485 -2.8125 18.25 C-3.94229421 20.86636554 -5.20893202 22.80187111 -7 25 C-5.576875 24.2265625 -5.576875 24.2265625 -4.125 23.4375 C-3.09375 22.963125 -2.0625 22.48875 -1 22 C-0.34 22.33 0.32 22.66 1 23 C-3.74963401 26.68096635 -7.00708997 27.58669586 -13 28 C-12.59007812 27.54109375 -12.18015625 27.0821875 -11.7578125 26.609375 C-11.21898437 25.99578125 -10.68015625 25.3821875 -10.125 24.75 C-9.59132812 24.14671875 -9.05765625 23.5434375 -8.5078125 22.921875 C-7.0202513 21.02581254 -5.99677564 19.18709995 -5 17 C-9.13126473 18.92151848 -12.53258866 21.04250209 -16 24 C-15.53083683 18.90073478 -13.74646739 15.51432212 -10.8125 11.4375 C-10.43802734 10.88642578 -10.06355469 10.33535156 -9.67773438 9.76757812 C-6.89565325 5.81261288 -3.81615435 2.96566554 0 0 Z " fill="#6C4000" transform="translate(189,187)"/>
<path d="M0 0 C0.66 0.66 1.32 1.32 2 2 C0.54550599 3.0055761 -0.91372443 4.00430435 -2.375 5 C-3.18710937 5.556875 -3.99921875 6.11375 -4.8359375 6.6875 C-7 8 -7 8 -9 8 C-9 8.66 -9 9.32 -9 10 C-13.35294118 14 -13.35294118 14 -17 14 C-17.226875 14.556875 -17.45375 15.11375 -17.6875 15.6875 C-19.35896766 18.63246684 -21.55276352 20.68156544 -24 23 C-14.78977992 23.83608626 -9.0062408 23.45521763 -1.6953125 17.53125 C-1.13585937 17.0259375 -0.57640625 16.520625 0 16 C0.66 16.33 1.32 16.66 2 17 C0.32562616 18.32920455 -1.36520703 19.63768883 -3.0625 20.9375 C-4.47208984 22.03384766 -4.47208984 22.03384766 -5.91015625 23.15234375 C-11.64155593 26.57959034 -17.95389716 26.13961513 -24.4375 26.0625 C-25.16904297 26.05798828 -25.90058594 26.05347656 -26.65429688 26.04882812 C-28.43623419 26.03718148 -30.21812863 26.01925191 -32 26 C-29.06893178 22.98181961 -26.17741699 20.2522453 -22.75 17.8125 C-19.87731574 15.83803761 -19.87731574 15.83803761 -18 13 C-19.32 12.67 -20.64 12.34 -22 12 C-20.0898586 10.82268014 -18.17162056 9.65848895 -16.25 8.5 C-14.64898437 7.52546875 -14.64898437 7.52546875 -13.015625 6.53125 C-10 5 -10 5 -6 5 C-6 4.34 -6 3.68 -6 3 C-4.02 2.01 -2.04 1.02 0 0 Z " fill="#C08126" transform="translate(311,159)"/>
<path d="M0 0 C0 0.66 0 1.32 0 2 C2.475 2.495 2.475 2.495 5 3 C3.02 5.64 1.04 8.28 -1 11 C-5.99234024 10.51925613 -8.83279812 9.0731363 -12.8125 6.0625 C-13.76769531 5.35222656 -14.72289062 4.64195312 -15.70703125 3.91015625 C-18 2 -18 2 -19 0 C-12.84974502 -1.29479052 -6.02872891 -2.0095763 0 0 Z " fill="#A97121" transform="translate(344,209)"/>
<path d="M0 0 C8.50112752 -0.45183158 17.24944711 0.12472356 25 4 C25 4.99 25 5.98 25 7 C20.85279042 8.13793975 16.77969271 8.33214254 12.5 8.4375 C11.74074219 8.48326172 10.98148437 8.52902344 10.19921875 8.57617188 C7.97885246 8.62089029 6.1455765 8.58090582 4 8 C0 3.41358025 0 3.41358025 0 0 Z " fill="#C09A63" transform="translate(279,198)"/>
<path d="M0 0 C-1.53336901 0.84850459 -3.07718146 1.67814945 -4.625 2.5 C-5.48351562 2.9640625 -6.34203125 3.428125 -7.2265625 3.90625 C-10 5 -10 5 -13.03125 4.96484375 C-16.65628061 5.00777174 -17.99790144 5.91646747 -20.875 8.0625 C-21.7309375 8.69929687 -22.586875 9.33609375 -23.46875 9.9921875 C-28.58210317 14.04814974 -33.47649023 18.28801066 -38 23 C-35.22544609 21.9694514 -32.82736901 20.89160379 -30.3125 19.3125 C-29.549375 18.879375 -28.78625 18.44625 -28 18 C-27.34 18.33 -26.68 18.66 -26 19 C-27.05960937 19.67546875 -28.11921875 20.3509375 -29.2109375 21.046875 C-30.59927976 21.94742133 -31.98728302 22.84849043 -33.375 23.75 C-34.07367188 24.1934375 -34.77234375 24.636875 -35.4921875 25.09375 C-36.49765625 25.75117188 -36.49765625 25.75117188 -37.5234375 26.421875 C-38.450354 27.01887207 -38.450354 27.01887207 -39.39599609 27.62792969 C-41.26480604 29.22651597 -42.04441474 30.75500056 -43 33 C-44.32 33 -45.64 33 -47 33 C-43.27458226 22.26770847 -33.87590276 14.55471571 -25 8 C-24.28714844 7.47277344 -23.57429688 6.94554687 -22.83984375 6.40234375 C-18.73196855 3.60114853 -14.99718778 2.28349746 -10.11328125 1.40625 C-7.74376402 1.00268361 -7.74376402 1.00268361 -4.5625 -0.1875 C-2 -1 -2 -1 0 0 Z " fill="#BE8025" transform="translate(315,154)"/>
<path d="M0 0 C1.98 0 3.96 0 6 0 C5.01 1.485 5.01 1.485 4 3 C3.68544946 7.01051938 4.02436904 10.35673249 5.125 14.1875 C6.08105493 18.3531679 5.88502052 18.56260964 4 22 C4.31126713 25.68203915 4.31126713 25.68203915 5 29 C7.31 29.33 9.62 29.66 12 30 C12 30.33 12 30.66 12 31 C8.04 31 4.08 31 0 31 C0 20.77 0 10.54 0 0 Z " fill="#302F3E" transform="translate(341,490)"/>
<path d="M0 0 C2.43990804 2.174108 3.57580792 3.97833646 4.625 7.0625 C5.33977554 9.12612616 6.02242128 11.04484255 7 13 C1.125 12.125 1.125 12.125 0 11 C-5.40787385 12.09786425 -5.40787385 12.09786425 -9 16 C-10.60355101 12.49223216 -11.22036864 9.85645121 -11 6 C-10.37351563 5.81824219 -9.74703125 5.63648438 -9.1015625 5.44921875 C-7.87566406 5.07216797 -7.87566406 5.07216797 -6.625 4.6875 C-5.81289062 4.44386719 -5.00078125 4.20023437 -4.1640625 3.94921875 C-1.66815371 3.08631815 -1.66815371 3.08631815 0 0 Z " fill="#96723D" transform="translate(220,276)"/>
<path d="M0 0 C0.55558594 0.24492187 1.11117187 0.48984375 1.68359375 0.7421875 C-1.21939668 5.15043223 -4.23221988 9.45859531 -7.31640625 13.7421875 C-5.66640625 13.0821875 -4.01640625 12.4221875 -2.31640625 11.7421875 C-5.98307292 15.40885417 -9.64973958 19.07552083 -13.31640625 22.7421875 C-13.97640625 22.4121875 -14.63640625 22.0821875 -15.31640625 21.7421875 C-14.57390625 20.7315625 -13.83140625 19.7209375 -13.06640625 18.6796875 C-10.54434189 15.15737099 -8.4255362 11.52407569 -6.31640625 7.7421875 C-5.65640625 6.7521875 -4.99640625 5.7621875 -4.31640625 4.7421875 C-10.43993263 9.25786059 -16.39690975 13.96292188 -22.31640625 18.7421875 C-22.97640625 18.4121875 -23.63640625 18.0821875 -24.31640625 17.7421875 C-21.70711335 15.60731149 -19.09683129 13.47387336 -16.48046875 11.34765625 C-14.38194945 9.63345503 -12.31924446 7.88665894 -10.27734375 6.10546875 C-9.32085937 5.28433594 -8.364375 4.46320313 -7.37890625 3.6171875 C-6.50363281 2.85148438 -5.62835938 2.08578125 -4.7265625 1.296875 C-2.31640625 -0.2578125 -2.31640625 -0.2578125 0 0 Z " fill="#B46B00" transform="translate(214.31640625,190.2578125)"/>
<path d="M0 0 C10.83870913 -0.31366039 21.2643063 0.63673731 32 2 C32 2.33 32 2.66 32 3 C24.08 4.485 24.08 4.485 16 6 C16.33 6.66 16.66 7.32 17 8 C13.21283842 6.49637741 9.44754813 4.94512999 5.6875 3.375 C4.08455078 2.70597656 4.08455078 2.70597656 2.44921875 2.0234375 C1.23685547 1.51683594 1.23685547 1.51683594 0 1 C0 0.67 0 0.34 0 0 Z " fill="#875D20" transform="translate(301,196)"/>
<path d="M0 0 C0.66 0.33 1.32 0.66 2 1 C-5.06197409 6.569113 -12.13250931 12.12691843 -19.25 17.625 C-19.79809326 18.05022949 -20.34618652 18.47545898 -20.91088867 18.91357422 C-24.76535048 21.88267524 -24.76535048 21.88267524 -27 23 C-27.33 21.35 -27.66 19.7 -28 18 C-27.40316406 17.62230469 -26.80632812 17.24460938 -26.19140625 16.85546875 C-24.89009766 16.02982422 -24.89009766 16.02982422 -23.5625 15.1875 C-22.57507813 14.56230469 -21.58765625 13.93710938 -20.5703125 13.29296875 C-17.87781777 11.57582442 -15.21361303 9.81942634 -12.5546875 8.05078125 C-11.79212646 7.54716064 -11.02956543 7.04354004 -10.24389648 6.5246582 C-8.71308873 5.51270791 -7.18649327 4.49435494 -5.66430664 3.46948242 C-4.95910889 3.00517822 -4.25391113 2.54087402 -3.52734375 2.0625 C-2.89562256 1.64097656 -2.26390137 1.21945313 -1.61303711 0.78515625 C-1.08073486 0.52605469 -0.54843262 0.26695312 0 0 Z " fill="#2D1C02" transform="translate(195,164)"/>
<path d="M0 0 C1.10859375 0.00902344 2.2171875 0.01804687 3.359375 0.02734375 C6.07314592 0.05073833 8.78645545 0.08351825 11.5 0.125 C11.17 1.445 10.84 2.765 10.5 4.125 C-0.72 4.125 -11.94 4.125 -23.5 4.125 C-16.32124012 -0.66083992 -8.3161212 -0.12931767 0 0 Z " fill="#D0AF7F" transform="translate(230.5,303.875)"/>
<path d="M0 0 C0.33 0.99 0.66 1.98 1 3 C1.99 3.33 2.98 3.66 4 4 C-2.91538718 5.59080199 -10.02125647 7.03489782 -17 5 C-17.66 4.01 -18.32 3.02 -19 2 C-12.56971459 0.67611771 -6.5705166 -0.24794402 0 0 Z " fill="#D1AA72" transform="translate(335,199)"/>
<path d="M0 0 C0.66 0 1.32 0 2 0 C2.70125 0.9075 3.4025 1.815 4.125 2.75 C7.08584055 6.50217631 10.66372266 8.17080112 15 10 C11.78817851 11.90608098 9.46117397 12.22266247 5.75 12.125 C4.85796875 12.10695313 3.9659375 12.08890625 3.046875 12.0703125 C2.03367188 12.03550781 2.03367188 12.03550781 1 12 C-0.26237731 9.47524538 -0.09856404 7.68799534 -0.0625 4.875 C-0.05347656 3.96492188 -0.04445312 3.05484375 -0.03515625 2.1171875 C-0.02355469 1.41851562 -0.01195312 0.71984375 0 0 Z " fill="#D4BFA2" transform="translate(205,292)"/>
<path d="M0 0 C0.66 0.66 1.32 1.32 2 2 C0.54550599 3.0055761 -0.91372443 4.00430435 -2.375 5 C-3.18710937 5.556875 -3.99921875 6.11375 -4.8359375 6.6875 C-7 8 -7 8 -9 8 C-9 8.66 -9 9.32 -9 10 C-11.84777943 12.61046448 -14.13066838 14.42676569 -18 15 C-18 14.34 -18 13.68 -18 13 C-19.32 12.67 -20.64 12.34 -22 12 C-20.0898586 10.82268014 -18.17162056 9.65848895 -16.25 8.5 C-14.64898437 7.52546875 -14.64898437 7.52546875 -13.015625 6.53125 C-10 5 -10 5 -6 5 C-6 4.34 -6 3.68 -6 3 C-4.02 2.01 -2.04 1.02 0 0 Z " fill="#956827" transform="translate(311,159)"/>
<path d="M0 0 C2 3.75 2 3.75 2 6 C3.45599609 5.75636719 3.45599609 5.75636719 4.94140625 5.5078125 C9.28128012 4.8901689 13.56045144 4.85283773 17.9375 4.875 C18.69740234 4.87113281 19.45730469 4.86726563 20.24023438 4.86328125 C25.24363828 4.87182677 30.04697326 5.29000982 35 6 C35 6.66 35 7.32 35 8 C30.33694962 8.07405887 25.67424016 8.12855763 21.01074219 8.16479492 C19.42376749 8.17989814 17.83683463 8.20038223 16.25 8.22631836 C13.97124927 8.26263595 11.69304942 8.27971023 9.4140625 8.29296875 C8.70255035 8.30845261 7.99103821 8.32393646 7.25796509 8.33988953 C5.25634766 8.34057617 5.25634766 8.34057617 2 8 C-0.1519437 4.77208445 -0.20086443 3.71599191 0 0 Z " fill="#BF985F" transform="translate(205,302)"/>
<path d="M0 0 C0.33 0 0.66 0 1 0 C1.125 7.75 1.125 7.75 0 10 C-4.29 10 -8.58 10 -13 10 C-11.68 9.01 -10.36 8.02 -9 7 C-8.525625 6.319375 -8.05125 5.63875 -7.5625 4.9375 C-5.63311788 2.54506617 -3.86808951 1.98118852 -1 1 C-0.67 0.67 -0.34 0.34 0 0 Z " fill="#DAC6A9" transform="translate(241,293)"/>
<path d="M0 0 C8.05358138 -0.14525497 15.97875848 0.28586721 24 1 C24 1.33 24 1.66 24 2 C10.60390033 3.71470076 -2.49959855 4.24179823 -16 4 C-16 3.67 -16 3.34 -16 3 C-10.06 3 -4.12 3 2 3 C2 2.34 2 1.68 2 1 C1.34 0.67 0.68 0.34 0 0 Z " fill="#413119" transform="translate(178,139)"/>
<path d="M0 0 C0.66 0.33 1.32 0.66 2 1 C1.39671875 1.56847656 0.7934375 2.13695312 0.171875 2.72265625 C-4.46508319 7.20255618 -8.16075618 11.19806697 -11 17 C-9.35 16.34 -7.7 15.68 -6 15 C-9.16952847 18.26008643 -12.39937989 21.22237877 -16 24 C-15.53083683 18.90073478 -13.74646739 15.51432212 -10.8125 11.4375 C-10.43802734 10.88642578 -10.06355469 10.33535156 -9.67773438 9.76757812 C-6.89565325 5.81261288 -3.81615435 2.96566554 0 0 Z " fill="#BA6E00" transform="translate(189,187)"/>
<path d="M0 0 C0 3 0 3 -2.125 5.1875 C-2.58003906 5.61289063 -3.03507813 6.03828125 -3.50390625 6.4765625 C-5.21932788 8.22333649 -6.618756 10.08607691 -8.0625 12.0625 C-10.1872897 14.95199551 -12.26131325 17.65255421 -15 20 C-15.66 20 -16.32 20 -17 20 C-15.13406611 15.87431702 -12.42028263 12.69323297 -9.55859375 9.21875 C-7.88763145 7.13006975 -7.88763145 7.13006975 -7.47265625 4.79296875 C-7.31667969 4.20128906 -7.16070312 3.60960937 -7 3 C-4 1.8125 -4 1.8125 -1 1 C-0.67 0.67 -0.34 0.34 0 0 Z " fill="#CB7800" transform="translate(220,197)"/>
<path d="M0 0 C3.64356184 2.94955006 3.89453309 5.08724388 6 10 C-0.93 9.01 -7.86 8.02 -15 7 C-12 5 -12 5 -8.5625 5.5625 C-5.0853922 6.33313772 -5.0853922 6.33313772 -2.625 4.75 C-0.76723584 2.99137911 -0.76723584 2.99137911 0 0 Z " fill="#A3783A" transform="translate(334,178)"/>
<path d="M0 0 C0.66 6.27 1.32 12.54 2 19 C0.68 19.33 -0.64 19.66 -2 20 C-2.06058594 19.04738281 -2.12117187 18.09476563 -2.18359375 17.11328125 C-2.26738281 15.85902344 -2.35117188 14.60476562 -2.4375 13.3125 C-2.51871094 12.07113281 -2.59992188 10.82976562 -2.68359375 9.55078125 C-2.94491317 6.61819663 -3.34798379 3.86558383 -4 1 C-2 0 -2 0 0 0 Z " fill="#F3AE49" transform="translate(204,151)"/>
<path d="M0 0 C1.32 0 2.64 0 4 0 C3.67 1.32 3.34 2.64 3 4 C10.59 4.33 18.18 4.66 26 5 C26.33 5.66 26.66 6.32 27 7 C20.61114153 7.2390841 14.34646362 6.95756331 8 6.1875 C6.741875 6.03667969 5.48375 5.88585937 4.1875 5.73046875 C1.03201977 5.00733786 -0.10289077 4.54575319 -2 2 C-1.34 1.34 -0.68 0.68 0 0 Z " fill="#C89A56" transform="translate(157,132)"/>
<path d="M0 0 C1.32 0 2.64 0 4 0 C4.33 0.66 4.66 1.32 5 2 C11.27 2 17.54 2 24 2 C24 2.66 24 3.32 24 4 C24.66 4.33 25.32 4.66 26 5 C22.60462148 5.14575327 19.21005098 5.23421542 15.8125 5.3125 C14.37293945 5.3753418 14.37293945 5.3753418 12.90429688 5.43945312 C5.88512393 5.5608921 5.88512393 5.5608921 3.20849609 3.86474609 C1.82421875 2.48046875 1.82421875 2.48046875 0 0 Z " fill="#B3843F" transform="translate(318,204)"/>
<path d="M0 0 C3.78786597 0.5260925 6.17152224 1.38103911 9 4 C9 4.66 9 5.32 9 6 C3.72 5.67 -1.56 5.34 -7 5 C-7 5.66 -7 6.32 -7 7 C-8.98 7 -10.96 7 -13 7 C-13.33 6.34 -13.66 5.68 -14 5 C-7.07 3.515 -7.07 3.515 0 2 C0 1.34 0 0.68 0 0 Z " fill="#BD955C" transform="translate(336,200)"/>
<path d="M0 0 C0.66 0.33 1.32 0.66 2 1 C1.01 2.32 0.02 3.64 -1 5 C1.64 4.67 4.28 4.34 7 4 C6 6 6 6 2.98046875 7.10546875 C1.72878906 7.46253906 0.47710937 7.81960937 -0.8125 8.1875 C-2.05644531 8.55230469 -3.30039063 8.91710937 -4.58203125 9.29296875 C-8 10 -8 10 -12 9 C-8.04 6.03 -4.08 3.06 0 0 Z " fill="#BD7103" transform="translate(164,189)"/>
<path d="M0 0 C2.4375 2 2.4375 2 4 4 C3.01 4.495 3.01 4.495 2 5 C1.278125 4.649375 0.55625 4.29875 -0.1875 3.9375 C-4.06392696 2.64535768 -6.26247694 3.51909464 -10 5 C-10.66 5.99 -11.32 6.98 -12 8 C-12.33 5.69 -12.66 3.38 -13 1 C-8.60010995 0.14148487 -4.47825197 -0.41465296 0 0 Z " fill="#B19368" transform="translate(223,284)"/>
<path d="M0 0 C0.33 1.32 0.66 2.64 1 4 C2.32 3.34 3.64 2.68 5 2 C3.53291432 7.72163415 0.58811438 12.36860237 -3 17 C-3.66 17.33 -4.32 17.66 -5 18 C-4.67 16.02 -4.34 14.04 -4 12 C-3.34 12 -2.68 12 -2 12 C-1.855625 10.948125 -1.71125 9.89625 -1.5625 8.8125 C-1.12473034 5.84539451 -0.62195134 2.93205634 0 0 Z " fill="#BF7304" transform="translate(222,219)"/>
<path d="M0 0 C3.3 0.33 6.6 0.66 10 1 C9.67 2.65 9.34 4.3 9 6 C6.69 6 4.38 6 2 6 C1.34 4.02 0.68 2.04 0 0 Z " fill="#DBB57E" transform="translate(285,199)"/>
<path d="M0 0 C-0.66 11.88 -1.32 23.76 -2 36 C-2.33 36 -2.66 36 -3 36 C-3.02907584 31.6041806 -3.0468244 27.20838601 -3.0625 22.8125 C-3.07087891 21.56662109 -3.07925781 20.32074219 -3.08789062 19.03710938 C-3.09111328 17.83505859 -3.09433594 16.63300781 -3.09765625 15.39453125 C-3.10289307 14.28956299 -3.10812988 13.18459473 -3.11352539 12.04614258 C-3.00901923 9.24200621 -2.64097959 6.72582671 -2 4 C-3.32 4.33 -4.64 4.66 -6 5 C-1.125 0 -1.125 0 0 0 Z " fill="#57380A" transform="translate(223,238)"/>
<path d="M0 0 C4.61513112 1.31860889 8.09897612 3.21355437 12 6 C8.89436872 6.99101043 6.94764104 6.95875336 3.8125 6.125 C-0.78739787 4.9941281 -5.28620087 4.44893325 -10 4 C-10 3.67 -10 3.34 -10 3 C-6.7 2.67 -3.4 2.34 0 2 C0 1.34 0 0.68 0 0 Z " fill="#774F16" transform="translate(307,204)"/>
<path d="M0 0 C0.99 0 1.98 0 3 0 C7 6.875 7 6.875 7 8 C4.36 8 1.72 8 -1 8 C-1 6.68 -1 5.36 -1 4 C-1.66 4 -2.32 4 -3 4 C-2 2 -2 2 0 0 Z " fill="#996D2C" transform="translate(276,198)"/>
<path d="M0 0 C6.93 0 13.86 0 21 0 C21.33 0.66 21.66 1.32 22 2 C18.89738494 2.25494218 15.79325198 2.47447008 12.6875 2.6875 C11.36588867 2.79674805 11.36588867 2.79674805 10.01757812 2.90820312 C9.17001953 2.96298828 8.32246094 3.01777344 7.44921875 3.07421875 C6.66893311 3.13182373 5.88864746 3.18942871 5.0847168 3.2487793 C3 3 3 3 0 0 Z " fill="#3D3223" transform="translate(299,141)"/>
<path d="M0 0 C0.99 0.33 1.98 0.66 3 1 C0.98584065 3.23795483 -0.47352087 4.80775134 -3.33203125 5.8515625 C-6.5512263 7.2372775 -8.48081363 9.07528312 -11 11.5 C-14.2088413 14.58850975 -16.7468461 16.60253515 -21 18 C-17.48864508 14.39164632 -13.82725339 11.0748726 -9.9375 7.875 C-9.42123047 7.44574219 -8.90496094 7.01648438 -8.37304688 6.57421875 C-6.92299421 5.3735382 -5.46180992 4.18633818 -4 3 C-3.27941406 2.38382813 -2.55882812 1.76765625 -1.81640625 1.1328125 C-1.21699219 0.75898438 -0.61757812 0.38515625 0 0 Z " fill="#AA6501" transform="translate(211,191)"/>
<path d="M0 0 C-0.93972656 0.92232422 -0.93972656 0.92232422 -1.8984375 1.86328125 C-2.71570313 2.67152344 -3.53296875 3.47976562 -4.375 4.3125 C-5.18710937 5.11300781 -5.99921875 5.91351563 -6.8359375 6.73828125 C-9.12604842 9.00009937 -9.12604842 9.00009937 -11 12 C-8.03 12.495 -8.03 12.495 -5 13 C-5 13.33 -5 13.66 -5 14 C-7.97 14 -10.94 14 -14 14 C-12.07895312 10.15790624 -10.11546355 7.76995965 -7.2421875 4.68359375 C-5.7031458 2.94636851 -5.7031458 2.94636851 -6 0 C-3 -1 -3 -1 0 0 Z " fill="#CD8621" transform="translate(324,170)"/>
<path d="M0 0 C1.40668945 0.01450195 1.40668945 0.01450195 2.84179688 0.02929688 C3.81826172 0.05443359 4.79472656 0.07957031 5.80078125 0.10546875 C6.78884766 0.11900391 7.77691406 0.13253906 8.79492188 0.14648438 C11.23492356 0.18184672 13.67382844 0.23119842 16.11328125 0.29296875 C15.12328125 1.77796875 15.12328125 1.77796875 14.11328125 3.29296875 C10.98828125 3.48046875 10.98828125 3.48046875 8.11328125 3.29296875 C8.11328125 2.63296875 8.11328125 1.97296875 8.11328125 1.29296875 C7.14390625 1.43734375 6.17453125 1.58171875 5.17578125 1.73046875 C0.83275956 2.35344317 -3.52437109 2.82804734 -7.88671875 3.29296875 C-5.42854811 0.24399315 -3.85656876 -0.07011943 0 0 Z " fill="#BA863B" transform="translate(223.88671875,310.70703125)"/>
<path d="M0 0 C1.50433594 0.01353516 1.50433594 0.01353516 3.0390625 0.02734375 C3.80992187 0.03894531 4.58078125 0.05054688 5.375 0.0625 C3.9375 2.0625 3.9375 2.0625 1.375 4.0625 C-1.65324418 4.41692445 -4.58985939 4.29597235 -7.625 4.0625 C-7.625 3.0725 -7.625 2.0825 -7.625 1.0625 C-4.98041621 -0.25979189 -2.94738699 -0.03427194 0 0 Z " fill="#CABCA9" transform="translate(227.625,291.9375)"/>
<path d="M0 0 C14.78132118 0.96355353 14.78132118 0.96355353 21 2 C21 2.33 21 2.66 21 3 C16.38 3 11.76 3 7 3 C7 3.66 7 4.32 7 5 C4.09457188 3.6975667 2.1907039 2.29113732 0 0 Z " fill="#CAA166" transform="translate(274,143)"/>
<path d="M0 0 C0.66 0.33 1.32 0.66 2 1 C-2.46351289 6.22325977 -7.0744893 11.20922972 -12 16 C-12 11.92092669 -10.43302134 10.94256832 -7.6875 8 C-6.48673828 6.700625 -6.48673828 6.700625 -5.26171875 5.375 C-3.53053313 3.55710561 -1.78926671 1.76031418 0 0 Z " fill="#CA7F12" transform="translate(168,167)"/>
<path d="M0 0 C0.33 0.66 0.66 1.32 1 2 C0.67 2.66 0.34 3.32 0 4 C-11.385 3.505 -11.385 3.505 -23 3 C-23 2.67 -23 2.34 -23 2 C-22.44538086 1.97494385 -21.89076172 1.9498877 -21.31933594 1.92407227 C-18.79601157 1.80772073 -16.27302464 1.68517246 -13.75 1.5625 C-12.87730469 1.52318359 -12.00460938 1.48386719 -11.10546875 1.44335938 C-10.26113281 1.40146484 -9.41679687 1.35957031 -8.546875 1.31640625 C-7.77182617 1.27974854 -6.99677734 1.24309082 -6.19824219 1.20532227 C-4.0425024 1.00396985 -2.08198525 0.58270703 0 0 Z " fill="#C9A572" transform="translate(241,304)"/>
<path d="M0 0 C-1.11375 0.6496875 -1.11375 0.6496875 -2.25 1.3125 C-4.61833926 2.76579909 -6.80924065 4.29607606 -9 6 C-8.67 6.66 -8.34 7.32 -8 8 C-9.32 7.34 -10.64 6.68 -12 6 C-11.67 4.35 -11.34 2.7 -11 1 C-3.57142857 -1.42857143 -3.57142857 -1.42857143 0 0 Z " fill="#C2A67C" transform="translate(224,287)"/>
<path d="M0 0 C1.20628008 2.33214148 2.1654738 4.49642139 3 7 C3.66 7.33 4.32 7.66 5 8 C4.39301257 12.12751449 2.96189209 15.3321148 1 19 C-0.26582219 15.13276369 -0.1118765 11.26848738 -0.0625 7.25 C-0.05798828 6.55261719 -0.05347656 5.85523438 -0.04882812 5.13671875 C-0.0371002 3.42444197 -0.01916653 1.71220967 0 0 Z " fill="#AC6805" transform="translate(214,213)"/>
<path d="M0 0 C0 3.51716303 -0.82445585 4.37121748 -3 7 C-2.05125 6.484375 -1.1025 5.96875 -0.125 5.4375 C0.90625 4.963125 1.9375 4.48875 3 4 C3.66 4.33 4.32 4.66 5 5 C0.25036599 8.68096635 -3.00708997 9.58669586 -9 10 C-8.06409496 8.8944811 -7.12620142 7.79064547 -6.1875 6.6875 C-5.66542969 6.07261719 -5.14335937 5.45773438 -4.60546875 4.82421875 C-3.12827531 3.14575321 -1.59960869 1.56117966 0 0 Z " fill="#C07200" transform="translate(185,205)"/>
<path d="M0 0 C0 4.90312435 -3.70199631 7.61341357 -7 11 C-8.62541044 12.38332804 -10.27385413 13.74462118 -12 15 C-12 12 -12 12 -9.375 9.08203125 C-8.25750594 7.98449244 -7.13214357 6.89492105 -6 5.8125 C-5.42765625 5.25369141 -4.8553125 4.69488281 -4.265625 4.11914062 C-2.85037212 2.73926907 -1.42602845 1.36873266 0 0 Z " fill="#D2820D" transform="translate(204,172)"/>
<path d="M0 0 C1 3 1 3 0.22265625 5.04296875 C-0.16019531 5.75066406 -0.54304687 6.45835937 -0.9375 7.1875 C-1.31777344 7.90292969 -1.69804687 8.61835938 -2.08984375 9.35546875 C-2.39019531 9.89816406 -2.69054687 10.44085938 -3 11 C-3.99 11 -4.98 11 -6 11 C-6.99 11.66 -7.98 12.32 -9 13 C-7.59718164 8.53648705 -5.35914958 6.1911921 -2 3 C-1.34 2.01 -0.68 1.02 0 0 Z " fill="#2A1900" transform="translate(221,197)"/>
<path d="M0 0 C5.12583611 -0.10251672 9.94997778 -0.03590199 15 1 C15 1.33 15 1.66 15 2 C11.7 2.66 8.4 3.32 5 4 C5.33 4.66 5.66 5.32 6 6 C5.01 5.67 4.02 5.34 3 5 C2.6278958 3.67696283 2.29369827 2.34262065 2 1 C1.34 0.67 0.68 0.34 0 0 Z " fill="#B4823A" transform="translate(312,198)"/>
<path d="M0 0 C-0.1875 1.875 -0.1875 1.875 -1 4 C-3.5625 5.25 -3.5625 5.25 -6 6 C-6 5.34 -6 4.68 -6 4 C-7.32 3.67 -8.64 3.34 -10 3 C-3.375 0 -3.375 0 0 0 Z " fill="#634213" transform="translate(299,168)"/>
<path d="M0 0 C2.31 0.66 4.62 1.32 7 2 C7 2.99 7 3.98 7 5 C4.36 5.33 1.72 5.66 -1 6 C-0.67 4.02 -0.34 2.04 0 0 Z " fill="#A77F46" transform="translate(297,200)"/>
<path d="M0 0 C1.5 1.1875 1.5 1.1875 3 3 C3.1875 5.6875 3.1875 5.6875 3 8 C0.36 7.67 -2.28 7.34 -5 7 C-4.0409375 6.1028125 -4.0409375 6.1028125 -3.0625 5.1875 C-0.79689611 3.09189663 -0.79689611 3.09189663 0 0 Z " fill="#DDA451" transform="translate(334,178)"/>
<path d="M0 0 C-9.83190239 5.4405784 -9.83190239 5.4405784 -16 5 C-18.30230766 5.89831016 -18.30230766 5.89831016 -20 7 C-19.0625 5.125 -19.0625 5.125 -17 3 C-14.77840826 2.28560579 -12.5847565 1.85642585 -10.2890625 1.44140625 C-7.77206868 1.01209667 -7.77206868 1.01209667 -4.5625 -0.1875 C-2 -1 -2 -1 0 0 Z " fill="#C69247" transform="translate(315,154)"/>
<path d="M0 0 C0.66 0.33 1.32 0.66 2 1 C0.56974806 2.65213589 -0.86945545 4.29652589 -2.3125 5.9375 C-3.11300781 6.85402344 -3.91351563 7.77054688 -4.73828125 8.71484375 C-7 11 -7 11 -10 12 C-8.52278578 8.54798361 -6.56205999 6.35038064 -3.875 3.75 C-3.15054688 3.04359375 -2.42609375 2.3371875 -1.6796875 1.609375 C-1.12539062 1.07828125 -0.57109375 0.5471875 0 0 Z " fill="#1D410B" transform="translate(164,164)"/>
<path d="M0 0 C0.66 0 1.32 0 2 0 C0.40907948 4.13639336 -2.60474918 7.23213248 -6 10 C-6.66 10 -7.32 10 -8 10 C-6.44303593 6.17836093 -3.96591316 3.81381505 -1 1 C-0.67 0.67 -0.34 0.34 0 0 Z " fill="#152F09" transform="translate(168,295)"/>
<path d="M0 0 C0.99 0.33 1.98 0.66 3 1 C3.33 2.32 3.66 3.64 4 5 C-1.28 5 -6.56 5 -12 5 C-12 4.67 -12 4.34 -12 4 C-6.06 3.505 -6.06 3.505 0 3 C0 2.01 0 1.02 0 0 Z " fill="#8C6329" transform="translate(304,202)"/>
<path d="M0 0 C6.875 3.75 6.875 3.75 8 6 C7.01 6 6.02 6 5 6 C5.33 7.32 5.66 8.64 6 10 C2.51668565 6.98112756 1.20842856 4.43090471 0 0 Z " fill="#D0CBC2" transform="translate(163,63)"/>
<path d="M0 0 C0.66 0 1.32 0 2 0 C1.67 3.96 1.34 7.92 1 12 C0.67 12 0.34 12 0 12 C-0.33 9.36 -0.66 6.72 -1 4 C-2.98 4.99 -2.98 4.99 -5 6 C-3.38405168 3.95880212 -1.7143618 1.95927063 0 0 Z " fill="#9F8E77" transform="translate(242,290)"/>
<path d="M0 0 C-0.375 2.4375 -0.375 2.4375 -1 5 C-3.49092811 6.24546405 -4.41080733 5.7767578 -7 5 C-6.625 3.0625 -6.625 3.0625 -6 1 C-4 0 -4 0 0 0 Z " fill="#B18441" transform="translate(351,206)"/>
<path d="M0 0 C1.32 0.33 2.64 0.66 4 1 C1.69 3.64 -0.62 6.28 -3 9 C-3.33 7.68 -3.66 6.36 -4 5 C-2.0625 2.25 -2.0625 2.25 0 0 Z " fill="#492F0A" transform="translate(315,172)"/>
<path d="M0 0 C0.99 0.33 1.98 0.66 3 1 C1.83857315 5.35535069 0.92300495 7.64619703 -3 10 C-2.67 8.02 -2.34 6.04 -2 4 C-1.34 4 -0.68 4 0 4 C0 2.68 0 1.36 0 0 Z " fill="#9E7233" transform="translate(220,227)"/>
<path d="M0 0 C0.99 0.33 1.98 0.66 3 1 C3 3.64 3 6.28 3 9 C2.01 9 1.02 9 0 9 C0 6.03 0 3.06 0 0 Z " fill="#F9A121" transform="translate(238,205)"/>
<path d="M0 0 C3.465 1.98 3.465 1.98 7 4 C3.72814447 5.07310858 1.57052408 4.89263102 -1.75 4.0625 C-2.54921875 3.86785156 -3.3484375 3.67320312 -4.171875 3.47265625 C-4.77515625 3.31667969 -5.3784375 3.16070312 -6 3 C-6 2.67 -6 2.34 -6 2 C-4.02 2 -2.04 2 0 2 C0 1.34 0 0.68 0 0 Z " fill="#664310" transform="translate(312,206)"/>
<path d="M0 0 C0.66 0.33 1.32 0.66 2 1 C-0.97 3.97 -3.94 6.94 -7 10 C-7.33 9.34 -7.66 8.68 -8 8 C-3.375 2.25 -3.375 2.25 0 0 Z " fill="#C67703" transform="translate(189,187)"/>
<path d="M0 0 C0.66 0.33 1.32 0.66 2 1 C-1.3 3.64 -4.6 6.28 -8 9 C-8.99 8.34 -9.98 7.68 -11 7 C-9.21475351 5.80286983 -7.4215972 4.61752721 -5.625 3.4375 C-4.62726563 2.77621094 -3.62953125 2.11492187 -2.6015625 1.43359375 C-1.74304688 0.96050781 -0.88453125 0.48742187 0 0 Z " fill="#66410C" transform="translate(195,164)"/>
<path d="M0 0 C3.98175544 2.10148204 6.35039045 4.36905358 9 8 C5.22272911 6.18690997 1.62730178 4.0926741 -2 2 C-1.34 1.34 -0.68 0.68 0 0 Z " fill="#3D3A36" transform="translate(313,107)"/>
<path d="M0 0 C0.33 0.66 0.66 1.32 1 2 C-0.98 2 -2.96 2 -5 2 C-5.99 3.98 -6.98 5.96 -8 8 C-8.89674777 5.48910624 -9.13172674 4.35464891 -8.1875 1.8125 C-5.88409663 -1.70322094 -3.72027797 -1.04930917 0 0 Z " fill="#26560F" transform="translate(162,55)"/>
<path d="M0 0 C1.32 0.33 2.64 0.66 4 1 C4.33 2.32 4.66 3.64 5 5 C2.36 4.67 -0.28 4.34 -3 4 C-2.01 2.68 -1.02 1.36 0 0 Z " fill="#A68452" transform="translate(219,280)"/>
<path d="M0 0 C1.18771723 3.42943519 0.80226223 5.37784675 -0.4375 8.75 C-0.86869141 9.94882813 -0.86869141 9.94882813 -1.30859375 11.171875 C-1.53675781 11.77515625 -1.76492187 12.3784375 -2 13 C-4 10 -4 10 -3.8125 7.625 C-2.92236094 4.74916613 -1.64861989 2.50876939 0 0 Z " fill="#503000" transform="translate(224,211)"/>
<path d="M0 0 C1.32 0.33 2.64 0.66 4 1 C4 1.99 4 2.98 4 4 C2.02 4.66 0.04 5.32 -2 6 C-1.34 4.02 -0.68 2.04 0 0 Z " fill="#805E2D" transform="translate(354,211)"/>
<path d="M0 0 C0.33 0.66 0.66 1.32 1 2 C0.67 2.66 0.34 3.32 0 4 C1.32 4.33 2.64 4.66 4 5 C1.69 6.32 -0.62 7.64 -3 9 C-2.5020163 5.26512223 -2.12508244 3.18762365 0 0 Z " fill="#BB7005" transform="translate(152,186)"/>
<path d="M0 0 C0 0.99 0 1.98 0 3 C-2.5 5.1875 -2.5 5.1875 -5 7 C-5.99 6.01 -6.98 5.02 -8 4 C-5.33333333 2.66666667 -2.66666667 1.33333333 0 0 Z " fill="#BC7002" transform="translate(220,197)"/>
<path d="M0 0 C0.99 0.33 1.98 0.66 3 1 C3 2.98 3 4.96 3 7 C1.68 7 0.36 7 -1 7 C-1.04254356 5.00045254 -1.04080783 2.99958364 -1 1 C-0.67 0.67 -0.34 0.34 0 0 Z " fill="#F9C171" transform="translate(198,141)"/>
<path d="M0 0 C0.33 0.66 0.66 1.32 1 2 C-0.45922693 1.88590407 -1.91740598 1.75834456 -3.375 1.625 C-4.59316406 1.52058594 -4.59316406 1.52058594 -5.8359375 1.4140625 C-8 1 -8 1 -10 -1 C-6.19010598 -2.46534385 -3.6758821 -1.55203911 0 0 Z " fill="#332D25" transform="translate(318,128)"/>
<path d="M0 0 C1.1055189 0.93590504 2.20935453 1.87379858 3.3125 2.8125 C3.92738281 3.33457031 4.54226562 3.85664062 5.17578125 4.39453125 C6.85424679 5.87172469 8.43882034 7.40039131 10 9 C6.01457486 7.63356852 3.07460137 5.89890986 0 3 C0 2.01 0 1.02 0 0 Z " fill="#3D3934" transform="translate(196,107)"/>
<path d="M0 0 C2.79872437 2.52788007 4.45773019 4.20411134 5 8 C4.01 7.67 3.02 7.34 2 7 C1.67 8.32 1.34 9.64 1 11 C0.67 7.37 0.34 3.74 0 0 Z " fill="#B8B2A8" transform="translate(159,68)"/>
<path d="M0 0 C2.99332739 0.9977758 3.94766315 1.7522025 6 4 C4.02 4 2.04 4 0 4 C-0.33 4.66 -0.66 5.32 -1 6 C-1.042721 4.33388095 -1.04063832 2.66617115 -1 1 C-0.67 0.67 -0.34 0.34 0 0 Z " fill="#A5804B" transform="translate(210,281)"/>
<path d="M0 0 C-0.39803561 2.88575819 -0.79009069 3.82189513 -3.0625 5.75 C-3.701875 6.1625 -4.34125 6.575 -5 7 C-5 6.34 -5 5.68 -5 5 C-5.66 4.67 -6.32 4.34 -7 4 C-2.25 0 -2.25 0 0 0 Z " fill="#B96E02" transform="translate(198,191)"/>
<path d="M0 0 C0.66 0.33 1.32 0.66 2 1 C1.34 1.70125 0.68 2.4025 0 3.125 C-2.30233203 6.43460229 -2.36630156 8.06225823 -2 12 C-2.66 11.34 -3.32 10.68 -4 10 C-3.66302652 3.82215289 -3.66302652 3.82215289 -1.4375 1.0625 C-0.7259375 0.5365625 -0.7259375 0.5365625 0 0 Z " fill="#20480D" transform="translate(268,129)"/>
<path d="M0 0 C0.99 0.33 1.98 0.66 3 1 C3.33 1.99 3.66 2.98 4 4 C2.02 4 0.04 4 -2 4 C-2 3.01 -2 2.02 -2 1 C-1.34 0.67 -0.68 0.34 0 0 Z " fill="#DACAB3" transform="translate(222,292)"/>
<path d="M0 0 C1.2065625 0.0309375 1.2065625 0.0309375 2.4375 0.0625 C1.06766497 3.22365776 0.4484362 4.0552092 -2.5625 6.0625 C-2.94468767 4.40635343 -3.27645102 2.73792976 -3.5625 1.0625 C-2.5625 0.0625 -2.5625 0.0625 0 0 Z " fill="#271802" transform="translate(170.5625,180.9375)"/>
<path d="M0 0 C0.99 0.33 1.98 0.66 3 1 C0.69 3.31 -1.62 5.62 -4 8 C-4 4.09161134 -2.49432124 2.88405893 0 0 Z " fill="#D28A21" transform="translate(279,171)"/>
<path d="M0 0 C0.99 0.33 1.98 0.66 3 1 C1.68 2.32 0.36 3.64 -1 5 C-2.32 4.34 -3.64 3.68 -5 3 C-2.6875 1.4375 -2.6875 1.4375 0 0 Z " fill="#3B2505" transform="translate(183,172)"/>
<path d="M0 0 C6.93 0.495 6.93 0.495 14 1 C14 1.33 14 1.66 14 2 C12.23186888 2.24915939 10.46025018 2.47366632 8.6875 2.6875 C7.70136719 2.81511719 6.71523438 2.94273437 5.69921875 3.07421875 C3 3 3 3 0 0 Z " fill="#846943" transform="translate(274,143)"/>
<path d="M0 0 C2.8290723 2.8290723 3.37611108 3.38144425 4 7 C3.01 7.66 2.02 8.32 1 9 C0.67 6.03 0.34 3.06 0 0 Z " fill="#898886" transform="translate(275,69)"/>
<path d="M0 0 C1.32 0.33 2.64 0.66 4 1 C3.625 3.4375 3.625 3.4375 3 6 C2.01 6.495 2.01 6.495 1 7 C0.67 4.69 0.34 2.38 0 0 Z " fill="#D6973D" transform="translate(240,207)"/>
<path d="M0 0 C2.64 0.99 5.28 1.98 8 3 C4.68756695 3.82810826 2.34023421 4.09278428 -1 4 C-0.67 2.68 -0.34 1.36 0 0 Z " fill="#3B5E30" transform="translate(403,524)"/>
<path d="M0 0 C2.475 0.495 2.475 0.495 5 1 C4.01 2.485 4.01 2.485 3 4 C3.33 4.66 3.66 5.32 4 6 C2.68 5.34 1.36 4.68 0 4 C0 2.68 0 1.36 0 0 Z " fill="#B59F7E" transform="translate(212,289)"/>
<path d="M0 0 C0 3 0 3 -2 5.1875 C-2.66 5.785625 -3.32 6.38375 -4 7 C-4.66 6.34 -5.32 5.68 -6 5 C-4.02 3.35 -2.04 1.7 0 0 Z " fill="#301C00" transform="translate(212,202)"/>
<path d="M0 0 C2.79872437 2.52788007 4.45773019 4.20411134 5 8 C2 7 2 7 0.3125 3.9375 C-0.120625 2.968125 -0.55375 1.99875 -1 1 C-0.67 0.67 -0.34 0.34 0 0 Z " fill="#AA8144" transform="translate(278,198)"/>
<path d="M0 0 C1.32 0.33 2.64 0.66 4 1 C0.25 6.875 0.25 6.875 -2 8 C-1.67 7.236875 -1.34 6.47375 -1 5.6875 C0.17436686 3.00930865 0.17436686 3.00930865 0 0 Z " fill="#E68C08" transform="translate(212,190)"/>
<path d="M0 0 C0.99 0.33 1.98 0.66 3 1 C3.33 2.65 3.66 4.3 4 6 C3.01 6.33 2.02 6.66 1 7 C0.67 4.69 0.34 2.38 0 0 Z " fill="#E8E5E2" transform="translate(277,75)"/>
</svg>
