<?xml version="1.0" encoding="UTF-8"?>
<svg version="1.1" xmlns="http://www.w3.org/2000/svg" width="600" height="600">
<path d="M0 0 C48.09305748 42.14897172 64.38684006 126.3788401 76.29638672 186.36376953 C76.80965296 188.76864609 77.38426339 191.16106285 78.01220703 193.53857422 C78.31497559 194.68729004 78.61774414 195.83600586 78.9296875 197.01953125 C79.21529541 198.03329834 79.50090332 199.04706543 79.79516602 200.09155273 C80.12083902 203.66773473 79.08083014 205.01350335 77.05078125 207.8984375 C75.87452819 211.42719668 76.32087128 212.22403492 77.48828125 215.6484375 C80.71572352 226.95942732 80.00921116 238.23030043 75.05078125 248.8984375 C73.52284044 251.42512987 71.96040889 253.86664705 70.22265625 256.25390625 C66.90879685 263.73218229 69.70200887 273.10495094 70.98828125 280.8359375 C73.28975599 294.91315581 74.2866357 308.40123488 74.30078125 322.6484375 C74.302453 323.5392804 74.30412476 324.43012329 74.30584717 325.34796143 C74.30848535 349.07211578 72.64075785 372.85175758 69.52197266 396.37646484 C68.83343406 401.96001596 68.72636976 407.33633193 71.36328125 412.4375 C77.94612665 420.57462834 85.52593762 426.20808383 96.05078125 427.8984375 C102.88458025 428.34412004 109.19660963 426.47936667 115.61328125 424.3359375 C116.31662598 424.12138916 117.0199707 423.90684082 117.74462891 423.68579102 C120.51654892 422.67452467 122.62791516 421.77693748 123.94555664 419.03955078 C125.75607472 412.11381732 125.89789499 405.31730212 123.0859375 398.66015625 C120.95247242 395.02924022 117.97287049 393.46506496 114.0234375 392.30078125 C110.77267711 391.67726482 108.57778163 391.6281809 105.61328125 393.1484375 C103.16058758 397.46517836 103.21944748 402.00711678 103.05078125 406.8984375 C98.26953125 406.109375 98.26953125 406.109375 96.30078125 404.2109375 C94.41430327 400.72095324 93.65198687 397.86917866 94.453125 393.91015625 C96.4377675 387.67438601 99.69188431 384.80483847 105.36328125 381.5859375 C112.25999036 379.82166308 118.78293034 380.51456707 125.05078125 383.8984375 C131.30418848 387.95470165 135.32305455 393.69338743 137.66796875 400.7578125 C140.1164812 414.44949437 136.53865386 426.50715057 129.05078125 437.8984375 C116.73376337 454.49074267 102.85194263 465.27032796 82.05078125 468.8984375 C82.85515625 469.7853125 83.65953125 470.6721875 84.48828125 471.5859375 C86.7438753 474.32992228 88.05078125 476.22933348 88.05078125 479.8984375 C86.14646326 485.86530054 82.29093059 488.86466683 77.05078125 491.8984375 C17.03305505 520.76865341 -78.79981149 516.67978938 -141.0703125 496.61328125 C-148.85621116 493.81395815 -157.43067899 490.19761712 -161.94921875 482.8984375 C-162.13671875 479.1484375 -162.13671875 479.1484375 -161.94921875 475.8984375 C-163.14804688 475.89457031 -163.14804688 475.89457031 -164.37109375 475.890625 C-172.95382259 475.58841624 -179.81553213 473.82122582 -186.94921875 468.8984375 C-189.12890625 466.41796875 -189.12890625 466.41796875 -190.94921875 463.8984375 C-191.40425781 463.29902344 -191.85929688 462.69960938 -192.328125 462.08203125 C-198.02782906 453.67355695 -200.39451278 442.96043692 -198.94921875 432.8984375 C-195.93846107 421.72518122 -190.32899966 412.72009634 -180.94921875 405.8984375 C-179.95921875 405.5684375 -178.96921875 405.2384375 -177.94921875 404.8984375 C-178.69171875 404.0734375 -179.43421875 403.2484375 -180.19921875 402.3984375 C-193.56803455 383.61392578 -190.10594723 349.49467639 -190.15234375 327.5390625 C-190.15517113 326.61537621 -190.1579985 325.69168991 -190.16091156 324.74001312 C-190.17572875 319.86622348 -190.18507194 314.99246219 -190.18945312 310.11865234 C-190.19496134 305.13770033 -190.21908931 300.15701834 -190.24742508 295.17615128 C-190.26617656 291.29129289 -190.27126333 287.40649861 -190.272789 283.52159882 C-190.27577981 281.68628183 -190.28368428 279.85096497 -190.29697418 278.01569366 C-190.40248514 262.34914973 -190.20432607 246.71532188 -179.63671875 234.1484375 C-170.66891037 226.6405049 -161.25018649 223.28518688 -149.4609375 224.0625 C-147.61688643 224.29177811 -145.78124239 224.58733915 -143.94921875 224.8984375 C-143.66939339 222.41954983 -143.42523099 219.94485636 -143.19921875 217.4609375 C-143.11800781 216.77322266 -143.03679687 216.08550781 -142.953125 215.37695312 C-142.61524219 211.34113067 -142.91703503 208.49969857 -144.69726562 204.8371582 C-147.17505127 199.5003235 -149.16600873 194.03542261 -151.15234375 188.5 C-151.54776367 187.40743896 -151.94318359 186.31487793 -152.35058594 185.18920898 C-153.63653219 181.63505214 -154.91813444 178.07934944 -156.19921875 174.5234375 C-157.98832338 169.56417514 -159.77991782 164.6058222 -161.57421875 159.6484375 C-161.79907204 159.02695454 -162.02392532 158.40547157 -162.25559235 157.76515579 C-165.37267894 149.15629471 -168.56140471 140.57806166 -171.82421875 132.0234375 C-172.19971863 131.03451508 -172.57521851 130.04559265 -172.96209717 129.02670288 C-175.09210026 123.41561898 -175.09210026 123.41561898 -177.25256348 117.81622314 C-178.23203083 115.29887152 -179.1936417 112.77531768 -180.15234375 110.25 C-180.43883789 109.53046143 -180.72533203 108.81092285 -181.02050781 108.06958008 C-182.90660184 103.03505963 -183.66463984 98.2708326 -182.94921875 92.8984375 C-181.2265625 89.5546875 -181.2265625 89.5546875 -178.88671875 86.3984375 C-166.10027444 67.96047043 -161.62627395 45.08458942 -158.24145508 23.25927734 C-158.09861084 22.35258301 -157.9557666 21.44588867 -157.80859375 20.51171875 C-157.68967773 19.71548096 -157.57076172 18.91924316 -157.44824219 18.09887695 C-156.7334034 14.94680162 -156.08226434 12.63305234 -153.2882843 10.82156372 C-150.25542119 9.62462614 -147.58455442 9.48181907 -144.32788086 9.29174805 C-143.66696064 9.25061481 -143.00604042 9.20948156 -142.32509232 9.16710186 C-140.88504824 9.07859825 -139.44475226 8.99412281 -138.00426292 8.91318893 C-135.68437814 8.78278501 -133.36532926 8.64192882 -131.04621887 8.4984436 C-127.72232156 8.29372893 -124.39820931 8.09326053 -121.07385254 7.89614868 C-112.39907403 7.37998409 -103.72660155 6.82767436 -95.0546875 6.265625 C-93.75890211 6.18176387 -93.75890211 6.18176387 -92.43693924 6.09620857 C-76.82771105 5.07935484 -61.26297532 3.78745969 -45.69921875 2.2109375 C-44.6820578 2.10856781 -43.66489685 2.00619812 -42.61691284 1.90072632 C-30.92693861 0.71996515 -30.92693861 0.71996515 -19.26757812 -0.72509766 C-18.53726379 -0.82321243 -17.80694946 -0.92132721 -17.05450439 -1.02241516 C-15.12520661 -1.28663209 -13.19775284 -1.56422169 -11.27050781 -1.84301758 C-7.20030645 -2.15986139 -3.60373347 -2.03657884 0 0 Z M-176.13671875 414.3359375 C-178.74965269 418.03008548 -179.1363973 421.4217506 -178.94921875 425.8984375 C-177.2531451 431.0864275 -174.36479879 433.78155747 -169.94921875 436.8984375 C-165.52295021 438.87613195 -161.74058049 439.79174223 -156.94921875 438.8984375 C-151.18067575 434.43920196 -146.77321538 429.78800242 -145.53515625 422.44140625 C-145.46554688 421.66410156 -145.3959375 420.88679688 -145.32421875 420.0859375 C-145.19921875 418.69010417 -145.07421875 417.29427083 -144.94921875 415.8984375 C-147.7396238 415.51005136 -150.53059761 415.13723704 -153.32421875 414.7734375 C-154.11828125 414.66128906 -154.91234375 414.54914063 -155.73046875 414.43359375 C-157.7944376 414.17122483 -159.87261226 414.02693012 -161.94921875 413.8984375 C-162.60921875 414.5584375 -163.26921875 415.2184375 -163.94921875 415.8984375 C-164.85671875 415.4034375 -165.76421875 414.9084375 -166.69921875 414.3984375 C-170.39946885 412.69062976 -172.60011545 412.0118839 -176.13671875 414.3359375 Z " fill="#040503" transform="translate(342.94921875,65.1015625)"/>
<path d="M0 0 C13.67286048 16.23871862 37.33203125 48.01711383 37.33203125 69.6796875 C34.78933565 70.5272527 32.8360622 70.9158421 30.20703125 71.1796875 C29.418125 71.2621875 28.62921875 71.3446875 27.81640625 71.4296875 C26.16015625 71.59635417 24.50390625 71.76302083 22.84765625 71.9296875 C22.05875 72.0121875 21.26984375 72.0946875 20.45703125 72.1796875 C19.37808594 72.28796875 19.37808594 72.28796875 18.27734375 72.3984375 C16.12118744 72.65150985 16.12118744 72.65150985 13.33203125 73.6796875 C12.61496143 75.66217465 11.94912712 77.66384099 11.33203125 79.6796875 C10.67203125 80.3396875 10.01203125 80.9996875 9.33203125 81.6796875 C8.92210937 81.18597656 8.5121875 80.69226563 8.08984375 80.18359375 C7.55101562 79.54292969 7.0121875 78.90226562 6.45703125 78.2421875 C5.92335938 77.60410156 5.3896875 76.96601563 4.83984375 76.30859375 C2.93884486 74.25492396 1.90825246 73.714119 -0.890625 73.546875 C-7.18251081 73.56418418 -13.44924253 73.77020284 -19.73046875 74.1171875 C-20.4685376 74.15634277 -21.20660645 74.19549805 -21.96704102 74.23583984 C-25.07022754 74.42317226 -27.70387322 74.69165566 -30.66796875 75.6796875 C-31.82367579 79.14680861 -31.99632168 82.2211831 -32.23046875 85.8671875 C-32.35615234 87.77564453 -32.35615234 87.77564453 -32.484375 89.72265625 C-32.54496094 90.69847656 -32.60554688 91.67429687 -32.66796875 92.6796875 C-36.28315791 89.42822164 -38.4527061 85.29831201 -40.94921875 81.17578125 C-42.58850198 78.46492848 -42.58850198 78.46492848 -45.66796875 76.6796875 C-52.81892007 76.24071821 -59.51708717 77.28787253 -66.54296875 78.5546875 C-68.08984375 78.81572266 -68.08984375 78.81572266 -69.66796875 79.08203125 C-75.47911778 80.03595488 -75.47911778 80.03595488 -80.66796875 82.6796875 C-81.40403374 86.24738302 -81.40403374 86.24738302 -81.66796875 89.6796875 C-74.25408444 90.10378681 -67.46397393 89.27010046 -60.24023438 87.74682617 C-52.99793516 86.23681755 -52.99793516 86.23681755 -49.66796875 86.6796875 C-47.77099609 88.63574219 -47.77099609 88.63574219 -46.00390625 91.3515625 C-45.35679687 92.32609375 -44.7096875 93.300625 -44.04296875 94.3046875 C-43.05296875 95.8515625 -43.05296875 95.8515625 -42.04296875 97.4296875 C-40.71781711 99.44555524 -39.39230974 101.4611892 -38.06640625 103.4765625 C-37.48552246 104.37729492 -36.90463867 105.27802734 -36.30615234 106.20605469 C-34.11318158 109.53713192 -34.11318158 109.53713192 -31.66796875 112.6796875 C-29.16796875 113.34635417 -29.16796875 113.34635417 -26.66796875 112.6796875 C-23.73656807 109.62431216 -23.22502732 107.19714993 -22.9375 103.0390625 C-22.85693359 101.96914062 -22.77636719 100.89921875 -22.69335938 99.796875 C-22.58797852 98.13011719 -22.58797852 98.13011719 -22.48046875 96.4296875 C-22.39861328 95.30304688 -22.31675781 94.17640625 -22.23242188 93.015625 C-22.03230951 90.23759457 -21.84462776 87.45929168 -21.66796875 84.6796875 C-21.07556396 84.61692627 -20.48315918 84.55416504 -19.87280273 84.48950195 C-14.89361355 83.95982524 -14.89361355 83.95982524 -9.953125 83.16015625 C-7.1521465 82.79095873 -5.38217655 82.81494751 -2.66796875 83.6796875 C1.95100181 87.93780099 5.40424249 92.88277574 8.9609375 98.04296875 C10.25313816 99.94260313 10.25313816 99.94260313 12.83203125 100.1171875 C15.87495751 99.5846754 16.48566751 99.12823457 18.33203125 96.6796875 C19.34834621 93.26905788 19.34834621 93.26905788 20.01953125 89.4921875 C20.27089844 88.21988281 20.52226562 86.94757813 20.78125 85.63671875 C20.96300781 84.66089844 21.14476562 83.68507813 21.33203125 82.6796875 C23.14270052 82.33654882 24.95571226 82.00576732 26.76953125 81.6796875 C27.77886719 81.4940625 28.78820312 81.3084375 29.828125 81.1171875 C34.02162462 80.59358443 38.11320395 80.59435092 42.33203125 80.6796875 C52.62966446 109.00725431 60.23449664 137.95965458 66.20703125 167.4921875 C66.42246582 168.554375 66.63790039 169.6165625 66.85986328 170.7109375 C67.05435059 171.69707031 67.24883789 172.68320313 67.44921875 173.69921875 C67.62050293 174.56651611 67.79178711 175.43381348 67.96826172 176.32739258 C68.33203125 178.6796875 68.33203125 178.6796875 68.33203125 182.6796875 C43.67343841 183.77170408 19.02190415 184.7910326 -5.6550293 185.35302734 C-14.78826104 185.56336994 -23.90501868 185.89268443 -33.02832031 186.37304688 C-43.89972003 186.9012471 -54.78714504 186.76842697 -65.66796875 186.6796875 C-65.84017944 185.58805298 -65.84017944 185.58805298 -66.01586914 184.47436523 C-68.70843471 167.71258555 -72.28859294 151.78744204 -77.66796875 135.6796875 C-78.06242187 134.44605469 -78.456875 133.21242187 -78.86328125 131.94140625 C-80.57331589 126.64299185 -82.52412243 121.48965454 -84.60424805 116.3269043 C-85.60306307 113.8412143 -86.58571465 111.34988298 -87.5625 108.85546875 C-91.26976749 99.42959495 -95.17674464 90.17685931 -99.55126953 81.03710938 C-101.441909 77.04585123 -103.28288228 73.03163926 -105.13354492 69.02172852 C-110.19744553 58.06024997 -115.32219832 47.1298697 -120.54296875 36.2421875 C-121.05359863 35.17258789 -121.56422852 34.10298828 -122.09033203 33.00097656 C-125.31436928 26.30642561 -128.74480491 19.77043553 -132.35205078 13.27709961 C-133.66796875 10.6796875 -133.66796875 10.6796875 -133.66796875 8.6796875 C-132.46599854 8.59928223 -131.26402832 8.51887695 -130.02563477 8.43603516 C-77.87554134 4.9620112 -77.87554134 4.9620112 -25.87109375 -0.21484375 C-24.01943604 -0.42959351 -24.01943604 -0.42959351 -22.13037109 -0.64868164 C-19.79647761 -0.92298639 -17.46339939 -1.20435092 -15.13134766 -1.49389648 C-14.08897949 -1.61708252 -13.04661133 -1.74026855 -11.97265625 -1.8671875 C-11.06499512 -1.97901367 -10.15733398 -2.09083984 -9.22216797 -2.20605469 C-5.74459052 -2.36161827 -2.78160591 -2.20183325 0 0 Z " fill="#635650" transform="translate(338.66796875,79.3203125)"/>
<path d="M0 0 C5.85364869 1.62012023 10.80808341 4.54202641 16.0625 7.5 C50.43888061 26.51330736 87.64478081 42.37529708 127.5625 42.0625 C128.66658203 42.05798828 129.77066406 42.05347656 130.90820312 42.04882812 C133.605527 42.0371514 136.30273347 42.02077525 139 42 C139.08138426 44.87557703 139.14067851 47.74882262 139.1875 50.625 C139.21263672 51.43324219 139.23777344 52.24148438 139.26367188 53.07421875 C139.32589961 58.17689316 138.75491551 61.53139688 136 66 C115.84167911 67.30835256 96.60204567 59.1370365 78.58251953 51.12670898 C71.49761708 48.04686411 64.67052198 46.12157212 57 45 C66.50102272 61.05741854 91.21958245 68.34365239 108.2421875 72.8125 C118.04251053 75.28644208 126.86023374 76.29016819 137 76 C138.60355101 79.50776784 139.22036864 82.14354879 139 86 C117.38359307 86.31840861 100.60931119 82.49510245 80.9230957 73.70947266 C79.8424585 73.23300293 78.76182129 72.7565332 77.6484375 72.265625 C76.68083496 71.83024414 75.71323242 71.39486328 74.71630859 70.94628906 C71.94884193 69.9821779 69.90494563 69.80840704 67 70 C77.26241843 85.49423959 93.67982914 91.55282708 111.3125 95.25 C117.5988358 96.19505988 123.90555421 96.2098604 130.25 96.25 C131.28036377 96.2593457 132.31072754 96.26869141 133.37231445 96.27832031 C139.26400475 96.25353928 144.35450612 95.70175174 150 94 C150.70962891 94.94359375 150.70962891 94.94359375 151.43359375 95.90625 C159.37319875 106.18285374 167.09780308 112.68328259 179 118 C178.67 118.66 178.34 119.32 178 120 C162.17359206 123.68055999 147.78343669 119.8364705 134 112 C132.79443146 111.19302714 131.60373274 110.36284523 130.4375 109.5 C122.48227599 103.61505116 116.11860196 100.32333961 106.04296875 100.3984375 C99.86955384 101.61885585 96.53729579 105.19061694 93.16210938 110.18164062 C92.55592773 111.11266602 92.55592773 111.11266602 91.9375 112.0625 C87.81625199 118.37132989 84.18269316 121.33214254 77 124 C77.33 125.32 77.66 126.64 78 128 C84.12135734 128.42216258 87.15026442 128.12743454 92 124 C95.44237616 120.45970067 98.57966163 116.78338952 101.25 112.625 C103 110 103 110 106 108 C112.72155689 108 112.72155689 108 115.66796875 110.3046875 C117.0625 111.875 117.0625 111.875 119 115 C118.67 115.99 118.34 116.98 118 118 C117.43152344 117.95359375 116.86304688 117.9071875 116.27734375 117.859375 C110.52592731 117.59052749 106.41030179 118.11182461 102 122 C97.38952556 127.38114025 95.13387422 134.29935004 92.625 140.828125 C90.82480838 144.34196056 89.41440346 146.02858848 86 148 C83.34765625 148.08984375 83.34765625 148.08984375 81 147 C79.55859375 144.62890625 79.55859375 144.62890625 78.4375 141.5625 C78.02113281 140.47453125 77.60476563 139.3865625 77.17578125 138.265625 C76.46005455 136.27775949 75.74810394 134.28852214 75.04296875 132.296875 C71.96569214 123.96858596 67.4924518 117.86383017 60.5 112.375 C58.4765625 110.68359375 58.4765625 110.68359375 57 109 C56.86652805 105.19604936 57.67864854 102.81283015 59.0625 99.3125 C61.73508912 89.86935176 59.96476006 81.94892413 55.8203125 73.20703125 C51.38919846 65.40028313 45.74948116 60.9928345 37.35546875 57.84375 C28.56374497 55.63302551 19.06915421 55.67723882 11 60 C5.15500875 63.98522131 0.87539233 68.72879044 -0.58203125 75.83984375 C-2.68053981 91.70613747 1.59584837 103.6086038 9.9765625 116.78515625 C14 123.17760618 14 123.17760618 14 128 C8.71862571 127.48474397 5.42778844 125.74522883 1 123 C2.30528352 129.94953414 2.30528352 129.94953414 7 135 C11.53089732 137.64302344 15.03337033 137.04139009 20 136 C22.64365079 134.12386073 22.95241281 133.14276157 24 130 C25.13664727 120.90682188 20.50399651 114.79718145 15.66796875 107.4296875 C15.26827881 106.81883301 14.86858887 106.20797852 14.45678711 105.57861328 C13.6725536 104.39028453 12.87828488 103.2084967 12.07250977 102.03466797 C7.06221513 94.53616377 6.02859152 86.82662517 7 78 C8.92962645 72.15896858 13.01824054 68.61176187 18.3125 65.75 C26.16458086 63.55872162 31.84433428 65.71543213 39 69 C39 69.33 39 69.66 39 70 C38.05898438 70.02578125 37.11796875 70.0515625 36.1484375 70.078125 C26.73214022 70.3253303 26.73214022 70.3253303 19 75 C18.401875 75.45375 17.80375 75.9075 17.1875 76.375 C13.51768617 81.39685051 14.57352166 90.07031079 15 96 C17.94708921 105.39384685 27.14215413 112.18498465 34.77734375 117.76171875 C37.55935524 120.56328744 37.99499369 122.07505366 38 126 C33.88802792 135.84860446 25.67875832 144.67200861 16 149.0625 C7.69657843 152.08957014 1.46938288 151.90355974 -6.6328125 148.33203125 C-12.88375817 144.81458492 -15.90192644 140.77839149 -18 134 C-20.0103582 133.29540078 -20.0103582 133.29540078 -22 133 C-21.59559427 131.62134409 -21.17570763 130.2472278 -20.75 128.875 C-20.51796875 128.10929688 -20.2859375 127.34359375 -20.046875 126.5546875 C-19 124 -19 124 -17.0625 121.1171875 C-10.91587269 111.8273985 -8.7599088 101.75057001 -10.5 90.875 C-10.665 90.25625 -10.83 89.6375 -11 89 C-11.66 89 -12.32 89 -13 89 C-13.28431885 89.7326709 -13.5686377 90.4653418 -13.86157227 91.22021484 C-21.81430242 110.63899793 -32.61770368 124.49679904 -52 133 C-63.04781962 137.33707508 -74.98998701 137.60033759 -86 133 C-88.43826411 131.77648258 -90.68791933 130.45761607 -93 129 C-93 123.72 -93 118.44 -93 113 C-91.35 114.65 -89.7 116.3 -88 118 C-82.45154263 122.51660722 -77.22946853 126.28705933 -70 127 C-68.98679688 127.10441406 -67.97359375 127.20882812 -66.9296875 127.31640625 C-60.06448877 127.69072683 -55.41170531 127.1192503 -49.9296875 122.83203125 C-42.53335451 115.81000661 -37.41573384 106.63762456 -36.85473633 96.33129883 C-36.82967039 93.15816677 -36.81068503 89.98575108 -36.8125 86.8125 C-36.81185547 85.65661377 -36.81121094 84.50072754 -36.81054688 83.30981445 C-36.86157557 74.94748655 -37.43252952 66.79179628 -38.5625 58.51171875 C-38.706875 57.35285156 -38.85125 56.19398438 -39 55 C-39.11085937 54.14664063 -39.22171875 53.29328125 -39.3359375 52.4140625 C-38.83620203 48.82294016 -36.78960598 46.47346493 -34.625 43.6875 C-30.8070814 38.56661921 -27.23183561 33.37259538 -23.875 27.9375 C-23.46467529 27.27451904 -23.05435059 26.61153809 -22.6315918 25.9284668 C-20.61732823 22.65963908 -18.62215081 19.37932879 -16.62890625 16.09765625 C-16.25846191 15.48994385 -15.88801758 14.88223145 -15.50634766 14.25610352 C-14.49862668 12.60043038 -13.49715547 10.94095797 -12.49609375 9.28125 C-11.75552734 8.15203125 -11.75552734 8.15203125 -11 7 C-10.67 7 -10.34 7 -10 7 C-8.62246251 23.26259535 -15.57390608 39.6367522 -25.6875 52.0625 C-27.11943987 53.71317314 -28.55668538 55.35926342 -30 57 C-31.34148303 58.66011411 -32.67725326 60.32491892 -34 62 C-25.19125737 61.67968209 -19.3921277 57.72693145 -13.3125 51.5 C-1.42857683 37.02422351 -0.51524707 17.82044177 0 0 Z " fill="#1F222E" transform="translate(249,388)"/>
<path d="M0 0 C0.66 0 1.32 0 2 0 C10.35155585 15.55070176 18.05565147 31.33001851 25.35888672 47.3984375 C26.97684788 50.9491907 28.61414957 54.49051902 30.25390625 58.03125 C63.98519993 131.39960188 63.98519993 131.39960188 63 158 C59.46238077 156.66252058 56.23255793 155.09562161 52.953125 153.21484375 C52.02628906 152.68439453 51.09945312 152.15394531 50.14453125 151.60742188 C49.18933594 151.05634766 48.23414063 150.50527344 47.25 149.9375 C46.27933594 149.38255859 45.30867188 148.82761719 44.30859375 148.25585938 C37.14043257 144.14043257 37.14043257 144.14043257 36 143 C26.08346906 142.32769282 20.07869064 148.88795844 13 155 C10.5603303 152.5603303 9.9632666 150.55007677 8.80102539 147.30029297 C8.15509178 145.50735306 8.15509178 145.50735306 7.49610901 143.67819214 C7.02985799 142.36622616 6.56370967 141.05422368 6.09765625 139.7421875 C5.61496616 138.39639291 5.13175842 137.05078387 4.64805603 135.70535278 C3.3734617 132.15589714 2.10558059 128.60408001 0.83917236 125.05169678 C-0.44138428 121.46281729 -1.72759228 117.87596578 -3.01367188 114.2890625 C-4.46356661 110.24527192 -5.91302806 106.20133901 -7.35716248 102.15548706 C-10.15287121 94.32983925 -12.98107007 86.52695938 -16.04296875 78.80078125 C-16.39423828 77.90166016 -16.74550781 77.00253906 -17.10742188 76.07617188 C-17.83300372 74.21957457 -18.5648762 72.36542453 -19.30273438 70.51367188 C-19.65013672 69.61841797 -19.99753906 68.72316406 -20.35546875 67.80078125 C-20.67153076 66.99809814 -20.98759277 66.19541504 -21.31323242 65.3684082 C-22.31878787 61.90061815 -22.57830306 59.14601449 -20.93359375 55.88671875 C-20.43988281 55.16097656 -19.94617188 54.43523437 -19.4375 53.6875 C-9.20380752 37.41979074 -4.07505671 18.59956054 0 0 Z " fill="#262120" transform="translate(196,103)"/>
<path d="M0 0 C3.6103007 2.68982743 4.0423824 6.401763 4.9375 10.5625 C7.37951621 20.9888883 9.45829308 29.25726248 18.5 35.8125 C25.82920076 38.29919311 33.44887103 38.14723051 40.5 34.875 C47.19186123 31.01389368 50.29370896 26.12181853 53 19 C53.84304688 18.93941406 54.68609375 18.87882813 55.5546875 18.81640625 C56.65039062 18.73261719 57.74609375 18.64882813 58.875 18.5625 C59.96554687 18.48128906 61.05609375 18.40007813 62.1796875 18.31640625 C64.94728971 18.16998297 64.94728971 18.16998297 67 17 C69.875 16.625 69.875 16.625 73 17 C75.0625 19.3125 75.0625 19.3125 77 22 C81.39945826 25.64526542 85.56095318 25.31994393 91 25 C91 24.01 91 23.02 91 22 C90.2575 21.7525 89.515 21.505 88.75 21.25 C85.76976913 19.89534961 84.10080748 18.4898459 82 16 C82 15.34 82 14.68 82 14 C89.76344438 9.99306097 99.83546828 12.22161878 108.1875 13.1875 C109.24130859 13.28869141 110.29511719 13.38988281 111.38085938 13.49414062 C117.82279248 14.24509061 121.58557291 15.13243635 126 20 C127.77774582 23.91104079 128.30964512 25.91624208 127.125 30.0625 C116.2229258 45.13301433 90.80378715 48.80353548 73.61572266 51.66821289 C19.51353271 60.17341304 -69.49634591 68.01663986 -117.1953125 35.52734375 C-119.2020495 33.82900139 -120.61526151 32.23688526 -122 30 C-122.1875 26.25 -122.1875 26.25 -122 23 C-123.32 22.67 -124.64 22.34 -126 22 C-124.31583984 21.92652344 -124.31583984 21.92652344 -122.59765625 21.8515625 C-111.164312 21.3486504 -111.164312 21.3486504 -100 19 C-98.7625 18.65775391 -98.7625 18.65775391 -97.5 18.30859375 C-94.17412665 17.34638283 -94.17412665 17.34638283 -91 16 C-90.67 15.01 -90.34 14.02 -90 13 C-88.11328125 13.21484375 -88.11328125 13.21484375 -86 14 C-84.98046875 16.00390625 -84.98046875 16.00390625 -84.1875 18.5625 C-81.03728001 27.14286573 -75.20767079 33.05314192 -67 37 C-53.84302308 42.69446819 -39.53094993 40.4194546 -26.4375 35.8125 C-16.16578715 31.69173049 -7.62132774 24.71374279 -2.6875 14.6875 C-0.69601181 9.89470684 -0.21507642 5.1510802 0 0 Z " fill="#363D39" transform="translate(303,518)"/>
<path d="M0 0 C3 5.75 3 5.75 3 8 C3.66 8 4.32 8 5 8 C5.495 12.455 5.495 12.455 6 17 C6.66 17 7.32 17 8 17 C8.41227316 25.30654061 8.29824338 32.04210794 2.8125 38.625 C-11.84422827 51.00179276 -24.75729547 52.39041902 -43.375 52.3125 C-44.22617401 52.31134186 -45.07734802 52.31018372 -45.95431519 52.30899048 C-57.54526084 52.2779301 -69.02911006 51.85639434 -80.5625 50.6875 C-81.74312012 50.56995361 -82.92374023 50.45240723 -84.14013672 50.33129883 C-90.80617085 49.55978992 -96.27858592 48.88692062 -101.07543945 43.79833984 C-103.29567924 40.57007796 -103.76177655 38.38559918 -104.265625 34.51953125 C-104.43320312 33.27236328 -104.60078125 32.02519531 -104.7734375 30.74023438 C-104.93070312 29.44408203 -105.08796875 28.14792969 -105.25 26.8125 C-105.42273438 25.53568359 -105.59546875 24.25886719 -105.7734375 22.94335938 C-106.68577149 15.90173396 -107.0945752 9.09308406 -107 2 C-97.18337311 1.73481827 -87.3666455 1.47381684 -77.54977798 1.21769714 C-72.98804658 1.09856095 -68.42635727 0.97815251 -63.86474609 0.85449219 C-42.5711177 0.27822315 -21.30281141 -0.17646577 0 0 Z " fill="#576F77" transform="translate(395,276)"/>
<path d="M0 0 C4.40609031 0.3057504 7.62167499 2.31075153 11.3671875 4.52734375 C12.26390671 5.05081139 12.26390671 5.05081139 13.17874146 5.58485413 C15.72012744 7.06849275 18.25180028 8.56834703 20.78369141 10.06811523 C22.64117152 11.16510704 24.50395346 12.2526626 26.3671875 13.33984375 C27.47175293 13.99331787 28.57631836 14.64679199 29.71435547 15.32006836 C33.17022247 17.08703379 36.25094322 18.06288413 40 19 C40.02578125 20.10214844 40.0515625 21.20429688 40.078125 22.33984375 C40.70245863 41.24643176 44.19709904 62.1243465 57.9609375 76.328125 C64.72872366 81.87719105 72.52541622 85.88135405 81 88 C82.50820313 88.41572266 82.50820313 88.41572266 84.046875 88.83984375 C99.70861474 92.61606322 117.27631136 92.50388605 133 89 C134.51207031 88.690625 134.51207031 88.690625 136.0546875 88.375 C142.38274117 86.95803124 148.00183192 84.84692606 153.8203125 81.98828125 C156 81 156 81 158 81 C158.33868777 83.20751848 158.67071689 85.41605911 159 87.625 C159.185625 88.85476563 159.37125 90.08453125 159.5625 91.3515625 C159.95402516 94.6166027 160.08080924 97.71712451 160 101 C130.8659133 114.77742792 101.43263727 113.14635704 71.3984375 102.88427734 C61.64907198 99.28979425 52.65069292 94.33365782 44.48046875 87.90625 C42.04793384 85.95217986 42.04793384 85.95217986 39.36328125 84.46875 C36.67316008 82.81329082 34.89036732 81.54252201 33 79 C32.21774811 75.01959122 32.06063383 71.57944976 32.09765625 67.5234375 C31.9999684 63.99885994 31.90093413 61.96290851 30 59 C22.27262684 55.42543283 13.44486022 54.34468817 5 54 C3.4397102 48.93465133 2.4295588 44.00414988 1.7109375 38.7578125 C1.54871201 37.60610062 1.54871201 37.60610062 1.38320923 36.43112183 C1.15725757 34.81624713 0.93385567 33.2010138 0.71289062 31.58544922 C0.37675276 29.13776324 0.02874671 26.69196639 -0.3203125 24.24609375 C-0.53978313 22.66676664 -0.75855592 21.08734237 -0.9765625 19.5078125 C-1.13120468 18.42924484 -1.13120468 18.42924484 -1.28897095 17.32888794 C-1.9640615 12.3009552 -2.62716706 7.05697406 -2 2 C-1.34 1.34 -0.68 0.68 0 0 Z " fill="#424C55" transform="translate(228,260)"/>
<path d="M0 0 C0.86625 0.804375 1.7325 1.60875 2.625 2.4375 C29.20777411 25.10789002 64.9667792 31.83863685 99 30 C110.65946603 28.86586696 120.65389071 25.33367474 130.875 19.70703125 C134 18 134 18 137 17 C136.31207622 32.02570365 135.20591753 47.00765406 134 62 C82.37344645 63.43652653 39.30678039 44.98363399 -6 22 C-5.37879989 18.7885314 -4.6510938 15.77278916 -3.5625 12.6875 C-2.12899962 8.49943026 -1.01801863 4.30700188 0 0 Z " fill="#38425D" transform="translate(260,354)"/>
<path d="M0 0 C0.78375 0.00451172 1.5675 0.00902344 2.375 0.01367188 C4.29170014 0.02535907 6.20836048 0.04329092 8.125 0.0625 C8.17556068 4.16608247 8.21124834 8.26948587 8.23486328 12.37329102 C8.24473803 13.76069303 8.25823989 15.14807537 8.27587891 16.53540039 C8.38103242 25.03737139 7.9762709 33.25669422 6.87762451 41.68937683 C5.898922 49.38822105 5.6605618 57.0595677 5.5 64.8125 C5.48198334 65.57788086 5.46396667 66.34326172 5.44540405 67.13183594 C5.14133951 80.11762909 5.00009305 93.10670898 4.94976807 106.0958252 C4.94168218 108.0511623 4.93064394 110.00648974 4.91644287 111.96179199 C4.85415122 121.50783304 4.82213436 130.76925663 6.6940918 140.17578125 C7.23027171 143.767731 7.125 147.43075223 7.125 151.0625 C1.515 151.0625 -4.095 151.0625 -9.875 151.0625 C-10.05675781 148.34386719 -10.05675781 148.34386719 -10.2421875 145.5703125 C-11.29642304 130.11421957 -12.58381556 114.76246774 -14.6262207 99.40625 C-16.81210604 82.29931766 -17.28330935 65.38463401 -17.13928223 48.16717529 C-17.12001093 45.41162661 -17.11611182 42.65614369 -17.1125679 39.90053654 C-17.10738068 36.54954109 -17.09287303 33.19862413 -17.078125 29.84765625 C-17.07387512 28.63811783 -17.06962524 27.42857941 -17.06524658 26.18238831 C-16.906753 7.157759 -16.906753 7.157759 -14.875 1.0625 C-9.85891475 0.0448597 -5.08891694 -0.05606434 0 0 Z " fill="#26272B" transform="translate(188.875,307.9375)"/>
<path d="M0 0 C3.15944091 2.64879403 4.63883954 6.01246745 6.3359375 9.67578125 C6.65151108 10.34440186 6.96708466 11.01302246 7.29222107 11.7019043 C8.32733788 13.90199937 9.35185698 16.1068135 10.375 18.3125 C10.729039 19.07130463 11.083078 19.83010925 11.44784546 20.61190796 C54.04007756 111.91790598 54.04007756 111.91790598 53 140 C52.03707031 139.60361328 52.03707031 139.60361328 51.0546875 139.19921875 C48.20976368 138.02894605 48.20976368 138.02894605 46.04785156 137.43212891 C38.7837404 135.20898979 31.90938217 131.83268965 27.86566162 125.11578369 C22.56767583 114.79502056 19.14084903 103.53728741 15.53613281 92.54394531 C13.99819236 87.90383439 12.16324819 83.43001133 10.22631836 78.94311523 C6.26691066 69.63129554 4.9697729 60.938449 4.4296875 50.8828125 C3.94124102 41.86724956 2.8632494 32.90902424 1.875 23.9375 C1.514091 20.65538103 1.1578345 17.37280603 0.8046875 14.08984375 C0.7235672 13.36260101 0.6424469 12.63535828 0.55886841 11.88607788 C0.13147514 7.9039822 -0.0807391 4.00442431 0 0 Z " fill="#594B47" transform="translate(206,121)"/>
<path d="M0 0 C-0.01571045 0.93158936 -0.0314209 1.86317871 -0.04760742 2.82299805 C-0.0993283 6.34372744 -0.13663319 9.86404195 -0.16479492 13.38500977 C-0.17970277 14.89679411 -0.20003634 16.40853663 -0.22631836 17.92016602 C-0.43492549 30.24434792 0.49437155 41.72657032 6 53 C-0.56339917 55.93175532 -6.09901176 56.51069274 -13.25 56.4375 C-14.30123047 56.42920166 -15.35246094 56.42090332 -16.43554688 56.41235352 C-36.77609489 55.98117563 -58.20343303 51.17774131 -72.8359375 36.109375 C-75.26795393 33.39191064 -76.83409052 31.49772844 -78 28 C-73.43686253 27.75532775 -70.40453294 28.38785299 -66.25390625 30.265625 C-65.17753906 30.74201416 -64.10117187 31.21840332 -62.9921875 31.70922852 C-61.29449219 32.4719104 -61.29449219 32.4719104 -59.5625 33.25 C-41.05699008 41.2522111 -25.1169811 43.87540567 -5 45 C-5.99 40.545 -5.99 40.545 -7 36 C-7.71800781 36.04640625 -8.43601562 36.0928125 -9.17578125 36.140625 C-34.92674245 37.03854146 -64.11799185 26.27265898 -84 10 C-87 6.53164557 -87 6.53164557 -87 4 C-77.11286255 3.10116932 -68.26065713 7.8386464 -59.5 11.875 C-43.37649998 19.25311361 -25.87454077 24.711818 -8 24 C-5.65079126 19.31113215 -5.56954075 14.8225651 -5.375 9.6875 C-5.33632813 8.85154297 -5.29765625 8.01558594 -5.2578125 7.15429688 C-5.16404841 5.10320741 -5.08095755 3.05163485 -5 1 C-3 0 -3 0 0 0 Z " fill="#0F121D" transform="translate(393,429)"/>
<path d="M0 0 C0.70226141 1.24176695 1.38629109 2.49385599 2.0625 3.75 C2.44535156 4.44609375 2.82820313 5.1421875 3.22265625 5.859375 C4.15379211 8.42350791 4.15068296 9.53293574 3 12 C1.38378906 12.94140625 1.38378906 12.94140625 -0.734375 13.5625 C-1.52634277 13.80009033 -2.31831055 14.03768066 -3.13427734 14.2824707 C-3.99746582 14.51925537 -4.8606543 14.75604004 -5.75 15 C-6.63510254 15.25418701 -7.52020508 15.50837402 -8.43212891 15.77026367 C-18.16088619 18.47554541 -28.04930573 20.32600189 -38 22 C-39.41212769 22.26478149 -39.41212769 22.26478149 -40.8527832 22.53491211 C-46.14133228 23.31644077 -51.43791563 23.22477952 -56.77563477 23.24023438 C-58.79680798 23.24992477 -60.81695585 23.28099596 -62.83789062 23.3125 C-73.91179262 23.35650955 -83.62006121 21.81010295 -92 14 C-94.1165505 10.62034678 -96 7.0541344 -96 3 C-90.85743672 2.18908332 -85.76470424 1.73325173 -80.5625 1.5 C-79.25454468 1.44017944 -79.25454468 1.44017944 -77.92016602 1.37915039 C-51.96450607 0.27479163 -25.97766243 -0.21298538 0 0 Z " fill="#96C4D6" transform="translate(395,276)"/>
<path d="M0 0 C4.99618169 0.56716859 9.30409122 1.65123297 14 3.4375 C15.01598267 3.82349365 15.01598267 3.82349365 16.05249023 4.21728516 C21.1581466 6.19363161 26.16371232 8.37069381 31.16723633 10.59106445 C56.98227074 22.03901672 84.62817318 32.168574 113.1875 32.1875 C114.66379883 32.20586914 114.66379883 32.20586914 116.16992188 32.22460938 C117.11802734 32.22654297 118.06613281 32.22847656 119.04296875 32.23046875 C120.32723755 32.23663208 120.32723755 32.23663208 121.63745117 32.24291992 C125.03566788 31.89351147 127.20096416 30.82899969 129.5625 28.37890625 C130.036875 27.77949219 130.51125 27.18007813 131 26.5625 C133.13559219 23.97390341 135.09837175 21.76170287 138 20 C138.66 20 139.32 20 140 20 C140.02749916 22.29159637 140.04661689 24.58329368 140.0625 26.875 C140.07410156 28.15117187 140.08570313 29.42734375 140.09765625 30.7421875 C140.06192374 35.52573362 139.54074133 40.25098651 139 45 C87.37344645 46.43652653 44.30678039 27.98363399 -1 5 C-0.67 3.35 -0.34 1.7 0 0 Z " fill="#192545" transform="translate(255,371)"/>
<path d="M0 0 C0.83789062 0.28101563 1.67578125 0.56203125 2.5390625 0.8515625 C4.87196882 1.62568717 7.22232584 2.34885552 9.5859375 3.0234375 C15.28309947 4.90784328 20.34847141 7.11542366 23.26171875 12.609375 C25.06332681 16.77571156 26.40777738 21.09357256 27.78466797 25.41503906 C29.27168103 29.801399 30.9557076 34.0928755 32.66015625 38.3984375 C33.65076692 40.92069849 34.64011107 43.44345379 35.62936401 45.96624756 C36.29234175 47.65343191 36.95812882 49.33951508 37.6267395 51.0244751 C38.5711903 53.41694247 39.49491377 55.81646804 40.4140625 58.21875 C40.70519424 58.944039 40.99632599 59.669328 41.29627991 60.41659546 C43.17169801 65.39348565 43.17169801 65.39348565 42.33789062 68.33886719 C40.2304571 70.95546896 37.58946375 72.81649566 34.875 74.75 C34.31167969 75.16121094 33.74835938 75.57242188 33.16796875 75.99609375 C31.78398366 77.00476085 30.39269459 78.00339286 29 79 C26.5603303 76.5603303 25.9632666 74.55007677 24.80102539 71.30029297 C24.15509178 69.50735306 24.15509178 69.50735306 23.49610901 67.67819214 C23.02985799 66.36622616 22.56370967 65.05422368 22.09765625 63.7421875 C21.61496616 62.39639291 21.13175842 61.05078387 20.64805603 59.70535278 C19.3734617 56.15589714 18.10558059 52.60408001 16.83917236 49.05169678 C15.55861572 45.46281729 14.27240772 41.87596578 12.98632812 38.2890625 C11.53643339 34.24527192 10.08697194 30.20133901 8.64283752 26.15548706 C4.92412511 15.59638569 4.92412511 15.59638569 0.8125 5.1875 C0 3 0 3 0 0 Z " fill="#594B47" transform="translate(180,179)"/>
<path d="M0 0 C4.53016916 3.71308385 7.32512852 7.78706482 8.1875 13.6328125 C8.37603475 21.07993531 7.83329684 26.45048544 3.15234375 32.375 C-0.68377513 36.38657547 -3.77602484 37.9213944 -9.3515625 38.21484375 C-14.39750918 37.89668822 -17.37230992 36.81737141 -20.890625 33.1875 C-25.99298365 26.6741539 -28.07579569 20.70843069 -27.2890625 12.40234375 C-26.1045124 6.18345571 -23.08268238 2.77498176 -18.32421875 -1.25 C-12.50422559 -5.10393021 -5.69640257 -3.6214686 0 0 Z " fill="#120C0B" transform="translate(288.2890625,115.59765625)"/>
<path d="M0 0 C3.94008752 0.11997061 6.48799496 0.82981361 9.41015625 3.6953125 C14.08392139 9.7725698 16.58875417 17.1630628 18.75 24.4375 C21.16645782 24.60437448 21.16645782 24.60437448 23.75 24.4375 C24.41 23.7775 25.07 23.1175 25.75 22.4375 C25.75 23.0975 25.75 23.7575 25.75 24.4375 C26.62011719 24.82421875 26.62011719 24.82421875 27.5078125 25.21875 C38.20546321 31.03350091 43.26648501 42.50369078 46.8125 53.5 C47.14435303 54.64456665 47.14435303 54.64456665 47.48291016 55.81225586 C48.77267165 60.06473445 48.77267165 60.06473445 52.12109375 62.74609375 C54.92087185 62.63598144 54.92087185 62.63598144 57.3203125 60.55859375 C60.77217388 56.12445028 62.54149258 51.33432521 64.53515625 46.11914062 C66.84301791 40.49078413 69.60314919 36.78317752 74.75 33.4375 C77.89930893 32.38773036 80.13814456 32.33618405 83.4375 32.375 C84.43136719 32.38402344 85.42523438 32.39304687 86.44921875 32.40234375 C87.58810547 32.41974609 87.58810547 32.41974609 88.75 32.4375 C91.17857143 39.86607143 91.17857143 39.86607143 89.75 43.4375 C88.739375 42.7775 87.72875 42.1175 86.6875 41.4375 C82.89080673 39.29754561 80.14393723 38.70517713 75.75 39.4375 C68.82682866 44.97603707 68.34809765 50.49732112 67.41015625 58.9296875 C66.5068385 63.72956523 64.78725527 68.44694054 60.75 71.4375 C56.3878383 73.51471986 52.6989097 73.58075332 47.99609375 73.3125 C44.54109614 71.9665531 42.62725466 69.52075111 40.75 66.4375 C39.75074919 63.85979113 39.17082331 61.26826068 38.625 58.5625 C38.29981309 57.13604577 37.97172232 55.7102502 37.640625 54.28515625 C37.34671875 53.01542969 37.0528125 51.74570312 36.75 50.4375 C34.13149689 41.11271949 29.42100325 33.78615368 21.15625 28.67578125 C18.79942284 27.46293351 16.51350892 26.64081544 14 25.8125 C6.02807751 22.89196865 -1.60331276 15.40753086 -6.25 8.4375 C-6.5 5.375 -6.5 5.375 -6.25 2.4375 C-3.89048821 0.07798821 -3.23074365 0.09340585 0 0 Z " fill="#0E111C" transform="translate(280.25,472.5625)"/>
<path d="M0 0 C4.21229214 1.77277099 6.47779046 4.19141748 8.9375 8 C11.23053416 14.52081588 11.22264302 22.3195903 8.375 28.5625 C4.19140456 32.85619006 1.07560868 35.22496618 -5 35.5625 C-8.98993926 35.36480031 -11.80875984 34.6956897 -14.75 31.74609375 C-18.98356127 25.83233785 -21.04227834 19.18013966 -20 12 C-15.91845688 2.86671088 -10.20627211 -1.81515604 0 0 Z " fill="#100B0A" transform="translate(349,104)"/>
<path d="M0 0 C3.82680711 1.38842641 6.991518 3.18346113 10.375 5.4375 C23.4965848 13.89285277 37.57941553 16.08411689 53 13 C53.99 12.67 54.98 12.34 56 12 C57.34129267 12.29970462 58.67475052 12.63585346 60 13 C61.36800819 13.07708723 62.73923592 13.10803609 64.109375 13.09765625 C65.24052734 13.09282227 65.24052734 13.09282227 66.39453125 13.08789062 C67.56048828 13.07532227 67.56048828 13.07532227 68.75 13.0625 C69.54277344 13.05798828 70.33554687 13.05347656 71.15234375 13.04882812 C73.10159508 13.03708565 75.05080738 13.01915146 77 13 C70.80417354 20.8836175 63.43812034 24.85033565 53.5 26.625 C37.24290817 28.25996369 20.39125814 26.14367757 7 16 C5.2421875 13.00390625 5.2421875 13.00390625 4 10 C3.69835937 9.33613281 3.39671875 8.67226563 3.0859375 7.98828125 C1.96434967 5.3445385 0.90857459 2.72572378 0 0 Z " fill="#0E111C" transform="translate(374,494)"/>
<path d="M0 0 C0.66 0 1.32 0 2 0 C2.71845533 6.95532904 3.4297615 13.91136326 4.13623047 20.86791992 C4.37711835 23.23169287 4.61960941 25.59530304 4.86376953 27.95874023 C5.21553968 31.36660328 5.56143609 34.77502068 5.90625 38.18359375 C6.0156189 39.23083115 6.12498779 40.27806854 6.2376709 41.35704041 C6.82976558 47.27396646 7.10806927 53.05348833 7 59 C1.51702063 58.05308386 -3.1899253 55.93362691 -8.25 53.6875 C-9.17296875 53.29626953 -10.0959375 52.90503906 -11.046875 52.50195312 C-11.9234375 52.11330078 -12.8 51.72464844 -13.703125 51.32421875 C-14.50395508 50.97447998 -15.30478516 50.62474121 -16.12988281 50.2644043 C-18 49 -18 49 -18.82910156 46.98071289 C-19.07053526 44.18249634 -18.07640903 43.05027033 -16.5 40.75 C-8.78125898 28.554031 -3.26577162 14.0358695 0 0 Z " fill="#584A46" transform="translate(193,116)"/>
<path d="M0 0 C2.97 0.495 2.97 0.495 6 1 C6.74774258 20.71739662 5.35104694 41.25442402 -8.8125 56.5625 C-13.91826869 61.17256299 -19.69955596 64.71547896 -26.625 65.3125 C-27.40875 65.209375 -28.1925 65.10625 -29 65 C-27.26158678 61.72769276 -25.23594852 59.08999097 -22.75 56.375 C-12.44285229 44.74140502 -4.49224706 29.27623107 -5.1875 13.4375 C-5.33975743 7.74788014 -3.50525839 4.3690542 0 0 Z " fill="#0F121D" transform="translate(243,386)"/>
<path d="M0 0 C2.3858383 3.10320324 4.22286539 6.22971013 6.0625 9.6875 C9.84917191 16.28990231 15.06090002 22.53045001 22 26 C21.34312233 29.34829815 20.07455289 31.85373163 18.33984375 34.78125 C17.79682617 35.70083496 17.25380859 36.62041992 16.69433594 37.56787109 C16.11458008 38.53547363 15.53482422 39.50307617 14.9375 40.5 C14.35129883 41.48436035 13.76509766 42.4687207 13.16113281 43.48291016 C4.30574622 58.26706824 4.30574622 58.26706824 0 64 C-0.33 64 -0.66 64 -1 64 C-1.1231543 42.63746492 -0.93011461 21.34563554 0 0 Z " fill="#37415B" transform="translate(209,358)"/>
<path d="M0 0 C2.4227701 1.84130528 2.96572882 2.80579666 3.50390625 5.85546875 C3.623843 12.6758719 3.36481852 17.20706623 -1.3203125 22.3671875 C-1.87460937 22.90601563 -2.42890625 23.44484375 -3 24 C-3.825 24.86625 -4.65 25.7325 -5.5 26.625 C-14.03237014 33.03521654 -22.82903755 35.54999288 -33.3125 35.625 C-34.54734131 35.641073 -34.54734131 35.641073 -35.80712891 35.6574707 C-43.11185222 35.48948701 -49.1527855 33.34104303 -54.8125 28.6875 C-60.35125683 21.88274161 -61.629588 17.69181214 -61 9 C-58.20665236 9.63847946 -56.44872491 10.36809309 -54.765625 12.73828125 C-54.36859375 13.42277344 -53.9715625 14.10726562 -53.5625 14.8125 C-50.11031326 20.73053441 -45.62126275 24.3625171 -39.12109375 26.48828125 C-30.63423274 28.535756 -23.48471681 26.27127839 -16 22 C-8.76070384 16.37681583 -2.91421413 8.7426424 0 0 Z " fill="#0E111C" transform="translate(287,511)"/>
<path d="M0 0 C4.021875 0.0309375 4.021875 0.0309375 8.125 0.0625 C8.125 8.3125 8.125 16.5625 8.125 25.0625 C-0.07876918 28.09008148 -7.17081853 29.52939113 -15.875 30.0625 C-15.90397435 25.79168086 -15.92178996 21.52088691 -15.9375 17.25 C-15.94587891 16.03505859 -15.95425781 14.82011719 -15.96289062 13.56835938 C-15.96611328 12.40498047 -15.96933594 11.24160156 -15.97265625 10.04296875 C-15.97789307 8.96942139 -15.98312988 7.89587402 -15.98852539 6.78979492 C-15.875 4.0625 -15.875 4.0625 -14.875 1.0625 C-9.85918549 0.04491463 -5.08749767 -0.05560913 0 0 Z " fill="#424C55" transform="translate(188.875,307.9375)"/>
<path d="M0 0 C0.66 0 1.32 0 2 0 C5.25404417 6.10133282 4.80136463 12.31110055 2.87890625 18.76171875 C1.68278065 22.2126998 0.36656592 25.61286876 -1 29 C-1.99 27.515 -1.99 27.515 -3 26 C-6.77207791 25.3958371 -8.45371835 25.62797734 -11.6328125 27.79296875 C-12.86644531 28.97826172 -12.86644531 28.97826172 -14.125 30.1875 C-14.95257813 30.96480469 -15.78015625 31.74210937 -16.6328125 32.54296875 C-19.02946429 34.9366754 -19.02946429 34.9366754 -20.96484375 37.57421875 C-23.22664186 40.27014317 -25.43761271 41.80259968 -28.4375 43.625 C-29.36433594 44.19476562 -30.29117188 44.76453125 -31.24609375 45.3515625 C-32.15488281 45.89554688 -33.06367188 46.43953125 -34 47 C-34.82628906 47.51949219 -35.65257812 48.03898438 -36.50390625 48.57421875 C-44.97484095 53.41285907 -54.32868176 55.41350036 -64 54 C-70.61668073 51.76142239 -74.92784319 47.54132711 -79 42 C-76 41 -76 41 -74.1328125 41.7421875 C-73.47023437 42.11601563 -72.80765625 42.48984375 -72.125 42.875 C-64.46294963 47.17175766 -55.17391359 47.02246388 -46.71875 45.3515625 C-31.37198303 40.99337868 -18.80623046 33.52721859 -10.78515625 19.5703125 C-8.15330275 14.82831461 -5.6294183 10.03488126 -3.16992188 5.20141602 C-2 3 -2 3 0 0 Z " fill="#0F111C" transform="translate(236,477)"/>
<path d="M0 0 C0.80695313 -0.00386719 1.61390625 -0.00773437 2.4453125 -0.01171875 C7.19309802 -0.00401131 11.69287442 0.33418522 16.375 1.125 C16.375 5.415 16.375 9.705 16.375 14.125 C14.79912109 14.14626953 14.79912109 14.14626953 13.19140625 14.16796875 C3.33890426 14.44490902 -4.00924319 15.27845535 -11.125 22.75 C-12.75839037 25.12646583 -12.75839037 25.12646583 -13.625 28.125 C-14.285 28.125 -14.945 28.125 -15.625 28.125 C-18.95252397 19.3189455 -21.5207921 11.70002227 -20.625 2.125 C-14.68242999 -0.84628501 -6.50424891 -0.03147217 0 0 Z " fill="#1E212D" transform="translate(234.625,325.875)"/>
<path d="M0 0 C0.99 0.33 1.98 0.66 3 1 C2.01 1.66 1.02 2.32 0 3 C-0.40580225 4.91539713 -0.40580225 4.91539713 -0.25366211 7.09326172 C-0.22617889 7.90035583 -0.19869568 8.70744995 -0.17037964 9.53900146 C0.08471852 13.22369175 0.51889541 16.8547887 1.05859375 20.5078125 C1.1672023 21.27753387 1.27581085 22.04725525 1.38771057 22.84030151 C1.73181814 25.26940669 2.0844807 27.69717572 2.4375 30.125 C2.67049323 31.75903322 2.90291953 33.39314738 3.13476562 35.02734375 C3.56219584 38.03322703 3.9926235 41.03864063 4.42749023 44.04345703 C4.95587499 47.6950576 5.47925349 51.34730532 6 55 C9.63 55 13.26 55 17 55 C17 55.33 17 55.66 17 56 C3.635 56.495 3.635 56.495 -10 57 C-10.8376739 38.99001124 -8.17634657 19.02387962 -2 2 C-1.34 1.34 -0.68 0.68 0 0 Z " fill="#26272B" transform="translate(227,259)"/>
<path d="M0 0 C3 1.875 3 1.875 5 4 C5 4.66 5 5.32 5 6 C5.66 6 6.32 6 7 6 C8.56725816 15.72123641 8.56725816 15.72123641 6 20 C2.81561198 23.697999 0.61709712 24.78231385 -4.25 25.4375 C-9.23409112 24.8560227 -11.67351517 22.62718402 -15 19 C-16.93334392 15.13331215 -16.18372987 10.93702235 -15.375 6.8125 C-12.10478535 0.12342457 -6.77110744 -0.85982317 0 0 Z " fill="#241F1E" transform="translate(281,123)"/>
<path d="M0 0 C0.33 0.99 0.66 1.98 1 3 C1.804375 2.649375 2.60875 2.29875 3.4375 1.9375 C7.93924786 0.75282951 11.54642301 0.52341298 16 2 C19.3371307 4.36124176 21.43870787 7.04884165 22.57421875 10.99609375 C22.93446498 15.10290079 21.89164036 17.71899295 19.4375 21 C16.97304691 23.52823894 16.10019202 23.97853028 12.5 24.75 C8.22422428 23.83376235 5.64986175 22.41351067 3 19 C-0.29027564 13.06120527 -1.61328032 7.74608347 -1 1 C-0.67 0.67 -0.34 0.34 0 0 Z " fill="#25201E" transform="translate(330,115)"/>
<path d="M0 0 C2.475 1.485 2.475 1.485 5 3 C4.34312233 6.34829815 3.07455289 8.85373163 1.33984375 11.78125 C0.79682617 12.70083496 0.25380859 13.62041992 -0.30566406 14.56787109 C-0.88541992 15.53547363 -1.46517578 16.50307617 -2.0625 17.5 C-2.64870117 18.48436035 -3.23490234 19.4687207 -3.83886719 20.48291016 C-12.69425378 35.26706824 -12.69425378 35.26706824 -17 41 C-17.33 41 -17.66 41 -18 41 C-18 29.45 -18 17.9 -18 6 C-17.67 6 -17.34 6 -17 6 C-16.67 10.62 -16.34 15.24 -16 20 C-15.02160156 18.71416016 -15.02160156 18.71416016 -14.0234375 17.40234375 C-9.49176904 11.46677723 -4.94786582 5.59890079 0 0 Z " fill="#192443" transform="translate(226,381)"/>
<path d="M0 0 C2.9375 1.5 2.9375 1.5 5 3 C4.505 3.4125 4.01 3.825 3.5 4.25 C1.56613908 6.12202338 1.56613908 6.12202338 2 10 C3.98 9.34 5.96 8.68 8 8 C7.67 10.64 7.34 13.28 7 16 C5 16 3 16 1 16 C1.60958458 20.69545143 1.60958458 20.69545143 2.625 25.3125 C3 27 3 27 2 29 C1.01 29 0.02 29 -1 29 C-1.66 25.37 -2.32 21.74 -3 18 C-4.32 18 -5.64 18 -7 18 C-7 20.31 -7 22.62 -7 25 C-8.13500694 24.11687962 -9.25761307 23.21781145 -10.375 22.3125 C-11.00148437 21.81363281 -11.62796875 21.31476563 -12.2734375 20.80078125 C-14 19 -14 19 -16 14 C-10.555 13.505 -10.555 13.505 -5 13 C-6.55882089 8.77508516 -6.55882089 8.77508516 -10.125 7.75 C-11.07375 7.5025 -12.0225 7.255 -13 7 C-10.36182511 0.62441069 -6.75474203 -0.71102548 0 0 Z " fill="#6A7B88" transform="translate(241,348)"/>
<path d="M0 0 C-0.58614071 2.93687346 -0.96071331 3.95714179 -3.0625 6.25 C-8.33148681 9.38897087 -13.27524011 8.18626671 -18.98828125 7.00390625 C-26.24664712 5.65249879 -33.46688484 5.6139094 -40.83007812 5.52148438 C-41.85681641 5.49505859 -42.88355469 5.46863281 -43.94140625 5.44140625 C-44.86638916 5.42795166 -45.79137207 5.41449707 -46.74438477 5.40063477 C-47.48873779 5.26842529 -48.23309082 5.13621582 -49 5 C-49.66 4.01 -50.32 3.02 -51 2 C-42.50368726 1.21384027 -34.02664679 0.73336203 -25.5 0.4375 C-24.36691406 0.39431641 -23.23382813 0.35113281 -22.06640625 0.30664062 C-14.70769231 0.04112002 -7.36322188 -0.0526661 0 0 Z " fill="#F4F5F5" transform="translate(379,276)"/>
<path d="M0 0 C3.21480606 2.19606333 5.12384585 4.61081831 7 8 C6.67 8.66 6.34 9.32 6 10 C5.4225 9.54625 4.845 9.0925 4.25 8.625 C-2.29062812 3.90121303 -9.20626922 4.15900982 -17 5 C-20.77650433 6.60740453 -23.11504349 9.11504349 -26 12 C-25.9158797 9.13990965 -25.43181261 7.45351173 -23.4453125 5.3671875 C-16.22921141 -0.83087443 -9.28084703 -1.32845293 0 0 Z " fill="#0E101B" transform="translate(290,458)"/>
<path d="M0 0 C4.44784203 0.5083248 6.83569223 1.83569223 10 5 C14.25822118 11.54180982 14.25822118 11.54180982 13.6015625 15.25 C13.40304687 15.8275 13.20453125 16.405 13 17 C7.54047266 12.66489144 3.04309704 8.3641693 0 2 C0 1.34 0 0.68 0 0 Z " fill="#1D202B" transform="translate(281,473)"/>
<path d="M0 0 C-0.33 1.65 -0.66 3.3 -1 5 C-2.65 5.33 -4.3 5.66 -6 6 C-6 8.31 -6 10.62 -6 13 C-7.13500694 12.11687962 -8.25761307 11.21781145 -9.375 10.3125 C-10.00148437 9.81363281 -10.62796875 9.31476563 -11.2734375 8.80078125 C-13.29283488 6.6945772 -14.07439676 4.74408637 -15 2 C-13.2508503 1.66223316 -11.50063855 1.32996329 -9.75 1 C-8.77546875 0.814375 -7.8009375 0.62875 -6.796875 0.4375 C-4 0 -4 0 0 0 Z " fill="#8E98A0" transform="translate(240,360)"/>
<path d="M0 0 C3.91018627 4.79886497 5.2359999 8.12394384 4.625 14.3125 C4.42863758 15.8765495 4.22419881 17.43969749 4 19 C3.67 19 3.34 19 3 19 C2.96261719 18.443125 2.92523438 17.88625 2.88671875 17.3125 C2.52573027 13.12220232 1.94917562 9.47996901 0.375 5.5625 C-0.07875 4.386875 -0.5325 3.21125 -1 2 C-0.67 1.34 -0.34 0.68 0 0 Z " fill="#4D423E" transform="translate(356,106)"/>
<path d="M0 0 C3 1 3 1 4.25 2.75 C5.17574966 5.52724898 4.77341204 7.21571665 4 10 C3.01 10 2.02 10 1 10 C0.67 6.7 0.34 3.4 0 0 Z " fill="#606E79" transform="translate(239,367)"/>
<path d="M0 0 C1.32 0.33 2.64 0.66 4 1 C0.535 3.97 0.535 3.97 -3 7 C-3 3.48283697 -2.17554415 2.62878252 0 0 Z " fill="#142C09" transform="translate(164,298)"/>
<path d="M0 0 C0.86625 0.3403125 0.86625 0.3403125 1.75 0.6875 C0.5434375 1.2753125 0.5434375 1.2753125 -0.6875 1.875 C-3.4866916 3.44261021 -3.4866916 3.44261021 -3.9375 6.3125 C-4.040625 7.09625 -4.14375 7.88 -4.25 8.6875 C-5.24 9.1825 -5.24 9.1825 -6.25 9.6875 C-6.5 6.375 -6.5 6.375 -6.25 2.6875 C-4.13578911 0.27125898 -3.2149628 -0.44652261 0 0 Z " fill="#221D1B" transform="translate(263.25,159.3125)"/>
</svg>
