<?xml version="1.0" encoding="UTF-8"?>
<svg version="1.1" xmlns="http://www.w3.org/2000/svg" width="600" height="600">
<path d="M0 0 C4.17336804 3.4851284 8.0924837 7.22237344 12 11 C12.82757813 11.77601563 13.65515625 12.55203125 14.5078125 13.3515625 C20.42705171 19.0300191 25.13388096 25.2092487 29.34375 32.24609375 C32.29828713 37.06439413 35.68961754 40.67096633 39.9375 44.375 C49.66442912 52.93726915 55.18360999 62.58090024 56.3125 75.60546875 C56.69880066 87.44799838 54.15227779 96.76605403 47.171875 106.35546875 C43.8580156 113.83374479 46.65122762 123.20651344 47.9375 130.9375 C50.23117418 144.96700535 51.2403252 158.47881997 51.25 172.6875 C51.25067474 173.58437531 51.25134949 174.48125061 51.25204468 175.40530396 C51.22888702 195.04105253 49.9779953 214.47107346 48 234 C47.86564545 235.32916443 47.86564545 235.32916443 47.72857666 236.68518066 C43.72270943 275.90454494 43.72270943 275.90454494 39.015625 293.58984375 C37.71063713 298.65894985 37.34848922 303.79032988 37 309 C37.97839844 309.36351562 38.95679688 309.72703125 39.96484375 310.1015625 C58.81218379 317.26432139 58.81218379 317.26432139 64 325 C65.14974896 328.12074717 65.09577734 329.66109557 64.1875 332.875 C53.345721 348.36325571 27.77349119 351.49769147 10.57324219 354.62255859 C-26.49890563 360.80823344 -64.26334046 360.85236251 -101.65722656 358.22509766 C-113.51573178 357.42656261 -123.93165562 358.89487022 -135.4621582 361.51928711 C-141.9874703 362.75529861 -148.35363141 363.16607298 -154.9765625 363.203125 C-155.81621552 363.21013931 -156.65586853 363.21715363 -157.52096558 363.22438049 C-160.22236531 363.24181883 -162.92354602 363.24823423 -165.625 363.25 C-166.54595459 363.25067474 -167.46690918 363.25134949 -168.41577148 363.25204468 C-191.16242296 363.22552707 -220.34280633 363.09454849 -238.77734375 347.49609375 C-241.01408286 345.12304367 -241.96295899 343.19755207 -242.5625 340 C-241.72506519 335.533681 -239.99845229 332.50253255 -236.31567383 329.73364258 C-231.4506227 326.65905886 -226.66052484 324.50670058 -221.1875 322.75 C-220.40648926 322.49331543 -219.62547852 322.23663086 -218.82080078 321.97216797 C-212.85629368 320.09077934 -207.27309131 319.17923118 -201 319 C-201 316.03 -201 313.06 -201 310 C-201.825 309.938125 -202.65 309.87625 -203.5 309.8125 C-212.01260648 307.83635921 -218.00330662 301.96205944 -223 295 C-229.4475744 283.19216404 -230.97038231 268.03201783 -227.75 255.0625 C-225.30600385 247.28000535 -220.758967 241.56891065 -214 237 C-211.24609375 236.30078125 -211.24609375 236.30078125 -209 236 C-209.20496094 234.84886719 -209.40992188 233.69773437 -209.62109375 232.51171875 C-209.89379171 230.90374113 -210.16589363 229.29566236 -210.4375 227.6875 C-210.57220703 226.94048828 -210.70691406 226.19347656 -210.84570312 225.42382812 C-213.4528044 209.71763264 -213.16957677 193.51621415 -213.203125 177.640625 C-213.20595238 176.71693871 -213.20877975 175.79325241 -213.21169281 174.84157562 C-213.22651 169.96778598 -213.23585319 165.09402469 -213.24023438 160.22021484 C-213.24574259 155.23926283 -213.26987056 150.25858084 -213.29820633 145.27771378 C-213.31695781 141.39285539 -213.32204458 137.50806111 -213.32357025 133.62316132 C-213.32656106 131.78784433 -213.33446553 129.95252747 -213.34775543 128.11725616 C-213.45326639 112.45071223 -213.25510732 96.81688438 -202.6875 84.25 C-193.71969162 76.7420674 -184.30096774 73.38674938 -172.51171875 74.1640625 C-170.66766768 74.39334061 -168.83202364 74.68890165 -167 75 C-166.9575415 74.32775391 -166.91508301 73.65550781 -166.87133789 72.96289062 C-166.36534961 66.2382186 -165.25291186 59.9886028 -163.4375 53.5 C-163.17428955 52.55366699 -162.9110791 51.60733398 -162.63989258 50.63232422 C-155.42148605 25.61771301 -142.09573152 -3.36920829 -119.234375 -17.73828125 C-116.21054364 -19.36743103 -113.18794576 -20.72249189 -110 -22 C-108.97261719 -22.41378906 -107.94523438 -22.82757813 -106.88671875 -23.25390625 C-72.59308586 -34.60600849 -27.95518499 -21.37525709 0 0 Z M-60 266 C-61.46098845 268.9219769 -61.11134901 271.49893475 -61.09765625 274.7578125 C-61.0962413 275.42086395 -61.09482635 276.08391541 -61.09336853 276.76705933 C-61.08776754 278.88641863 -61.075215 281.00567259 -61.0625 283.125 C-61.05748512 284.56119639 -61.05292219 285.99739444 -61.04882812 287.43359375 C-61.03864833 290.95580248 -61.01907338 294.47778321 -61 298 C-55.72 298 -50.44 298 -45 298 C-45.66 287.44 -46.32 276.88 -47 266 C-51.29 266 -55.58 266 -60 266 Z M-161 304 C-161 305.98 -161 307.96 -161 310 C-159.35 309.67 -157.7 309.34 -156 309 C-156 307.35 -156 305.7 -156 304 C-157.65 304 -159.3 304 -161 304 Z " fill="#040603" transform="translate(366,215)"/>
<path d="M0 0 C0.75216797 0.22461914 1.50433594 0.44923828 2.27929688 0.68066406 C20.15030479 6.11794592 39.28790042 14.98632545 51 30 C49.75202637 30.02505615 48.50405273 30.0501123 47.21826172 30.07592773 C42.47292207 30.17194703 37.72766498 30.27164644 32.98242188 30.37231445 C30.9502153 30.41494481 28.91798904 30.4566496 26.88574219 30.49731445 C15.9227007 30.71733585 4.96383713 30.99262588 -5.9921875 31.44921875 C-6.88205353 31.48317245 -7.77191956 31.51712616 -8.68875122 31.55210876 C-18.13151009 31.97548491 -27.74533262 33.07028955 -36 38 C-45.94906039 50.56593484 -45.47003168 71.30380043 -43.72314453 86.39111328 C-41.43981373 101.23438285 -34.84264761 117.7329985 -22.4921875 126.8515625 C-16.76907885 130.51622335 -10.9060912 132.92375458 -4.4375 134.875 C-3.76605957 135.07826904 -3.09461914 135.28153809 -2.40283203 135.4909668 C19.95111367 141.69323315 48.03434712 139.88447784 68.6640625 129.171875 C71 128 71 128 73 128 C73.13277344 129.26457031 73.26554688 130.52914062 73.40234375 131.83203125 C73.58055463 133.49220625 73.75894963 135.15236148 73.9375 136.8125 C74.02451172 137.64587891 74.11152344 138.47925781 74.20117188 139.33789062 C74.33168945 140.54155273 74.33168945 140.54155273 74.46484375 141.76953125 C74.543396 142.50792236 74.62194824 143.24631348 74.70288086 144.00708008 C74.97151996 146.20269378 74.97151996 146.20269378 76 149 C76.27256677 150.8626585 76.50688959 152.73102661 76.71875 154.6015625 C76.84596436 155.72224121 76.97317871 156.84291992 77.10424805 157.99755859 C80.4995169 189.11841277 80.38435033 219.66774102 78.41722107 250.87507629 C78.0592889 256.68263301 77.79824802 262.49102797 77.5625 268.3046875 C77.45243945 270.84063464 77.34075929 273.37650484 77.22845459 275.91235352 C77.16011096 277.53921419 77.09802122 279.16635102 77.0425415 280.79370117 C76.96444746 283.05883981 76.86347226 285.32194097 76.7578125 287.5859375 C76.68264404 289.52025635 76.68264404 289.52025635 76.60595703 291.49365234 C75.77475653 296.30336291 73.81410571 299.65361952 69.87890625 302.57421875 C59.07687725 307.7657504 45.45257056 311.79964669 33.546875 308.2734375 C28.60861129 306.02378403 25.44733016 302.89466033 23 298 C22.7916076 296.40594287 22.63247779 294.80527829 22.5 293.203125 C22.4175 292.2440625 22.335 291.285 22.25 290.296875 C22.1675 289.29140625 22.085 288.2859375 22 287.25 C21.51688404 281.45260846 21.01985435 275.73228479 20 270 C19.49466965 264.71346707 19.51590549 260.25833773 23 256 C25.90244067 254.7706788 28.81501451 253.88284777 31.84375 253.01171875 C35.65808321 251.78905501 38.84942511 250.02562429 42.2578125 247.953125 C44 247 44 247 46 247 C45.67 246.34 45.34 245.68 45 245 C40.93751587 244.97043316 36.87506018 244.95301441 32.8125 244.9375 C31.68134766 244.92912109 30.55019531 244.92074219 29.38476562 244.91210938 C23.81721509 244.89624741 18.32187398 245.00357834 12.7734375 245.48046875 C7.55706308 245.92824148 2.37622123 246.12282084 -2.85546875 246.2109375 C-3.61721909 246.22522293 -4.37896942 246.23950836 -5.1638031 246.25422668 C-8.31235735 246.3120433 -11.46070991 246.36708816 -14.60961914 246.40136719 C-16.94200924 246.42879872 -19.2734433 246.47455179 -21.60546875 246.5234375 C-22.31994675 246.52669037 -23.03442474 246.52994324 -23.77055359 246.53329468 C-25.97956529 246.55465323 -25.97956529 246.55465323 -29 247 C-31.41343205 250.62014808 -31.38831252 253.44362536 -31.52734375 257.640625 C-31.59823568 259.20312825 -31.6692018 260.76562814 -31.74023438 262.328125 C-31.84001243 264.76940992 -31.93600584 267.21079325 -32.02905273 269.65234375 C-32.45368075 280.39929275 -33.5089069 290.51837405 -36 301 C-36.28447998 302.29756226 -36.28447998 302.29756226 -36.57470703 303.62133789 C-37.1875 305.8125 -37.1875 305.8125 -39 309 C-42.00231028 310.21145853 -43.87771402 310.68617569 -47 311 C-48.15048828 311.16048828 -48.15048828 311.16048828 -49.32421875 311.32421875 C-54.00025494 311.90401712 -58.61827685 312.04289968 -63.328125 312.0234375 C-64.92769043 312.01836182 -64.92769043 312.01836182 -66.55957031 312.01318359 C-67.36491211 312.00883301 -68.17025391 312.00448242 -69 312 C-69.14861989 306.82231153 -69.25734045 301.64587099 -69.32958984 296.46655273 C-69.35971388 294.70591601 -69.40062296 292.94542878 -69.45263672 291.18530273 C-69.52565267 288.65050374 -69.55949741 286.11769201 -69.5859375 283.58203125 C-69.61690521 282.79850784 -69.64787292 282.01498444 -69.67977905 281.2077179 C-69.68308253 275.8106785 -69.68308253 275.8106785 -67.6809082 273.43450928 C-66.18752939 272.20364991 -64.59586215 271.09472329 -63 270 C-56.34333184 260.85515976 -55.07538181 251.07201027 -56 240 C-58.1853204 228.45836772 -63.67104997 218.95310643 -72.76171875 211.46875 C-77.97651809 208.04682234 -83.95510313 206.13515156 -90.125 205.375 C-91.548125 205.189375 -91.548125 205.189375 -93 205 C-94.55824795 201.8835041 -94.48815193 198.50806366 -94.75390625 195.078125 C-94.81930603 194.25107056 -94.88470581 193.42401611 -94.9520874 192.57189941 C-95.16490745 189.79853424 -95.3660009 187.02456849 -95.5625 184.25 C-95.63036713 183.29226685 -95.69823425 182.33453369 -95.76815796 181.34777832 C-96.92488888 164.48149193 -97.30523633 147.65329923 -97.3125 130.75 C-97.31581329 129.63870728 -97.31912659 128.52741455 -97.32254028 127.38244629 C-97.3946985 86.53711716 -94.71367045 36.13366097 -66 4 C-49.69324868 -11.87762629 -19.41597138 -5.97719806 0 0 Z " fill="#724A22" transform="translate(313,213)"/>
<path d="M0 0 C0.33 0 0.66 0 1 0 C1.08975098 1.17054932 1.17950195 2.34109863 1.27197266 3.54711914 C3.15691554 27.72673548 5.57552039 51.32781443 11 75 C11.19625977 75.8751123 11.39251953 76.75022461 11.59472656 77.65185547 C12.61096461 82.13824214 13.73660687 86.5754129 15 91 C15.26941406 91.94875 15.53882813 92.8975 15.81640625 93.875 C20.93845895 110.41256926 28.22346359 128.30311344 38.76171875 142.13671875 C40.39989184 144.60172999 41.6017557 147.20421051 42.875 149.875 C45.29092353 154.88300815 48.09409179 159.02029029 51.6796875 163.2578125 C53 165 53 165 53 167 C62.84820429 167.23232985 72.47000083 166.8950579 82.26635742 165.84985352 C87.691109 165.28332149 93.10550625 164.84877808 98.55078125 164.52734375 C100.52268433 164.41011963 100.52268433 164.41011963 102.53442383 164.29052734 C105.10797882 164.14254357 107.6820408 164.00304074 110.2565918 163.87353516 C125.74518347 163.21095661 125.74518347 163.21095661 138.875 156 C151.06815561 142.18257366 161.85334103 121.72876323 163 103 C163.33 103 163.66 103 164 103 C168.02188022 137.22949235 168.58380913 170.50344583 166.41722107 204.87507629 C166.0592889 210.68263301 165.79824802 216.49102797 165.5625 222.3046875 C165.45243945 224.84063464 165.34075929 227.37650484 165.22845459 229.91235352 C165.16011096 231.53921419 165.09802122 233.16635102 165.0425415 234.79370117 C164.96444746 237.05883981 164.86347226 239.32194097 164.7578125 241.5859375 C164.68264404 243.52025635 164.68264404 243.52025635 164.60595703 245.49365234 C163.77475653 250.30336291 161.81410571 253.65361952 157.87890625 256.57421875 C147.07687725 261.7657504 133.45257056 265.79964669 121.546875 262.2734375 C116.60861129 260.02378403 113.44733016 256.89466033 111 252 C110.7916076 250.40594287 110.63247779 248.80527829 110.5 247.203125 C110.4175 246.2440625 110.335 245.285 110.25 244.296875 C110.1675 243.29140625 110.085 242.2859375 110 241.25 C109.51688404 235.45260846 109.01985435 229.73228479 108 224 C107.49466965 218.71346707 107.51590549 214.25833773 111 210 C113.90244067 208.7706788 116.81501451 207.88284777 119.84375 207.01171875 C123.65808321 205.78905501 126.84942511 204.02562429 130.2578125 201.953125 C132 201 132 201 134 201 C133.67 200.34 133.34 199.68 133 199 C128.93751587 198.97043316 124.87506018 198.95301441 120.8125 198.9375 C119.68134766 198.92912109 118.55019531 198.92074219 117.38476562 198.91210938 C111.81721509 198.89624741 106.32187398 199.00357834 100.7734375 199.48046875 C95.55706308 199.92824148 90.37622123 200.12282084 85.14453125 200.2109375 C84.38278091 200.22522293 83.62103058 200.23950836 82.8361969 200.25422668 C79.68764265 200.3120433 76.53929009 200.36708816 73.39038086 200.40136719 C71.05799076 200.42879872 68.7265567 200.47455179 66.39453125 200.5234375 C65.68005325 200.52669037 64.96557526 200.52994324 64.22944641 200.53329468 C62.02043471 200.55465323 62.02043471 200.55465323 59 201 C56.58656795 204.62014808 56.61168748 207.44362536 56.47265625 211.640625 C56.40176432 213.20312825 56.3307982 214.76562814 56.25976562 216.328125 C56.15998757 218.76940992 56.06399416 221.21079325 55.97094727 223.65234375 C55.54631925 234.39929275 54.4910931 244.51837405 52 255 C51.71552002 256.29756226 51.71552002 256.29756226 51.42529297 257.62133789 C50.8125 259.8125 50.8125 259.8125 49 263 C45.99768972 264.21145853 44.12228598 264.68617569 41 265 C39.84951172 265.16048828 39.84951172 265.16048828 38.67578125 265.32421875 C33.99974506 265.90401712 29.38172315 266.04289968 24.671875 266.0234375 C23.07230957 266.01836182 23.07230957 266.01836182 21.44042969 266.01318359 C20.63508789 266.00883301 19.82974609 266.00448242 19 266 C18.85138011 260.82231153 18.74265955 255.64587099 18.67041016 250.46655273 C18.64028612 248.70591601 18.59937704 246.94542878 18.54736328 245.18530273 C18.47434733 242.65050374 18.44050259 240.11769201 18.4140625 237.58203125 C18.38309479 236.79850784 18.35212708 236.01498444 18.32022095 235.2077179 C18.31691747 229.8106785 18.31691747 229.8106785 20.3190918 227.43450928 C21.81247061 226.20364991 23.40413785 225.09472329 25 224 C31.65666816 214.85515976 32.92461819 205.07201027 32 194 C29.8146796 182.45836772 24.32895003 172.95310643 15.23828125 165.46875 C10.02348191 162.04682234 4.04489687 160.13515156 -2.125 159.375 C-3.548125 159.189375 -3.548125 159.189375 -5 159 C-6.55824795 155.8835041 -6.48815193 152.50806366 -6.75390625 149.078125 C-6.81930603 148.25107056 -6.88470581 147.42401611 -6.9520874 146.57189941 C-7.16490745 143.79853424 -7.3660009 141.02456849 -7.5625 138.25 C-7.63036713 137.29226685 -7.69823425 136.33453369 -7.76815796 135.34777832 C-8.92488888 118.48149193 -9.30523633 101.65329923 -9.3125 84.75 C-9.31581329 83.63870728 -9.31912659 82.52741455 -9.32254028 81.38244629 C-9.37150532 53.66567233 -6.70421018 26.91841965 0 0 Z " fill="#5D291A" transform="translate(225,259)"/>
<path d="M0 0 C5.28 0 10.56 0 16 0 C16.12117187 1.78664063 16.24234375 3.57328125 16.3671875 5.4140625 C16.86659996 12.61308297 17.41847988 19.80717551 18 27 C18.06413086 27.82757813 18.12826172 28.65515625 18.19433594 29.5078125 C18.85625846 37.49575891 20.23343459 44.09547848 26 50 C37.53105964 56.61899021 57.89200476 58.2064842 70.625 55 C71.73875 54.67 72.8525 54.34 74 54 C75.32 54 76.64 54 78 54 C78 53.34 78 52.68 78 52 C80.08201528 51.49453964 82.16567067 50.99583165 84.25 50.5 C85.41015625 50.2215625 86.5703125 49.943125 87.765625 49.65625 C91 49 91 49 95 49 C95.66 46.69 96.32 44.38 97 42 C97.66257812 42.42667969 98.32515625 42.85335937 99.0078125 43.29296875 C101.88139451 44.93233603 104.72266865 46.19499199 107.77490234 47.44726562 C123.0158772 53.72650474 123.0158772 53.72650474 126.625 61.5 C127.10610439 65.99030764 126.72131704 67.37157728 124 71 C89.28990236 101.80006687 15.59904746 96.40564056 -28 94 C-31.88715132 93.76105333 -35.77231867 93.49804821 -39.65722656 93.22509766 C-51.51573178 92.42656261 -61.93165562 93.89487022 -73.4621582 96.51928711 C-79.9874703 97.75529861 -86.35363141 98.16607298 -92.9765625 98.203125 C-93.81621552 98.21013931 -94.65586853 98.21715363 -95.52096558 98.22438049 C-98.22236531 98.24181883 -100.92354602 98.24823423 -103.625 98.25 C-104.54595459 98.25067474 -105.46690918 98.25134949 -106.41577148 98.25204468 C-129.16242296 98.22552707 -158.34280633 98.09454849 -176.77734375 82.49609375 C-179.01408286 80.12304367 -179.96295899 78.19755207 -180.5625 75 C-179.72506519 70.533681 -177.99845229 67.50253255 -174.31567383 64.73364258 C-169.4506227 61.65905886 -164.66052484 59.50670058 -159.1875 57.75 C-158.01598389 57.36497314 -158.01598389 57.36497314 -156.82080078 56.97216797 C-150.85629368 55.09077934 -145.27309131 54.17923118 -139 54 C-139 51.03 -139 48.06 -139 45 C-138.67 45 -138.34 45 -138 45 C-137.97494385 45.7520874 -137.9498877 46.5041748 -137.92407227 47.27905273 C-137.80849486 50.66539196 -137.68559655 54.05142613 -137.5625 57.4375 C-137.52318359 58.62150391 -137.48386719 59.80550781 -137.44335938 61.02539062 C-137.40146484 62.15009766 -137.35957031 63.27480469 -137.31640625 64.43359375 C-137.26141968 65.99678345 -137.26141968 65.99678345 -137.20532227 67.59155273 C-137.26484659 69.9499826 -137.26484659 69.9499826 -136 71 C-125.99405807 71.93327593 -117.78550831 70.39584183 -109.125 65.3125 C-103.82199529 59.54158311 -101.15997668 52.42821247 -99 45 C-97.35 44.67 -95.7 44.34 -94 44 C-93.87882812 45.00160156 -93.75765625 46.00320313 -93.6328125 47.03515625 C-93.46382849 48.3776403 -93.29454142 49.72008623 -93.125 51.0625 C-93.04636719 51.71927734 -92.96773438 52.37605469 -92.88671875 53.05273438 C-92.2121967 60.57915767 -92.2121967 60.57915767 -89 67 C-86.75365446 67.15289263 -84.50136826 67.22197467 -82.25 67.25 C-81.01765625 67.27578125 -79.7853125 67.3015625 -78.515625 67.328125 C-74.72604938 66.97443128 -72.96503725 66.33862093 -70 64 C-68.48641325 61.94870827 -68.48641325 61.94870827 -67.25 59.75 C-64.64265947 56.14085687 -64.64265947 56.14085687 -62.00390625 55.5625 C-57.54917774 55.94365324 -53.6888471 57.48145497 -49.5625 59.125 C-42.02593123 62.01963186 -35.70999426 61.03609516 -28.328125 57.9453125 C-25.26335218 56.70089132 -22.13314222 55.68493535 -19 54.625 C-9.78904924 51.5916307 -9.78904924 51.5916307 -2.8671875 45.20703125 C-1.83183192 42.57200466 -1.34022972 40.0413783 -0.875 37.25 C-0.58625 35.5175 -0.2975 33.785 0 32 C5.61 32.33 11.22 32.66 17 33 C16.67 31.4325 16.34 29.865 16 28.25 C14.45940128 19.22339342 14.83767462 10.1262934 15 1 C12.87465341 1.14069196 10.74972471 1.28770921 8.625 1.4375 C6.84996094 1.55931641 6.84996094 1.55931641 5.0390625 1.68359375 C2.08481099 1.81084936 2.08481099 1.81084936 0 3 C0 2.01 0 1.02 0 0 Z " fill="#363D3B" transform="translate(304,480)"/>
<path d="M0 0 C1.92863871 -0.00921886 3.85726111 -0.02323393 5.78582764 -0.04229736 C35.68132984 -0.30400665 35.68132984 -0.30400665 45.77316284 9.22824097 C50.73019409 14.63051454 50.73019409 14.63051454 50.73019409 18.29855347 C51.39019409 18.29855347 52.05019409 18.29855347 52.73019409 18.29855347 C54.73019409 21.29855347 54.73019409 21.29855347 54.73019409 25.29855347 C55.39019409 25.29855347 56.05019409 25.29855347 56.73019409 25.29855347 C57.22519409 29.75355347 57.22519409 29.75355347 57.73019409 34.29855347 C58.39019409 34.29855347 59.05019409 34.29855347 59.73019409 34.29855347 C60.12342981 43.16820358 60.25842966 49.24108256 54.23019409 56.17355347 C51.73019409 58.29855347 51.73019409 58.29855347 48.73019409 59.29855347 C48.73019409 59.95855347 48.73019409 60.61855347 48.73019409 61.29855347 C46.94713245 62.27280364 45.15312952 63.2270333 43.35519409 64.17355347 C41.85859253 64.97406128 41.85859253 64.97406128 40.33175659 65.79074097 C30.58964769 69.86932452 20.49115329 69.65867282 10.10519409 69.61105347 C9.32738586 69.60989532 8.54957764 69.60873718 7.74819946 69.60754395 C-3.92921527 69.57344822 -15.51627903 69.04874769 -27.14480591 67.98605347 C-27.82166443 67.92729034 -28.49852295 67.86852722 -29.19589233 67.8079834 C-43.83506998 66.50042594 -43.83506998 66.50042594 -49.57449341 61.15011597 C-51.84376564 57.33313733 -52.09018748 54.04323658 -52.39480591 49.67355347 C-52.53735106 48.04175247 -52.68316842 46.41023392 -52.83230591 44.77902222 C-52.90191528 43.99833374 -52.97152466 43.21764526 -53.04324341 42.41329956 C-53.31386326 39.88731991 -53.82124635 37.45952905 -54.39480591 34.98605347 C-55.48797483 29.48577836 -55.45256037 24.01047064 -55.45730591 18.42355347 C-55.45811157 17.5066272 -55.45891724 16.58970093 -55.45974731 15.64498901 C-55.4246738 11.41317513 -55.34785787 7.42102415 -54.26980591 3.29855347 C-38.30756007 -2.02219515 -16.69026665 0.07730098 0 0 Z " fill="#576F77" transform="translate(343.2698059082031,258.7014465332031)"/>
<path d="M0 0 C1.92735697 -0.00855634 3.85469885 -0.02214402 5.78198242 -0.04101562 C35.6782579 -0.30304746 35.6782579 -0.30304746 45.7701416 9.22924805 C50.72717285 14.63152162 50.72717285 14.63152162 50.72717285 18.29956055 C51.38717285 18.29956055 52.04717285 18.29956055 52.72717285 18.29956055 C55.78005121 24.64954753 55.78005121 24.64954753 55.56530762 27.28930664 C54.72717285 29.29956055 54.72717285 29.29956055 52.62316895 30.47290039 C45.92916948 32.69630274 39.25879846 34.49430565 32.35217285 35.92456055 C31.41373535 36.12823242 30.47529785 36.3319043 29.50842285 36.54174805 C17.15271675 39.16775643 5.25115991 40.66174496 -7.39782715 40.67456055 C-8.67786621 40.69905273 -9.95790527 40.72354492 -11.2767334 40.7487793 C-21.88260441 40.78134594 -31.22529113 38.86876999 -39.6282959 32.05737305 C-42.56447345 28.91894099 -43.80969022 25.27746408 -45.27282715 21.29956055 C-46.01400335 19.67051701 -46.76381386 18.04537017 -47.52282715 16.42456055 C-48.80446954 13.67395879 -49.27282715 12.39919424 -49.27282715 9.29956055 C-49.93282715 9.29956055 -50.59282715 9.29956055 -51.27282715 9.29956055 C-51.27282715 6.98956055 -51.27282715 4.67956055 -51.27282715 2.29956055 C-34.18682828 0.83882031 -17.1482762 0.07258078 0 0 Z " fill="#94C1D3" transform="translate(343.2728271484375,258.700439453125)"/>
<path d="M0 0 C0 0.66 0 1.32 0 2 C-0.70125 2.66 -1.4025 3.32 -2.125 4 C-9.71078852 11.32718209 -14.05509183 21.50049611 -14.375 31.9375 C-14.11294784 41.28799759 -11.69839189 49.3285073 -4.953125 56.03515625 C4.28220298 64.57318598 13.11584767 67.38720518 25.5 67.125 C26.32242188 67.11597656 27.14484375 67.10695313 27.9921875 67.09765625 C29.99492083 67.07436865 31.99750154 67.03850959 34 67 C34.46549228 82.10263838 33.88646967 98.6264875 25.76953125 111.8203125 C22.75142184 113.83238544 19.54852521 113.16673356 16 113 C15.94202435 109.06256167 15.90641211 105.12523281 15.875 101.1875 C15.85824219 100.06794922 15.84148437 98.94839844 15.82421875 97.79492188 C15.81455078 96.18520508 15.81455078 96.18520508 15.8046875 94.54296875 C15.78897705 93.0583313 15.78897705 93.0583313 15.77294922 91.54370117 C16 89 16 89 18 86 C14.00204108 85.04380267 10.29196078 84.8960408 6.1875 84.9375 C4.44533203 84.95103516 4.44533203 84.95103516 2.66796875 84.96484375 C1.78753906 84.97644531 0.90710938 84.98804688 0 85 C-0.226875 85.886875 -0.45375 86.77375 -0.6875 87.6875 C-6.81497024 108.87473866 -6.81497024 108.87473866 -15.25 114.375 C-18.094276 115.79961057 -20.57479229 116.30643664 -23.734375 116.6015625 C-24.53584961 116.67971191 -25.33732422 116.75786133 -26.16308594 116.83837891 C-26.76926758 116.89171387 -27.37544922 116.94504883 -28 117 C-28.40295573 104.00146268 -28.73321095 91.00205132 -29 78 C-29.01887268 77.10214783 -29.03774536 76.20429565 -29.05718994 75.27923584 C-29.16368625 70.05425343 -29.24281738 64.82992377 -29.28710938 59.60403442 C-29.30375816 57.97851635 -29.32743719 56.35305177 -29.35888672 54.72775269 C-29.66780893 38.08435178 -27.44438045 20.60934422 -17 7 C-12.18633156 2.32004457 -6.6681661 0 0 0 Z " fill="#5D2A1D" transform="translate(202,426)"/>
<path d="M0 0 C0.78375 0.00451172 1.5675 0.00902344 2.375 0.01367188 C4.29170014 0.02535907 6.20836048 0.04329092 8.125 0.0625 C8.29807937 10.16656472 8.46441538 20.27072973 8.625 30.375 C8.64281588 31.49563465 8.64281588 31.49563465 8.66099167 32.63890839 C9.06379143 58.11495124 9.26443185 83.58293889 9.125 109.0625 C8.38386963 109.31427002 7.64273926 109.56604004 6.87915039 109.82543945 C5.89938232 110.16792725 4.91961426 110.51041504 3.91015625 110.86328125 C2.94215088 111.19755127 1.97414551 111.53182129 0.97680664 111.8762207 C-2.58799533 113.35908799 -5.34980163 115.35677577 -8.31640625 117.79296875 C-9.875 119.0625 -9.875 119.0625 -11.875 120.0625 C-15.82173012 97.51351527 -17.19465942 75.31260564 -17.08081055 52.42602539 C-17.06240324 48.60491304 -17.06030288 44.78404305 -17.06054688 40.96289062 C-17.01306952 7.47670857 -17.01306952 7.47670857 -14.875 1.0625 C-9.85891475 0.0448597 -5.08891694 -0.05606434 0 0 Z " fill="#5D291A" transform="translate(188.875,307.9375)"/>
<path d="M0 0 C3.4998749 1.3765836 5.56851683 3.16832259 8 6 C8.82177734 6.88751953 8.82177734 6.88751953 9.66015625 7.79296875 C16.05281958 15.41076166 18.76657095 24.327741 18.3828125 34.203125 C17.60070484 39.91729934 15.3557267 44.04770488 11.0625 47.875 C4.07622348 52.72262044 -2.67664395 52.98024803 -11 52 C-19.11710954 49.44165261 -24.81705314 45.4330063 -29 38 C-29.36738281 37.401875 -29.73476562 36.80375 -30.11328125 36.1875 C-32.70091156 29.80391862 -32.13031523 21.39770663 -29.609375 15.04296875 C-23.19754823 1.08644562 -14.66378386 -1.95493117 0 0 Z " fill="#8EBECE" transform="translate(229,430)"/>
<path d="M0 0 C0 0.66 0 1.32 0 2 C-0.70125 2.66 -1.4025 3.32 -2.125 4 C-9.71078852 11.32718209 -14.05509183 21.50049611 -14.375 31.9375 C-14.11294784 41.28799759 -11.69839189 49.3285073 -4.953125 56.03515625 C4.28220298 64.57318598 13.11584767 67.38720518 25.5 67.125 C26.32242188 67.11597656 27.14484375 67.10695313 27.9921875 67.09765625 C29.99492083 67.07436865 31.99750154 67.03850959 34 67 C34 68.98 34 70.96 34 73 C12.50304712 73.79268299 -3.00897604 70.17179137 -19.796875 55.875 C-21.89847289 54.01474515 -21.89847289 54.01474515 -23.953125 52.6875 C-27.02911407 50.38769509 -27.87722053 48.71337558 -28.53515625 44.890625 C-29.07314551 31.81334752 -25.82793333 17.03174242 -17 7 C-12.28515206 2.28515206 -6.61345476 0 0 0 Z " fill="#6F4924" transform="translate(202,426)"/>
<path d="M0 0 C1.1748999 -0.0112793 2.3497998 -0.02255859 3.56030273 -0.03417969 C5.42344116 -0.01919434 5.42344116 -0.01919434 7.32421875 -0.00390625 C8.5862915 0.0022168 9.84836426 0.00833984 11.14868164 0.01464844 C21.93405863 0.19515684 33.83016991 0.44472631 42.01171875 8.43359375 C42.70231261 13.26775079 42.76424148 15.25464148 40.13671875 19.37109375 C36.91884745 22.49432178 34.87318471 22.64488594 30.43359375 22.59765625 C27.85345432 22.42287261 25.42538093 21.9876844 22.88671875 21.49609375 C15.85357679 20.18697233 8.80288216 20.0866334 1.66552734 20.03930664 C-2.65453987 19.93554293 -5.30750654 19.83399903 -9.08984375 17.609375 C-11.72577656 14.58835735 -11.91871413 12.39891985 -11.98828125 8.43359375 C-10.33213408 1.80900509 -6.51869636 0.06014199 0 0 Z " fill="#F7F7F8" transform="translate(336.98828125,261.56640625)"/>
<path d="M0 0 C-0.0707373 0.65556885 -0.14147461 1.3111377 -0.21435547 1.98657227 C-0.91745071 8.98972218 -1.15609415 15.90189271 -1.125 22.9375 C-1.12209961 24.54709595 -1.12209961 24.54709595 -1.11914062 26.18920898 C-1.06615469 36.14541358 -0.62164532 46.06477562 0 56 C-6.83692433 53.73666141 -9.7947712 48.73986171 -13.3359375 42.734375 C-16.25859268 36.30867922 -16.43909948 29.76138389 -16.5625 22.8125 C-16.58948975 21.8738208 -16.61647949 20.9351416 -16.64428711 19.96801758 C-16.60826709 13.50213752 -15.33054343 8.91573191 -11 4 C-7.4248198 1.16813922 -4.65381506 0 0 0 Z " fill="#5B291C" transform="translate(164,459)"/>
<path d="M0 0 C3.774375 0.0309375 3.774375 0.0309375 7.625 0.0625 C7.625 6.9925 7.625 13.9225 7.625 21.0625 C5.129375 21.5575 2.63375 22.0525 0.0625 22.5625 C-0.70908447 22.71912109 -1.48066895 22.87574219 -2.27563477 23.03710938 C-6.72515218 23.89446509 -10.84452602 24.2053796 -15.375 24.0625 C-15.40402429 20.79168529 -15.42180684 17.5209037 -15.4375 14.25 C-15.44587891 13.32123047 -15.45425781 12.39246094 -15.46289062 11.43554688 C-15.46611328 10.54287109 -15.46933594 9.65019531 -15.47265625 8.73046875 C-15.47789307 7.90828857 -15.48312988 7.0861084 -15.48852539 6.23901367 C-15.375 4.0625 -15.375 4.0625 -14.375 1.0625 C-9.51803391 0.08957462 -4.92346633 -0.05741504 0 0 Z " fill="#704922" transform="translate(188.375,307.9375)"/>
<path d="M0 0 C16.82777001 -1.03261316 16.82777001 -1.03261316 21.6875 2.5 C23.41796875 4.15234375 23.41796875 4.15234375 25 6 C25.59425781 6.66128906 26.18851563 7.32257813 26.80078125 8.00390625 C29.9483081 11.81711694 31.35139264 13.93116117 31 19 C24.2952198 21.00166982 15.92894853 21.33182556 9.5 18.375 C5.80376618 16.12443903 3.28054839 13.73180645 1 10 C0.3307848 6.66391227 0.07387525 3.39826169 0 0 Z " fill="#EEEDEF" transform="translate(212,430)"/>
<path d="M0 0 C0.46148437 0.37511719 0.92296875 0.75023437 1.3984375 1.13671875 C14.05372703 11.06586883 25.65334602 14.17705917 41.61328125 12.76953125 C43.41361334 12.54888664 45.20810904 12.28108093 47 12 C45.60306939 16.88925715 43.06012438 19.05441957 39 22 C32.03728931 25.38630127 23.92610192 25.23742726 16.62890625 22.9375 C8.49355712 19.19991139 3.57899919 14.16662543 0 6 C-0.125 2.75 -0.125 2.75 0 0 Z " fill="#506C75" transform="translate(198,458)"/>
<path d="M0 0 C-0.14037521 1.81293089 -0.28744889 3.6253443 -0.4375 5.4375 C-0.51871094 6.44683594 -0.59992188 7.45617187 -0.68359375 8.49609375 C-1 11 -1 11 -2 12 C-4.01964199 12.07244053 -6.04167124 12.08377188 -8.0625 12.0625 C-9.16722656 12.05347656 -10.27195313 12.04445313 -11.41015625 12.03515625 C-12.69212891 12.01775391 -12.69212891 12.01775391 -14 12 C-13.73916266 8.17438563 -13.48580286 6.47267306 -10.6875 3.75 C-6.65917049 1.12690171 -4.91238839 0 0 0 Z " fill="#6C4723" transform="translate(164,459)"/>
<path d="M0 0 C0.66 0.33 1.32 0.66 2 1 C0.90344712 2.31886772 -0.20253423 3.62990057 -1.3125 4.9375 C-1.92738281 5.66839844 -2.54226562 6.39929688 -3.17578125 7.15234375 C-5 9 -5 9 -8 10 C-6.44303593 6.17836093 -3.96591316 3.81381505 -1 1 C-0.67 0.67 -0.34 0.34 0 0 Z " fill="#163109" transform="translate(168,295)"/>
<path d="M0 0 C0.66 0.33 1.32 0.66 2 1 C0.90344712 2.31886772 -0.20253423 3.62990057 -1.3125 4.9375 C-1.92738281 5.66839844 -2.54226562 6.39929688 -3.17578125 7.15234375 C-5 9 -5 9 -8 10 C-6.34908222 5.70761377 -3.26245434 3.1206085 0 0 Z " fill="#19380A" transform="translate(240,202)"/>
</svg>
