<?xml version="1.0" encoding="UTF-8"?>
<svg version="1.1" xmlns="http://www.w3.org/2000/svg" width="600" height="600">
<path d="M0 0 C4.18722433 3.78844106 6.82438175 6.93567083 7.125 12.6875 C6.91585756 17.81148976 4.93354851 21.88131596 2.625 26.375 C3.23520996 26.42180908 3.84541992 26.46861816 4.47412109 26.5168457 C10.5626164 27.045697 16.33371077 28.04622947 22.25 29.5625 C23.10883789 29.78099609 23.96767578 29.99949219 24.85253906 30.22460938 C41.13794111 34.50231394 54.28486382 38.72827816 63.625 53.375 C65.89514174 57.35570611 67.99212048 61.41244062 70.0625 65.5 C70.62525635 66.60093994 71.1880127 67.70187988 71.76782227 68.83618164 C72.8846675 71.02386456 73.99861374 73.21303036 75.109375 75.40380859 C76.39480465 77.92373108 77.7031736 80.4281962 79.03125 82.92578125 C89.94407867 103.62182502 95.49998354 127.14982007 97.625 150.375 C98.34985596 150.30498779 99.07471191 150.23497559 99.8215332 150.1628418 C127.18271241 147.67905548 157.78431859 147.63681591 181.625 163.375 C186.46383047 169.42612847 185.84984318 177.47676434 185.9375 184.875 C185.96650391 185.69097656 185.99550781 186.50695312 186.02539062 187.34765625 C186.08637226 193.19251112 185.18260988 196.67192459 181.625 201.375 C178.21247089 203.0901521 175.38927727 203.63212369 171.59448242 203.67797852 C170.61964401 203.69462051 169.6448056 203.71126251 168.64042664 203.72840881 C167.07624748 203.74103004 167.07624748 203.74103004 165.48046875 203.75390625 C164.39671463 203.77090073 163.31296051 203.7878952 162.19636536 203.80540466 C158.73513608 203.85845801 155.27391675 203.89876447 151.8125 203.9375 C148.36185839 203.98159381 144.91130409 204.02848768 141.46076965 204.08030701 C139.31605095 204.11196143 137.17125654 204.13894187 135.02641296 204.16053772 C129.47602237 204.23660625 124.11759388 204.56311536 118.625 205.375 C119.38683594 206.19291016 119.38683594 206.19291016 120.1640625 207.02734375 C124.88637902 212.20066803 128.82554628 217.50788777 132.625 223.375 C135.81796514 228.16444771 139.19344018 231.98242951 143.5625 235.75 C153.33494271 244.3615059 158.68081378 254.04994434 160.00390625 267.1171875 C160.38511712 279.14377551 157.33401572 288.41417893 150.796875 298.4140625 C149.45400461 300.28039591 149.45400461 300.28039591 149.625 302.375 C155.21052226 299.78272056 155.21052226 299.78272056 160.125 296.125 C163.58808221 293.70084245 166.59267779 293.76591118 170.625 294.375 C177.91380494 296.42098033 182.29365181 301.34812586 186 307.75 C187.82009195 315.39438618 187.79795322 321.29047043 185.4140625 328.83203125 C184.55453474 331.3626086 184.55453474 331.3626086 184.25 334.03125 C183.46531178 336.97383082 182.59597763 337.55402651 180 339.0625 C174.66619524 342.09675745 169.75905952 343.4899483 163.625 343.375 C163.769375 344.06980469 163.91375 344.76460938 164.0625 345.48046875 C171.38781842 385.61710923 160.36254195 429.63060076 148.69140625 467.87695312 C147.13242247 472.99076255 145.61851318 478.11674677 144.125 483.25 C143.76051758 484.46067139 143.76051758 484.46067139 143.38867188 485.69580078 C141.86261806 490.92687301 141.10007969 495.9439754 140.625 501.375 C141.44871094 501.46394531 142.27242188 501.55289062 143.12109375 501.64453125 C147.368516 502.53000278 150.82866152 504.12767622 154.6875 506.0625 C155.38166016 506.38927734 156.07582031 506.71605469 156.79101562 507.05273438 C162.29524775 509.78655527 166.27111546 512.99028864 168.625 518.875 C168.625 523.1126475 167.10475872 525.8476351 164.16796875 528.87890625 C125.18964993 561.40329864 43.65410234 553.36593533 -3.53460693 549.18359375 C-65.21579365 543.2428049 -65.21579365 543.2428049 -80.08984375 526.4375 C-82.10000166 523.21147149 -81.99367346 520.00697712 -81.375 516.375 C-76.3841055 506.84692868 -62.907622 503.47928324 -53.375 500.375 C-54.02259991 492.76783129 -55.12610908 485.27954526 -56.375 477.75 C-57.49182912 470.96809564 -58.58141981 464.20309621 -59.375 457.375 C-60.31859375 457.40980469 -61.2621875 457.44460938 -62.234375 457.48046875 C-75.04677802 457.75060978 -86.33208652 456.47654578 -96.27734375 447.6953125 C-113.44422296 430.20179076 -109.53070778 392.67950644 -109.578125 369.89453125 C-109.58236607 368.49107736 -109.58236607 368.49107736 -109.58669281 367.05927086 C-109.60152407 362.12064728 -109.61085804 357.18205177 -109.61523438 352.2434082 C-109.62073865 347.19404766 -109.6448544 342.14495401 -109.67320633 337.09567738 C-109.69195727 333.16020472 -109.69704459 329.22479537 -109.69857025 325.28928185 C-109.70156216 323.42884529 -109.70947056 321.56840888 -109.72275543 319.70801735 C-109.94516861 286.21272171 -109.94516861 286.21272171 -98.55859375 274.5078125 C-90.0611184 267.60683252 -79.74454729 264.79323052 -68.90234375 265.546875 C-67.05258696 265.76871532 -65.2117184 266.06310442 -63.375 266.375 C-63.32601562 265.68535156 -63.27703125 264.99570312 -63.2265625 264.28515625 C-62.73771949 258.14090531 -61.84674401 252.3600923 -60.375 246.375 C-61.05046875 246.50519531 -61.7259375 246.63539063 -62.421875 246.76953125 C-65.12505438 247.18750841 -67.63961955 247.45253834 -70.375 247.375 C-74.98333854 243.94828672 -76.16490721 237.79273571 -77.375 232.375 C-77.75864016 228.44722286 -77.75582773 224.56844191 -77.6875 220.625 C-77.6762207 219.53952881 -77.66494141 218.45405762 -77.65332031 217.33569336 C-77.37006399 200.26204611 -75.58497361 183.92877974 -71.375 167.375 C-71.99503906 166.89933594 -72.61507812 166.42367187 -73.25390625 165.93359375 C-92.96186541 150.35656053 -113.39669555 129.19405135 -116.67041016 103.01245117 C-116.89879873 100.48798613 -117.05448221 97.96869363 -117.1875 95.4375 C-117.25130859 94.59509766 -117.31511719 93.75269531 -117.38085938 92.88476562 C-118.01997382 81.19167176 -112.90337596 72.09410309 -105.59765625 63.21484375 C-99.98475007 57.24593929 -93.18033698 52.85656338 -86.375 48.375 C-87.76855533 44.64081291 -89.53256811 41.33463869 -91.5 37.875 C-94.82107657 31.29780679 -95.36984404 25.63736149 -94.375 18.375 C-92.3517105 12.41162043 -88.66047299 8.70057433 -83.25 5.5625 C-75.75665244 2.7342083 -68.00338687 3.83032383 -60.8515625 7.04296875 C-53.65065259 10.91601335 -47.51357971 16.03413857 -41.375 21.375 C-40.62476563 20.44558594 -39.87453125 19.51617187 -39.1015625 18.55859375 C-29.72312664 7.14913941 -16.2584256 -7.82813085 0 0 Z M43.625 457.375 C42.16401155 460.2969769 42.51365099 462.87393475 42.52734375 466.1328125 C42.5287587 466.79586395 42.53017365 467.45891541 42.53163147 468.14205933 C42.53723246 470.26141863 42.549785 472.38067259 42.5625 474.5 C42.56751488 475.93619639 42.57207781 477.37239444 42.57617188 478.80859375 C42.58635167 482.33080248 42.60592662 485.85278321 42.625 489.375 C47.905 489.375 53.185 489.375 58.625 489.375 C57.965 478.815 57.305 468.255 56.625 457.375 C52.335 457.375 48.045 457.375 43.625 457.375 Z " fill="#0C0E0C" transform="translate(262.375,23.625)"/>
<path d="M0 0 C1.4539304 0.03304387 2.90746075 0.09241162 4.359375 0.17578125 C5.47699219 0.20961914 5.47699219 0.20961914 6.6171875 0.24414062 C8.448784 0.30284564 10.27934153 0.39252368 12.109375 0.48828125 C12.66810947 44.37902276 7.859552 85.35690487 -4.890625 127.48828125 C-5.41415946 129.2265333 -5.9375962 130.96481478 -6.4609375 132.703125 C-7.22869665 135.25289984 -7.99716162 137.80242558 -8.77026367 140.35058594 C-10.71668799 146.79937147 -12.4672327 153.28499757 -14.12890625 159.8125 C-14.890625 162.48828125 -14.890625 162.48828125 -15.890625 163.48828125 C-20.4600351 163.78395116 -25.03577212 163.80288873 -29.61352539 163.83837891 C-31.14656002 163.85469629 -32.67952675 163.88165129 -34.2121582 163.92041016 C-45.85392267 164.21288485 -54.89714506 162.44618374 -65.890625 158.48828125 C-65.890625 151.55828125 -65.890625 144.62828125 -65.890625 137.48828125 C-63.97121094 137.45089844 -62.05179687 137.41351563 -60.07421875 137.375 C-33.82540234 137.25401317 -33.82540234 137.25401317 -9.890625 127.48828125 C-8.86110413 126.17760793 -7.85619913 124.84675259 -6.890625 123.48828125 C-24.76243573 124.75045915 -24.76243573 124.75045915 -42.578125 126.61328125 C-50.3809463 127.56588906 -58.03327963 127.69688334 -65.890625 127.48828125 C-65.91640625 126.2353125 -65.9421875 124.98234375 -65.96875 123.69140625 C-66.02503669 122.04033002 -66.0823839 120.3892897 -66.140625 118.73828125 C-66.15480469 117.91328125 -66.16898437 117.08828125 -66.18359375 116.23828125 C-66.37712933 111.27753081 -66.37712933 111.27753081 -68.6875 106.97265625 C-72.5747454 104.3535902 -76.13838063 104.36709633 -80.75 104.390625 C-81.86503906 104.39384766 -82.98007812 104.39707031 -84.12890625 104.40039062 C-85.86720703 104.41295898 -85.86720703 104.41295898 -87.640625 104.42578125 C-88.81496094 104.43029297 -89.98929687 104.43480469 -91.19921875 104.43945312 C-94.09640572 104.45123031 -96.99348954 104.46767799 -99.890625 104.48828125 C-100.220625 102.83828125 -100.550625 101.18828125 -100.890625 99.48828125 C-101.56609375 99.42769531 -102.2415625 99.36710937 -102.9375 99.3046875 C-104.27554688 99.17900391 -104.27554688 99.17900391 -105.640625 99.05078125 C-106.96320313 98.92896484 -106.96320313 98.92896484 -108.3125 98.8046875 C-110.890625 98.48828125 -110.890625 98.48828125 -112.67822266 98.00463867 C-115.40749147 97.36764865 -118.07370942 97.14340552 -120.8671875 96.91015625 C-135.54115257 95.62241906 -150.12349783 94.03856679 -164.703125 91.92578125 C-165.45321838 91.81995728 -166.20331177 91.7141333 -166.97613525 91.60510254 C-169.10148372 91.3034266 -171.22469783 90.98988617 -173.34765625 90.671875 C-175.1726062 90.40201782 -175.1726062 90.40201782 -177.03442383 90.12670898 C-179.890625 89.48828125 -179.890625 89.48828125 -181.890625 87.48828125 C-182.17164466 84.97819171 -182.33471781 82.56121325 -182.41796875 80.04296875 C-182.48694206 78.48607873 -182.55603886 76.92919418 -182.62524414 75.37231445 C-182.65812531 74.55413239 -182.69100647 73.73595032 -182.72488403 72.89297485 C-183.32717825 58.1350751 -184.45434367 43.59536275 -186.55908203 28.96728516 C-187.11387631 24.81899274 -187.5065282 20.65536918 -187.890625 16.48828125 C-186.22193359 16.70484375 -186.22193359 16.70484375 -184.51953125 16.92578125 C-171.41149091 18.44484892 -158.38382134 18.7119674 -145.203125 18.73828125 C-143.91234543 18.74577393 -143.91234543 18.74577393 -142.5954895 18.75341797 C-131.59103613 18.80572983 -120.84467895 18.24546523 -109.91870117 16.91699219 C-106.54695218 16.53649198 -103.28600891 16.21204877 -99.890625 16.48828125 C-97.83363309 18.43273257 -96.38653716 20.09577404 -94.765625 22.36328125 C-94.06566406 23.30288696 -94.06566406 23.30288696 -93.3515625 24.26147461 C-91.8377457 26.31906768 -90.36136381 28.39971746 -88.890625 30.48828125 C-88.39723633 31.17841309 -87.90384766 31.86854492 -87.39550781 32.57958984 C-76.45834808 47.97936758 -67.71204047 64.30136125 -60.765625 81.86328125 C-60.38704346 82.82000732 -60.00846191 83.7767334 -59.6184082 84.76245117 C-57.73564706 89.70113583 -56.36968055 94.21867023 -55.890625 99.48828125 C-56.45652344 99.64683594 -57.02242187 99.80539062 -57.60546875 99.96875 C-59.8199717 100.67318767 -61.84088752 101.38989872 -63.890625 102.48828125 C-65.12062698 104.9639863 -65.12062698 104.9639863 -64.890625 107.48828125 C-64.560625 108.14828125 -64.230625 108.80828125 -63.890625 109.48828125 C-56.12724377 108.91034065 -48.77069643 107.13301974 -41.25390625 105.21459961 C-39.16057691 104.68086834 -37.06495028 104.15709346 -34.96875 103.63476562 C-23.01646836 100.63301848 -11.25493742 97.31105943 0.109375 92.48828125 C0.109375 90.83828125 0.109375 89.18828125 0.109375 87.48828125 C-7.69551684 87.12483153 -14.82895682 88.19496671 -22.453125 89.80078125 C-23.52498047 90.01412109 -24.59683594 90.22746094 -25.70117188 90.44726562 C-31.33405029 91.60140279 -36.6976552 92.95104522 -42.06616211 95.02416992 C-43.890625 95.48828125 -43.890625 95.48828125 -46.890625 94.48828125 C-33.66272238 53.70982718 -33.66272238 53.70982718 -25.890625 36.48828125 C-25.56143066 35.75818848 -25.23223633 35.0280957 -24.89306641 34.27587891 C-20.1914588 24.02483282 -14.45375769 14.65211108 -7.890625 5.48828125 C-7.3534082 4.60358154 -6.81619141 3.71888184 -6.26269531 2.80737305 C-3.890625 0.48828125 -3.890625 0.48828125 0 0 Z " fill="#9B1E38" transform="translate(402.890625,362.51171875)"/>
<path d="M0 0 C1.01835937 0.37898438 2.03671875 0.75796875 3.0859375 1.1484375 C7.09497214 3.69573297 8.80062252 6.92258505 11 11 C11.65969483 12.19824391 12.31971596 13.39630819 12.97998047 14.59423828 C14.92739636 18.15008007 16.83825411 21.72442655 18.73803711 25.3059082 C19.92387768 27.53687185 21.12088088 29.76159489 22.31835938 31.98632812 C29.38781628 45.22390316 34.88993222 58.4477257 38.75 73 C39.04003906 74.06605469 39.33007812 75.13210937 39.62890625 76.23046875 C40.18293305 78.26695995 40.73284333 80.30457736 41.27783203 82.34350586 C41.87342631 84.53439882 42.50656046 86.70617439 43.1640625 88.87890625 C43.9844471 91.94193098 44.39110831 94.77996221 44.625 97.9375 C44.73714844 99.37416016 44.73714844 99.37416016 44.8515625 100.83984375 C44.92503906 101.90912109 44.92503906 101.90912109 45 103 C44.45182617 103.17450684 43.90365234 103.34901367 43.33886719 103.52880859 C23.94072014 109.83093349 4.43964537 118.29719432 -5.375 137.1875 C-7.14499961 140.79848851 -8.37465486 144.02251403 -9 148 C-9.99 148 -10.98 148 -12 148 C-17.06212904 133.8260387 -19.75813473 119.37618387 -22.16162109 104.55566406 C-25.47841036 84.38149156 -31.04742431 69.85180794 -45.62060547 55.37353516 C-46.82037813 54.17885888 -47.99284601 52.9568833 -49.16015625 51.73046875 C-55.74462966 44.87558576 -63.22316684 39.08231258 -70.79711914 33.36743164 C-82.4254601 24.56007532 -92.56158232 15.75425657 -100 3 C-100 2.34 -100 1.68 -100 1 C-66.07612443 -11.75432531 -33.98413258 -13.61121589 0 0 Z " fill="#9A874D" transform="translate(302,75)"/>
<path d="M0 0 C1.7265625 2.4921875 1.7265625 2.4921875 3.625 5.875 C10.89345025 18.28784897 21.26477004 27.86442387 32.8125 36.3125 C39.10905078 40.95418808 44.7858822 46.0834155 50.42285156 51.49023438 C51.95630695 52.95817371 53.50481363 54.40881344 55.0546875 55.859375 C67.43610112 67.73747912 72.7275854 80.39664145 75.5625 97.125 C75.77519531 98.31625488 75.98789062 99.50750977 76.20703125 100.73486328 C77.1049645 105.77136542 77.97143082 110.8124474 78.80859375 115.859375 C80.09822687 123.44686473 81.99089329 130.32372256 85.01171875 137.42578125 C86 140 86 140 86 143 C84.90667358 143.2333606 84.90667358 143.2333606 83.79125977 143.47143555 C48.15395358 151.04435864 48.15395358 151.04435864 15.36621094 166.65771484 C13 168 13 168 10 168 C9.39420639 118.83285862 9.39420639 118.83285862 17.60546875 105.3671875 C19.38622939 102.34438372 19.45045668 100.4535012 19 97 C17.80231547 95.21895179 17.80231547 95.21895179 16 94 C14.0068433 93.97624074 14.0068433 93.97624074 11.875 94.375 C8.5952385 94.49726015 7.34613223 94.26179544 4.69140625 92.25390625 C3.1559357 90.67585766 1.65412259 89.06451616 0.18359375 87.42578125 C-1.7716475 85.25367962 -3.73964293 83.46461734 -6 81.625 C-18.55790026 70.73650315 -29.3270553 54.17810828 -31.4453125 37.4921875 C-31.92255505 27.88508746 -29.44991348 22.32690373 -23.39453125 15.078125 C-18.89755797 10.25002067 -13.51132886 6.57970556 -8 3 C-7.13632813 2.43796875 -6.27265625 1.8759375 -5.3828125 1.296875 C-3 0 -3 0 0 0 Z " fill="#CE4A34" transform="translate(192,83)"/>
<path d="M0 0 C1.97543157 -0.00856538 3.9508483 -0.02216423 5.9262085 -0.04101562 C26.09494409 -0.21340345 26.09494409 -0.21340345 35.10922241 3.29956055 C35.86292114 3.58959961 36.61661987 3.87963867 37.39315796 4.1784668 C44.14835782 6.95671365 49.07213047 12.47192819 51.98422241 19.11206055 C52.71001773 21.16848062 53.41961076 23.23072558 54.10922241 25.29956055 C54.76922241 25.29956055 55.42922241 25.29956055 56.10922241 25.29956055 C56.60422241 29.75456055 56.60422241 29.75456055 57.10922241 34.29956055 C57.76922241 34.29956055 58.42922241 34.29956055 59.10922241 34.29956055 C59.53524824 42.88319204 59.33016581 49.51495205 53.60922241 56.23706055 C51.10922241 58.29956055 51.10922241 58.29956055 48.10922241 59.29956055 C48.10922241 59.95956055 48.10922241 60.61956055 48.10922241 61.29956055 C46.51758237 62.27855771 44.90989902 63.23147269 43.29672241 64.17456055 C42.4034021 64.70823242 41.51008179 65.2419043 40.58969116 65.79174805 C29.42338613 70.629227 16.85286217 69.65533721 4.92172241 69.61206055 C3.45530304 69.61032333 3.45530304 69.61032333 1.95925903 69.60855103 C-41.45467031 69.50658604 -41.45467031 69.50658604 -50.19546509 61.0769043 C-52.32196034 57.59317591 -52.63797245 54.91743699 -53.01577759 50.86206055 C-53.15995249 49.4217894 -53.305815 47.98168629 -53.45327759 46.54174805 C-53.52288696 45.82470703 -53.59249634 45.10766602 -53.66421509 44.36889648 C-53.99066201 41.3872541 -54.51487714 38.4437646 -55.01577759 35.48706055 C-55.84511297 29.76069721 -56.10405591 24.1379359 -56.14077759 18.36206055 C-56.15455444 17.17229614 -56.15455444 17.17229614 -56.16860962 15.95849609 C-56.14262096 11.03780342 -55.45709238 6.96742725 -53.89077759 2.29956055 C-35.93445292 0.8756276 -18.01441978 0.07445408 0 0 Z " fill="#576E77" transform="translate(343.8907775878906,258.700439453125)"/>
<path d="M0 0 C0.89460937 0.79019531 1.78921875 1.58039063 2.7109375 2.39453125 C3.61070312 3.17183594 4.51046875 3.94914063 5.4375 4.75 C8.05244231 7.17595681 10.5704507 9.67865396 13.0859375 12.20703125 C11.77737793 12.20179443 10.46881836 12.19655762 9.12060547 12.19116211 C4.15169999 12.1727268 -0.81720266 12.16146223 -5.78613281 12.15209961 C-7.91536979 12.14714567 -10.04460352 12.14038065 -12.17382812 12.1315918 C-23.4480451 12.08630312 -34.70320823 12.14359469 -45.96875 12.625 C-47.29786911 12.67877052 -47.29786911 12.67877052 -48.65383911 12.73362732 C-58.07293133 13.18799221 -67.6812413 14.2903674 -75.9140625 19.20703125 C-85.86312289 31.77296609 -85.38409418 52.51083168 -83.63720703 67.59814453 C-81.56464378 81.07127558 -75.69655658 97.30156709 -64.9140625 106.20703125 C-56.88709394 112.00228658 -48.50666339 115.02124422 -38.9140625 117.20703125 C-38.17051514 117.38580811 -37.42696777 117.56458496 -36.66088867 117.7487793 C-30.20947015 119.19543776 -24.07286959 119.47836392 -17.4765625 119.39453125 C-16.51685547 119.39388672 -15.55714844 119.39324219 -14.56835938 119.39257812 C0.93558083 119.29861485 14.96969719 117.12869311 29.01171875 110.16015625 C31.0859375 109.20703125 31.0859375 109.20703125 33.0859375 109.20703125 C33.51152391 111.54775653 33.81726508 113.84511994 34.0859375 116.20703125 C34.22386719 117.07972656 34.36179687 117.95242188 34.50390625 118.8515625 C35.18186249 126.1911757 33.38462698 131.83097977 29.13525391 137.73706055 C25.61729381 141.74735165 22.56668454 143.07216063 17.28808594 143.52319336 C13.41778525 143.60946255 9.57355126 143.50134559 5.70654297 143.33007812 C1.51712599 143.1877001 -2.65679714 143.20926422 -6.84765625 143.25390625 C-12.98191661 143.3093429 -19.11545172 143.35680753 -25.25 143.33984375 C-26.53438965 143.33871582 -27.8187793 143.33758789 -29.14208984 143.33642578 C-33.1362099 143.19941066 -36.95856734 142.75940729 -40.9140625 142.20703125 C-41.1409375 141.27890625 -41.3678125 140.35078125 -41.6015625 139.39453125 C-43.18722674 135.54363239 -44.40719478 135.24590783 -47.9140625 133.20703125 C-48.70038702 132.06453186 -49.4475716 130.89457153 -50.1640625 129.70703125 C-52.27080205 126.48297935 -53.90085394 125.63336058 -57.6015625 124.64453125 C-59.98046875 124.00390625 -59.98046875 124.00390625 -61.9140625 123.20703125 C-63.0390625 120.39453125 -63.0390625 120.39453125 -63.9140625 117.20703125 C-67.21279716 113.13891241 -70.42324699 111.06690771 -75.6015625 110.33203125 C-77.91015625 109.9609375 -77.91015625 109.9609375 -79.9140625 109.20703125 C-81.32235124 107.25083686 -82.13735667 105.3355805 -83.0390625 103.10546875 C-84.88979661 99.0900367 -88.69641722 98.28818712 -92.6015625 96.83203125 C-93.29636719 96.58839844 -93.99117188 96.34476562 -94.70703125 96.09375 C-97.08853954 95.13693163 -99.18840372 93.92007687 -101.4140625 92.64453125 C-108.13948363 89.14478232 -115.47497607 88.82541685 -122.9140625 88.20703125 C-122.9140625 87.54703125 -122.9140625 86.88703125 -122.9140625 86.20703125 C-127.2180544 84.45853454 -131.56156841 82.82999515 -135.9140625 81.20703125 C-136.15460833 73.22348333 -135.49111802 65.64850214 -134.2265625 57.76953125 C-134.04794678 56.64732178 -133.86933105 55.5251123 -133.68530273 54.36889648 C-132.48959225 47.12218184 -131.14346862 39.92319815 -129.4765625 32.76953125 C-129.29585205 31.94203369 -129.1151416 31.11453613 -128.92895508 30.26196289 C-127.55659881 24.75559516 -127.55659881 24.75559516 -124.77734375 22.3828125 C-123.83246094 21.99480469 -122.88757813 21.60679687 -121.9140625 21.20703125 C-121.01651245 20.81608276 -121.01651245 20.81608276 -120.10083008 20.41723633 C-108.08151138 15.31501015 -95.72238107 12.29789908 -82.94360352 9.80078125 C-80.75991171 9.37280652 -78.57833894 8.93396895 -76.39819336 8.48828125 C-67.61903039 6.69761751 -58.82361415 5.12280879 -49.9765625 3.70703125 C-49.31640137 3.60097565 -48.65624023 3.49492004 -47.97607422 3.38565063 C-38.80693064 1.91728391 -29.62684898 0.5628482 -20.4140625 -0.60546875 C-19.44863525 -0.72921875 -18.48320801 -0.85296875 -17.48852539 -0.98046875 C-4.21636249 -2.59424984 -4.21636249 -2.59424984 0 0 Z " fill="#A6AEB7" transform="translate(352.9140625,231.79296875)"/>
<path d="M0 0 C3.50020809 0.31019646 7.00012407 0.62357983 10.5 0.9375 C11.48226562 1.02451172 12.46453125 1.11152344 13.4765625 1.20117188 C15.41719603 1.37582889 17.35725001 1.55705999 19.29663086 1.74511719 C20.97260343 1.90313357 22.6505488 2.04280195 24.33032227 2.15332031 C32.7808772 2.84769623 37.28815642 8.85888438 42.56640625 14.97265625 C44.12520388 16.87173715 45.66729729 18.78472924 47.1875 20.71484375 C49.50029109 23.88841189 49.50029109 23.88841189 52.91674805 25.39477539 C53.69058838 25.46172607 54.46442871 25.52867676 55.26171875 25.59765625 C56.12643799 25.67540283 56.99115723 25.75314941 57.88208008 25.83325195 C58.80786865 25.90890381 59.73365723 25.98455566 60.6875 26.0625 C61.63197998 26.15426514 62.57645996 26.24603027 63.54956055 26.34057617 C67.87265945 26.74404586 72.10368914 27.06292754 76.4453125 26.890625 C80.31172216 26.81251571 83.31276444 26.81695438 87 28 C91.3752701 32.68365918 93.97086659 37.91259977 96 44 C87.42 44.33 78.84 44.66 70 45 C77.55921651 51.43497048 77.55921651 51.43497048 85.00390625 53.21484375 C89.36502081 54.93027237 92.44874425 59.19347214 95 63 C95 63.99 95 64.98 95 66 C85.83108127 71.13817346 76.37149118 70.65843453 66.1875 70.5625 C65.30136017 70.56056641 64.41522034 70.55863281 63.50222778 70.55664062 C44.41666306 70.48823435 25.79793964 68.1421825 7 65 C7 66.98 7 68.96 7 71 C6.67 71 6.34 71 6 71 C5.95512451 70.00484375 5.91024902 69.0096875 5.86401367 67.984375 C5.0101962 49.37688188 3.98681223 30.93330939 1.33154297 12.47900391 C0.77674869 8.33071149 0.3840968 4.16708793 0 0 Z " fill="#9E1E39" transform="translate(215,379)"/>
<path d="M0 0 C0.86527817 -0.00960754 1.73055634 -0.01921509 2.62205505 -0.02911377 C3.56154495 -0.03336365 4.50103485 -0.03761353 5.46899414 -0.04199219 C6.43889786 -0.04769226 7.40880157 -0.05339233 8.40809631 -0.05926514 C10.46850491 -0.06872797 12.52892873 -0.07525419 14.58935547 -0.07910156 C17.71032122 -0.08873194 20.83060706 -0.11971147 23.95141602 -0.15136719 C25.9572715 -0.15790494 27.96313168 -0.16315237 29.96899414 -0.16699219 C30.89026596 -0.17933899 31.81153778 -0.19168579 32.76072693 -0.20440674 C42.73163534 -0.17092186 54.19579025 1.9813462 61.75805664 8.95019531 C65.5726666 13.07538938 67.86484434 16.92207447 69.81665039 22.16113281 C70.80665039 23.64613281 70.80665039 23.64613281 71.81665039 25.16113281 C71.70947266 27.23730469 71.70947266 27.23730469 70.81665039 29.16113281 C68.97265625 30.19433594 68.97265625 30.19433594 66.53149414 30.94238281 C65.62133545 31.22525146 64.71117676 31.50812012 63.7734375 31.79956055 C62.77707275 32.08387939 61.78070801 32.36819824 60.75415039 32.66113281 C59.20062866 33.11178101 59.20062866 33.11178101 57.61572266 33.5715332 C41.12391728 38.18804446 24.99048177 40.51073708 7.87915039 40.59863281 C5.98604126 40.61398071 5.98604126 40.61398071 4.0546875 40.62963867 C-2.90964992 40.56284904 -8.77781399 39.95489764 -15.18334961 37.16113281 C-16.03026367 36.81695312 -16.87717773 36.47277344 -17.74975586 36.11816406 C-25.24554062 31.82018963 -28.00432368 24.64802678 -31.33081055 17.03613281 C-32.1070286 15.32898657 -33.00300647 13.67759098 -33.90991211 12.03613281 C-35.3342633 8.82041969 -35.28138965 6.63523872 -35.18334961 3.16113281 C-34.31532715 3.10578369 -33.44730469 3.05043457 -32.55297852 2.9934082 C-29.33610896 2.7862368 -26.11952174 2.57521772 -22.90307617 2.36157227 C-21.51027359 2.26985508 -20.11736875 2.17967749 -18.72436523 2.09106445 C-16.72345251 1.96351339 -14.72292353 1.82998661 -12.72241211 1.69628906 C-11.51794434 1.61773682 -10.31347656 1.53918457 -9.07250977 1.45825195 C-5.78003427 1.11965615 -3.37042671 0.03020906 0 0 Z " fill="#94C2D4" transform="translate(327.183349609375,258.8388671875)"/>
<path d="M0 0 C1.4539304 0.03304387 2.90746075 0.09241162 4.359375 0.17578125 C5.10445313 0.19833984 5.84953125 0.22089844 6.6171875 0.24414062 C8.448784 0.30284564 10.27934153 0.39252368 12.109375 0.48828125 C12.44736243 27.03849379 11.90829931 53.29087479 7.109375 79.48828125 C6.94566406 80.58011719 6.78195312 81.67195313 6.61328125 82.796875 C6.46761719 83.70566406 6.32195312 84.61445313 6.171875 85.55078125 C6.05972656 86.28425781 5.94757813 87.01773438 5.83203125 87.7734375 C5.109375 89.48828125 5.109375 89.48828125 3.04296875 90.734375 C2.40488281 90.98316406 1.76679688 91.23195313 1.109375 91.48828125 C0.779375 90.16828125 0.449375 88.84828125 0.109375 87.48828125 C-7.69551684 87.12483153 -14.82895682 88.19496671 -22.453125 89.80078125 C-23.52498047 90.01412109 -24.59683594 90.22746094 -25.70117188 90.44726562 C-31.33405029 91.60140279 -36.6976552 92.95104522 -42.06616211 95.02416992 C-43.890625 95.48828125 -43.890625 95.48828125 -46.890625 94.48828125 C-33.66272238 53.70982718 -33.66272238 53.70982718 -25.890625 36.48828125 C-25.56143066 35.75818848 -25.23223633 35.0280957 -24.89306641 34.27587891 C-20.1914588 24.02483282 -14.45375769 14.65211108 -7.890625 5.48828125 C-7.0847998 4.16123169 -7.0847998 4.16123169 -6.26269531 2.80737305 C-3.890625 0.48828125 -3.890625 0.48828125 0 0 Z " fill="#9D1D38" transform="translate(402.890625,362.51171875)"/>
<path d="M0 0 C1.77601764 2.66402646 2.55617674 4.37750507 3.4375 7.375 C3.70046875 8.26703125 3.9634375 9.1590625 4.234375 10.078125 C4.74615569 12.03124723 5.19413656 14.00216442 5.578125 15.984375 C9.13317205 34.30654056 19.71923837 48.5945995 32.25 62.0390625 C34 64 34 64 35 66 C39.22354424 65.3040751 42.99435122 63.92688848 47 62.4375 C54.00887655 59.95856004 60.5407455 59.15510062 68 60 C69 61 69 61 69.3125 63.3125 C69 66 69 66 67.13671875 67.84375 C58.4969721 76.56247057 55.59708403 95.80475098 54.8359375 107.765625 C55.19295772 112.62790037 58.059776 115.1537984 61.5 118.25 C68.73614812 123.31530368 76.22873631 123.18828296 84.8125 123.5 C91.59076673 123.74916705 98.26614167 124.16951388 105 125 C105 125.99 105 126.98 105 128 C104.29093506 128.15557373 103.58187012 128.31114746 102.85131836 128.47143555 C81.02551496 133.29310675 59.49747958 138.71951426 40.09375 150.27734375 C37 152 37 152 34 152 C33.39420639 102.83285862 33.39420639 102.83285862 41.60546875 89.3671875 C43.38622939 86.34438372 43.45045668 84.4535012 43 81 C41.80231547 79.21895179 41.80231547 79.21895179 40 78 C38.0068433 77.97624074 38.0068433 77.97624074 35.875 78.375 C32.5952385 78.49726015 31.34613223 78.26179544 28.69140625 76.25390625 C27.1559357 74.67585766 25.65412259 73.06451616 24.18359375 71.42578125 C22.2283525 69.25367962 20.26035707 67.46461734 18 65.625 C5.44209974 54.73650315 -5.3270553 38.17810828 -7.4453125 21.4921875 C-7.863187 13.08019222 -6.20657536 7.61999471 -1 1 C-0.67 0.67 -0.34 0.34 0 0 Z " fill="#AD2243" transform="translate(168,99)"/>
<path d="M0 0 C1.70686635 -0.10933663 3.41582604 -0.18619084 5.125 -0.25 C6.07632813 -0.29640625 7.02765625 -0.3428125 8.0078125 -0.390625 C11.83454917 0.10894898 13.82038883 1.8510763 17 4 C19.63246099 4.78564639 22.13814328 5.44082789 24.8125 6 C30.21296446 7.2295041 35.0583748 8.67940133 40.05078125 11.1328125 C42.09019033 12.04012476 44.00808551 12.53385881 46.1875 13 C50.34795673 14.09126734 52.74686235 15.19047203 56 18 C56.64909929 19.33321223 57.25095382 20.69011135 57.8125 22.0625 C59.15074464 25.11762188 59.15074464 25.11762188 61.859375 26.8671875 C63.38497849 27.26211323 64.91105333 27.65522092 66.4375 28.046875 C74.54135351 31.06111319 82.49228688 39.4191508 88 46 C88 46.66 88 47.32 88 48 C80.38738012 48.93768432 72.87961195 49.14643863 65.21484375 49.1328125 C64.00091446 49.13376923 62.78698517 49.13472595 61.53627014 49.13571167 C58.97038725 49.1363896 56.40450261 49.13456239 53.83862305 49.13037109 C50.00109773 49.12508756 46.16369325 49.13029281 42.32617188 49.13671875 C26.52789912 49.14053983 10.77920668 48.77873987 -5 48 C-5.33 47.34 -5.66 46.68 -6 46 C-8.52733235 45.34444881 -8.52733235 45.34444881 -11 45 C-11.28875 44.113125 -11.5775 43.22625 -11.875 42.3125 C-12.88156816 39.10245228 -12.88156816 39.10245228 -14.1875 36.625 C-15.36333708 32.82614174 -14.66166515 29.9038244 -14 26 C-14.99 25.67 -15.98 25.34 -17 25 C-16.67 24.443125 -16.34 23.88625 -16 23.3125 C-14.7950661 21.04288241 -14.7950661 21.04288241 -15.25 18.5625 C-14.95116802 15.4994722 -14.39191569 15.12587718 -12.125 13.1875 C-9 11 -9 11 -7 11 C-7.12375 10.2575 -7.2475 9.515 -7.375 8.75 C-7.25125 7.8425 -7.1275 6.935 -7 6 C-4.0625 3.8125 -4.0625 3.8125 -1 2 C-0.67 1.34 -0.34 0.68 0 0 Z " fill="#D2C3A3" transform="translate(209,320)"/>
<path d="M0 0 C0.72767578 -0.00386719 1.45535156 -0.00773437 2.20507812 -0.01171875 C7.56076389 -0.00173611 7.56076389 -0.00173611 8.6875 1.125 C10.40574012 14.88713081 10.40574012 14.88713081 6.75 19.6484375 C5.13748244 20.91467725 3.49506349 22.1438167 1.82421875 23.33203125 C-1.16664746 25.84173434 -1.62585803 28.0952052 -2.19140625 31.8515625 C-2.7844571 42.98561385 -0.80560863 53.52566641 6.6875 62.125 C7.3475 62.455 8.0075 62.785 8.6875 63.125 C9.86181783 66.64795349 9.86105486 69.85978479 9.8984375 73.52734375 C9.92452913 75.05925657 9.95133336 76.59115737 9.97875977 78.12304688 C9.99206329 78.92863037 10.00536682 79.73421387 10.01907349 80.56420898 C10.25847896 94.33700544 10.98664132 107.82554086 12.66479492 121.5065918 C13.87769992 131.74223401 13.98824582 141.83280979 13.6875 152.125 C5.97160183 152.2817564 -1.62766461 151.79953101 -9.3125 151.125 C-9.38766846 150.30749268 -9.46283691 149.48998535 -9.5402832 148.64770508 C-9.90019715 144.74414864 -10.26189828 140.840761 -10.625 136.9375 C-10.69152771 136.22226166 -10.75805542 135.50702332 -10.82659912 134.77011108 C-11.90952559 123.15754579 -13.06882904 111.5551589 -14.30981445 99.95825195 C-14.48516724 98.30249146 -14.48516724 98.30249146 -14.6640625 96.61328125 C-14.76541504 95.67009033 -14.86676758 94.72689941 -14.97119141 93.75512695 C-15.93949963 83.45628937 -16.46234619 73.28020169 -16.4453125 62.93359375 C-16.44626923 61.62648941 -16.44722595 60.31938507 -16.44821167 58.97267151 C-16.44967155 56.22892043 -16.44758958 53.48520228 -16.44287109 50.74145508 C-16.43716918 47.2600286 -16.44046674 43.77867919 -16.44644356 40.29725552 C-16.45096602 36.92602907 -16.44778186 33.55482236 -16.4453125 30.18359375 C-16.44733673 28.95201035 -16.44936096 27.72042694 -16.45144653 26.45152283 C-16.40045486 7.38886458 -16.40045486 7.38886458 -14.3125 1.125 C-9.48446268 0.16699575 -4.89661232 -0.0267331 0 0 Z " fill="#5C6466" transform="translate(188.3125,307.875)"/>
<path d="M0 0 C2.49035872 0.00315051 4.97951459 -0.02033927 7.46972656 -0.0456543 C20.80933541 -0.10069764 33.50552929 1.09885236 45.69628906 7.00317383 C46.39173828 7.32350586 47.0871875 7.64383789 47.80371094 7.97387695 C49.46209223 8.74016348 51.11159479 9.52562664 52.75878906 10.31567383 C52.42878906 14.60567383 52.09878906 18.89567383 51.75878906 23.31567383 C49.63606567 23.35325806 49.63606567 23.35325806 47.47045898 23.39160156 C42.12697096 23.48709206 36.78357117 23.58694289 31.44018555 23.68798828 C29.14495941 23.73081026 26.84971205 23.77251172 24.55444336 23.81298828 C5.62510607 24.1479842 -13.15865127 24.60183399 -31.95343018 26.98693848 C-35.5931538 27.44831636 -39.23552667 27.88774868 -42.87792969 28.32739258 C-43.59295654 28.41401154 -44.3079834 28.50063049 -45.04467773 28.58987427 C-54.42329804 29.71422519 -63.82787736 30.54308921 -73.24121094 31.31567383 C-68.9123086 19.62564262 -58.68020397 14.34658142 -47.92871094 9.12817383 C-41.22156539 6.14456816 -34.38549848 3.98419109 -27.24121094 2.31567383 C-26.50902344 2.13689697 -25.77683594 1.95812012 -25.02246094 1.77392578 C-16.71575629 -0.01920421 -8.45745942 -0.02230866 0 0 Z " fill="#795738" transform="translate(382.2412109375,188.684326171875)"/>
<path d="M0 0 C2.97976203 0.4546941 5.95876531 0.91366209 8.9375 1.375 C9.76830078 1.50132812 10.59910156 1.62765625 11.45507812 1.7578125 C15.48052627 2.38434139 19.45453338 3.07498288 23.421875 4.00390625 C28.67526776 5.20678859 33.96720161 5.90260273 39.3125 6.5625 C40.34761719 6.69180908 41.38273437 6.82111816 42.44921875 6.9543457 C52.28315383 8.12873755 62.10544582 8.6825862 72 9 C72.34819266 17.43279108 70.4983073 23.95857336 68 32 C53.39412593 33.92373752 39.03051045 34.24501763 24.3125 34.125 C22.1347698 34.1149367 19.95703503 34.10581685 17.77929688 34.09765625 C12.51942904 34.0759391 7.25973697 34.04273412 2 34 C-0.33395799 15.77170914 -0.33395799 15.77170914 -0.125 7.4375 C-0.11597656 6.70337891 -0.10695312 5.96925781 -0.09765625 5.21289062 C-0.07494008 3.475104 -0.03914255 1.73749424 0 0 Z " fill="#25325D" transform="translate(222,462)"/>
<path d="M0 0 C5.51592528 -0.61036878 9.63758747 -0.80774938 14.125 2.75 C14.77210938 3.29785156 15.41921875 3.84570312 16.0859375 4.41015625 C27.51502979 13.90330026 44.90597789 14.15209069 59 16 C59.226875 14.7625 59.45375 13.525 59.6875 12.25 C60.46473356 9.24625026 61.03310832 7.95994457 63.06640625 5.5 C67.17064522 3.40142774 70.42087371 3.6386699 74.9375 4 C75.72318359 4.03222656 76.50886719 4.06445312 77.31835938 4.09765625 C86.36323391 4.688033 91.54107631 10.17160273 97.875 16.125 C98.56335938 16.75792969 99.25171875 17.39085937 99.9609375 18.04296875 C100.610625 18.65011719 101.2603125 19.25726563 101.9296875 19.8828125 C102.51991699 20.43340332 103.11014648 20.98399414 103.71826172 21.55126953 C105 23 105 23 105 25 C97.38738012 25.93768432 89.87961195 26.14643863 82.21484375 26.1328125 C81.00091446 26.13376923 79.78698517 26.13472595 78.53627014 26.13571167 C75.97038725 26.1363896 73.40450261 26.13456239 70.83862305 26.13037109 C67.00109773 26.12508756 63.16369325 26.13029281 59.32617188 26.13671875 C43.52789912 26.14053983 27.77920668 25.77873987 12 25 C11.67 24.34 11.34 23.68 11 23 C8.47266765 22.34444881 8.47266765 22.34444881 6 22 C5.71125 21.113125 5.4225 20.22625 5.125 19.3125 C4.11843184 16.10245228 4.11843184 16.10245228 2.8125 13.625 C1.63666292 9.82614174 2.33833485 6.9038244 3 3 C2.01 2.67 1.02 2.34 0 2 C0 1.34 0 0.68 0 0 Z " fill="#B59F81" transform="translate(192,343)"/>
<path d="M0 0 C3.42434957 0.51483325 4.58146172 1.79096703 6.66015625 4.48657227 C7.088125 5.08526123 7.51609375 5.6839502 7.95703125 6.30078125 C8.65699219 7.24038696 8.65699219 7.24038696 9.37109375 8.19897461 C10.88491055 10.25656768 12.36129244 12.33721746 13.83203125 14.42578125 C14.32541992 15.11591309 14.81880859 15.80604492 15.32714844 16.51708984 C21.53286012 25.25487762 27.04620237 34.27720131 32.08203125 43.73828125 C32.56027344 44.62781494 33.03851563 45.51734863 33.53125 46.43383789 C33.96566406 47.27293701 34.40007812 48.11203613 34.84765625 48.9765625 C35.23211914 49.71559814 35.61658203 50.45463379 36.01269531 51.21606445 C36.95049863 53.74528311 36.98142382 55.74936038 36.83203125 58.42578125 C33.69591888 58.47804979 31.70731904 58.50122804 28.83203125 57.42578125 C26.78795297 54.78668019 25.96415994 51.53913515 24.83203125 48.42578125 C23.63701687 45.62901566 22.36770594 42.86938729 21.08203125 40.11328125 C20.74163818 39.38109375 20.40124512 38.64890625 20.05053711 37.89453125 C16.84634239 31.16296717 13.14252519 23.73627519 7.83203125 18.42578125 C4.87386018 18.17572739 4.87386018 18.17572739 1.83203125 18.42578125 C-0.41992444 20.24387602 -0.41992444 20.24387602 -0.35546875 22.86328125 C-0.26492388 25.54517228 -0.26492388 25.54517228 0.83203125 28.42578125 C-3.0646548 28.54366419 -6.94994845 28.54749928 -10.84765625 28.46777344 C-12.46985555 28.43841545 -14.09237989 28.42471789 -15.71484375 28.42285156 C-33.39295804 28.28716428 -33.39295804 28.28716428 -39.30395508 22.28613281 C-41.42944555 19.7767834 -43.30745308 17.13566278 -45.16796875 14.42578125 C-48.30382484 10.51588473 -51.60782104 6.94881316 -55.16796875 3.42578125 C-54.26780029 3.40596191 -53.36763184 3.38614258 -52.44018555 3.36572266 C-29.54458748 2.88711764 -29.54458748 2.88711764 -6.75 0.828125 C-4.49729611 0.57509501 -2.2466689 0.30195673 0 0 Z " fill="#D73837" transform="translate(300.16796875,378.57421875)"/>
<path d="M0 0 C-0.49195343 9.02263527 -1.00179696 18.01617265 -2 27 C-12.75834469 27.83676014 -23.52422816 28.15459795 -34.31274414 28.23217773 C-35.71449172 28.24393547 -37.11620653 28.26091219 -38.51782227 28.28344727 C-47.27367557 28.41609588 -54.66269759 27.73354177 -63 25 C-63 17.74 -63 10.48 -63 3 C-60.24914062 3.03480469 -57.49828125 3.06960938 -54.6640625 3.10546875 C-51.93327873 3.12901403 -49.20250723 3.1471448 -46.47167969 3.16479492 C-44.60606642 3.17967503 -42.74048677 3.19998558 -40.875 3.22631836 C-29.49594477 3.38265775 -18.7504006 2.83933889 -7.56787109 0.6496582 C-4 0 -4 0 0 0 Z " fill="#BD7834" transform="translate(289,504)"/>
<path d="M0 0 C1.04249259 3.18940804 0.94420447 5.05948029 -0.07421875 8.23828125 C-0.32792236 9.05192139 -0.58162598 9.86556152 -0.84301758 10.70385742 C-1.12169678 11.56470947 -1.40037598 12.42556152 -1.6875 13.3125 C-2.24939455 15.10614592 -2.80927116 16.90042517 -3.3671875 18.6953125 C-3.78436035 20.03190918 -3.78436035 20.03190918 -4.20996094 21.39550781 C-5.70716146 26.33127271 -6.96609318 31.32672047 -8.23828125 36.32421875 C-9 39 -9 39 -10 40 C-14.5694101 40.29566991 -19.14514712 40.31460748 -23.72290039 40.35009766 C-25.25593502 40.36641504 -26.78890175 40.39337004 -28.3215332 40.43212891 C-39.96329767 40.7246036 -49.00652006 38.95790249 -60 35 C-60 28.07 -60 21.14 -60 14 C-58.08058594 13.96261719 -56.16117187 13.92523438 -54.18359375 13.88671875 C-26.02910715 14.1215595 -26.02910715 14.1215595 -1.66796875 1.80859375 C-1.11753906 1.21175781 -0.56710937 0.61492187 0 0 Z " fill="#BC7734" transform="translate(397,486)"/>
<path d="M0 0 C0.33 0 0.66 0 1 0 C0.40663172 7.8140752 -1.457101 15.02892377 -3.5625 22.5625 C-3.89185547 23.76197266 -4.22121094 24.96144531 -4.56054688 26.19726562 C-5.36764722 29.13323933 -6.18092529 32.06734878 -7 35 C-8.19753906 34.97679687 -9.39507812 34.95359375 -10.62890625 34.9296875 C-19.77077818 34.8079343 -28.47377029 35.12211093 -37.5234375 36.48828125 C-47.9996087 38.03027948 -58.43811947 38.13147569 -69 38 C-69.04898437 36.74703125 -69.09796875 35.4940625 -69.1484375 34.203125 C-69.22348583 32.55206179 -69.29903277 30.90102119 -69.375 29.25 C-69.42140625 28.0125 -69.42140625 28.0125 -69.46875 26.75 C-69.50742187 25.95078125 -69.54609375 25.1515625 -69.5859375 24.328125 C-69.6173584 23.5949707 -69.6487793 22.86181641 -69.68115234 22.10644531 C-70.03772523 19.75077082 -70.83662883 18.06549409 -72 16 C-71.01 16 -70.02 16 -69 16 C-68.34 17.32 -67.68 18.64 -67 20 C-59.23661877 19.4220594 -51.88007143 17.64473849 -44.36328125 15.72631836 C-42.26995191 15.19258709 -40.17432528 14.66881221 -38.078125 14.14648438 C-17.52591414 10.05101029 -17.52591414 10.05101029 0 0 Z " fill="#39447E" transform="translate(406,452)"/>
<path d="M0 0 C4.269375 0.23783203 4.269375 0.23783203 8.625 0.48046875 C17.60432637 0.93688717 26.57253098 1.10544255 35.5625 1.17578125 C37.44787476 1.19365189 37.44787476 1.19365189 39.37133789 1.21188354 C44.57960525 1.26083809 49.78761204 1.30842612 54.99609375 1.32592773 C58.85194541 1.34133029 62.70688764 1.38139803 66.5625 1.42578125 C67.73949463 1.42387283 68.91648926 1.42196442 70.12915039 1.41999817 C78.24890753 1.54250224 78.24890753 1.54250224 82.1784668 3.93603516 C82.77957275 4.61714355 83.38067871 5.29825195 84 6 C84.52207031 6.52722656 85.04414063 7.05445313 85.58203125 7.59765625 C89 11.66666667 89 11.66666667 89 15 C79.83108127 20.13817346 70.37149118 19.65843453 60.1875 19.5625 C59.30136017 19.56056641 58.41522034 19.55863281 57.50222778 19.55664062 C38.41666306 19.48823435 19.79793964 17.1421825 1 14 C1 15.98 1 17.96 1 20 C0.67 20 0.34 20 0 20 C0 13.4 0 6.8 0 0 Z " fill="#64152A" transform="translate(221,430)"/>
<path d="M0 0 C0.33 0.66 0.66 1.32 1 2 C2.06992187 1.855625 3.13984375 1.71125 4.2421875 1.5625 C18.17505726 -0.17542995 31.97522149 -0.21346695 46 0 C45.51588089 6.6105882 45.0010533 13.1232781 43.6875 19.625 C43.46449219 20.79289062 43.24148438 21.96078125 43.01171875 23.1640625 C42 26 42 26 39.89453125 27.3984375 C39.26933594 27.59695313 38.64414062 27.79546875 38 28 C37.505 26.02 37.505 26.02 37 24 C29.19510816 23.63655028 22.06166818 24.70668546 14.4375 26.3125 C13.36564453 26.52583984 12.29378906 26.73917969 11.18945312 26.95898438 C5.55657471 28.11312154 0.1929698 29.46276397 -5.17553711 31.53588867 C-7 32 -7 32 -10 31 C-6.7 20.77 -3.4 10.54 0 0 Z " fill="#9C1D38" transform="translate(366,426)"/>
<path d="M0 0 C-0.38929688 0.70898438 -0.77859375 1.41796875 -1.1796875 2.1484375 C-5.46288798 10.30033518 -8.94668442 18.65457604 -12.25 27.25 C-12.67394043 28.35005371 -13.09788086 29.45010742 -13.53466797 30.58349609 C-15.96396946 36.98679177 -18.1453047 43.40676181 -20 50 C-20.66 50 -21.32 50 -22 50 C-22.21503174 49.48840332 -22.43006348 48.97680664 -22.65161133 48.44970703 C-29.31191633 32.75927978 -36.88763558 17.61040502 -47.85546875 4.43359375 C-49 3 -49 3 -49 2 C-47.54932129 2.02356567 -47.54932129 2.02356567 -46.06933594 2.04760742 C-42.42391547 2.10259239 -38.77853027 2.13659475 -35.1328125 2.16479492 C-33.56569217 2.17972752 -31.99861246 2.20008115 -30.43164062 2.22631836 C-21.64850209 2.36952171 -13.77396341 2.21334751 -5.29394531 -0.44799805 C-3 -1 -3 -1 0 0 Z " fill="#C0D1DF" transform="translate(372,385)"/>
<path d="M0 0 C1.12398193 0.02408936 2.24796387 0.04817871 3.40600586 0.07299805 C27.96183881 0.7647367 27.96183881 0.7647367 35.68359375 6.8203125 C37.81139365 9.53530941 37.4738188 12.00683063 37.34375 15.33984375 C37 17.5 37 17.5 35.4375 20 C30.23702389 23.20029299 24.6868534 22.52577558 18.875 21.625 C14.06473133 20.91524078 9.32809152 20.42905377 4.46484375 20.28125 C3.52721191 20.25272949 2.58958008 20.22420898 1.62353516 20.19482422 C-0.21890806 20.14905917 -2.0618189 20.1188727 -3.90478516 20.10595703 C-8.10867604 19.99677541 -10.41737384 19.8655401 -14.05078125 17.5859375 C-16.55247603 14.90877315 -16.94966217 13.93626117 -17.375 10.25 C-17.00076385 6.50763848 -16.34159056 4.55507787 -13.84619141 1.73925781 C-9.80061225 -0.97634121 -4.67944935 -0.18218254 0 0 Z " fill="#F7F7F8" transform="translate(342,261.5)"/>
<path d="M0 0 C5.28 0 10.56 0 16 0 C16 10.56 16 21.12 16 32 C11.75125 32.474375 7.5025 32.94875 3.125 33.4375 C1.8064502 33.58501709 0.48790039 33.73253418 -0.87060547 33.88452148 C-7.57660022 34.631369 -14.28395813 35.34934102 -21 36 C-18.83686046 27.78006975 -14.75814001 20.96976687 -10.19091797 13.89550781 C-9.05211367 12.08294599 -8.01002946 10.23906982 -6.97265625 8.3671875 C-4.9375 5.0625 -4.9375 5.0625 0 0 Z " fill="#D63737" transform="translate(399,363)"/>
<path d="M0 0 C0.99 0.495 0.99 0.495 2 1 C4.11428546 0.98940739 6.22857993 0.97697343 8.34277344 0.95458984 C13.14154853 1.03659758 17.87057509 1.69263801 22.625 2.3125 C24.20244995 2.51770264 24.20244995 2.51770264 25.81176758 2.72705078 C31.78272854 3.52452176 37.7545732 4.32769883 43.6875 5.375 C44.80511719 5.56835938 45.92273438 5.76171875 47.07421875 5.9609375 C50.71882195 7.25528256 52.46257615 9.12395979 55 12 C55.78375 12.825 56.5675 13.65 57.375 14.5 C59 17 59 17 58.75 19.8125 C58.5025 20.534375 58.255 21.25625 58 22 C48.41051807 24.81803584 37.6612813 22.63774692 28 21.1875 C26.81921875 21.02185547 25.6384375 20.85621094 24.421875 20.68554688 C16.80906615 19.57464691 9.42383772 18.0165713 2 16 C1.66388432 13.89627599 1.33120054 11.79200343 1 9.6875 C0.814375 8.51574219 0.62875 7.34398437 0.4375 6.13671875 C0 3 0 3 0 0 Z " fill="#64152B" transform="translate(218,400)"/>
<path d="M0 0 C4.46812985 0.82743145 7.90731197 2.47506929 10.58984375 6.21875 C13.44530208 11.8505681 13.9826893 18.68342362 12.1875 24.7421875 C10.30572639 28.51811482 8.41256024 31.20178046 4.5625 33.0625 C1.18016882 33.95258715 -1.52492578 34.25427372 -5 34 C-5.3403125 33.0409375 -5.3403125 33.0409375 -5.6875 32.0625 C-6.80953903 29.79776206 -6.80953903 29.79776206 -9.15625 29.375 C-12.40710047 28.94631642 -15.53413883 28.90438524 -18.8125 28.9375 C-19.97394531 28.94652344 -21.13539063 28.95554687 -22.33203125 28.96484375 C-23.21246094 28.97644531 -24.09289062 28.98804688 -25 29 C-24.68675781 28.41089844 -24.37351562 27.82179688 -24.05078125 27.21484375 C-22.84164493 24.86574088 -22.84164493 24.86574088 -22.1875 21.5625 C-20.81679616 17.45038847 -19.33864924 15.71750519 -16 13 C-13.1875 11.6875 -13.1875 11.6875 -11 11 C-11 9.68 -11 8.36 -11 7 C-8.95301586 4.95301586 -4.69588759 5.29954307 -2 5 C-1.34 3.35 -0.68 1.7 0 0 Z " fill="#D2C3A2" transform="translate(428,326)"/>
<path d="M0 0 C1.69189453 0.19916016 1.69189453 0.19916016 3.41796875 0.40234375 C15.60235721 1.7862496 27.74803646 2.53674168 40 3 C39.40595792 7.57354731 38.59125884 11.97295493 37.4375 16.4375 C37.16808594 17.48808594 36.89867187 18.53867187 36.62109375 19.62109375 C36.41613281 20.40613281 36.21117187 21.19117188 36 22 C24.60453238 23.37383463 13.48459891 24.30900266 2 24 C1.65889707 21.68841851 1.327039 19.37607998 1 17.0625 C0.814375 15.77472656 0.62875 14.48695313 0.4375 13.16015625 C-0.10955452 8.75914537 -0.06930126 4.43094929 0 0 Z " fill="#3A4580" transform="translate(254,472)"/>
<path d="M0 0 C0.33 0 0.66 0 1 0 C6.80869878 32.47458399 6.80869878 32.47458399 9.375 48.3125 C9.54225586 49.32948975 9.70951172 50.34647949 9.88183594 51.39428711 C10.10661621 52.80206421 10.10661621 52.80206421 10.3359375 54.23828125 C10.46532715 55.04305908 10.5947168 55.84783691 10.72802734 56.67700195 C11.01615389 59.13797514 11.04665116 61.52447015 11 64 C8.69 64 6.38 64 4 64 C4 63.34 4 62.68 4 62 C-0.3039919 60.25150329 -4.64750591 58.6229639 -9 57 C-9.24056282 49.01588821 -8.57448757 41.4421983 -7.3125 33.5625 C-7.13750977 32.44246582 -6.96251953 31.32243164 -6.78222656 30.16845703 C-5.11883062 19.94858719 -2.74760951 9.97697553 0 0 Z " fill="#5D6467" transform="translate(226,256)"/>
<path d="M0 0 C0.33 0 0.66 0 1 0 C0.88490339 1.41750563 0.75746342 2.83401169 0.625 4.25 C0.55539062 5.03890625 0.48578125 5.8278125 0.4140625 6.640625 C-0.01507113 9.085877 -0.78600638 10.84836903 -2 13 C-3.32 13 -4.64 13 -6 13 C-7.82782617 13.65416748 -9.63146003 14.37693576 -11.41796875 15.13671875 C-20.8105112 18.86245792 -30.54944524 21.26101384 -40.3125 23.8125 C-42.22869131 24.31899729 -44.14470842 24.82615406 -46.06054688 25.33398438 C-50.7050607 26.56359176 -55.35183116 27.78428581 -60 29 C-60.66 31.64 -61.32 34.28 -62 37 C-59.36 37 -56.72 37 -54 37 C-54 37.33 -54 37.66 -54 38 C-58.95 38 -63.9 38 -69 38 C-69.04898437 36.74703125 -69.09796875 35.4940625 -69.1484375 34.203125 C-69.22348583 32.55206179 -69.29903277 30.90102119 -69.375 29.25 C-69.42140625 28.0125 -69.42140625 28.0125 -69.46875 26.75 C-69.50742187 25.95078125 -69.54609375 25.1515625 -69.5859375 24.328125 C-69.6173584 23.5949707 -69.6487793 22.86181641 -69.68115234 22.10644531 C-70.03772523 19.75077082 -70.83662883 18.06549409 -72 16 C-71.01 16 -70.02 16 -69 16 C-68.34 17.32 -67.68 18.64 -67 20 C-59.23661877 19.4220594 -51.88007143 17.64473849 -44.36328125 15.72631836 C-42.26995191 15.19258709 -40.17432528 14.66881221 -38.078125 14.14648438 C-17.52591414 10.05101029 -17.52591414 10.05101029 0 0 Z " fill="#25315D" transform="translate(406,452)"/>
<path d="M0 0 C0.72767578 -0.00386719 1.45535156 -0.00773437 2.20507812 -0.01171875 C7.56076389 -0.00173611 7.56076389 -0.00173611 8.6875 1.125 C9.58095086 7.65107585 10.43974319 14.31472861 6.84375 20.08203125 C0.62265043 26.01766898 -6.68826446 29.125 -15.3125 29.125 C-15.34148097 25.02084811 -15.3592922 20.91672247 -15.375 16.8125 C-15.38337891 15.64525391 -15.39175781 14.47800781 -15.40039062 13.27539062 C-15.40361328 12.15712891 -15.40683594 11.03886719 -15.41015625 9.88671875 C-15.41539307 8.85506592 -15.42062988 7.82341309 -15.42602539 6.76049805 C-15.3125 4.125 -15.3125 4.125 -14.3125 1.125 C-9.48446268 0.16699575 -4.89661232 -0.0267331 0 0 Z " fill="#A3ACB5" transform="translate(188.3125,307.875)"/>
<path d="M0 0 C10.32585295 9.31845267 18.62695025 28.62462867 21 42 C21.13963712 45.34166076 21.12326138 48.65824711 21 52 C18.71484375 51.83203125 18.71484375 51.83203125 16 51 C14.19140625 48.69921875 14.19140625 48.69921875 12.5625 45.6875 C11.95921875 44.58921875 11.3559375 43.4909375 10.734375 42.359375 C9.20970402 39.40618346 7.75109643 36.43316551 6.3125 33.4375 C3.0975143 26.79613227 -0.93104679 20.70277386 -5.0378418 14.58569336 C-5.80414917 13.41598999 -5.80414917 13.41598999 -6.5859375 12.22265625 C-7.0504834 11.52922119 -7.5150293 10.83578613 -7.99365234 10.12133789 C-9.20711176 7.56341725 -9.26366739 5.80052021 -9 3 C-6.7352321 -0.64879272 -4.02876398 -0.86894909 0 0 Z " fill="#AE6670" transform="translate(308,396)"/>
<path d="M0 0 C0.99 0.495 0.99 0.495 2 1 C4.62848709 1.18860443 7.24301515 1.32882988 9.875 1.4375 C19.95791511 1.91670239 29.96602587 2.92119067 40 4 C37.33064217 6.77249211 34.58943096 9.14687739 31.5 11.4375 C28.68073528 13.5542295 27.04267657 14.93314005 25.125 17.9375 C22.52858203 20.45755273 21.54705459 20.41091647 18 20.5625 C11.5367238 20.29210653 6.02169534 18.26699119 0 16 C0 10.72 0 5.44 0 0 Z " fill="#D7B34E" transform="translate(337,505)"/>
<path d="M0 0 C-4.12798059 4.25697999 -8.4584871 8.1883731 -13 12 C-13.66 12.62648438 -14.32 13.25296875 -15 13.8984375 C-22.89542534 20.58135109 -33.89465134 21.74291677 -44 22 C-44.66 21.67 -45.32 21.34 -46 21 C-45.46246904 14.81839396 -43.45417612 9.673142 -41 4 C-38.81482134 4 -36.62952995 4.0406623 -34.4453125 4.10546875 C-24.00479577 4.34156389 -14.68813075 3.40417728 -4.76171875 -0.1640625 C-2 -1 -2 -1 0 0 Z " fill="#D73737" transform="translate(413,407)"/>
<path d="M0 0 C13.09777283 -0.27287027 25.96340285 0.78202 39 2 C38.58282715 2.54342041 38.1656543 3.08684082 37.73583984 3.64672852 C37.19137207 4.36272217 36.6469043 5.07871582 36.0859375 5.81640625 C35.54501465 6.52482666 35.0040918 7.23324707 34.44677734 7.96313477 C32.76392678 10.33235891 31 12.98957226 31 16 C27.7085089 16.08857863 24.41733195 16.1409104 21.125 16.1875 C20.2071875 16.21263672 19.289375 16.23777344 18.34375 16.26367188 C11.6568529 16.33430811 6.32321276 15.18615614 0 13 C0 8.71 0 4.42 0 0 Z " fill="#D6B24E" transform="translate(227,516)"/>
<path d="M0 0 C8.62607047 1.23229578 15.94157531 7.48283335 21.9375 13.5625 C21.9375 13.8925 21.9375 14.2225 21.9375 14.5625 C21.09445313 14.62308594 20.25140625 14.68367188 19.3828125 14.74609375 C18.28710938 14.82988281 17.19140625 14.91367187 16.0625 15 C14.42667969 15.12181641 14.42667969 15.12181641 12.7578125 15.24609375 C9.99021029 15.39251703 9.99021029 15.39251703 7.9375 16.5625 C7.9375 18.5425 7.9375 20.5225 7.9375 22.5625 C5.82385819 23.84578253 4.50105675 24.61022053 2 24.3984375 C-2.39123416 22.61865699 -4.29896786 17.7173589 -6.0625 13.5625 C-6.66552307 10.12768057 -6.86914241 6.97040787 -6.0625 3.5625 C-4.06365315 0.95935061 -3.32629553 0.61095224 0 0 Z " fill="#785637" transform="translate(187.0625,40.4375)"/>
<path d="M0 0 C-0.38929688 0.70898438 -0.77859375 1.41796875 -1.1796875 2.1484375 C-5.46288798 10.30033518 -8.94668442 18.65457604 -12.25 27.25 C-12.67394043 28.35005371 -13.09788086 29.45010742 -13.53466797 30.58349609 C-15.96396946 36.98679177 -18.1453047 43.40676181 -20 50 C-20.66 50 -21.32 50 -22 50 C-23.32 46.7 -24.64 43.4 -26 40 C-25.34 40 -24.68 40 -24 40 C-23.78085937 38.99582031 -23.56171875 37.99164063 -23.3359375 36.95703125 C-20.50625809 24.54610311 -16.0969643 13.64544644 -9 3 C-9.66 2.34 -10.32 1.68 -11 1 C-3.375 -1.125 -3.375 -1.125 0 0 Z " fill="#8992A0" transform="translate(372,385)"/>
<path d="M0 0 C0.33 0.66 0.66 1.32 1 2 C1.66 1.67 2.32 1.34 3 1 C4.80462986 0.92690107 6.61198243 0.91638593 8.41796875 0.9375 C9.50787109 0.94523437 10.59777344 0.95296875 11.72070312 0.9609375 C14.01237228 0.98675912 16.30403901 1.01279701 18.59570312 1.0390625 C24.18152761 1.07846867 29.50119206 1.0185925 35 0 C34.45164 4.52396997 32.89154474 8.47266379 30 12 C25.55671758 14.55077324 22.09605824 15.37288231 17 15 C16.773125 14.360625 16.54625 13.72125 16.3125 13.0625 C15.19046097 10.79776206 15.19046097 10.79776206 12.84375 10.375 C9.59289953 9.94631642 6.46586117 9.90438524 3.1875 9.9375 C2.02605469 9.94652344 0.86460937 9.95554687 -0.33203125 9.96484375 C-1.21246094 9.97644531 -2.09289062 9.98804688 -3 10 C-2.68289063 9.40703125 -2.36578125 8.8140625 -2.0390625 8.203125 C-0.76662181 5.50516805 -0.40121626 2.94225259 0 0 Z " fill="#B49E81" transform="translate(406,345)"/>
<path d="M0 0 C0.87914062 0.01353516 1.75828125 0.02707031 2.6640625 0.04101562 C4.81797552 0.07613377 6.97157004 0.12993306 9.125 0.1875 C9.01044319 2.10481918 8.88293742 4.0213675 8.75 5.9375 C8.68039062 7.00484375 8.61078125 8.0721875 8.5390625 9.171875 C8.1521777 11.98956432 7.56813834 13.7705366 6.125 16.1875 C6.125 15.1975 6.125 14.2075 6.125 13.1875 C5.031875 13.3525 3.93875 13.5175 2.8125 13.6875 C-10.87743033 15.32248277 -10.87743033 15.32248277 -15.625 12.625 C-16.875 10.1875 -16.875 10.1875 -17 6.625 C-15.875 3.1875 -15.875 3.1875 -13.421875 1.484375 C-8.81542743 -0.19992081 -4.85537608 -0.14259011 0 0 Z " fill="#641529" transform="translate(402.875,425.8125)"/>
<path d="M0 0 C9.24 0 18.48 0 28 0 C33 9 33 9 33 11 C20.23345534 11.36018465 11.81956307 11.2711052 1.8359375 2.77734375 C1.23007812 2.19082031 0.62421875 1.60429687 0 1 C0 0.67 0 0.34 0 0 Z " fill="#D73838" transform="translate(284,423)"/>
<path d="M0 0 C4.15696767 4.67163986 6.86697798 9.99880051 9.75 15.5 C10.25660156 16.43714844 10.76320313 17.37429688 11.28515625 18.33984375 C11.76339844 19.24863281 12.24164063 20.15742188 12.734375 21.09375 C13.16975586 21.91552734 13.60513672 22.73730469 14.05371094 23.58398438 C15.0897551 26.22915802 15.18174779 28.18478945 15 31 C11.86388763 31.05226854 9.87528779 31.07544679 7 30 C5.55533098 28.13479377 4.93118452 26.30756577 4.13671875 24.0859375 C2.62042437 19.96953694 0.71270492 16.07568967 -1.1875 12.125 C-1.89161541 10.64952933 -2.59356415 9.17302202 -3.29296875 7.6953125 C-3.5974292 7.05609863 -3.90188965 6.41688477 -4.21557617 5.75830078 C-5 4 -5 4 -6 1 C-4.02 0.67 -2.04 0.34 0 0 Z " fill="#D23737" transform="translate(322,406)"/>
<path d="M0 0 C2.9719385 1.12451727 5.33440687 2.22293791 8 4 C10.27538323 4.66613335 10.27538323 4.66613335 12.6875 5.125 C13.49574219 5.29257812 14.30398437 5.46015625 15.13671875 5.6328125 C15.75160156 5.75398438 16.36648437 5.87515625 17 6 C16.17565946 9.89688257 15.45926604 12.47512452 12.8125 15.5 C10 17 10 17 6.5 17.125 C1.96839441 15.66841249 0.41666816 14.07812752 -2 10 C-1.87449952 6.2977357 -1.16539496 3.49618487 0 0 Z " fill="#B49F81" transform="translate(218,320)"/>
<path d="M0 0 C0 4.95 0 9.9 0 15 C-8.25 15 -16.5 15 -25 15 C-22.3585039 13.2390026 -19.74345286 11.78612992 -16.9375 10.3125 C-11.98808852 7.64337663 -7.43989063 4.62969948 -2.8984375 1.3203125 C-1 0 -1 0 0 0 Z " fill="#D3AE4D" transform="translate(287,516)"/>
<path d="M0 0 C-0.58107632 3.7602985 -1.65199496 6.53035032 -3.5625 9.8125 C-4.01753906 10.60269531 -4.47257812 11.39289062 -4.94140625 12.20703125 C-5.29074219 12.79871094 -5.64007813 13.39039063 -6 14 C-6.66386719 13.98839844 -7.32773438 13.97679687 -8.01171875 13.96484375 C-14.56306787 13.88106591 -14.56306787 13.88106591 -21 15 C-16.35487577 7.73019175 -9.39435265 -0.80379488 0 0 Z " fill="#907E47" transform="translate(255,36)"/>
<path d="M0 0 C1.875 1.125 1.875 1.125 3 3 C3.39365568 6.14924548 3.52854531 8.11909116 1.875 10.875 C-0.88090884 12.52854531 -2.85075452 12.39365568 -6 12 C-7.875 10.875 -7.875 10.875 -9 9 C-9.39365568 5.85075452 -9.52854531 3.88090884 -7.875 1.125 C-5.11909116 -0.52854531 -3.14924548 -0.39365568 0 0 Z " fill="#B8A283" transform="translate(246,333)"/>
<path d="M0 0 C1.08828929 3.26486787 0.89901381 4.36990083 0.125 7.625 C-0.05804688 8.42164063 -0.24109375 9.21828125 -0.4296875 10.0390625 C-1 12 -1 12 -2 13 C-4.69654854 13.07319621 -7.36691458 13.09242537 -10.0625 13.0625 C-11.20041992 13.05573242 -11.20041992 13.05573242 -12.36132812 13.04882812 C-14.24091871 13.0370068 -16.12046899 13.01907078 -18 13 C-15.00652435 9.84819923 -11.53845819 7.66928695 -7.875 5.375 C-3.72029353 2.96040058 -3.72029353 2.96040058 0 0 Z " fill="#D1AD4C" transform="translate(389,513)"/>
<path d="M0 0 C1.43410153 3.78819273 0.51009497 6.06521279 -0.9375 9.75 C-1.31777344 10.73484375 -1.69804687 11.7196875 -2.08984375 12.734375 C-2.39019531 13.48203125 -2.69054687 14.2296875 -3 15 C-6.9492568 14.44894091 -10.34920174 13.61064629 -14 12 C-13 9 -13 9 -11.07421875 7.75390625 C-10.28660156 7.36074219 -9.49898438 6.96757812 -8.6875 6.5625 C-5.2259145 4.74351399 -2.5682635 3.01491802 0 0 Z " fill="#CBA84A" transform="translate(397,486)"/>
<path d="M0 0 C3.51098025 4.01254885 5.76537994 8.20983041 8 13 C5.29120665 14.35439668 2.99066732 14.06501451 0 14 C-1.00508801 12.21118264 -2.00392736 10.41885304 -3 8.625 C-3.8353125 7.12839844 -3.8353125 7.12839844 -4.6875 5.6015625 C-6 3 -6 3 -6 1 C-4.02 0.67 -2.04 0.34 0 0 Z " fill="#991D37" transform="translate(322,406)"/>
<path d="M0 0 C0.928125 0.20625 1.85625 0.4125 2.8125 0.625 C4.13528481 6.03639241 4.13528481 6.03639241 2.75 8.5625 C-0.09843248 10.12454362 -2.12254903 9.37421024 -5.1875 8.625 C-5.5175 6.315 -5.8475 4.005 -6.1875 1.625 C-3.1875 -0.375 -3.1875 -0.375 0 0 Z " fill="#B8A284" transform="translate(214.1875,333.375)"/>
<path d="M0 0 C0.33 2.31 0.66 4.62 1 7 C-4.91492272 6.54775239 -10.35199888 5.8417395 -16 4 C-13.21530998 2.14353999 -11.7318584 1.54842185 -8.5625 0.875 C-7.41974609 0.62363281 -7.41974609 0.62363281 -6.25390625 0.3671875 C-4 0 -4 0 0 0 Z " fill="#CF3537" transform="translate(342,445)"/>
<path d="M0 0 C0.86238281 -0.00386719 1.72476562 -0.00773437 2.61328125 -0.01171875 C3.84884766 -0.00978516 3.84884766 -0.00978516 5.109375 -0.0078125 C6.23037598 -0.00612061 6.23037598 -0.00612061 7.37402344 -0.00439453 C9.25 0.125 9.25 0.125 11.25 1.125 C11.25 1.785 11.25 2.445 11.25 3.125 C2.34 2.795 -6.57 2.465 -15.75 2.125 C-15.75 1.795 -15.75 1.465 -15.75 1.125 C-10.46619943 0.03715871 -5.36686215 -0.02450622 0 0 Z " fill="#A6CBDC" transform="translate(348.75,259.875)"/>
<path d="M0 0 C0.66 0.33 1.32 0.66 2 1 C0.90344712 2.31886772 -0.20253423 3.62990057 -1.3125 4.9375 C-1.92738281 5.66839844 -2.54226562 6.39929688 -3.17578125 7.15234375 C-5 9 -5 9 -8 10 C-6.5682479 4.98886765 -4.01554307 3.05530451 0 0 Z " fill="#19390B" transform="translate(168,295)"/>
<path d="M0 0 C1.32 0 2.64 0 4 0 C4.25 6.625 4.25 6.625 2 10 C1.67 7.69 1.34 5.38 1 3 C0.01 2.67 -0.98 2.34 -2 2 C-1.34 1.34 -0.68 0.68 0 0 Z " fill="#B69541" transform="translate(285,504)"/>
</svg>
