<?xml version="1.0" encoding="UTF-8"?>
<svg version="1.1" xmlns="http://www.w3.org/2000/svg" width="600" height="600">
<path d="M0 0 C1.33067505 -0.00151062 1.33067505 -0.00151062 2.68823242 -0.00305176 C43.79851994 0.02844896 43.79851994 0.02844896 61.9375 7.25 C65.09016365 10.55588663 66.16449982 14.50351233 67.41796875 18.7890625 C67.74454216 19.87216202 67.74454216 19.87216202 68.07771301 20.97714233 C68.53441308 22.49728367 68.98719458 24.01860715 69.4362793 25.54101562 C70.12539662 27.87634409 70.82626421 30.20788961 71.52929688 32.5390625 C71.97204065 34.01802383 72.41412118 35.49718391 72.85546875 36.9765625 C73.16945869 38.02500839 73.16945869 38.02500839 73.48979187 39.09463501 C74.9375 44.01562593 74.9375 44.01562593 74.9375 46.25 C75.61103516 46.31469482 76.28457031 46.37938965 76.97851562 46.44604492 C106.78675346 49.40502559 132.476604 57.52235758 152.5703125 81.28515625 C160.7048112 91.32576878 169.2899008 103.26223106 170.6875 116.375 C170.78546875 117.20257813 170.8834375 118.03015625 170.984375 118.8828125 C170.92912545 121.67291487 170.59044853 122.9964161 168.9375 125.25 C166.546875 126.48046875 166.546875 126.48046875 163.6875 127.4375 C162.75421875 127.76105469 161.8209375 128.08460938 160.859375 128.41796875 C154.31390801 130.28185173 147.82374867 130.5330717 141.0625 130.8125 C140.08796875 130.85568359 139.1134375 130.89886719 138.109375 130.94335938 C135.71887198 131.04882274 133.32827556 131.15094175 130.9375 131.25 C131.2675 132.24 131.5975 133.23 131.9375 134.25 C132.40899356 159.67697411 125.17360013 194.8958498 110.9375 216.25 C111.15166268 219.10550235 111.77517699 221.71773151 112.609375 224.453125 C117.92347345 242.13063618 117.30428839 260.78962255 117.25 279.0625 C117.24726578 280.96127396 117.24726578 280.96127396 117.24447632 282.89840698 C117.20008029 301.17641009 116.95336991 319.18173467 113.9375 337.25 C113.77652832 338.25434082 113.61555664 339.25868164 113.44970703 340.29345703 C110.54317796 357.75775994 104.88271319 374.19705604 99.02124023 390.85375977 C97.70251204 394.68420055 96.57266637 398.24690377 96.25 402.3125 C96.146875 403.611875 96.04375 404.91125 95.9375 406.25 C96.76121094 406.33894531 97.58492188 406.42789062 98.43359375 406.51953125 C102.681016 407.40500278 106.14116152 409.00267622 110 410.9375 C110.69416016 411.26427734 111.38832031 411.59105469 112.10351562 411.92773438 C117.60774775 414.66155527 121.58361546 417.86528864 123.9375 423.75 C123.9375 427.52223672 123.12614957 429.12335775 120.9375 432.25 C86.35689202 463.1328796 12.50753563 457.65047513 -31.0625 455.25 C-32.21266602 455.18796387 -33.36283203 455.12592773 -34.54785156 455.06201172 C-106.01997849 450.93171293 -106.01997849 450.93171293 -125.0625 430.25 C-125.3925 429.92 -125.7225 429.59 -126.0625 429.25 C-126.6376634 422.34803922 -126.6376634 422.34803922 -124.6875 418.625 C-116.962091 411.63534424 -107.79864482 408.42056013 -98.0625 405.25 C-98.71009991 397.64283129 -99.81360908 390.15454526 -101.0625 382.625 C-102.17932912 375.84309564 -103.26891981 369.07809621 -104.0625 362.25 C-105.13886719 362.29640625 -106.21523437 362.3428125 -107.32421875 362.390625 C-119.24353132 362.74969823 -130.90364273 362.0164647 -140.421875 353.91796875 C-152.4054826 341.73463436 -152.33512192 321.26804859 -154.0625 305.25 C-161.27424459 309.37624772 -161.27424459 309.37624772 -165.6875 316.125 C-168.45969199 322.47514221 -172.41445867 328.5665107 -179.0625 331.25 C-184.11218418 331.10973099 -188.00465925 327.97872169 -192.0625 325.25 C-191.1875 318.5 -191.1875 318.5 -190.0625 316.25 C-190.7225 316.25 -191.3825 316.25 -192.0625 316.25 C-192.31 316.889375 -192.5575 317.52875 -192.8125 318.1875 C-194.0625 320.25 -194.0625 320.25 -195.84375 321.06640625 C-199.8614641 321.39885794 -202.23488432 318.73325273 -205.1796875 316.26953125 C-207.0625 314.25 -207.0625 314.25 -207.9375 310.9375 C-206.07136369 303.07306839 -201.97476983 294.42365747 -194.9765625 289.90234375 C-192.51395066 287.77645638 -192.41179878 286.43079056 -192 283.25 C-191.50480815 279.51102336 -191.01616707 277.68337341 -188.0625 275.25 C-183.63488086 276.64153744 -181.1068745 278.77071486 -178.0625 282.25 C-178.0625 282.91 -178.0625 283.57 -178.0625 284.25 C-177.4025 284.25 -176.7425 284.25 -176.0625 284.25 C-175.78664063 283.528125 -175.51078125 282.80625 -175.2265625 282.0625 C-174.10461006 279.35174244 -172.81622102 276.83799029 -171.4375 274.25 C-168.50579833 268.45158512 -166.12136532 262.5086872 -163.8125 256.4375 C-163.47138184 255.54224609 -163.13026367 254.64699219 -162.77880859 253.72460938 C-160.98633095 248.94348053 -159.38157 244.1830526 -158.0625 239.25 C-159.3 239.1675 -160.5375 239.085 -161.8125 239 C-164.76838266 238.6180895 -165.98653793 238.30258912 -168.5 236.5625 C-170.37707921 233.78442277 -170.76142456 231.5618298 -171.0625 228.25 C-172.114375 228.683125 -172.114375 228.683125 -173.1875 229.125 C-181.46027762 232.36217385 -187.78253448 233.77425227 -196.234375 230.23046875 C-199.9850968 228.21886368 -202.49581851 225.82861271 -203.9375 221.8125 C-204.08326055 218.82440877 -203.67407861 216.1719867 -203.0625 213.25 C-203.63355469 213.23582031 -204.20460937 213.22164062 -204.79296875 213.20703125 C-216.37196944 212.52591356 -225.5636526 208.49892972 -234.0390625 200.62890625 C-237.61428459 196.4256046 -239.95788862 191.79440331 -240.0625 186.25 C-236.00406443 169.23682307 -223.36142028 158.08455599 -209.0625 149.25 C-206.38240385 147.67477577 -203.6730731 146.16405751 -200.9375 144.6875 C-199.9784375 144.16748413 -199.9784375 144.16748413 -199 143.63696289 C-196.14830468 142.14341807 -194.32944905 141.25 -191.0625 141.25 C-191.0109375 140.67636719 -190.959375 140.10273438 -190.90625 139.51171875 C-187.54369012 114.33073055 -170.57435641 92.12633066 -151.2734375 76.62109375 C-139.0594238 67.601743 -117.61832243 53.25 -102.0625 53.25 C-101.91554687 52.34121094 -101.91554687 52.34121094 -101.765625 51.4140625 C-99.43954501 38.37999358 -94.82940347 28.75870558 -83.8203125 20.83203125 C-67.09863847 9.43400185 -48.93804746 3.9105235 -29.0625 1.25 C-28.02017212 1.10425537 -28.02017212 1.10425537 -26.95678711 0.95556641 C-18.01697776 -0.12329261 -8.99090383 0.00706767 0 0 Z M91.9375 133.25 C93.44650292 136.98059056 95.62122511 138.8869168 98.6875 141.4375 C102.9274 145.12596792 105.94001627 148.76590703 108.78125 153.59765625 C109.1628125 154.14292969 109.544375 154.68820312 109.9375 155.25 C110.5975 155.25 111.2575 155.25 111.9375 155.25 C113.2575 147.66 114.5775 140.07 115.9375 132.25 C107.86280211 132.15387264 99.97248853 132.45219972 91.9375 133.25 Z M-155.0625 271.25 C-155.43761719 271.95125 -155.81273437 272.6525 -156.19921875 273.375 C-159.03373952 278.62993019 -161.91911697 283.75162924 -165.27734375 288.69140625 C-165.53644531 289.20574219 -165.79554688 289.72007812 -166.0625 290.25 C-165.7325 290.91 -165.4025 291.57 -165.0625 292.25 C-161.4325 293.24 -157.8025 294.23 -154.0625 295.25 C-154.0625 287.33 -154.0625 279.41 -154.0625 271.25 C-154.3925 271.25 -154.7225 271.25 -155.0625 271.25 Z M-1.0625 365.25 C-1.3925 374.82 -1.7225 384.39 -2.0625 394.25 C3.2175 394.25 8.4975 394.25 13.9375 394.25 C13.2775 384.68 12.6175 375.11 11.9375 365.25 C7.6475 365.25 3.3575 365.25 -1.0625 365.25 Z " fill="#040503" transform="translate(307.0625,118.75)"/>
<path d="M0 0 C1.43037598 0.00448654 1.43037598 0.00448654 2.88964844 0.00906372 C17.15146844 0.06147053 31.08701572 0.64381959 45.125 3.375 C45.83720703 3.48626221 46.54941406 3.59752441 47.28320312 3.7121582 C48.19489258 4.04026489 48.19489258 4.04026489 49.125 4.375 C50.17702641 7.00506601 50.93796027 9.39816502 51.625 12.125 C52.05134965 13.6916061 52.47843949 15.25801095 52.90625 16.82421875 C53.1125 17.60071777 53.31875 18.3772168 53.53125 19.17724609 C54.61104407 23.17408254 55.86828089 27.11497198 57.1015625 31.06640625 C57.8438471 33.46608205 58.56639117 35.86738632 59.2734375 38.27734375 C61.62138625 46.17344342 64.33971832 53.49102763 67.98828125 60.8984375 C69.125 63.375 69.125 63.375 69.125 65.375 C57.10666829 68.95184854 45.09746803 72.43922905 32.75 74.6875 C31.95835449 74.83413086 31.16670898 74.98076172 30.35107422 75.13183594 C13.48280046 78.03165138 -3.34885881 78.78330496 -20.4375 78.75 C-21.49292999 78.74945618 -22.54835999 78.74891235 -23.63577271 78.74835205 C-39.73269526 78.71028094 -55.12727661 77.97255145 -70.875 74.375 C-72.02145996 74.1181543 -73.16791992 73.86130859 -74.34912109 73.59667969 C-81.55258602 71.9636231 -88.72455567 70.22613967 -95.875 68.375 C-97.13635152 64.78499953 -96.59811543 62.4445246 -95.58203125 58.82421875 C-95.13512939 57.19794556 -95.13512939 57.19794556 -94.67919922 55.53881836 C-94.35193848 54.3916333 -94.02467773 53.24444824 -93.6875 52.0625 C-91.01034056 42.92828573 -91.01034056 42.92828573 -88.97265625 33.640625 C-87.64523895 26.60890094 -85.93676628 22.41034522 -79.9375 18.3125 C-77.63490742 16.89012018 -75.27971381 15.61521323 -72.875 14.375 C-71.83730469 13.81425781 -70.79960937 13.25351563 -69.73046875 12.67578125 C-47.99474693 1.82159061 -23.92758321 -0.19673164 0 0 Z " fill="#83744D" transform="translate(307.875,137.625)"/>
<path d="M0 0 C4.95 0 9.9 0 15 0 C15.15855469 2.41054688 15.31710937 4.82109375 15.48046875 7.3046875 C15.65092182 9.67163696 15.82866025 12.03793615 16.00708008 14.40429688 C16.12601338 16.03299113 16.23751804 17.66224734 16.34106445 19.29199219 C16.99068703 29.42486102 17.59289035 38.56820854 24.41455078 46.68261719 C26.2670201 48.22187257 27.59611681 48.63374419 29.94140625 49.1328125 C30.68970703 49.29910156 31.43800781 49.46539063 32.20898438 49.63671875 C32.98564453 49.79785156 33.76230469 49.95898438 34.5625 50.125 C42.82532751 51.91266376 42.82532751 51.91266376 45 53 C55.78599579 53.64026459 65.53975547 52.80234668 76 50 C77.2375 49.67 78.475 49.34 79.75 49 C80.8225 48.67 81.895 48.34 83 48 C83.81210937 47.79761719 84.62421875 47.59523438 85.4609375 47.38671875 C91.07096566 45.91429201 94.32168505 44.53658844 98 40 C98 40.66 98 41.32 98 42 C99.23556641 42.13341797 99.23556641 42.13341797 100.49609375 42.26953125 C104.743516 43.15500278 108.20366152 44.75267622 112.0625 46.6875 C113.10374023 47.17766602 113.10374023 47.17766602 114.16601562 47.67773438 C119.67024775 50.41155527 123.64611546 53.61528864 126 59.5 C126 63.27223672 125.18864957 64.87335775 123 68 C88.41939202 98.8828796 14.57003563 93.40047513 -29 91 C-30.15016602 90.93796387 -31.30033203 90.87592773 -32.48535156 90.81201172 C-103.95747849 86.68171293 -103.95747849 86.68171293 -123 66 C-123.33 65.67 -123.66 65.34 -124 65 C-124.5751634 58.09803922 -124.5751634 58.09803922 -122.625 54.375 C-115.68416828 48.09519987 -107.71209583 44.96110857 -98.90625 42.17578125 C-95.7327757 41.20938702 -95.7327757 41.20938702 -94 38 C-93.9175 39.051875 -93.835 40.10375 -93.75 41.1875 C-92.90409805 45.4875016 -92.06867849 46.93132151 -89 50 C-88.48824219 50.51820313 -87.97648437 51.03640625 -87.44921875 51.5703125 C-78.27691553 59.70164769 -64.82209426 58.18920243 -53.3125 58.3125 C-51.60259888 58.33932861 -51.60259888 58.33932861 -49.8581543 58.36669922 C-42.43384329 58.35916895 -36.03279062 57.36428605 -29 55 C-28.29512451 54.764021 -27.59024902 54.52804199 -26.86401367 54.28491211 C-25.04626895 53.65248316 -23.24131126 52.98363871 -21.4375 52.3125 C-15.20943953 50 -15.20943953 50 -13 50 C-13 49.34 -13 48.68 -13 48 C-12.45730469 47.82726562 -11.91460937 47.65453125 -11.35546875 47.4765625 C-7.91719028 46.1260315 -5.58177613 45.12255462 -3.8359375 41.75390625 C-3.05611232 39.16630452 -2.46105136 36.66342894 -2 34 C-1.8246875 33.02546875 -1.649375 32.0509375 -1.46875 31.046875 C-0.64775392 25.09606897 -0.62929766 19.05853509 -0.4375 13.0625 C-0.37272461 11.17821289 -0.37272461 11.17821289 -0.30664062 9.25585938 C-0.20106436 6.17068616 -0.10007713 3.0853565 0 0 Z M1 1 C0.67 10.57 0.34 20.14 0 30 C5.28 30 10.56 30 16 30 C15.34 20.43 14.68 10.86 14 1 C9.71 1 5.42 1 1 1 Z " fill="#353D39" transform="translate(305,483)"/>
<path d="M0 0 C20.73733287 0.08957811 39.96572255 11.94449807 54.21484375 26.21875 C67 40.15726967 67 40.15726967 67 46 C66.40978058 46.0481485 65.81956116 46.096297 65.2114563 46.14590454 C33.4642923 48.74384657 1.7323493 51.62545087 -29.95428467 54.88311768 C-31.49041681 55.04067887 -33.02674608 55.19633358 -34.56329346 55.34979248 C-43.03058925 56.19935155 -51.36916042 57.34766462 -59.73954773 58.88577271 C-66.83648082 60.18214357 -73.96555692 61.11617527 -81.125 62 C-83.15706253 62.25487326 -85.18897276 62.51093972 -87.22088623 62.76699829 C-88.57079473 62.93694527 -89.92076973 63.10636494 -91.27081299 63.27523804 C-95.28531696 63.7784331 -99.29600136 64.30404095 -103.3046875 64.8515625 C-122.39467381 67.45767099 -141.30417127 69.03968889 -160.57107544 69.4854126 C-174.20056934 69.81248389 -187.74437889 70.79910692 -201.32983398 71.90942383 C-202.94384011 72.04127085 -204.55785362 72.17302737 -206.171875 72.3046875 C-206.9456398 72.36792709 -207.7194046 72.43116669 -208.51661682 72.49632263 C-215.45324836 73.05450145 -222.39235907 73.45330731 -229.34692383 73.70898438 C-233.31444493 73.8629717 -237.08891901 74.34549257 -241 75 C-242.95740193 75.06388388 -244.91670147 75.08638169 -246.875 75.0625 C-248.32519531 75.04896484 -248.32519531 75.04896484 -249.8046875 75.03515625 C-250.52914062 75.02355469 -251.25359375 75.01195312 -252 75 C-249.8800355 56.21475904 -234.96713653 38.87948364 -220.921875 27.5078125 C-197.91053746 10 -197.91053746 10 -189 10 C-189.144375 10.83402344 -189.28875 11.66804687 -189.4375 12.52734375 C-191.12438069 22.22589096 -191.12438069 22.22589096 -191 32 C-187.87027116 35.9643232 -183.60817202 36.93391441 -178.890625 38.19140625 C-176.49951192 38.86027166 -174.17716959 39.60356465 -171.828125 40.40234375 C-127.45688759 55.30443393 -76.06101365 55.34774519 -31 43 C-30.22398437 42.79084961 -29.44796875 42.58169922 -28.6484375 42.36621094 C-20.78009432 40.20647241 -13.64713807 37.87074772 -7 33 C-5.35556652 31.93533473 -3.70969773 30.87288354 -2.0625 29.8125 C1.02282704 27.9054417 1.02282704 27.9054417 3 25 C3.74904514 16.28514784 2.27226593 8.38574332 0 0 Z " fill="#81724B" transform="translate(388,183)"/>
<path d="M0 0 C0.75286285 -0.00421967 1.50572571 -0.00843933 2.28140259 -0.01278687 C14.38294788 -0.04282045 28.2567899 0.67147751 37.546875 9.4296875 C42.5 14.8385 42.5 14.8385 42.5 18.5 C43.16 18.5 43.82 18.5 44.5 18.5 C46.5 21.5 46.5 21.5 46.5 25.5 C47.16 25.5 47.82 25.5 48.5 25.5 C50.16904299 35.93491106 51.73661252 47.41236461 45.5 56.5 C43.98828125 58.19921875 43.98828125 58.19921875 42.5 59.5 C41.84 59.5 41.18 59.5 40.5 59.5 C40.5 60.16 40.5 60.82 40.5 61.5 C38.93124507 62.48201588 37.34373484 63.43406616 35.75 64.375 C34.86828125 64.90867187 33.9865625 65.44234375 33.078125 65.9921875 C22.74283274 70.34745258 11.3906744 69.79013598 0.375 69.6875 C-1.19645087 69.67862117 -2.76790271 69.66991459 -4.33935547 69.66137695 C-17.90721523 69.5678804 -31.31274581 69.32315163 -44.75 67.25 C-45.4423877 67.15291748 -46.13477539 67.05583496 -46.84814453 66.95581055 C-52.12069961 66.03327594 -54.77122485 64.1383806 -58.5 60.5 C-59.97348406 57.55303187 -60.06985851 54.42401798 -60.4375 51.1875 C-61.01912557 46.18918997 -61.70898926 41.26285592 -62.625 36.3125 C-64.11237494 27.13260778 -63.67090306 17.76951909 -63.5 8.5 C-55.42170368 5.43581864 -47.20137241 4.04474648 -38.6875 2.8125 C-37.9356543 2.70260742 -37.18380859 2.59271484 -36.40917969 2.47949219 C-24.26800177 0.74941261 -12.25980662 0.00688169 0 0 Z " fill="#586F78" transform="translate(351.5,258.5)"/>
<path d="M0 0 C5.50638602 0.48789776 10.62242521 1.2748958 15.9375 2.875 C17.71833984 3.40480469 17.71833984 3.40480469 19.53515625 3.9453125 C20.67855469 4.29335938 21.82195312 4.64140625 23 5 C24.02996094 5.30679687 25.05992187 5.61359375 26.12109375 5.9296875 C28.41609969 6.61330629 30.70897262 7.30318983 33 8 C32.69249629 10.14655501 32.3788634 12.29223285 32.0625 14.4375 C31.80146484 16.22994141 31.80146484 16.22994141 31.53515625 18.05859375 C31 21 31 21 30 22 C29.90165866 25.37369471 29.90165866 25.37369471 31 29 C33.19945435 31.0480874 34.97773003 32.41429656 37.5 33.9375 C38.15621338 34.35499512 38.81242676 34.77249023 39.48852539 35.20263672 C46.97434996 39.83433125 54.94976712 43.47248058 63 47 C63.02542585 48.43740782 63.04354758 49.87494606 63.05859375 51.3125 C63.06947021 52.11300781 63.08034668 52.91351563 63.09155273 53.73828125 C62.96457528 56.87513231 62.2683274 59.7316726 60 62 C59.37281391 67.371286 61.16720525 70.79217478 63.875 75.25 C64.70027121 76.65693527 65.52444671 78.06451369 66.34765625 79.47265625 C66.78094238 80.20629395 67.21422852 80.93993164 67.66064453 81.69580078 C69.03965169 84.06821594 70.36809067 86.46293237 71.68359375 88.87109375 C72.34222412 90.07620605 72.34222412 90.07620605 73.01416016 91.30566406 C73.86126925 92.85970625 74.70610403 94.41499097 75.54833984 95.97167969 C77.29645281 99.15228408 78.95235268 101.94246361 81.27734375 104.75 C83.96479118 108.26013541 83.29116811 110.70527039 83 115 C82.05125 114.979375 81.1025 114.95875 80.125 114.9375 C77.09333717 114.77448174 77.09333717 114.77448174 75 116 C74.505 117.485 74.505 117.485 74 119 C70.95826902 119.02754082 67.91679887 119.04709291 64.875 119.0625 C64.03839844 119.07087891 63.20179688 119.07925781 62.33984375 119.08789062 C57.34597733 119.10666456 52.41718424 118.91565549 47.4375 118.53125 C39.00574119 117.88296291 30.57632037 117.65800836 22.125 117.4375 C20.55077354 117.39415926 18.9765547 117.35054097 17.40234375 117.30664062 C13.60164234 117.2012401 9.80085894 117.09955088 6 117 C4.02322267 105.12672095 3.19501513 93.25042539 2.4375 81.25 C2.34086563 79.75117783 2.34086563 79.75117783 2.24227905 78.22207642 C0.5610265 52.11817121 -0.16438128 26.154326 0 0 Z " fill="#2E2519" transform="translate(219,351)"/>
<path d="M0 0 C0.268125 0.763125 0.53625 1.52625 0.8125 2.3125 C2.25525292 5.72787947 2.25525292 5.72787947 5 8 C9.34509216 7.9493338 9.34509216 7.9493338 13 6 C15.3756852 5.9116033 17.72208674 5.88469695 20.09765625 5.90234375 C21.16094398 5.90446617 21.16094398 5.90446617 22.24571228 5.90663147 C24.51801712 5.91224557 26.79022475 5.92480037 29.0625 5.9375 C30.59960796 5.94251319 32.13671745 5.94707641 33.67382812 5.95117188 C37.44925642 5.96221958 41.22461171 5.97949359 45 6 C45.37866211 6.99781494 45.75732422 7.99562988 46.14746094 9.02368164 C49.05955923 16.6429713 52.32372468 23.85258759 56.28320312 30.98657227 C59.25422202 36.34311851 61.17719188 40.91432487 62 47 C62.20496094 48.4540625 62.20496094 48.4540625 62.4140625 49.9375 C63.11573731 60.12477873 59.38657492 66.45398637 53 74 C47.75518207 78.6367231 41.52186344 82.2756605 34.375 82.3125 C33.61960937 82.32925781 32.86421875 82.34601563 32.0859375 82.36328125 C29.44984381 81.90418628 28.59563892 81.11766894 27 79 C26.375 75.8125 26.375 75.8125 27 72 C28.60239796 69.76331951 30.33883026 67.84904186 32.2734375 65.89453125 C34.8130954 63.10780256 35.95325944 61.02829228 36.125 57.25 C36.08375 56.5075 36.0425 55.765 36 55 C34.515 55.495 34.515 55.495 33 56 C32.5875 56.86625 32.175 57.7325 31.75 58.625 C27.84962469 66.14715238 20.80059725 71.7913241 13 75 C7.53072017 75.97347236 3.43710763 75.70594761 -1.5625 73.25 C-3.78522658 71.19825238 -4.99256874 69.82080752 -6 67 C-3.24147 61.96268435 -0.2029405 59.60112606 4.62890625 56.5703125 C7.73241969 54.51493787 10.42242659 52.13329511 13.171875 49.6328125 C15 48 15 48 17.9375 45.8125 C23.16121254 41.51231675 30.00554893 33.79813274 31 27 C29.72125 27.2475 28.4425 27.495 27.125 27.75 C26.40570313 27.88921875 25.68640625 28.0284375 24.9453125 28.171875 C22.35559688 29.27432422 22.09661108 30.46120712 21 33 C14.01713901 42.26419342 4.22343937 52.25885354 -7 56 C-16.8000889 56.81779128 -23.01239811 56.02702671 -30.63671875 49.87109375 C-39.40368632 42.27972526 -39.40368632 42.27972526 -40.5 36.25 C-38.94304442 26.12978872 -25.90794261 15.4895028 -18.05371094 9.52099609 C-4.4267638 0 -4.4267638 0 0 0 Z " fill="#F9E16C" transform="translate(115,269)"/>
<path d="M0 0 C1.43037598 0.00448654 1.43037598 0.00448654 2.88964844 0.00906372 C17.15146844 0.06147053 31.08701572 0.64381959 45.125 3.375 C46.20394531 3.58394897 46.20394531 3.58394897 47.3046875 3.79711914 C48.20574219 4.08317017 48.20574219 4.08317017 49.125 4.375 C50.63700062 7.39900124 50.7067049 9.01403834 50.125 12.375 C42.24814504 20.89573956 30.11398309 24.25155353 19.1875 26.5 C18.00615479 26.75297852 16.82480957 27.00595703 15.60766602 27.26660156 C6.5241531 29.17632622 -2.58283209 30.73708999 -11.77270508 32.02636719 C-13.88897509 32.35122609 -13.88897509 32.35122609 -15.9987793 32.88769531 C-23.68162995 34.72576816 -31.3363784 34.67782847 -39.1862793 34.63574219 C-41.5404687 34.6250996 -43.89388179 34.63564446 -46.24804688 34.6484375 C-58.99872031 34.66047551 -71.91945035 34.23827444 -83.875 29.375 C-85.875 27.375 -85.875 27.375 -85.8984375 25.03125 C-84.45197482 21.27707206 -81.81994906 19.85335847 -78.5 17.875 C-77.86296143 17.4840918 -77.22592285 17.09318359 -76.56958008 16.69042969 C-53.16606349 2.57970148 -26.81805673 -0.22049699 0 0 Z " fill="#998A67" transform="translate(307.875,137.625)"/>
<path d="M0 0 C0.76164963 -0.00570007 1.52329926 -0.01140015 2.30802917 -0.01727295 C3.90887086 -0.02665322 5.50973124 -0.03322888 7.1105957 -0.03710938 C9.52655557 -0.0468091 11.94166098 -0.07789608 14.35742188 -0.109375 C26.29564861 -0.19076257 39.59860716 0.4795761 48.77734375 9.1328125 C53.73046875 14.541625 53.73046875 14.541625 53.73046875 18.203125 C54.39046875 18.203125 55.05046875 18.203125 55.73046875 18.203125 C58.8007793 24.58937094 58.8007793 24.58937094 58.4987793 27.22558594 C57.73046875 29.203125 57.73046875 29.203125 56.11425781 30.14453125 C55.41526367 30.34949219 54.71626953 30.55445313 53.99609375 30.765625 C53.20412598 31.00321533 52.4121582 31.24080566 51.59619141 31.4855957 C50.73300293 31.72238037 49.86981445 31.95916504 48.98046875 32.203125 C47.65281494 32.58440552 47.65281494 32.58440552 46.29833984 32.97338867 C36.56958256 35.67867041 26.68116302 37.52912689 16.73046875 39.203125 C15.31616577 39.46681885 15.31616577 39.46681885 13.87329102 39.73583984 C8.62203678 40.5166136 3.36590888 40.46676299 -1.93530273 40.49829102 C-3.93431628 40.51543025 -5.93304219 40.55932057 -7.93164062 40.60351562 C-18.702536 40.67342159 -28.08838391 38.88318656 -36.62890625 31.95703125 C-38.97761833 29.44614619 -40.12485789 26.83494845 -41.328125 23.640625 C-42.68736071 20.12127611 -44.51944248 16.87497539 -46.31640625 13.5625 C-47.3808203 10.927639 -47.34077183 9.01654393 -47.26953125 6.203125 C-43.00144094 5.50749067 -38.73304049 4.81379946 -34.46435547 4.12182617 C-33.01537769 3.88666949 -31.56648259 3.6510027 -30.11767578 3.41479492 C-28.02268206 3.07332971 -25.92738752 2.73376382 -23.83203125 2.39453125 C-22.57519531 2.19029541 -21.31835938 1.98605957 -20.0234375 1.77563477 C-13.2892363 0.74859901 -6.80391617 0.0406316 0 0 Z " fill="#96C4D6" transform="translate(340.26953125,258.796875)"/>
<path d="M0 0 C0.60054199 0.47614746 1.20108398 0.95229492 1.81982422 1.44287109 C4.53352493 3.38105509 6.87413265 3.91215921 10.125 4.625 C11.17945313 4.86476562 12.23390625 5.10453125 13.3203125 5.3515625 C23.07031324 7.0697155 32.71528286 7.15649457 42.5859375 7.13037109 C44.99485568 7.12501145 47.40358747 7.13034337 49.8125 7.13671875 C57.61182272 7.13973706 65.24900172 6.9845018 73 6 C71.68 7.32 70.36 8.64 69 10 C69.804375 10.474375 70.60875 10.94875 71.4375 11.4375 C74 13 74 13 75 14 C75.375 17.375 75.375 17.375 75 21 C68.92305822 26.86739206 57.50717462 27.3418787 49.53125 27.59375 C46.65826772 28.05484592 45.77018691 28.7513842 44 31 C45.5159375 31.0928125 45.5159375 31.0928125 47.0625 31.1875 C51.37689099 31.80384157 55.08929522 33.71771589 58 37 C58 38.32 58 39.64 58 41 C58.845625 41.09796875 59.69125 41.1959375 60.5625 41.296875 C67.46590415 42.20686918 73.12545515 43.15895145 79 47 C79.495 48.98 79.495 48.98 80 51 C83.3 51 86.6 51 90 51 C90 51.33 90 51.66 90 52 C37.18405477 52.83947584 37.18405477 52.83947584 16 48 C14.85354004 47.7431543 13.70708008 47.48630859 12.52587891 47.22167969 C5.32241398 45.5886231 -1.84955567 43.85113967 -9 42 C-10.28290081 38.3769334 -9.70072887 35.99635923 -8.671875 32.34375 C-8.36636719 31.23773438 -8.06085938 30.13171875 -7.74609375 28.9921875 C-7.41738281 27.83976562 -7.08867187 26.68734375 -6.75 25.5 C-6.11872535 23.23988089 -5.48851167 20.97946517 -4.859375 18.71875 C-4.54935547 17.61144531 -4.23933594 16.50414062 -3.91992188 15.36328125 C-2.52515512 10.26394294 -1.25248353 5.13588219 0 0 Z " fill="#6F4F3E" transform="translate(221,164)"/>
<path d="M0 0 C0.33 0.33 0.66 0.66 1 1 C3.0708472 1.1584265 5.14678029 1.25124422 7.22265625 1.31640625 C8.48271484 1.35830078 9.74277344 1.40019531 11.04101562 1.44335938 C12.38150736 1.48317596 13.7220022 1.52288814 15.0625 1.5625 C16.40691523 1.60568042 17.7513166 1.64929456 19.09570312 1.69335938 C22.3970234 1.79985358 25.69842236 1.9018646 29 2 C31.83597092 9.52806886 31.83597092 9.52806886 32.921875 12.65234375 C35.24447655 19.06140934 38.46288144 23.93306929 43 29 C43.80244141 29.95519531 43.80244141 29.95519531 44.62109375 30.9296875 C47.3159789 33.73443607 48.91797193 34.94728957 52.88671875 35.140625 C55.63770619 34.90110241 58.29288373 34.53848606 61 34 C60.68817931 35.41681634 60.37551263 36.83344651 60.0625 38.25 C59.80146484 39.43335938 59.80146484 39.43335938 59.53515625 40.640625 C59.052444 42.76878703 58.53836822 44.88532842 58 47 C51.6225088 47.12504885 51.6225088 47.12504885 48.55537415 46.50892639 C46.07899948 46.01573348 43.82200994 45.84437766 41.30151367 45.79467773 C40.40095749 45.77473251 39.50040131 45.75478729 38.57255554 45.73423767 C37.6140419 45.71752518 36.65552826 45.70081268 35.66796875 45.68359375 C34.18034782 45.6524221 34.18034782 45.6524221 32.66267395 45.62062073 C29.50435101 45.55539948 26.34594712 45.49636798 23.1875 45.4375 C21.04230944 45.39428869 18.89712698 45.35067357 16.75195312 45.30664062 C11.50138689 45.19974628 6.25074068 45.09792963 1 45 C1.875 40.25 1.875 40.25 3 38 C3.41591713 33.94944183 3.41591713 33.94944183 3 30 C-0.13949834 26.99007407 -2.36400358 26.63878729 -6.640625 26.70703125 C-7.71054687 26.71669922 -8.78046875 26.72636719 -9.8828125 26.73632812 C-10.99398438 26.76146484 -12.10515625 26.78660156 -13.25 26.8125 C-14.37664062 26.82603516 -15.50328125 26.83957031 -16.6640625 26.85351562 C-19.44319264 26.88884355 -22.22135363 26.9381748 -25 27 C-24.54196138 24.07096355 -24.03646482 21.16479218 -23.5 18.25 C-23.37625 17.425 -23.2525 16.6 -23.125 15.75 C-21.95916937 9.72654175 -21.95916937 9.72654175 -19.18603516 7.62597656 C-17.15480487 6.63497245 -15.10800729 5.81126666 -13 5 C-10.95866032 3.59921057 -10.95866032 3.59921057 -9.375 2.25 C-6.21496178 -0.11278087 -3.99458969 -0.57065567 0 0 Z " fill="#7D665F" transform="translate(339,440)"/>
<path d="M0 0 C1.45880109 0.14107747 2.91703551 0.28802415 4.375 0.4375 C5.59316406 0.55931641 5.59316406 0.55931641 6.8359375 0.68359375 C9 1 9 1 11 2 C10.69249629 4.14655501 10.3788634 6.29223285 10.0625 8.4375 C9.88847656 9.63246094 9.71445313 10.82742188 9.53515625 12.05859375 C9 15 9 15 8 16 C7.85982461 19.37883248 7.85982461 19.37883248 9 23 C11.3623254 24.97061328 13.37128714 26.37540294 16 27.875 C22.73435139 32.01330297 30.35466549 36.70933098 34 44 C33.72003879 46.16821023 33.42575334 48.33457595 33.125 50.5 C31.76872889 64.96806153 40.57870833 78.62924479 46.7980957 91.18408203 C47.21406006 92.0295459 47.63002441 92.87500977 48.05859375 93.74609375 C48.43298584 94.49560303 48.80737793 95.2451123 49.19311523 96.01733398 C50 98 50 98 50 101 C49.26136719 100.31035156 48.52273438 99.62070312 47.76171875 98.91015625 C41.7279672 93.30996169 35.60566326 87.92743737 29.1796875 82.77734375 C25.18895082 79.52324843 25.18895082 79.52324843 24.1875 76.75 C23.10269505 74.23782012 22.1345544 72.83970493 20.375 70.8125 C18 68 18 68 18 66 C17.23236328 65.62101562 17.23236328 65.62101562 16.44921875 65.234375 C13.21799443 63.60587917 10.00109298 61.96015632 6.8125 60.25 C6.17119141 59.92773438 5.52988281 59.60546875 4.86914062 59.2734375 C3.01953125 58.265625 3.01953125 58.265625 0 56 C-1.52305329 50.50892019 -1.14412151 44.64214448 -1.1328125 38.984375 C-1.13376923 37.93219788 -1.13472595 36.88002075 -1.13571167 35.79595947 C-1.13639023 33.58044372 -1.1345586 31.36492596 -1.13037109 29.14941406 C-1.12499684 25.74800196 -1.13033804 22.34672063 -1.13671875 18.9453125 C-1.13605833 16.79166637 -1.13477792 14.63802033 -1.1328125 12.484375 C-1.13483673 11.46357849 -1.13686096 10.44278198 -1.13894653 9.39105225 C-1.13579437 8.44957336 -1.13264221 7.50809448 -1.12939453 6.53808594 C-1.12859894 5.70790955 -1.12780334 4.87773315 -1.12698364 4.0223999 C-1 2 -1 2 0 0 Z " fill="#4B3C31" transform="translate(241,357)"/>
<path d="M0 0 C5.89565608 0.45721414 11.71912051 1.08633273 17.5625 2 C26.01010986 3.25915431 34.47637506 3.63276899 43 4 C46.0413928 30.66649756 46.53568821 57.48782249 42 84 C40 83 40 83 39.24609375 81.05859375 C38.97925781 80.19363281 38.71242188 79.32867187 38.4375 78.4375 C36.38503174 72.39061275 33.36162484 67.17651468 29.90991211 61.83569336 C26.87116961 56.83444276 26.68475601 53.63974893 28 48 C29.72364871 40.05715561 29.72364871 40.05715561 27.5859375 32.515625 C18.72967565 23.16182034 6.06097226 16.402351 -5 10 C-3.33333333 6.66666667 -1.66666667 3.33333333 0 0 Z " fill="#716151" transform="translate(262,362)"/>
<path d="M0 0 C-0.23783203 1.41152344 -0.23783203 1.41152344 -0.48046875 2.8515625 C-3.20570801 22.14606286 -0.75593435 40.34552821 8.70703125 57.33984375 C9.34705078 58.65662109 9.34705078 58.65662109 10 60 C9.505 60.99 9.505 60.99 9 62 C8.5153125 61.50371094 8.030625 61.00742187 7.53125 60.49609375 C6.8609375 59.81675781 6.190625 59.13742187 5.5 58.4375 C4.8503125 57.77621094 4.200625 57.11492187 3.53125 56.43359375 C1.49288902 54.47387324 -0.57396318 52.62452771 -2.71484375 50.78125 C-7.36635856 46.73949447 -11.71776017 42.42935046 -16.0625 38.0625 C-16.82626953 37.30259766 -17.59003906 36.54269531 -18.37695312 35.75976562 C-21.91880033 32.2118588 -25.36575804 28.6356441 -28.6328125 24.83203125 C-31.80023848 21.15350931 -35.20467193 17.86657247 -38.8125 14.625 C-39.94424132 13.59660822 -41.07576147 12.56797297 -42.20703125 11.5390625 C-43.12871094 10.70117188 -44.05039063 9.86328125 -45 9 C-45.66 8.34 -46.32 7.68 -47 7 C-47 5.68 -47 4.36 -47 3 C-46.01717041 2.94465088 -45.03434082 2.88930176 -44.02172852 2.83227539 C-40.33701601 2.62411611 -36.65249377 2.41273708 -32.96801758 2.20043945 C-31.38050176 2.10940663 -29.79293718 2.01921956 -28.20532227 1.92993164 C-18.83570466 1.40235644 -9.35355569 0 0 0 Z " fill="#EC7B0D" transform="translate(270,268)"/>
<path d="M0 0 C4.8862291 4.10094228 9.50549253 8.35039538 14 12.875 C14.5775 13.44863281 15.155 14.02226562 15.75 14.61328125 C18.71823613 17.58814291 21.5682327 20.61823984 24.30859375 23.8046875 C28.66778454 28.84275868 33.35518575 33.53919109 38.0625 38.25 C38.93455078 39.13429688 39.80660156 40.01859375 40.70507812 40.9296875 C44.90031001 45.13444678 48.85919569 48.99486645 54 52 C50.88329058 53.03890314 49.89097004 52.98547154 46.77905273 52.39501953 C45.50643837 52.15949875 45.50643837 52.15949875 44.20811462 51.91921997 C43.29252274 51.74220551 42.37693085 51.56519104 41.43359375 51.3828125 C40.48492935 51.20620087 39.53626495 51.02958923 38.55885315 50.84762573 C35.51702696 50.2804847 32.47719192 49.70346229 29.4375 49.125 C26.42261405 48.55480538 23.40735253 47.98687301 20.39112854 47.42379761 C18.51475976 47.07316708 16.63916048 46.7183831 14.76451111 46.3586731 C8.85987341 45.25084692 2.98642511 44.50221333 -3 44 C-3.23612894 33.61032649 -2.92686551 23.35992679 -2.0625 13 C-1.97564941 11.94361328 -1.88879883 10.88722656 -1.79931641 9.79882812 C-1.13298632 2.26597264 -1.13298632 2.26597264 0 0 Z " fill="#B3461D" transform="translate(219,292)"/>
<path d="M0 0 C0.66 0 1.32 0 2 0 C2.97659316 4.61530695 3.22783387 8.41472827 2 13 C-1.89078064 16.69330617 -6.26172563 19.1149632 -10.90869141 21.74658203 C-14.25509502 23.7522365 -17.27348504 26.12419602 -20.3125 28.5625 C-20.89314209 29.02398437 -21.47378418 29.48546875 -22.07202148 29.9609375 C-26.38620726 33.425536 -30.50591642 37.07805301 -34.578125 40.82421875 C-37.13257166 43.11910067 -39.76472107 45.28191134 -42.4375 47.4375 C-46.24087503 50.51336588 -49.90082652 53.68753166 -53.5 57 C-61.05050098 63.93020486 -69.02733175 70.28931326 -77.125 76.5625 C-77.69395996 77.00464844 -78.26291992 77.44679688 -78.84912109 77.90234375 C-82.88026691 81 -82.88026691 81 -84 81 C-84.42193146 65.84422201 -84.42193146 65.84422201 -81.31640625 61.81640625 C-78.9489849 60.3267454 -76.53736176 59.17512034 -74 58 C-72.22145476 56.81251209 -70.47227813 55.58021792 -68.75 54.3125 C-67.82316406 53.63445312 -66.89632813 52.95640625 -65.94140625 52.2578125 C-62.19523347 49.3822642 -58.61552397 46.33944275 -55.03027344 43.26757812 C-42.93646193 32.92966112 -30.10255361 23.48278239 -17.44238281 13.85791016 C-14.06136213 11.28598219 -10.684055 8.70932297 -7.3125 6.125 C-5.82169922 4.98417969 -5.82169922 4.98417969 -4.30078125 3.8203125 C-1.97605881 2.05326101 -1.97605881 2.05326101 0 0 Z " fill="#584133" transform="translate(405,354)"/>
<path d="M0 0 C-1.2794114 7.60913098 -3.42756933 14.73225897 -6 22 C-23.01010801 22.87987352 -39.96858823 23.12884564 -57 23 C-56.85904936 21.3745692 -56.71207913 19.74965949 -56.5625 18.125 C-56.48128906 17.22007812 -56.40007812 16.31515625 -56.31640625 15.3828125 C-56 13 -56 13 -55 11 C-54.77532169 9.46331135 -54.59203195 7.92031946 -54.4375 6.375 C-54.35371094 5.55773437 -54.26992188 4.74046875 -54.18359375 3.8984375 C-54.12300781 3.27195312 -54.06242187 2.64546875 -54 2 C-52.84588623 2.01047363 -51.69177246 2.02094727 -50.50268555 2.03173828 C-46.17329069 2.06825595 -41.84390912 2.09101476 -37.5144043 2.10986328 C-35.64947206 2.1198491 -33.78455519 2.13344246 -31.91967773 2.15087891 C-18.35773907 2.36337543 -18.35773907 2.36337543 -4.97192383 0.43310547 C-3 0 -3 0 0 0 Z " fill="#252423" transform="translate(394,495)"/>
<path d="M0 0 C1.08571289 -0.01836914 1.08571289 -0.01836914 2.19335938 -0.03710938 C4.06789471 -0.04234064 5.9419635 0.06501204 7.8125 0.1875 C9.8125 2.1875 9.8125 2.1875 10.375 4.8125 C9.62758048 9.29701709 7.45897966 11.2637232 4.34375 14.453125 C2.59188501 16.05177887 2.59188501 16.05177887 2.8125 18.1875 C3.49957031 18.23648438 4.18664062 18.28546875 4.89453125 18.3359375 C5.79558594 18.41070312 6.69664062 18.48546875 7.625 18.5625 C8.51832031 18.63210937 9.41164063 18.70171875 10.33203125 18.7734375 C12.8125 19.1875 12.8125 19.1875 15.8125 21.1875 C16.25 23.57421875 16.25 23.57421875 15.8125 26.1875 C14.0625 28.20703125 14.0625 28.20703125 11.8125 30 C11.07 30.60457031 10.3275 31.20914063 9.5625 31.83203125 C8.985 32.27933594 8.4075 32.72664063 7.8125 33.1875 C9.4625 34.5075 11.1125 35.8275 12.8125 37.1875 C12.45176776 39.80280876 12.01500273 40.98499727 10.125 42.875 C3.18745084 46.8125279 -6.59451839 45.61118405 -14.1875 44.1875 C-15.1875 43.1875 -15.1875 43.1875 -15.53125 40.92578125 C-15.05791879 37.15526785 -13.43442208 35.9311636 -10.6875 33.375 C-9.8521875 32.58480469 -9.016875 31.79460937 -8.15625 30.98046875 C-7.5065625 30.38878906 -6.856875 29.79710937 -6.1875 29.1875 C-7.156875 28.548125 -8.12625 27.90875 -9.125 27.25 C-12.1875 25.1875 -12.1875 25.1875 -13.1875 24.1875 C-13.5 21.875 -13.5 21.875 -13.1875 19.1875 C-11.1875 16.875 -11.1875 16.875 -9.1875 15.1875 C-10.30125 14.919375 -11.415 14.65125 -12.5625 14.375 C-16.1875 13.1875 -16.1875 13.1875 -18.1875 10.1875 C-18.04478144 6.76225455 -17.85182367 4.87554952 -15.4375 2.375 C-10.58557163 -0.18573997 -5.37402902 0.00486337 0 0 Z " fill="#9B8C68" transform="translate(339.1875,166.8125)"/>
<path d="M0 0 C3.35258298 1.64102589 5.39418644 3.50884447 7.78515625 6.36328125 C8.44866346 10.49177056 8.22029963 12.56261743 6.22265625 16.23828125 C3.05432574 19.00041554 0.93636665 19.01444004 -3.21484375 19.36328125 C-6.1171875 19.05859375 -6.1171875 19.05859375 -9.15234375 18.48828125 C-13.91318705 17.69652113 -18.45634367 17.28789463 -23.28515625 17.21484375 C-24.88822632 17.18559814 -24.88822632 17.18559814 -26.52368164 17.15576172 C-28.66591742 17.12779226 -30.80861651 17.12359477 -32.95092773 17.14501953 C-40.2594814 17.03031527 -40.2594814 17.03031527 -43.01879883 15.10375977 C-45.39743291 12.39840647 -46.2160059 10.35592094 -46.77734375 6.80078125 C-46.12913964 2.83953388 -45.02685001 1.17528751 -42.21484375 -1.63671875 C-31.61854985 -6.9348657 -11.17872401 -3.23769956 0 0 Z " fill="#F7F7F8" transform="translate(371.21484375,264.63671875)"/>
<path d="M0 0 C3.3 0 6.6 0 10 0 C10.17451875 6.04640347 10.30075605 12.09130559 10.38452148 18.13964844 C10.41947898 20.19199192 10.46706356 22.24416423 10.52807617 24.29589844 C10.92377409 37.95578963 10.71599976 46.97892779 1.53491211 57.71289062 C0.234375 59.0703125 0.234375 59.0703125 -2.25 61.125 C-3.08015625 61.82882812 -3.9103125 62.53265625 -4.765625 63.2578125 C-9.56502242 67 -9.56502242 67 -13 67 C-13.2001243 63.05370275 -13.34399039 59.10942759 -13.43945312 55.15917969 C-13.49873314 53.16756242 -13.60047384 51.17735331 -13.703125 49.1875 C-13.87253517 40.80169666 -12.84566925 36.21653165 -6.97045898 30.09521484 C0.61202746 22.0326577 -0.22563692 10.35673478 0 0 Z " fill="#890000" transform="translate(185,308)"/>
<path d="M0 0 C0.33 0.33 0.66 0.66 1 1 C3.0708472 1.1584265 5.14678029 1.25124422 7.22265625 1.31640625 C8.48271484 1.35830078 9.74277344 1.40019531 11.04101562 1.44335938 C12.38150736 1.48317596 13.7220022 1.52288814 15.0625 1.5625 C16.40691523 1.60568042 17.7513166 1.64929456 19.09570312 1.69335938 C22.3970234 1.79985358 25.69842236 1.9018646 29 2 C29.495 3.98 29.495 3.98 30 6 C28.865625 6.515625 27.73125 7.03125 26.5625 7.5625 C17.76114507 12.01769913 11.99873658 17.54312106 7 26 C6.34 26.99 5.68 27.98 5 29 C2.83125748 28.49396008 1.00032373 28.00016187 -1 27 C-2.81341842 26.91528636 -4.62994161 26.89278917 -6.4453125 26.90234375 C-7.52167969 26.90556641 -8.59804688 26.90878906 -9.70703125 26.91210938 C-11.39892578 26.92467773 -11.39892578 26.92467773 -13.125 26.9375 C-14.26066406 26.94201172 -15.39632813 26.94652344 -16.56640625 26.95117188 C-19.37765638 26.96298385 -22.1888023 26.97945493 -25 27 C-24.54196138 24.07096355 -24.03646482 21.16479218 -23.5 18.25 C-23.37625 17.425 -23.2525 16.6 -23.125 15.75 C-21.95916937 9.72654175 -21.95916937 9.72654175 -19.18603516 7.62597656 C-17.15480487 6.63497245 -15.10800729 5.81126666 -13 5 C-10.95866032 3.59921057 -10.95866032 3.59921057 -9.375 2.25 C-6.21496178 -0.11278087 -3.99458969 -0.57065567 0 0 Z " fill="#958478" transform="translate(339,440)"/>
<path d="M0 0 C0.07742734 7.26921588 0.12916225 14.53832187 0.16479492 21.80786133 C0.17968287 24.26981579 0.19999983 26.73174471 0.22631836 29.19360352 C0.39483633 45.3878501 -0.32479802 61.01571974 -3 77 C-3.15731598 78.00854034 -3.31463196 79.01708069 -3.47671509 80.05618286 C-3.64142303 81.05672699 -3.80613098 82.05727112 -3.97583008 83.08813477 C-4.12369461 84.00353531 -4.27155914 84.91893585 -4.42390442 85.86207581 C-4.70907173 86.92034828 -4.70907173 86.92034828 -5 88 C-5.99 88.495 -5.99 88.495 -7 89 C-17.71894005 66.52595569 -17.71894005 66.52595569 -17 57 C-16.34 57 -15.68 57 -15 57 C-14.81824219 56.17757812 -14.63648438 55.35515625 -14.44921875 54.5078125 C-13.267484 49.25969819 -12.07653588 44.06366833 -10.4375 38.9375 C-8.30352444 31.929075 -6.84616545 24.98775632 -7.08984375 17.6328125 C-7.12404419 16.49888062 -7.12404419 16.49888062 -7.15893555 15.34204102 C-7.21848075 13.85149517 -7.30607032 12.36173826 -7.42504883 10.87475586 C-7.551392 7.96000861 -7.57684747 5.70610403 -5.68164062 3.38623047 C-1.69951923 0 -1.69951923 0 0 0 Z " fill="#4A3B30" transform="translate(407,380)"/>
<path d="M0 0 C-0.11739459 1.47978969 -0.24446132 2.95881184 -0.375 4.4375 C-0.47941406 5.67306641 -0.47941406 5.67306641 -0.5859375 6.93359375 C-0.94287038 9.57691744 -1.43839184 12.09330847 -2.02587891 14.69165039 C-2.20776764 15.49929337 -2.38965637 16.30693634 -2.57705688 17.13905334 C-2.71662811 17.75316574 -2.85619934 18.36727814 -3 19 C-9.24524946 18.50097455 -15.48886709 17.9843263 -21.73168945 17.45581055 C-23.85245264 17.27831312 -25.97354893 17.10474746 -28.0949707 16.93530273 C-31.15673819 16.69004487 -34.21700075 16.43033834 -37.27734375 16.16796875 C-38.6841465 16.05995186 -38.6841465 16.05995186 -40.11936951 15.94975281 C-46.16066745 15.41386364 -51.31248273 14.11917756 -57 12 C-57 8.7 -57 5.4 -57 2 C-55.60765137 2.01047363 -54.21530273 2.02094727 -52.78076172 2.03173828 C-47.60354189 2.06800196 -42.42633325 2.09092375 -37.24902344 2.10986328 C-35.01039745 2.11990632 -32.77178452 2.13354331 -30.53320312 2.15087891 C-27.31116505 2.17520157 -24.08930079 2.18650026 -20.8671875 2.1953125 C-19.37153763 2.21079636 -19.37153763 2.21079636 -17.84567261 2.22659302 C-11.58011131 2.22759936 -6.07694535 0 0 0 Z " fill="#262523" transform="translate(286,504)"/>
<path d="M0 0 C3.71414705 2.12236974 5.34578133 4.13540294 7 8 C8.35033156 15.30600442 5.79239812 20.87532603 2 27 C0.09647714 29.75052367 -1.89034559 32.4046176 -4 35 C-9.75 34.125 -9.75 34.125 -12 33 C-11.88140625 32.38511719 -11.7628125 31.77023437 -11.640625 31.13671875 C-11.2550775 28.71933595 -10.9739936 26.44893628 -11 24 C-12.46288557 21.69403953 -12.46288557 21.69403953 -15 21 C-18.37036311 21.24074022 -19.58798021 21.58798021 -22 24 C-24.26274788 23.64644564 -25.95088852 23.02455574 -28 22 C-27.68640314 15.88486131 -24.82365943 11.58511623 -21 7 C-14.19279398 0.93792414 -9.17172975 -0.96753796 0 0 Z " fill="#D10000" transform="translate(133,409)"/>
<path d="M0 0 C1.33224609 0.39832031 1.33224609 0.39832031 2.69140625 0.8046875 C22.25287539 6.33577135 42.8093322 6.32520196 63 7 C62.67 10.96 62.34 14.92 62 19 C57.92925753 20.01768562 56.89544988 19.68488382 53.12228394 18.49371338 C48.69605469 17.46402618 44.11735841 17.75964012 39.59765625 17.8046875 C37.9811039 17.80893234 37.9811039 17.80893234 36.33189392 17.81326294 C32.90864701 17.82440807 29.48566709 17.84950244 26.0625 17.875 C23.73372775 17.88503711 21.40495138 17.89416168 19.07617188 17.90234375 C13.38402435 17.92432884 7.69203126 17.95774987 2 18 C1.6603981 16.12612523 1.32861309 14.25083303 1 12.375 C0.7215625 10.80878906 0.7215625 10.80878906 0.4375 9.2109375 C0.01284203 6.09425135 -0.07545206 3.14069188 0 0 Z " fill="#79635C" transform="translate(226,477)"/>
<path d="M0 0 C2 3 2 3 3.625 5.9375 C7.1883616 10.53236101 11.58592183 12.19530728 17 14 C30.60487969 15.00350382 42.13642049 12.39340715 55 8 C48.06204645 16.53901975 39.69684037 25.43438654 29 29 C19.1999111 29.81779128 12.98760189 29.02702671 5.36328125 22.87109375 C-3.59366697 15.1152199 -3.59366697 15.1152199 -4.375 9.125 C-3.9061461 5.21788417 -2.35801313 3.09489224 0 0 Z " fill="#D5BE4E" transform="translate(79,296)"/>
<path d="M0 0 C3.32147297 1.38177278 6.46225537 3.04014118 9.625 4.75 C10.45773438 5.18054688 11.29046875 5.61109375 12.1484375 6.0546875 C16.82033543 8.53942302 20.43756247 11.00474295 24 15 C24.928125 15.9075 25.85625 16.815 26.8125 17.75 C29.68811078 22.02233602 29.91458652 24.99517931 29 30 C27.28048372 35.18598794 24.84410467 39.21463981 20 42 C17.75 41.875 17.75 41.875 16 41 C13.13650808 35.27301617 15.2690164 27.8038862 17 22 C17.33 21.34 17.66 20.68 18 20 C16.845 20 15.69 20 14.5 20 C9.3809198 19.45298505 5.23484427 17.46117214 0.6875 15.1875 C-0.00601563 14.84396484 -0.69953125 14.50042969 -1.4140625 14.14648438 C-5.17143511 12.20213525 -8.27937835 10.33053431 -11 7 C-11.5 4.4375 -11.5 4.4375 -11 2 C-7.82025355 -1.81569574 -4.41055909 -1.1839661 0 0 Z " fill="#040303" transform="translate(236,410)"/>
<path d="M0 0 C3.07102407 1.35686694 5.03666234 2.84175844 7.29296875 5.31640625 C7.91510254 5.99034424 8.53723633 6.66428223 9.17822266 7.35864258 C9.84128418 8.08591553 10.5043457 8.81318848 11.1875 9.5625 C17.07184431 15.90931252 23.0256457 22.17158509 29.125 28.3125 C29.82262451 29.022854 30.52024902 29.73320801 31.23901367 30.46508789 C34.93649609 34.17061901 38.5191516 37.2849688 43 40 C39.20047507 41.26650831 36.3108244 40.52333051 32.48828125 39.78515625 C31.76005661 39.65056503 31.03183197 39.51597382 30.28153992 39.37730408 C27.95715607 38.94604179 25.63488015 38.50441234 23.3125 38.0625 C21.73645591 37.76819508 20.16028526 37.47456701 18.58398438 37.18164062 C14.72114419 36.46227122 10.86016213 35.73359832 7 35 C6.00952058 31.04441128 5.03472934 27.08511034 4.0625 23.125 C3.78470703 22.01640625 3.50691406 20.9078125 3.22070312 19.765625 C1.6124005 13.17739737 0.43579977 6.77165803 0 0 Z " fill="#EA7A0D" transform="translate(230,304)"/>
<path d="M0 0 C-0.51286415 6.46208831 -1.84646293 11.89872753 -4 18 C-5.95292969 18.09087891 -5.95292969 18.09087891 -7.9453125 18.18359375 C-9.67188399 18.26804562 -11.398446 18.35269126 -13.125 18.4375 C-13.9809375 18.47681641 -14.836875 18.51613281 -15.71875 18.55664062 C-20.21721792 18.78156402 -24.56806207 19.13540883 -29 20 C-33.66768626 14.21676608 -37 9.70560113 -37 2 C-24.65077713 0.79986875 -12.42068542 -0.38747372 0 0 Z " fill="#D0BB4D" transform="translate(203,272)"/>
<path d="M0 0 C3.71455795 1.59195341 3.85158326 2.47950293 5.4375 6.0625 C7.94175093 11.65135207 10.63539698 13.71652004 16.0625 16.3125 C27.85925621 22.0600925 27.85925621 22.0600925 30.0625 25.3125 C30.125 27.4375 30.125 27.4375 29.0625 29.3125 C23.79710778 31.87627736 18.80974036 32.0851057 13.0625 31.3125 C9.73522864 30.05633827 6.95663529 28.3643967 4.0625 26.3125 C3.485 25.91675781 2.9075 25.52101562 2.3125 25.11328125 C-2.22157253 21.70139167 -4.71142745 17.5820268 -6.6875 12.3125 C-7.07568846 9.20699233 -7.22175366 6.43929021 -6.9375 3.3125 C-4.75089689 0.62129617 -3.4290242 0.36478981 0 0 Z " fill="#70503F" transform="translate(182.9375,207.6875)"/>
<path d="M0 0 C7.59 0.33 15.18 0.66 23 1 C23.33 7.6 23.66 14.2 24 21 C16.41 21 8.82 21 1 21 C0.67 14.07 0.34 7.14 0 0 Z " fill="#860000" transform="translate(178,438)"/>
<path d="M0 0 C0.33 0.99 0.66 1.98 1 3 C-1.31 4.98 -3.62 6.96 -6 9 C-6.05167527 11.42267086 -6.05167527 11.42267086 -5 14 C0.80102784 17.4806167 4.67735267 17.07109845 11.20703125 15.453125 C11.79871094 15.30359375 12.39039063 15.1540625 13 15 C8.06907934 21.48805351 2.4350972 27.03392438 -5.87890625 28.51171875 C-11.67671724 28.74047592 -15.59121349 28.06964908 -20 24 C-21.375 21.75 -21.375 21.75 -22 20 C-19.2463138 14.97152954 -16.21788604 12.60697173 -11.390625 9.5859375 C-7.25284481 6.84093953 -3.5105094 3.5105094 0 0 Z " fill="#D5BF4F" transform="translate(131,316)"/>
<path d="M0 0 C3.25507311 1.40933935 5.15079659 3.11953071 7.5625 5.6875 C10.17145637 8.07452246 11.40072609 8.95262657 14.96484375 9.234375 C17.69515482 8.96731755 20.32110608 8.58600804 23 8 C22.68817931 9.41681634 22.37551263 10.83344651 22.0625 12.25 C21.80146484 13.43335938 21.80146484 13.43335938 21.53515625 14.640625 C21.052444 16.76878703 20.53836822 18.88532842 20 21 C14.75725085 21.23301107 10.07586998 20.51735113 4.93359375 19.51171875 C0.31620961 18.70628956 -4.32870294 18.34334485 -9 18 C-8.40251953 16.93072266 -8.40251953 16.93072266 -7.79296875 15.83984375 C-4.91878363 10.64393245 -2.20578782 5.51446954 0 0 Z " fill="#948377" transform="translate(377,466)"/>
<path d="M0 0 C0 0.33 0 0.66 0 1 C-5.67365061 1.98201477 -11.34789721 2.96048589 -17.02270508 3.93579102 C-18.949953 4.2675185 -20.87703957 4.60018494 -22.80395508 4.93383789 C-25.5863237 5.41544322 -28.36927037 5.89358002 -31.15234375 6.37109375 C-32.00271713 6.51904892 -32.85309052 6.66700409 -33.72923279 6.81944275 C-41.4943042 8.14557036 -49.11144688 9.13436536 -57.00390625 9.09765625 C-58.23818359 9.09443359 -59.47246094 9.09121094 -60.74414062 9.08789062 C-62.00419922 9.07951172 -63.26425781 9.07113281 -64.5625 9.0625 C-66.50479492 9.05573242 -66.50479492 9.05573242 -68.48632812 9.04882812 C-71.657601 9.03712601 -74.82877546 9.02073113 -78 9 C-75.46113479 7.30742319 -73.70370437 6.43276273 -70.875 5.5 C-69.81925781 5.14421875 -69.81925781 5.14421875 -68.7421875 4.78125 C-61.38687423 2.68571915 -54.11695744 1.51105252 -46.5 0.875 C-45.49839844 0.79008301 -44.49679687 0.70516602 -43.46484375 0.61767578 C-29.00731931 -0.463159 -14.48653419 -0.17360338 0 0 Z " fill="#86774F" transform="translate(325,148)"/>
<path d="M0 0 C10.89 0 21.78 0 33 0 C32.67 3.96 32.34 7.92 32 12 C27.71716577 13.07070856 26.32072569 12.75838767 22.1875 11.625 C14.77162757 9.77945902 7.61283562 9.30535579 0 9 C0 6.03 0 3.06 0 0 Z " fill="#938377" transform="translate(256,484)"/>
<path d="M0 0 C0.7421875 1.5703125 0.7421875 1.5703125 1 4 C-0.1888419 6.47924315 -1.37321138 8.59887041 -2.875 10.875 C-3.48649902 11.81327637 -3.48649902 11.81327637 -4.11035156 12.77050781 C-8.70800965 19.49939037 -14.32361525 23.32633658 -22 26 C-24.3515625 26.30078125 -24.3515625 26.30078125 -26.625 26.3125 C-27.38039062 26.32925781 -28.13578125 26.34601563 -28.9140625 26.36328125 C-31.55564437 25.90323047 -32.41821853 25.13860796 -34 23 C-34.4375 19.5625 -34.4375 19.5625 -34 16 C-32 13.5625 -32 13.5625 -30 12 C-29.175 12.350625 -28.35 12.70125 -27.5 13.0625 C-20.98690694 14.8070785 -16.59405172 13.58659961 -10.875 10.375 C-6.32138771 7.47980206 -3.25337605 4.28075796 0 0 Z " fill="#D4BD4D" transform="translate(176,325)"/>
<path d="M0 0 C3.74030185 1.60298651 4.73158465 2.59737698 7 6 C7.53662042 9.06720936 7.53076912 11.931491 7 15 C4.9375 17.625 4.9375 17.625 2 19 C-3.94525831 19.34299567 -7.75671704 16.6384253 -12.16015625 12.97265625 C-14 11 -14 11 -15.3125 7.3125 C-15 4 -15 4 -13.75 1.5625 C-9.34428752 -0.94074573 -4.94369911 -0.61612867 0 0 Z " fill="#050101" transform="translate(131,411)"/>
<path d="M0 0 C3.3 0 6.6 0 10 0 C10.04961596 3.67158079 10.03841721 7.32902223 10 11 C10.02900391 12.81757813 10.02900391 12.81757813 10.05859375 14.671875 C9.91182651 23.94756473 9.91182651 23.94756473 7.328125 26.9296875 C5.25854712 28.24456968 3.29837768 29.15711669 1 30 C-0.3921875 30.680625 -0.3921875 30.680625 -1.8125 31.375 C-4 32 -4 32 -7 31 C-6.65066406 30.31292969 -6.30132812 29.62585938 -5.94140625 28.91796875 C-5.48636719 28.01691406 -5.03132812 27.11585938 -4.5625 26.1875 C-4.11003906 25.29417969 -3.65757812 24.40085937 -3.19140625 23.48046875 C-1.59587152 20.15861775 -0.8645265 17.41403374 -0.68359375 13.76953125 C-0.64169922 12.96708984 -0.59980469 12.16464844 -0.55664062 11.33789062 C-0.51732422 10.50451172 -0.47800781 9.67113281 -0.4375 8.8125 C-0.37272461 7.5450293 -0.37272461 7.5450293 -0.30664062 6.25195312 C-0.20068482 4.16815567 -0.0998498 2.08409897 0 0 Z " fill="#D40000" transform="translate(185,308)"/>
<path d="M0 0 C2 2 2 2 2.1953125 5.4765625 C2.18201493 6.85950968 2.15816232 8.24238654 2.125 9.625 C2.11597656 10.33140625 2.10695312 11.0378125 2.09765625 11.765625 C2.07407603 13.51056098 2.03820461 15.25532295 2 17 C0.02 16.67 -1.96 16.34 -4 16 C-4.66 17.32 -5.32 18.64 -6 20 C-8 19 -8 19 -9 16 C-13.0284349 15.81688932 -15.48375245 16.05841983 -19 18 C-19.29233765 21.70943991 -19.45060222 25.29976059 -19 29 C-18.175 29.763125 -17.35 30.52625 -16.5 31.3125 C-12.65510255 35.44576476 -13.62857049 39.67425959 -13.82421875 45.11328125 C-13.88222656 46.06589844 -13.94023437 47.01851563 -14 48 C-15.65 47.67 -17.3 47.34 -19 47 C-19.50869827 43.3344862 -20.00536408 39.66743573 -20.5 36 C-20.64308594 34.97003906 -20.78617188 33.94007813 -20.93359375 32.87890625 C-22.46339815 21.44179718 -22.46339815 21.44179718 -22 16 C-18.875 13.6875 -18.875 13.6875 -16.7109375 12.5625 C-13.02848142 10.44004693 -9.81380033 7.8386241 -6.5 5.1875 C-5.86433105 4.6824292 -5.22866211 4.1773584 -4.57373047 3.65698242 C-3.04637884 2.44146681 -1.52278965 1.22122597 0 0 Z " fill="#840000" transform="translate(195,376)"/>
<path d="M0 0 C0.25070727 2.86592822 0.36668097 4.46714941 -1.29296875 6.87890625 C-7.08907745 12.02967501 -13.35309385 14.66840047 -21 16 C-24.41025615 15.65368344 -25.55404713 15.44595287 -28 13 C-28.34203535 10.33212426 -28.5308354 8.7115057 -26.88671875 6.5078125 C-19.5104878 0.61293642 -9.12806579 -0.83829176 0 0 Z " fill="#70503F" transform="translate(412,216)"/>
<path d="M0 0 C3.78755564 0.92117646 7.14479391 2.33664236 10.62109375 4.0546875 C11.56952148 4.48587891 11.56952148 4.48587891 12.53710938 4.92578125 C14.359375 5.8203125 14.359375 5.8203125 17.30859375 7.8046875 C18.2265625 10.5390625 18.2265625 10.5390625 18.30859375 12.8046875 C15.81194364 15.40988761 13.68330598 16.10647371 10.18359375 16.3046875 C3.89980855 16.11711182 -2.25754567 13.23854808 -6.69140625 8.8046875 C-7.21130456 5.51199818 -6.96452351 4.20385888 -5.06640625 1.4296875 C-2.69140625 -0.1953125 -2.69140625 -0.1953125 0 0 Z " fill="#70503F" transform="translate(163.69140625,233.1953125)"/>
<path d="M0 0 C4.39383706 1.59623144 8.28995807 3.78024333 12.3125 6.125 C12.95767578 6.49753906 13.60285156 6.87007813 14.26757812 7.25390625 C15.84675945 8.16632213 17.42361864 9.08275509 19 10 C14.59025383 15.2916954 9.91594956 20.17838636 5 25 C3.99931929 25.99931883 2.99920736 26.99920799 2 28 C1.6610769 24.64637391 1.32988036 21.29202668 1 17.9375 C0.90460938 16.99455078 0.80921875 16.05160156 0.7109375 15.08007812 C0.21774722 10.02487778 -0.11270932 5.07896392 0 0 Z " fill="#C3C5BB" transform="translate(320,378)"/>
<path d="M0 0 C4.57926207 1.05097818 5.15276243 2.03805922 7.75 5.8125 C10.67000293 10.91102197 12.14137658 15.05825075 10.8125 20.875 C9.3125 23.9375 9.3125 23.9375 7.8125 25.875 C3.86373445 24.64156537 2.54253744 22.14961035 0.66601562 18.61132812 C0.15071289 17.5971582 0.15071289 17.5971582 -0.375 16.5625 C-0.73013672 15.89798828 -1.08527344 15.23347656 -1.45117188 14.54882812 C-3.26050458 11.07779327 -4.94150713 7.84602769 -5.1875 3.875 C-3.1875 0.875 -3.1875 0.875 0 0 Z " fill="#70503F" transform="translate(418.1875,196.125)"/>
<path d="M0 0 C1.57104492 0.00676758 1.57104492 0.00676758 3.17382812 0.01367188 C5.72011536 0.02529876 8.2662746 0.04163719 10.8125 0.0625 C9.8125 3.0625 9.8125 3.0625 6.5625 4.6875 C0.48585364 6.91560367 -4.90504053 7.24485758 -11.3125 7.25 C-12.12332031 7.26224609 -12.93414062 7.27449219 -13.76953125 7.28710938 C-14.54941406 7.28904297 -15.32929688 7.29097656 -16.1328125 7.29296875 C-16.83937988 7.29707764 -17.54594727 7.30118652 -18.27392578 7.30541992 C-20.1875 7.0625 -20.1875 7.0625 -23.1875 5.0625 C-23.1875 3.7425 -23.1875 2.4225 -23.1875 1.0625 C-15.43325135 0.21346673 -7.79703932 -0.06501701 0 0 Z " fill="#F5DE6A" transform="translate(189.1875,272.9375)"/>
<path d="M0 0 C1 3 1 3 0.4375 5.0625 C0.293125 5.701875 0.14875 6.34125 0 7 C2.41695751 9.41695751 3.68050247 9.45961668 7 10 C11.77777778 10.77777778 11.77777778 10.77777778 14 13 C14.71927295 15.31765729 15.3909893 17.65095874 16 20 C17.98 20 19.96 20 22 20 C20.92598892 22.91517292 20.22189824 24.77810176 18 27 C15.0574037 26.69347955 12.65457692 26.32728846 10 25 C10.11859375 24.38511719 10.2371875 23.77023437 10.359375 23.13671875 C10.7449225 20.71933595 11.0260064 18.44893628 11 16 C9.53711443 13.69403953 9.53711443 13.69403953 7 13 C3.62963689 13.24074022 2.41201979 13.58798021 0 16 C-2.26274788 15.64644564 -3.95088852 15.02455574 -6 14 C-5.57202798 8.29370646 -3.15654048 4.58921384 0 0 Z " fill="#850000" transform="translate(111,417)"/>
<path d="M0 0 C-0.33 4.95 -0.66 9.9 -1 15 C-7.27 15 -13.54 15 -20 15 C-16.36106141 11.36106141 -12.7909966 7.98338242 -8.875 4.6875 C-8.35035156 4.23310547 -7.82570313 3.77871094 -7.28515625 3.31054688 C-3.35232613 0 -3.35232613 0 0 0 Z " fill="#C7C8BE" transform="translate(368,414)"/>
<path d="M0 0 C1.9375 0.375 1.9375 0.375 4 1 C4.33 1.66 4.66 2.32 5 3 C10.32170494 3.29562367 10.32170494 3.29562367 15 1 C15.6875 3.3125 15.6875 3.3125 16 6 C14.6875 7.8125 14.6875 7.8125 13 9 C12.34 9 11.68 9 11 9 C11 10.98 11 12.96 11 15 C9.68 15.33 8.36 15.66 7 16 C6.6596875 14.329375 6.6596875 14.329375 6.3125 12.625 C5.39376342 8.83961627 5.39376342 8.83961627 2.375 7.5625 C1.59125 7.376875 0.8075 7.19125 0 7 C0 4.69 0 2.38 0 0 Z " fill="#737373" transform="translate(180,397)"/>
<path d="M0 0 C0.33 0.66 0.66 1.32 1 2 C0.29706993 3.65705737 -0.41250824 5.31167147 -1.15869141 6.94970703 C-2.61424169 10.49692445 -3.36489954 14.20218974 -4.1875 17.9375 C-4.36474609 18.71673828 -4.54199219 19.49597656 -4.72460938 20.29882812 C-5.1556824 22.19787954 -5.57869008 24.09875878 -6 26 C-6.66 25.67 -7.32 25.34 -8 25 C-8.59765625 22.96875 -8.59765625 22.96875 -9.0625 20.5 C-9.45864843 17.46226779 -9.45864843 17.46226779 -11 15 C-11.40625 12.2421875 -11.40625 12.2421875 -11 9 C-8.59375 6.4453125 -8.59375 6.4453125 -5.5 4.125 C-4.4790625 3.34382813 -3.458125 2.56265625 -2.40625 1.7578125 C-1.6121875 1.17773438 -0.818125 0.59765625 0 0 Z " fill="#6A5A4C" transform="translate(393,390)"/>
<path d="M0 0 C0.33 0 0.66 0 1 0 C1.08636719 0.88042969 1.17273438 1.76085937 1.26171875 2.66796875 C1.79983099 9.81045352 1.79983099 9.81045352 5.625 15.4375 C9.35821551 19.46544305 8.36597781 23.82581683 8.17578125 29.11328125 C8.11777344 30.06589844 8.05976563 31.01851563 8 32 C6.35 31.67 4.7 31.34 3 31 C2.49130173 27.3344862 1.99463592 23.66743573 1.5 20 C1.35691406 18.97003906 1.21382812 17.94007813 1.06640625 16.87890625 C0.30596126 11.19367468 -0.16544234 5.73533461 0 0 Z " fill="#730000" transform="translate(173,392)"/>
<path d="M0 0 C0.33 0 0.66 0 1 0 C2.14886792 14.99910901 -6.2906682 25.83134883 -14 38 C-15 35 -15 35 -13.84765625 32.3828125 C-13.25855469 31.30773437 -12.66945312 30.23265625 -12.0625 29.125 C-7.11812802 19.79681354 -3.6175485 9.89901835 0 0 Z " fill="#7F8DB2" transform="translate(152,367)"/>
<path d="M0 0 C1.17093452 -0.0049926 1.17093452 -0.0049926 2.36552429 -0.01008606 C3.9999432 -0.01511032 5.63437221 -0.01749579 7.26879883 -0.01733398 C9.77246611 -0.01954072 12.27570613 -0.03779824 14.77929688 -0.05664062 C16.37369642 -0.05957145 17.96809804 -0.06155832 19.5625 -0.0625 C20.30937576 -0.06968552 21.05625153 -0.07687103 21.82575989 -0.08427429 C25.5835045 -0.06763228 27.24135056 0.02938996 30.44921875 2.16796875 C26.81921875 2.16796875 23.18921875 2.16796875 19.44921875 2.16796875 C19.11921875 2.82796875 18.78921875 3.48796875 18.44921875 4.16796875 C17.87961426 4.10230713 17.31000977 4.03664551 16.72314453 3.96899414 C9.59646476 3.19675988 2.48604379 2.85946371 -4.67578125 2.60546875 C-5.82304687 2.56228516 -6.9703125 2.51910156 -8.15234375 2.47460938 C-10.95173268 2.36963229 -13.7511934 2.2674741 -16.55078125 2.16796875 C-16.55078125 1.83796875 -16.55078125 1.50796875 -16.55078125 1.16796875 C-10.99428553 0.38313086 -5.60794658 0.00847047 0 0 Z " fill="#7A9FAD" transform="translate(340.55078125,258.83203125)"/>
<path d="M0 0 C7.59 0.33 15.18 0.66 23 1 C23 2.32 23 3.64 23 5 C7.25512528 5.18451025 7.25512528 5.18451025 0 4 C0 2.68 0 1.36 0 0 Z " fill="#840000" transform="translate(177,429)"/>
<path d="M0 0 C4.31868132 1.25961538 4.31868132 1.25961538 6 3.875 C6.1875 6.5625 6.1875 6.5625 6 8.875 C5.01 9.205 4.02 9.535 3 9.875 C0.73828125 8.44140625 0.73828125 8.44140625 -1.6875 6.4375 C-2.89986328 5.44943359 -2.89986328 5.44943359 -4.13671875 4.44140625 C-4.75160156 3.92449219 -5.36648437 3.40757812 -6 2.875 C-3.375 -0.140625 -3.375 -0.140625 0 0 Z " fill="#7394A1" transform="translate(127,415.125)"/>
<path d="M0 0 C0 0.99 0 1.98 0 3 C-1.96876633 4.69630313 -3.88673162 6.19536118 -6 7.6875 C-6.57234375 8.10322266 -7.1446875 8.51894531 -7.734375 8.94726562 C-9.14996532 9.97356861 -10.57419631 10.98793399 -12 12 C-13.57432497 8.85135005 -12.71895552 6.35512575 -12 3 C-8.17936061 0.45290708 -4.56711438 0 0 0 Z " fill="#DB720C" transform="translate(370,362)"/>
<path d="M0 0 C3.63 0 7.26 0 11 0 C14 5.75 14 5.75 14 8 C14.66 8 15.32 8 16 8 C15.67 8.99 15.34 9.98 15 11 C12.80017677 9.53345118 10.60056332 8.06660866 8.40234375 6.59765625 C6.96193257 5.63972426 5.51780095 4.68730122 4.06640625 3.74609375 C2.69497261 2.85482632 1.34477767 1.93099993 0 1 C0 0.67 0 0.34 0 0 Z " fill="#E6780D" transform="translate(330,366)"/>
<path d="M0 0 C1.65 0 3.3 0 5 0 C5 4.29 5 8.58 5 13 C3.35 13 1.7 13 0 13 C0 8.71 0 4.42 0 0 Z " fill="#3A3A3A" transform="translate(186,412)"/>
<path d="M0 0 C3.68001752 0.07706843 5.45134282 0.24969211 8.75 2 C11.02214969 4.78521575 11.96884094 6.85357058 12.6875 10.375 C12.3125 13.25 12.3125 13.25 11.6875 15.375 C11.3575 15.375 11.0275 15.375 10.6875 15.375 C10.605 14.3025 10.5225 13.23 10.4375 12.125 C9.62605886 8.06779432 8.86743592 6.88040406 5.6875 4.375 C3.11856162 3.09053081 0.92173663 3.04522856 -1.9375 2.8125 C-2.94039063 2.72871094 -3.94328125 2.64492188 -4.9765625 2.55859375 C-5.74742188 2.49800781 -6.51828125 2.43742187 -7.3125 2.375 C-4.73850489 -0.19899511 -3.57680716 0.04840064 0 0 Z " fill="#B60000" transform="translate(127.3125,408.625)"/>
<path d="M0 0 C0.33 0 0.66 0 1 0 C1.05437607 1.58294782 1.09296271 3.16644256 1.125 4.75 C1.14820313 5.63171875 1.17140625 6.5134375 1.1953125 7.421875 C0.99139502 10.1135858 0.36551721 11.69904974 -1 14 C-1.99 13.67 -2.98 13.34 -4 13 C-3.52343588 11.20763933 -3.04366502 9.41613103 -2.5625 7.625 C-2.29566406 6.62726563 -2.02882812 5.62953125 -1.75390625 4.6015625 C-1 2 -1 2 0 0 Z " fill="#CED5E5" transform="translate(152,367)"/>
<path d="M0 0 C0.66 0 1.32 0 2 0 C2.33 4.95 2.66 9.9 3 15 C2.01 15 1.02 15 0 15 C0 10.05 0 5.1 0 0 Z " fill="#750000" transform="translate(196,410)"/>
<path d="M0 0 C0.33 0.99 0.66 1.98 1 3 C-0.23414044 5.34282452 -1.49246493 7.48292584 -2.9375 9.6875 C-3.32357422 10.29400391 -3.70964844 10.90050781 -4.10742188 11.52539062 C-5.06246419 13.02280265 -6.03006086 14.51219401 -7 16 C-8 13 -8 13 -6.85546875 10.1171875 C-6.30503906 9.04726563 -5.75460938 7.97734375 -5.1875 6.875 C-4.37345703 5.26238281 -4.37345703 5.26238281 -3.54296875 3.6171875 C-2 1 -2 1 0 0 Z " fill="#7786AC" transform="translate(145,389)"/>
<path d="M0 0 C0.33 0 0.66 0 1 0 C1.05410687 1.77049689 1.09284119 3.54146849 1.125 5.3125 C1.14820313 6.29863281 1.17140625 7.28476562 1.1953125 8.30078125 C1 11 1 11 -1 14 C-2.51708428 4.58997722 -2.51708428 4.58997722 0 0 Z " fill="#3C3E43" transform="translate(154,361)"/>
<path d="M0 0 C2.375 0.25 2.375 0.25 5 1 C6.3125 3.0625 6.3125 3.0625 7 5 C4.625 4.75 4.625 4.75 2 4 C0.6875 1.9375 0.6875 1.9375 0 0 Z " fill="#EBEFF0" transform="translate(126,416)"/>
</svg>
