<?xml version="1.0" encoding="UTF-8"?>
<svg version="1.1" xmlns="http://www.w3.org/2000/svg" width="600" height="600">
<path d="M0 0 C1.76883613 1.97451475 3.28577384 3.95787265 4.74609375 6.16796875 C5.89766821 8.03896437 5.89766821 8.03896437 7.53515625 9.23828125 C11.14423195 13.57879629 11.61303524 21.64762369 12.8046875 27.171875 C13.05093369 28.30665283 13.05093369 28.30665283 13.30215454 29.46435547 C15.06468542 37.59856832 16.80810402 45.73691035 18.54577637 53.87646484 C18.94933601 55.76314142 19.35580694 57.64919476 19.76269531 59.53515625 C20.35145594 62.27152499 20.92874361 65.00993355 21.5 67.75 C21.73952393 68.85166504 21.73952393 68.85166504 21.98388672 69.97558594 C23.02403409 75.07651674 23.1218389 79.82184682 23 85 C23.72799805 84.83846436 24.45599609 84.67692871 25.20605469 84.51049805 C41.64177428 81.50743184 64.29306546 82.73305853 79 91 C84.17434588 94.81109027 87.39830968 98.35385951 88.45703125 104.76953125 C88.94837351 113.67082476 86.15118579 119.33952521 80.3125 125.89453125 C74.23841913 131.69370759 64.39048272 138.54620349 56 140 C58.88893841 142.90579992 61.80186764 145.78287889 64.7421875 148.63671875 C72.61201085 156.32213744 79.67457786 163.70967426 85.31640625 173.21875 C88.29425998 178.03761301 91.67829063 181.66108959 95.9375 185.375 C105.66442912 193.93726915 111.18360999 203.58090024 112.3125 216.60546875 C112.69880066 228.44799838 110.15227779 237.76605403 103.171875 247.35546875 C99.90696317 254.72328644 102.61508597 263.82789952 103.9375 271.4375 C106.3374139 285.48929269 107.2405646 298.95059409 107.25 313.1875 C107.25067474 314.10805176 107.25134949 315.02860352 107.25204468 315.97705078 C107.20577101 356.21351873 103.79216347 397.81777692 95.015625 437.12890625 C93.99490916 441.73950532 93.43902721 446.29954559 93 451 C93.82371094 451.08894531 94.64742188 451.17789062 95.49609375 451.26953125 C99.743516 452.15500278 103.20366152 453.75267622 107.0625 455.6875 C107.75666016 456.01427734 108.45082031 456.34105469 109.16601562 456.67773438 C114.67024775 459.41155527 118.64611546 462.61528864 121 468.5 C121 472.7376475 119.47975872 475.4726351 116.54296875 478.50390625 C77.56464993 511.02829864 -3.97089766 502.99093533 -51.15960693 498.80859375 C-112.84079365 492.8678049 -112.84079365 492.8678049 -127.71484375 476.0625 C-129.72500166 472.83647149 -129.61867346 469.63197712 -129 466 C-124.0091055 456.47192868 -110.532622 453.10428324 -101 450 C-101.64759991 442.39283129 -102.75110908 434.90454526 -104 427.375 C-105.11682912 420.59309564 -106.20641981 413.82809621 -107 407 C-107.99 407 -108.98 407 -110 407 C-110.061875 408.155 -110.12375 409.31 -110.1875 410.5 C-110.58896019 413.900604 -111.37943995 415.78820323 -113.4375 418.5 C-116.14067649 422.40117516 -116.5415467 426.1318035 -116.9375 430.75 C-117.98297798 441.83797466 -122.19734589 450.36732936 -130.4765625 457.97265625 C-152.19754611 475.42341553 -179.64724573 473.66939217 -205.9375 471.3125 C-220.60624238 469.68756995 -235.19097911 466.7036714 -245.38671875 455.33984375 C-250.91987538 448.39824726 -254.63570157 441.17986284 -258 433 C-259.22995949 433.9156026 -260.45892386 434.83254203 -261.6875 435.75 C-262.42226563 436.29527344 -263.15703125 436.84054687 -263.9140625 437.40234375 C-266.13160678 439.05641635 -266.13160678 439.05641635 -268.5625 441.3125 C-271.79691808 443.55171252 -274.08046521 443.93123623 -278 444 C-283.64211478 442.00866537 -286.30274332 438.82876113 -289.3125 433.8125 C-290.74538095 427.95071431 -289.71996728 422.29321433 -287 417 C-287.20410475 414.55074306 -287.78189791 412.51311386 -288.7421875 410.25390625 C-291.53493847 403.64439561 -292.22558103 397.4832303 -289.8125 390.625 C-287.7311038 387.61056412 -286.18639432 385.84102783 -283 384 C-275.3053245 382.65005693 -269.53630409 386.16225574 -263 390 C-261.65845645 390.98895838 -260.3236037 391.98715696 -259 393 C-258.81937012 392.42145264 -258.63874023 391.84290527 -258.45263672 391.24682617 C-248.02290248 358.13587897 -248.02290248 358.13587897 -234.7734375 349.55859375 C-232.53914662 348.48881844 -230.37554691 347.69796997 -228 347 C-227.31164062 346.78988281 -226.62328125 346.57976562 -225.9140625 346.36328125 C-210.44469646 342.5366486 -193.26152791 343.90266847 -177.4375 343.875 C-176.55204498 343.87232117 -175.66658997 343.86964233 -174.75430298 343.86688232 C-172.20985788 343.86104948 -169.66553951 343.86274776 -167.12109375 343.8671875 C-165.95980453 343.86422668 -165.95980453 343.86422668 -164.77505493 343.86120605 C-161.58433901 343.87501538 -159.04946729 343.9835109 -156 345 C-156.16167664 344.34840912 -156.32335327 343.69681824 -156.4899292 343.02548218 C-157.13379906 339.20637159 -157.15560935 335.45288864 -157.16113281 331.59228516 C-157.16609772 330.75733521 -157.17106262 329.92238525 -157.17617798 329.06213379 C-157.1907586 326.30443486 -157.1975978 323.54679362 -157.203125 320.7890625 C-157.20736607 319.3677257 -157.20736607 319.3677257 -157.21169281 317.91767502 C-157.22667564 312.89482089 -157.23590846 307.87199536 -157.24023438 302.84912109 C-157.2456913 297.69737543 -157.26966281 292.54589777 -157.29820633 287.39423561 C-157.3169803 283.4029773 -157.32204628 279.41178134 -157.32357025 275.42048264 C-157.32656846 273.52376225 -157.33449926 271.62704219 -157.34775543 269.73036575 C-157.56758017 235.8350609 -157.56758017 235.8350609 -146.18359375 224.1328125 C-137.6861184 217.23183252 -127.36954729 214.41823052 -116.52734375 215.171875 C-114.67758696 215.39371532 -112.8367184 215.68810442 -111 216 C-110.94936401 215.02752319 -110.94936401 215.02752319 -110.89770508 214.03540039 C-110.37665137 206.51981773 -108.79078827 199.65570315 -106.6875 192.4375 C-106.24374023 190.84905273 -106.24374023 190.84905273 -105.79101562 189.22851562 C-103.91136933 182.63960432 -101.68452703 176.30375837 -99 170 C-99.74378906 170.144375 -100.48757812 170.28875 -101.25390625 170.4375 C-117.17106808 173.14360543 -137.17419021 175.45007156 -151.44921875 166.45703125 C-156.10413888 162.80496644 -159.0619393 158.90551852 -160 153 C-160.42233517 146.47492166 -158.93968331 141.42793221 -154.96899414 136.22412109 C-148.24194647 128.62543488 -138.63691579 124.72033551 -129.5 120.8125 C-128.34113281 120.30525391 -127.18226563 119.79800781 -125.98828125 119.27539062 C-106.99030277 111 -106.99030277 111 -104 111 C-104.32871094 110.04867187 -104.65742188 109.09734375 -104.99609375 108.1171875 C-108.59642058 97.56459462 -111.86065682 86.92534594 -115.01434326 76.23147583 C-116.93820994 69.70980591 -118.88402494 63.20787069 -121.1328125 56.7890625 C-121.45967041 55.85425049 -121.78652832 54.91943848 -122.12329102 53.95629883 C-122.72295527 52.26829149 -123.33666394 50.58516398 -123.96850586 48.90893555 C-126.38179638 42.125028 -127.59805219 34.6319368 -124.625 27.875 C-107.50012546 9.11918503 -85.19456993 0.08698103 -61 -6 C-59.74445313 -6.3196875 -58.48890625 -6.639375 -57.1953125 -6.96875 C-38.77250136 -11.03759172 -15.52637753 -12.39896102 0 0 Z M-4 407 C-5.46098845 409.9219769 -5.11134901 412.49893475 -5.09765625 415.7578125 C-5.0962413 416.42086395 -5.09482635 417.08391541 -5.09336853 417.76705933 C-5.08776754 419.88641863 -5.075215 422.00567259 -5.0625 424.125 C-5.05748512 425.56119639 -5.05292219 426.99739444 -5.04882812 428.43359375 C-5.03864833 431.95580248 -5.01907338 435.47778321 -5 439 C0.28 439 5.56 439 11 439 C10.34 428.44 9.68 417.88 9 407 C4.71 407 0.42 407 -4 407 Z " fill="#040604" transform="translate(310,74)"/>
<path d="M0 0 C1.92912786 0.56159538 3.88700638 1.0222202 5.84619141 1.46777344 C8.75102452 2.22883218 10.80829017 2.78017409 13.17041016 4.63183594 C14.65492247 8.29009842 15.08234052 11.70257534 15.17041016 15.63183594 C12.20041016 15.96183594 9.23041016 16.29183594 6.17041016 16.63183594 C5.67541016 19.10683594 5.67541016 19.10683594 5.17041016 21.63183594 C8.20566502 23.65533918 9.36467217 23.95307611 12.85791016 24.25683594 C13.66615234 24.33160156 14.47439453 24.40636719 15.30712891 24.48339844 C15.92201172 24.53238281 16.53689453 24.58136719 17.17041016 24.63183594 C17.17041016 26.61183594 17.17041016 28.59183594 17.17041016 30.63183594 C11.51979467 31.33456284 5.95624634 31.75494601 0.26611328 31.92236328 C-17.46251769 32.39040185 -17.46251769 32.39040185 -33.82958984 38.63183594 C-43.77865023 51.19777077 -43.29962153 71.93563637 -41.55273438 87.02294922 C-39.48017112 100.49608027 -33.61208392 116.72637178 -22.82958984 125.63183594 C-8.44814648 136.0148511 8.06513676 137.61507727 25.17041016 139.63183594 C26.1081849 144.11303634 26.24788516 148.06081087 26.17041016 152.63183594 C21.88041016 152.96183594 17.59041016 153.29183594 13.17041016 153.63183594 C13.17041016 155.28183594 13.17041016 156.93183594 13.17041016 158.63183594 C17.65459409 161.62129189 21.82382205 161.25442972 27.17041016 161.63183594 C27.17041016 166.25183594 27.17041016 170.87183594 27.17041016 175.63183594 C22.55041016 175.63183594 17.93041016 175.63183594 13.17041016 175.63183594 C11.79830595 180.34242156 11.79830595 180.34242156 13.17041016 183.63183594 C17.79041016 183.63183594 22.41041016 183.63183594 27.17041016 183.63183594 C27.17041016 188.25183594 27.17041016 192.87183594 27.17041016 197.63183594 C23.21041016 197.96183594 19.25041016 198.29183594 15.17041016 198.63183594 C13.63998301 203.26266885 13.63998301 203.26266885 15.31494141 205.40136719 C17.57938129 206.90304838 19.16022205 207.12385129 21.85791016 207.31933594 C23.07027344 207.41794922 23.07027344 207.41794922 24.30712891 207.51855469 C24.92201172 207.5559375 25.53689453 207.59332031 26.17041016 207.63183594 C26.17041016 208.95183594 26.17041016 210.27183594 26.17041016 211.63183594 C-25.68374937 212.23936227 -25.68374937 212.23936227 -36.77392578 204.60498047 C-41.31504777 199.50165392 -43.42801048 193.48605878 -45.55957031 187.08105469 C-46.9292307 183.36122348 -48.6465952 179.93936731 -50.55224609 176.47558594 C-50.88271439 175.87365417 -51.21318268 175.27172241 -51.55366516 174.65155029 C-52.22713462 173.42687503 -52.9011329 172.20249043 -53.57565308 170.97839355 C-63.28688063 153.11637097 -70.71867353 134.30251038 -75.82958984 114.63183594 C-76.28398437 112.89619385 -76.28398437 112.89619385 -76.74755859 111.12548828 C-80.25282381 97.68193344 -83.69374806 84.21457064 -86.32958984 70.56933594 C-86.48951416 69.75045898 -86.64943848 68.93158203 -86.81420898 68.08789062 C-88.23048321 60.34963726 -87.97249304 53.93687307 -85.64208984 46.44433594 C-85.41360352 45.69748535 -85.18511719 44.95063477 -84.94970703 44.18115234 C-80.26186321 29.17940729 -72.3688112 8.45646114 -58.09521484 0.01464844 C-40.43785116 -8.43225257 -18.16637131 -5.44500258 0 0 Z " fill="#6D33B8" transform="translate(310.82958984375,212.3681640625)"/>
<path d="M0 0 C2.72534174 2.72534174 2.7593145 4.93957979 3.48046875 8.71875 C3.75645081 10.12789188 4.03266517 11.53698827 4.30908203 12.94604492 C4.45202698 13.6888974 4.59497192 14.43174988 4.74224854 15.19711304 C13.28017329 59.35614938 28.1336353 98.6181847 50.62475586 137.52490234 C52 140 52 140 53.12109375 143.2043457 C54.65521641 146.05457837 54.65521641 146.05457837 56.76405334 146.7043457 C59.12699897 147.16664399 61.44925712 147.43134687 63.84765625 147.64453125 C64.73295517 147.74465012 65.61825409 147.84476898 66.53038025 147.94792175 C69.37229849 148.26225747 72.21655553 148.53728832 75.0625 148.8125 C76.92019047 149.01513064 78.77761823 149.22018527 80.63476562 149.42773438 C92.07226501 150.67285605 103.50781734 151.48516014 115 152 C115 150.68 115 149.36 115 148 C112.03 148 109.06 148 106 148 C106 147.67 106 147.34 106 147 C109.3 147 112.6 147 116 147 C116.02685938 149.14576637 116.04633088 151.29162645 116.0625 153.4375 C116.07410156 154.63246094 116.08570313 155.82742188 116.09765625 157.05859375 C116 160 116 160 115 161 C113.31816052 161.23287008 111.6287584 161.41264166 109.9375 161.5625 C109.01839844 161.64628906 108.09929687 161.73007812 107.15234375 161.81640625 C106.44207031 161.87699219 105.73179687 161.93757812 105 162 C104.83312552 164.41645782 104.83312552 164.41645782 105 167 C107.76223278 169.76223278 110.20706617 169.57856291 114 170 C113.85636473 171.37523135 113.70996483 172.75017402 113.5625 174.125 C113.48128906 174.89070312 113.40007812 175.65640625 113.31640625 176.4453125 C112.96120729 179.31321518 112.48170799 182.15089441 112 185 C103.69042905 186.22149704 95.47435022 187.15503696 87.0703125 187.30859375 C86.3341571 187.32209869 85.59800171 187.33560364 84.83953857 187.34951782 C81.82587022 187.39706566 78.81228398 187.43194692 75.79833984 187.45629883 C73.55527975 187.47779856 71.31307829 187.51709972 69.0703125 187.55859375 C67.10215576 187.57877563 67.10215576 187.57877563 65.09423828 187.59936523 C64.07313965 187.73157471 63.05204102 187.86378418 62 188 C59.79457491 191.30813763 59.74196039 192.38751694 59.69140625 196.2421875 C59.66844482 197.29841309 59.6454834 198.35463867 59.62182617 199.44287109 C59.59245972 201.1417749 59.59245972 201.1417749 59.5625 202.875 C58.51982687 239.47257313 58.51982687 239.47257313 52 250 C48.72337547 251.52532521 47.41462029 251.87510207 44 252 C42.49709864 252.16396509 40.99450801 252.33079559 39.4921875 252.5 C33.57749931 253.09408256 27.69159625 253.25693644 21.75 253.3125 C20.70070312 253.34150391 19.65140625 253.37050781 18.5703125 253.40039062 C17.55195313 253.40876953 16.53359375 253.41714844 15.484375 253.42578125 C14.11877441 253.44765503 14.11877441 253.44765503 12.72558594 253.4699707 C8.89332228 252.80917641 6.87333413 251.62264403 4 249 C3.39769317 246.09579391 3.20500248 243.99983861 3.265625 241.09765625 C3.25752304 240.31691742 3.24942108 239.53617859 3.24107361 238.73178101 C3.22641461 237.05195287 3.22490779 235.37196872 3.23519897 233.69210815 C3.25523634 230.13219167 3.20745094 226.57419813 3.16252136 223.01460266 C3.14008178 221.21604431 3.12073151 219.4174448 3.10444641 217.61882019 C2.93318538 200.05662375 1.21797173 182.60513754 -0.67648315 165.15823364 C-3.97059188 134.76562268 -6.27319398 104.65745995 -6.3125 74.0625 C-6.31608521 72.95116699 -6.31967041 71.83983398 -6.32336426 70.69482422 C-6.34464551 58.48210368 -6.02164685 46.34132409 -5.11328125 34.16015625 C-5.03709061 33.12649429 -4.96089996 32.09283234 -4.88240051 31.02784729 C-4.02173028 20.54979402 -2.12330432 10.28668792 0 0 Z " fill="#3D1C7B" transform="translate(222,272)"/>
<path d="M0 0 C5.28 0 10.56 0 16 0 C16.12117187 1.69125 16.24234375 3.3825 16.3671875 5.125 C16.7950183 10.99424973 17.2556017 16.86036122 17.73535156 22.72558594 C17.89553125 24.70744021 18.0501513 26.68976944 18.19433594 28.67285156 C18.75256169 36.21363 19.26602875 42.66138435 24.3671875 48.6171875 C31.81786014 54.9270873 44.57373091 55.48241784 54 56 C54.78503906 56.05285156 55.57007813 56.10570312 56.37890625 56.16015625 C64.29201514 56.4522935 73.32577259 55.44948494 80 51 C82.09403622 50.51633075 84.20033574 50.08459663 86.3125 49.6875 C91.93100649 48.47099301 95.06857685 47.1560759 99 43 C99 43.66 99 44.32 99 45 C100.23556641 45.13341797 100.23556641 45.13341797 101.49609375 45.26953125 C105.743516 46.15500278 109.20366152 47.75267622 113.0625 49.6875 C114.10374023 50.17766602 114.10374023 50.17766602 115.16601562 50.67773438 C120.67024775 53.41155527 124.64611546 56.61528864 127 62.5 C127 66.7376475 125.47975872 69.4726351 122.54296875 72.50390625 C83.56464993 105.02829864 2.02910234 96.99093533 -45.15960693 92.80859375 C-106.84079365 86.8678049 -106.84079365 86.8678049 -121.71484375 70.0625 C-123.72500166 66.83647149 -123.61867346 63.63197712 -123 60 C-118.38792983 51.19513876 -106.76370175 47.97743175 -97.90625 45.17578125 C-94.7327757 44.20938702 -94.7327757 44.20938702 -93 41 C-92.896875 42.299375 -92.79375 43.59875 -92.6875 44.9375 C-91.3403244 50.72943862 -88.03717327 53.6968141 -83.37109375 57.1796875 C-77.2147584 60.50396592 -70.84559126 60.82623082 -64 61 C-63.2467041 61.02352539 -62.4934082 61.04705078 -61.71728516 61.07128906 C-44.59436604 61.67539926 -44.59436604 61.67539926 -28.13232422 57.82250977 C-26.00931264 57.0035922 -23.87382968 56.27647791 -21.7109375 55.5703125 C-20.99679687 55.33183594 -20.28265625 55.09335937 -19.546875 54.84765625 C-18.09423468 54.3643137 -16.63842534 53.89039704 -15.1796875 53.42578125 C-10.17196447 51.72932436 -6.72311086 49.8026888 -3 46 C-1.91458054 43.58821547 -1.91458054 43.58821547 -1.6875 41.0625 C-1.56761719 40.24910156 -1.44773437 39.43570313 -1.32421875 38.59765625 C-1.21722656 37.74042969 -1.11023438 36.88320313 -1 36 C-0.83032715 35.10385986 -0.6606543 34.20771973 -0.48583984 33.28442383 C0.03608474 29.7560563 0.11289571 26.41759728 0.09765625 22.8515625 C0.0962413 22.19417084 0.09482635 21.53677917 0.09336853 20.85946655 C0.08781762 18.78126269 0.07527465 16.70317073 0.0625 14.625 C0.05747864 13.20703282 0.05291685 11.78906393 0.04882812 10.37109375 C0.03871962 6.91398579 0.01913533 3.45711662 0 0 Z M2 1 C0.53901155 3.9219769 0.88865099 6.49893475 0.90234375 9.7578125 C0.9037587 10.42086395 0.90517365 11.08391541 0.90663147 11.76705933 C0.91223246 13.88641863 0.924785 16.00567259 0.9375 18.125 C0.94251488 19.56119639 0.94707781 20.99739444 0.95117188 22.43359375 C0.96135167 25.95580248 0.98092662 29.47778321 1 33 C6.28 33 11.56 33 17 33 C16.34 22.44 15.68 11.88 15 1 C10.71 1 6.42 1 2 1 Z " fill="#353D39" transform="translate(304,480)"/>
<path d="M0 0 C0.00386719 1.46179688 0.00386719 1.46179688 0.0078125 2.953125 C0.28896128 16.49076586 3.1831441 29.26024484 6.19042969 42.41845703 C7.4793134 48.12048481 8.68067326 53.84004866 9.875 59.5625 C10.08995117 60.57328613 10.30490234 61.58407227 10.52636719 62.62548828 C10.72133789 63.55474121 10.91630859 64.48399414 11.1171875 65.44140625 C11.28847168 66.25295166 11.45975586 67.06449707 11.63623047 67.90063477 C12 70 12 70 12 73 C11.12714355 73.09498779 10.25428711 73.18997559 9.35498047 73.2878418 C-37.01443147 78.04821485 -37.01443147 78.04821485 -81.86328125 90.046875 C-84.79179168 90.93673371 -86.96920607 91.20470653 -90 91 C-90.14695313 90.14921875 -90.29390625 89.2984375 -90.4453125 88.421875 C-92.33712328 78.20174782 -95.15406599 68.41428792 -98.23583984 58.49560547 C-98.97942813 56.06718393 -99.69344139 53.63240514 -100.39453125 51.19140625 C-100.61318848 50.43134277 -100.8318457 49.6712793 -101.05712891 48.88818359 C-101.46220732 47.47401752 -101.86446574 46.05903896 -102.26318359 44.64306641 C-103.53438082 40.23868334 -105.14673916 36.17980067 -107 32 C-107.53337589 30.62981661 -108.05700853 29.25571385 -108.5625 27.875 C-109.65689298 24.89478861 -110.81297943 21.94462615 -112 19 C-81.13442622 -5.42111332 -36.60449082 -20.05458805 0 0 Z " fill="#474F52" transform="translate(307,88)"/>
<path d="M0 0 C0.63431107 4.37369947 1.25553091 8.74917578 1.875 13.125 C2.04902344 14.32382812 2.22304688 15.52265625 2.40234375 16.7578125 C5.32291264 37.52630241 6.37590164 58.0396863 6.31805801 79.01529694 C6.31242928 81.08854756 6.3095981 83.16178999 6.30697632 85.23504639 C6.27039404 105.21974546 5.82235396 125.16320774 4.8125 145.125 C4.76227692 146.25559845 4.71205383 147.3861969 4.66030884 148.55105591 C4.51395198 151.72616309 4.33515315 154.89759213 4.14453125 158.0703125 C4.10469116 158.99546158 4.06485107 159.92061066 4.02380371 160.87379456 C3.60435023 166.89564967 2.39784574 169.80689722 -2 174 C-12.4703765 180.10154896 -25.02839974 182.23844141 -37 181 C-42.42863777 179.40840255 -45.86779518 176.76095133 -49 172 C-50.18517767 169.62964465 -50.28157858 167.84465902 -50.5 165.203125 C-50.5825 164.2440625 -50.665 163.285 -50.75 162.296875 C-50.8325 161.29140625 -50.915 160.2859375 -51 159.25 C-51.48311596 153.45260846 -51.98014565 147.73228479 -53 142 C-53.50533035 136.71346707 -53.48409451 132.25833773 -50 128 C-47.09755933 126.7706788 -44.18498549 125.88284777 -41.15625 125.01171875 C-37.34191679 123.78905501 -34.15057489 122.02562429 -30.7421875 119.953125 C-29 119 -29 119 -27 119 C-27 118.34 -27 117.68 -27 117 C-32.28 116.67 -37.56 116.34 -43 116 C-42.34 111.05 -41.68 106.1 -41 101 C-36.05 100.01 -36.05 100.01 -31 99 C-31 97.02 -31 95.04 -31 93 C-33.97 92.67 -36.94 92.34 -40 92 C-39.67 87.38 -39.34 82.76 -39 78 C-35.37 77.34 -31.74 76.68 -28 76 C-27.67 74.35 -27.34 72.7 -27 71 C-28.73956658 69.26043342 -31.1936622 69.62809614 -33.5625 69.4375 C-35.356875 69.293125 -37.15125 69.14875 -39 69 C-39 64.38 -39 59.76 -39 55 C-34.71 54.34 -30.42 53.68 -26 53 C-25.34 51.02 -24.68 49.04 -24 47 C-28.95 46.67 -33.9 46.34 -39 46 C-39 41.71 -39 37.42 -39 33 C-35.90755208 32.77213542 -32.81510417 32.54427083 -29.72265625 32.31640625 C-27.08890097 32.29581916 -27.08890097 32.29581916 -26 31 C-25.95936168 29.33382885 -25.957279 27.66611905 -26 26 C-29.34987623 25.34636561 -32.38831797 25 -35.8125 25 C-36.864375 25 -37.91625 25 -39 25 C-40 24 -40 24 -40.09765625 20.83984375 C-40.08605469 19.55207031 -40.07445312 18.26429688 -40.0625 16.9375 C-40.05347656 15.64714844 -40.04445313 14.35679687 -40.03515625 13.02734375 C-40.02355469 12.02832031 -40.01195312 11.02929688 -40 10 C-38.96166016 9.96132813 -38.96166016 9.96132813 -37.90234375 9.921875 C-25.93031456 9.22784432 -14.81762156 6.28467916 -4.07421875 0.953125 C-2 0 -2 0 0 0 Z " fill="#3D1C7B" transform="translate(386,341)"/>
<path d="M0 0 C1.43787621 -0.00855011 1.43787621 -0.00855011 2.90480042 -0.01727295 C4.91739827 -0.02665125 6.93001099 -0.03322807 8.94262695 -0.03710938 C11.99262524 -0.04683901 15.04195535 -0.07794093 18.09179688 -0.109375 C37.03937658 -0.21199811 37.03937658 -0.21199811 45.56640625 3.203125 C46.69453735 3.63878784 46.69453735 3.63878784 47.84545898 4.08325195 C53.32849776 6.32930785 57.32820093 10.27498127 60.56640625 15.203125 C60.56640625 16.193125 60.56640625 17.183125 60.56640625 18.203125 C61.22640625 18.203125 61.88640625 18.203125 62.56640625 18.203125 C64.56640625 21.203125 64.56640625 21.203125 64.56640625 25.203125 C65.22640625 25.203125 65.88640625 25.203125 66.56640625 25.203125 C68.27124488 33.99066718 70.0165571 46.66809955 64.94921875 54.5703125 C57.01515194 63.93878687 46.38284158 68.37913286 34.229599 69.39927673 C31.78654517 69.48113134 29.35066734 69.50616302 26.90625 69.50390625 C26.00625778 69.50941498 25.10626556 69.51492371 24.17900085 69.52059937 C21.28713983 69.5322117 18.395767 69.5260222 15.50390625 69.515625 C14.52129822 69.51446686 13.53869019 69.51330872 12.52630615 69.51211548 C-27.79158983 69.41780895 -27.79158983 69.41780895 -37.43359375 63.203125 C-40.84775802 59.57163035 -42.02840763 56.91815056 -42.69921875 52.00390625 C-42.86719971 50.8027417 -43.03518066 49.60157715 -43.20825195 48.36401367 C-43.44354614 46.45906128 -43.44354614 46.45906128 -43.68359375 44.515625 C-43.85270264 43.21665283 -44.02181152 41.91768066 -44.19604492 40.5793457 C-45.74160412 28.01748366 -46.337249 15.76177154 -44.43359375 3.203125 C-42.80110334 1.57063459 -40.90917465 1.99815592 -38.65625 1.921875 C-37.66689453 1.88449219 -36.67753906 1.84710938 -35.65820312 1.80859375 C-34.61470703 1.77378906 -33.57121094 1.73898437 -32.49609375 1.703125 C-30.46604476 1.63307858 -28.43609197 1.56018365 -26.40625 1.484375 C-25.04898804 1.43893555 -25.04898804 1.43893555 -23.66430664 1.39257812 C-20.99350786 1.23595908 -18.37034983 0.98826588 -15.71240234 0.69824219 C-10.46751173 0.15888344 -5.26973226 0.02493401 0 0 Z " fill="#586F77" transform="translate(333.43359375,258.796875)"/>
<path d="M0 0 C1.07147781 -0.00191345 2.14295563 -0.0038269 3.24690247 -0.00579834 C5.4913456 -0.00714828 7.73579686 -0.00353602 9.98022461 0.00488281 C13.39650083 0.0156312 16.8122551 0.00493017 20.22851562 -0.0078125 C22.42317823 -0.00649131 24.61784051 -0.00392976 26.8125 0 C27.82209274 -0.00404846 28.83168549 -0.00809692 29.87187195 -0.01226807 C38.70936049 0.04566963 46.07654156 0.78063293 53.20703125 6.265625 C53.20703125 11.04906042 52.35881222 13.60851045 49.08203125 17.140625 C43.69340907 22.14157652 37.36123999 25.61390644 31.00195312 29.21826172 C27.69328414 31.14891868 24.52409342 33.31351437 21.35546875 35.46484375 C19.20703125 36.265625 19.20703125 36.265625 16.86328125 35.58203125 C15.98671875 35.14761719 15.11015625 34.71320313 14.20703125 34.265625 C1.47904542 29.07435805 -11.4296381 25.44085209 -24.79296875 22.265625 C-25.5411084 22.08338379 -26.28924805 21.90114258 -27.06005859 21.71337891 C-46.15423335 17.15851405 -65.46374144 17.19308861 -82.66796875 27.515625 C-92.59873242 34.37180502 -92.59873242 34.37180502 -99.76171875 43.84765625 C-104.86744377 53.33495937 -104.86744377 53.33495937 -110.62792969 55.16748047 C-117.14136569 56.42066634 -123.69361469 56.88446406 -130.31616211 57.09887695 C-132.92632064 57.17019295 -132.92632064 57.17019295 -135.79296875 58.265625 C-139.89279117 58.52568101 -143.99828276 58.49705095 -148.10546875 58.515625 C-149.23404297 58.53625 -150.36261719 58.556875 -151.52539062 58.578125 C-162.2235084 58.62849872 -162.2235084 58.62849872 -166.79296875 55.265625 C-168.16796875 52.015625 -168.16796875 52.015625 -167.79296875 48.265625 C-164.25623693 43.10884183 -158.58703486 40.55661255 -153.05859375 38.01953125 C-152.40820129 37.72063492 -151.75780884 37.42173859 -151.08770752 37.11378479 C-108.17096429 17.48913784 -108.17096429 17.48913784 -90.79296875 13.265625 C-89.8095752 13.02585938 -88.82618164 12.78609375 -87.81298828 12.5390625 C-70.97684878 8.5521519 -54.04156576 6.03329713 -36.88745117 3.91381836 C-36.10770935 3.81739548 -35.32796753 3.7209726 -34.52459717 3.62162781 C-33.0853084 3.44519005 -31.6456831 3.27145982 -30.20562744 3.10139465 C-26.10544192 2.60475778 -22.06494517 1.95454509 -18.00097656 1.21484375 C-11.96498399 0.19531479 -6.11147609 -0.02465529 0 0 Z " fill="#464E51" transform="translate(331.79296875,172.734375)"/>
<path d="M0 0 C5.42601201 -0.04964329 10.85189015 -0.08583447 16.27807617 -0.10986328 C18.12184962 -0.11988642 19.96560731 -0.13350852 21.80932617 -0.15087891 C24.4679759 -0.17528995 27.12641443 -0.18652017 29.78515625 -0.1953125 C30.60210464 -0.20563507 31.41905304 -0.21595764 32.26075745 -0.22659302 C37.22748454 -0.22755457 41.2889491 0.40854037 46 2 C46.14695312 3.68802734 46.14695312 3.68802734 46.296875 5.41015625 C47.98013967 26.58086942 47.98013967 26.58086942 59 44 C63.47263902 47.43115308 67.49584047 48.97818321 72.875 50.25 C73.56335938 50.42273438 74.25171875 50.59546875 74.9609375 50.7734375 C76.63805318 51.19271642 78.31869349 51.59785544 80 52 C79.58296763 56.71697429 79.31767338 59.57510386 75.625 62.6875 C69.10836454 67.86350384 61.41064396 70.74638634 53.046875 70.2421875 C45.0248909 69.29302144 40.39384656 65.83458889 35 60 C33.6796875 57.953125 33.6796875 57.953125 32.6875 56.0625 C31.37543622 52.85833347 31.37543622 52.85833347 28.89453125 52.30859375 C28.26933594 52.20675781 27.64414063 52.10492188 27 52 C29.00319481 59.00470558 29.00319481 59.00470558 33 65 C31.84826645 67.46800047 30.95216435 69.04783565 29 71 C28.35232207 73.57061311 28.35232207 73.57061311 28 76 C31.40312738 74.94124926 34.01353231 73.99097846 37 72 C40.0525429 72.26543851 42.53212785 72.79457366 45.33984375 74.02734375 C53.52392763 77.01976209 62.0920316 74.76492373 70 72 C71.32949938 71.65168938 72.66180796 71.31325859 74 71 C75.69574187 74.39148373 75.65774315 77.35795113 75 81 C72.0246099 88.75190654 68.49481104 96.72213982 61 101 C57.5625 102.375 57.5625 102.375 55 103 C55 103.66 55 104.32 55 105 C52.79204578 105.48091058 50.583619 105.95965179 48.375 106.4375 C47.14523438 106.70433594 45.91546875 106.97117187 44.6484375 107.24609375 C37.11001265 108.80381966 30.05811402 109.18309454 22.375 109.1875 C21.24320313 109.19974609 20.11140625 109.21199219 18.9453125 109.22460938 C17.85734375 109.22654297 16.769375 109.22847656 15.6484375 109.23046875 C14.66020996 109.23457764 13.67198242 109.23868652 12.65380859 109.24291992 C9.94772606 108.99521503 8.31258111 108.3839149 6 107 C6.59167969 106.32195312 7.18335937 105.64390625 7.79296875 104.9453125 C21.41674935 88.89903258 24.3415662 72.56668895 23 52 C21.60346874 36.25346349 17.47345766 15.12336351 5 4.2578125 C3.38085553 3.10221342 1.69651784 2.03868439 0 1 C0 0.67 0 0.34 0 0 Z " fill="#0054FA" transform="translate(110,428)"/>
<path d="M0 0 C12.7591525 9.64024856 16.73185745 21.88741317 19.8125 37.125 C20.00457031 38.05441406 20.19664063 38.98382813 20.39453125 39.94140625 C22.71787681 57.6379168 21.33520475 75.2371073 10.8125 90.125 C10.235 91.053125 9.6575 91.98125 9.0625 92.9375 C3.68855065 98.16217298 -2.22639566 100.44085192 -9.6875 100.6875 C-21.52111821 100.15908932 -28.78820681 94.93962343 -36.625 86.5 C-38.28110015 83.98272777 -38.84755465 82.09952185 -39.1875 79.125 C-39.8475 79.125 -40.5075 79.125 -41.1875 79.125 C-41.86163211 77.21094633 -42.5265332 75.29363974 -43.1875 73.375 C-43.55875 72.30765625 -43.93 71.2403125 -44.3125 70.140625 C-45.1875 67.125 -45.1875 67.125 -45.1875 63.125 C-36.45132561 60.81248325 -36.45132561 60.81248325 -32.1875 62.125 C-30.20380126 64.53595693 -28.91069221 66.92475696 -27.57421875 69.7421875 C-26.01085852 72.42852479 -25.0885729 73.13208977 -22.1875 74.125 C-16.94097115 74.61078971 -13.56223117 74.10354037 -9.1875 71.125 C-3.04432604 64.35138098 -0.79373636 58.48438717 -0.8125 49.4375 C-0.81411133 48.63675049 -0.81572266 47.83600098 -0.81738281 47.01098633 C-0.99201558 38.56269822 -3.05853623 31.25396377 -9.1875 25.125 C-12.17225604 22.88643297 -15.39678556 22.57136086 -19.1015625 22.6953125 C-23.17074703 23.53353403 -25.63072433 25.96480038 -28.1875 29.125 C-30.93637925 33.64253798 -32.90433958 37.9923583 -34.1875 43.125 C-38.4775 43.125 -42.7675 43.125 -47.1875 43.125 C-47.57572994 36.26627103 -46.17520996 30.66255982 -44.1875 24.125 C-43.94773438 23.25230469 -43.70796875 22.37960937 -43.4609375 21.48046875 C-41.19807399 13.38638004 -38.63049749 6.78226609 -32.1875 1.125 C-30.9809375 0.0421875 -30.9809375 0.0421875 -29.75 -1.0625 C-20.40586976 -7.67176285 -9.31002055 -5.47648268 0 0 Z " fill="#CF1571" transform="translate(107.1875,434.875)"/>
<path d="M0 0 C0.78375 0.00451172 1.5675 0.00902344 2.375 0.01367188 C4.29170014 0.02535907 6.20836048 0.04329092 8.125 0.0625 C8.13530746 0.84255402 8.14561493 1.62260803 8.15623474 2.42630005 C8.69061789 45.82386872 8.69061789 45.82386872 9.51077271 89.2164917 C9.54464412 90.71174975 9.57573621 92.20707396 9.60372925 93.70245361 C9.73543878 100.57533248 10.07572203 107.24918029 11.15234375 114.04296875 C12.34909525 121.71357598 12.34877198 129.19529595 12.25 136.9375 C12.23993026 138.31900378 12.2308116 139.70051484 12.22265625 141.08203125 C12.19939121 144.40893207 12.16353389 147.73574099 12.125 151.0625 C4.865 151.0625 -2.395 151.0625 -9.875 151.0625 C-10.12894531 148.07832031 -10.38289062 145.09414063 -10.64453125 142.01953125 C-10.81124776 140.07517165 -10.97820567 138.13083273 -11.14550781 136.18652344 C-11.41875251 133.01044246 -11.69094621 129.83428956 -11.95983887 126.65783691 C-13.153114 112.09975034 -13.153114 112.09975034 -14.80859375 97.58984375 C-17.07444703 80.43391009 -17.13831981 63.40931924 -17.125 46.125 C-17.12431519 44.84475952 -17.12363037 43.56451904 -17.1229248 42.2454834 C-17.06183481 7.62300442 -17.06183481 7.62300442 -14.875 1.0625 C-9.85891475 0.0448597 -5.08891694 -0.05606434 0 0 Z " fill="#3D1C7B" transform="translate(188.875,307.9375)"/>
<path d="M0 0 C1.46160049 -0.01123901 1.46160049 -0.01123901 2.95272827 -0.02270508 C23.19777464 -0.15063721 23.19777464 -0.15063721 32.25 3.375 C33.0037793 3.66528076 33.75755859 3.95556152 34.53417969 4.25463867 C40.0134321 6.50635828 44.01208844 10.44730334 47.25 15.375 C47.25 16.365 47.25 17.355 47.25 18.375 C47.91 18.375 48.57 18.375 49.25 18.375 C52.31655149 24.7534271 52.31655149 24.7534271 52.03369141 27.39526367 C51.25 29.375 51.25 29.375 49.52270508 30.33227539 C48.40738403 30.64926392 48.40738403 30.64926392 47.26953125 30.97265625 C46.44203369 31.21532227 45.61453613 31.45798828 44.76196289 31.70800781 C43.87114014 31.94874023 42.98031738 32.18947266 42.0625 32.4375 C41.1542749 32.69499023 40.2460498 32.95248047 39.31030273 33.21777344 C32.02027109 35.25040352 24.70602641 37.05875852 17.25 38.375 C16.33750488 38.54346436 15.42500977 38.71192871 14.48486328 38.88549805 C5.95456779 40.35027649 -2.3551107 40.70924268 -11 40.6875 C-12.29679687 40.70361328 -13.59359375 40.71972656 -14.9296875 40.73632812 C-22.1108193 40.73998451 -28.15632248 40.30643231 -34.75 37.375 C-35.59691406 37.03082031 -36.44382812 36.68664062 -37.31640625 36.33203125 C-44.77192049 32.05714735 -47.60060393 24.92288054 -50.89746094 17.33642578 C-51.45891221 16.04470198 -52.0399455 14.76128732 -52.64160156 13.48779297 C-54.30127863 9.90153169 -54.88594755 7.29204086 -54.75 3.375 C-36.48607203 1.01539506 -18.41051476 0.04954158 0 0 Z " fill="#94C2D4" transform="translate(346.75,258.625)"/>
<path d="M0 0 C6.1704251 5.74487854 8.07377399 11.87457533 10.25 19.8125 C10.54793457 20.88967285 10.84586914 21.9668457 11.15283203 23.07666016 C13.64363623 32.28781311 15.81475167 41.56006763 17.875 50.875 C18.02602173 51.54955231 18.17704346 52.22410461 18.3326416 52.9190979 C20.11692406 60.93431855 21.52343091 68.79574557 22 77 C23.32 77.33 24.64 77.66 26 78 C23.94037148 78.67548578 21.87715678 79.34004312 19.8125 80 C18.08966797 80.556875 18.08966797 80.556875 16.33203125 81.125 C13.35679188 81.90630553 11.04716104 82.18363306 8 82 C7.85304687 81.14921875 7.70609375 80.2984375 7.5546875 79.421875 C5.66287672 69.20174782 2.84593401 59.41428792 -0.23583984 49.49560547 C-0.97942813 47.06718393 -1.69344139 44.63240514 -2.39453125 42.19140625 C-2.61318848 41.43134277 -2.8318457 40.6712793 -3.05712891 39.88818359 C-3.46220732 38.47401752 -3.86446574 37.05903896 -4.26318359 35.64306641 C-5.53438082 31.23868334 -7.14673916 27.17980067 -9 23 C-9.53337589 21.62981661 -10.05700853 20.25571385 -10.5625 18.875 C-11.65689298 15.89478861 -12.81297943 12.94462615 -14 10 C-12.04312041 8.51887554 -10.08458563 7.04003653 -8.125 5.5625 C-7.56941406 5.14162109 -7.01382813 4.72074219 -6.44140625 4.28710938 C-2.2265625 1.11328125 -2.2265625 1.11328125 0 0 Z " fill="#303335" transform="translate(209,97)"/>
<path d="M0 0 C1.10232127 7.32144587 2.09001528 14.65227249 3 22 C3.17015625 23.28261719 3.3403125 24.56523437 3.515625 25.88671875 C3.84977745 30.23626986 4.02952254 32.79245585 1.125 36.19921875 C-2.33693288 39.00634525 -5.99462569 41.07080595 -10 43 C-15.2724523 38.78971649 -19.01915194 35.08589811 -22 29 C-22.99 30.32 -23.98 31.64 -25 33 C-25.66 32.67 -26.32 32.34 -27 32 C-26.67 31.67 -26.34 31.34 -26 31 C-25.95936168 29.33382885 -25.957279 27.66611905 -26 26 C-29.34987623 25.34636561 -32.38831797 25 -35.8125 25 C-36.864375 25 -37.91625 25 -39 25 C-40 24 -40 24 -40.09765625 20.83984375 C-40.08025391 18.90818359 -40.08025391 18.90818359 -40.0625 16.9375 C-40.05347656 15.64714844 -40.04445313 14.35679687 -40.03515625 13.02734375 C-40.02355469 12.02832031 -40.01195312 11.02929688 -40 10 C-38.96166016 9.96132813 -38.96166016 9.96132813 -37.90234375 9.921875 C-25.93031456 9.22784432 -14.81762156 6.28467916 -4.07421875 0.953125 C-2 0 -2 0 0 0 Z " fill="#6A30B1" transform="translate(386,341)"/>
<path d="M0 0 C1.95679688 0.03057495 1.95679688 0.03057495 3.953125 0.06176758 C25.46621456 0.64548726 25.46621456 0.64548726 32.96484375 7.05078125 C35.125 9.625 35.125 9.625 35.6875 13.125 C35.02454133 17.25007614 34.27174823 18.88168103 31.125 21.625 C26.48780221 22.5977614 22.75777869 22.61273685 18.125 21.75 C10.44118793 20.49008691 2.8140717 20.27986965 -4.96679688 20.23095703 C-12.15924953 20.06394584 -12.15924953 20.06394584 -15.99609375 17.7109375 C-18.41502081 15.02547585 -18.82981171 14.01663184 -19.25 10.375 C-18.88155647 6.69056466 -18.30387484 4.65251464 -15.83740234 1.87304688 C-11.25734325 -1.03977498 -5.22522935 -0.14357553 0 0 Z " fill="#F7F7F8" transform="translate(343.875,261.375)"/>
<path d="M0 0 C1.670625 0.061875 1.670625 0.061875 3.375 0.125 C3.375 0.785 3.375 1.445 3.375 2.125 C4.07625 2.310625 4.7775 2.49625 5.5 2.6875 C10.44638 5.16069 13.3557441 9.59611615 16.375 14.125 C19.13400757 14.46277149 21.67983257 14.61397979 24.4453125 14.63671875 C25.24154022 14.65466995 26.03776794 14.67262115 26.85812378 14.69111633 C29.4053617 14.74536969 31.95241071 14.77916212 34.5 14.8125 C36.2252868 14.84565993 37.95054861 14.88014834 39.67578125 14.91601562 C43.90871813 15.00110435 48.14159753 15.06784307 52.375 15.125 C52.375 18.095 52.375 21.065 52.375 24.125 C49.07585275 25.77457362 45.381305 25.75932072 41.75 26.125 C40.90421387 26.21402588 40.05842773 26.30305176 39.18701172 26.39477539 C35.03790685 26.81683013 30.90067034 27.17574239 26.734375 27.37109375 C26.01846191 27.40525391 25.30254883 27.43941406 24.56494141 27.47460938 C22.60892969 27.5578636 20.65210435 27.62131393 18.6953125 27.68359375 C15.12024005 28.15886809 13.2042889 28.91589943 10.375 31.125 C9.30597061 33.42752483 8.30324183 35.7622026 7.375 38.125 C6 40.0625 6 40.0625 4.375 41.125 C1.8125 41.4375 1.8125 41.4375 -0.625 41.125 C-2.625 39.125 -2.625 39.125 -3.0625 36.4375 C-2.49314203 32.12664679 -0.65410728 29.22754019 2.375 26.125 C3.035 26.125 3.695 26.125 4.375 26.125 C3.18374336 21.24084778 1.13617362 18.35277631 -2.1875 14.73828125 C-4.78004153 11.82871698 -5.9037757 9.91124996 -5.875 6.0625 C-5.54951779 0.93615514 -5.16259814 0.17802063 0 0 Z " fill="#EFEFEF" transform="translate(32.625,466.875)"/>
<path d="M0 0 C1.08200684 0.00491455 2.16401367 0.0098291 3.27880859 0.01489258 C20.3470245 0.26030639 39.31417285 2.45776258 53.71484375 12.39453125 C55.72755439 15.5518505 55.12285902 18.63179953 54.9375 22.3125 C53.97714844 21.94898438 53.01679688 21.58546875 52.02734375 21.2109375 C39.87622013 16.71370837 27.5332454 13.32351827 14.9375 10.3125 C14.19081055 10.13025879 13.44412109 9.94801758 12.67480469 9.76025391 C-6.42099268 5.20608296 -25.7318401 5.23910406 -42.9375 15.5625 C-51.69562785 21.65511068 -58.527554 28.347386 -64.46875 37.22265625 C-64.9946875 37.91230469 -65.520625 38.60195312 -66.0625 39.3125 C-66.7225 39.3125 -67.3825 39.3125 -68.0625 39.3125 C-68.68920606 34.29885151 -67.47461787 31.41493455 -64.72265625 27.3828125 C-56.43729869 17.05048425 -44.50364798 10.54012889 -32.5 5.4375 C-31.84064453 5.15124756 -31.18128906 4.86499512 -30.50195312 4.57006836 C-20.7357596 0.61533055 -10.43455006 -0.05700586 0 0 Z " fill="#303335" transform="translate(292.0625,184.6875)"/>
<path d="M0 0 C2.10716111 2.00363007 3.76926556 4.0181216 5.375 6.4375 C7.54776213 9.55465418 9.88823385 11.77730989 13 14 C15.99220268 12.63629701 18.29026529 11.05091917 20.75 8.875 C21.36359375 8.33617187 21.9771875 7.79734375 22.609375 7.2421875 C23.06828125 6.83226562 23.5271875 6.42234375 24 6 C24.66 6.33 25.32 6.66 26 7 C20.30875144 14.01218033 14.58454168 20.99438275 8.6796875 27.828125 C6.93442632 29.85703758 5.34982555 31.88351233 3.7578125 34.046875 C-1.38256129 40.71241463 -1.38256129 40.71241463 -6.44921875 41.61328125 C-10.0625 41.625 -10.0625 41.625 -16 41 C-16 36.38 -16 31.76 -16 27 C-11.71 26.34 -7.42 25.68 -3 25 C-2.34 23.02 -1.68 21.04 -1 19 C-5.95 18.67 -10.9 18.34 -16 18 C-16 13.71 -16 9.42 -16 5 C-14.51886719 4.96132813 -14.51886719 4.96132813 -13.0078125 4.921875 C-11.72648437 4.86515625 -10.44515625 4.8084375 -9.125 4.75 C-7.84882813 4.70359375 -6.57265625 4.6571875 -5.2578125 4.609375 C-1.90811895 4.37444944 -1.90811895 4.37444944 -0.5546875 1.953125 C-0.37164062 1.30859375 -0.18859375 0.6640625 0 0 Z " fill="#6A30B2" transform="translate(363,369)"/>
<path d="M0 0 C4.69273489 1.96440065 7.54783861 5.91498095 9.84375 10.3671875 C10.93289983 13.9270939 11.01722707 17.31340616 11 21 C11.01611328 21.68191406 11.03222656 22.36382812 11.04882812 23.06640625 C11.05573412 30.31770525 8.62378918 35.71100541 3.6875 41.125 C0.82629744 42.55560128 -1.15260585 42.51192581 -4.3125 42.125 C-6.62391604 39.27425356 -7.3125 37.8110549 -7.3125 34.125 C-6.075 33.3515625 -6.075 33.3515625 -4.8125 32.5625 C-2.11463014 30.42048952 -2.11463014 30.42048952 -1.9453125 27.75 C-1.93419366 23.92511843 -2.09724378 20.77076866 -3.3125 17.125 C-5.6225 16.795 -7.9325 16.465 -10.3125 16.125 C-9.87593578 10.66794724 -8.65883494 7.4555511 -5.3125 3.125 C-4.838125 2.485625 -4.36375 1.84625 -3.875 1.1875 C-2.3125 0.125 -2.3125 0.125 0 0 Z " fill="#911651" transform="translate(90.3125,461.875)"/>
<path d="M0 0 C3.774375 0.0309375 3.774375 0.0309375 7.625 0.0625 C7.625 6.3325 7.625 12.6025 7.625 19.0625 C0.625 21.3125 0.625 21.3125 -1.52734375 21.99316406 C-6.40280775 23.59075867 -10.8273907 25.68718621 -15.375 28.0625 C-15.40398816 24.12501542 -15.42179464 20.18755821 -15.4375 16.25 C-15.44587891 15.13044922 -15.45425781 14.01089844 -15.46289062 12.85742188 C-15.46611328 11.78427734 -15.46933594 10.71113281 -15.47265625 9.60546875 C-15.47789307 8.61571045 -15.48312988 7.62595215 -15.48852539 6.60620117 C-15.375 4.0625 -15.375 4.0625 -14.375 1.0625 C-9.51803391 0.08957462 -4.92346633 -0.05741504 0 0 Z " fill="#6C33B6" transform="translate(188.375,307.9375)"/>
<path d="M0 0 C2.80824575 1.15633649 4.83571168 2.90366839 7.125 4.875 C7.681875 4.05 8.23875 3.225 8.8125 2.375 C11.125 -0.125 11.125 -0.125 13.875 -0.4375 C14.98875 -0.2828125 14.98875 -0.2828125 16.125 -0.125 C17.88947708 4.96084569 18.82915401 8.58315334 17.125 13.875 C14.347486 17.43564765 11.30985636 20.67727553 8.125 23.875 C2.59287834 21.2582945 -2.54790597 17.69273508 -4.875 11.875 C-5.25918345 8.50272306 -5.47972254 5.22468855 -4.875 1.875 C-1.875 -0.125 -1.875 -0.125 0 0 Z " fill="#FB0104" transform="translate(369.875,360.125)"/>
<path d="M0 0 C11.91477301 4.40654083 22.12982036 13.12982036 31 22 C21.43 21.67 11.86 21.34 2 21 C2 19.02 2 17.04 2 15 C4.31 14.34 6.62 13.68 9 13 C9.042721 11.33388095 9.04063832 9.66617115 9 8 C7.81666667 6.61666667 7.81666667 6.61666667 4.5 6.5 C1 6 1 6 0 5 C-0.04063832 3.33382885 -0.042721 1.66611905 0 0 Z " fill="#6730AC" transform="translate(335,222)"/>
<path d="M0 0 C-0.875 4.875 -0.875 4.875 -2 6 C-4.33944736 5.71269945 -6.6739143 5.38063221 -9 5 C-8.625 2.5625 -8.625 2.5625 -8 0 C-5.13822943 -1.43088528 -3.06624227 -0.59991697 0 0 Z " fill="#E3EDFF" transform="translate(156,525)"/>
<path d="M0 0 C2.31 0.33 4.62 0.66 7 1 C7.38218767 2.65614657 7.71395102 4.32457024 8 6 C7 7 7 7 4.5625 7.1875 C2 7 2 7 0 5 C-0.125 2.375 -0.125 2.375 0 0 Z " fill="#E4EFFF" transform="translate(151,486)"/>
<path d="M0 0 C4.30764815 1.56641751 8.06171464 3.68336156 12 6 C11.67 7.98 11.34 9.96 11 12 C10.690625 11.360625 10.38125 10.72125 10.0625 10.0625 C9.1654837 8.06389179 9.1654837 8.06389179 8 7 C6.845 6.835 5.69 6.67 4.5 6.5 C1 6 1 6 0 5 C-0.04063832 3.33382885 -0.042721 1.66611905 0 0 Z " fill="#592997" transform="translate(335,222)"/>
<path d="M0 0 C0.66 0.33 1.32 0.66 2 1 C0.90344712 2.31886772 -0.20253423 3.62990057 -1.3125 4.9375 C-1.92738281 5.66839844 -2.54226562 6.39929688 -3.17578125 7.15234375 C-5 9 -5 9 -8 10 C-6.5682479 4.98886765 -4.01554307 3.05530451 0 0 Z " fill="#19390B" transform="translate(168,295)"/>
<path d="M0 0 C0.66 0.33 1.32 0.66 2 1 C-1.3 4.3 -4.6 7.6 -8 11 C-8 8 -8 8 -5.6875 5.5 C-4.800625 4.675 -3.91375 3.85 -3 3 C-2.401875 2.401875 -1.80375 1.80375 -1.1875 1.1875 C-0.795625 0.795625 -0.40375 0.40375 0 0 Z " fill="#152D0A" transform="translate(162,204)"/>
<path d="M0 0 C0 0.66 0 1.32 0 2 C-1.65071396 3.02611949 -3.31970006 4.02308143 -5 5 C-5.556875 5.556875 -6.11375 6.11375 -6.6875 6.6875 C-7.120625 7.120625 -7.55375 7.55375 -8 8 C-8.66 8 -9.32 8 -10 8 C-8.89904638 4.69713914 -8.3103981 4.21489099 -5.5625 2.3125 C-4.94503906 1.87550781 -4.32757813 1.43851562 -3.69140625 0.98828125 C-2 0 -2 0 0 0 Z " fill="#9B1155" transform="translate(82,432)"/>
</svg>
