<?xml version="1.0" encoding="UTF-8"?>
<svg version="1.1" xmlns="http://www.w3.org/2000/svg" width="600" height="600">
<path d="M0 0 C4.41327107 0.54198066 6.85060537 2.24318522 10.5546875 4.609375 C13.96991901 6.6851261 17.47277778 8.43843622 21.0625 10.1875 C47.48417967 23.20674069 47.48417967 23.20674069 56.5625 31.4375 C57.26632812 32.07300781 57.97015625 32.70851562 58.6953125 33.36328125 C64.61770032 38.99064237 68.63983104 44.81486338 71.5625 52.4375 C84.74221717 45.82963634 96.18964328 38.38377776 106.37963867 27.59863281 C111.6174388 22.10486031 115.9016192 19.05037046 123.5625 18.4375 C125.75799597 23.17572716 127.10334575 27.35794688 127.9140625 32.55859375 C128.07060806 33.55222679 128.07060806 33.55222679 128.23031616 34.56593323 C128.44809277 35.96277484 128.66129903 37.36033603 128.87011719 38.75854492 C129.18232697 40.84050387 129.51179918 42.91915544 129.84375 44.99804688 C133.63051797 69.29329686 133.63051797 69.29329686 131.5625 79.4375 C149.21448207 77.06773156 149.21448207 77.06773156 166.6875 73.6875 C173.5391616 72.12213911 180.04677714 71.07454627 186.5625 74.4375 C187.91232752 79.83681008 187.45980081 81.94835216 184.67578125 86.89453125 C183.23189144 90.19267955 182.61257907 93.53746166 182 97.0625 C181.87898926 97.75496826 181.75797852 98.44743652 181.63330078 99.16088867 C181.39086669 100.56879617 181.1506303 101.97708387 180.91259766 103.38574219 C178.42249183 117.97908206 174.67708303 132.88193446 163.5625 143.4375 C167.59830707 151.70038462 172.14382717 158.38132289 179.0625 164.4375 C188.97693675 173.18503502 194.71874349 182.70265923 195.875 196.04296875 C196.26130066 207.88549838 193.71477779 217.20355403 186.734375 226.79296875 C183.54431763 233.99186489 186.05920435 242.97384382 187.3125 250.4375 C187.46976562 251.46617187 187.62703125 252.49484375 187.7890625 253.5546875 C188.73964989 259.30208511 190.06479961 264.27687016 192.66894531 269.5 C196.45050004 277.69956785 194.82080025 286.83698808 192.21875 295.125 C191.42599816 297.51787088 191.42599816 297.51787088 191.5625 300.4375 C192.573125 300.52 193.58375 300.6025 194.625 300.6875 C221.9720737 304.20217672 248.23368711 318.08911711 265.5625 339.4375 C278.73588082 357.35438214 285.54266434 376.19321487 284.5625 398.4375 C285.23796875 398.08816406 285.9134375 397.73882812 286.609375 397.37890625 C287.50140625 396.92386719 288.3934375 396.46882813 289.3125 396 C290.19421875 395.54753906 291.0759375 395.09507812 291.984375 394.62890625 C299.66023738 391.08172742 307.159539 391.65316595 315 394.5 C327.44347233 399.72625838 338.24285274 406.99963612 343.88671875 419.6796875 C346.25838106 425.84875132 346.41086154 433.04405384 344.8125 439.4375 C343.00698209 442.32632865 340.72954837 443.10910737 337.50708008 444.01586914 C336.78931396 444.16660889 336.07154785 444.31734863 335.33203125 444.47265625 C334.52830078 444.64216797 333.72457031 444.81167969 332.89648438 444.98632812 C332.06439453 445.15583984 331.23230469 445.32535156 330.375 445.5 C329.56224609 445.67337891 328.74949219 445.84675781 327.91210938 446.02539062 C312.92437307 449.1374027 299.13398507 449.85944793 284.5625 444.4375 C284.5939209 445.2896106 284.5939209 445.2896106 284.62597656 446.15893555 C285.14508796 462.41073648 283.65417005 476.37571699 274.5625 490.4375 C265.66384754 493.40371749 255.69756282 492.03593757 247.40625 488.03515625 C236.75686213 482.05218971 228.86411259 475.00442941 224.3671875 463.3359375 C222.25981548 455.74530623 223.66692277 448.65190429 226.5625 441.4375 C228.58785043 437.95642896 230.69894484 435.22783926 233.5625 432.4375 C220.5489308 431.89020036 206.00080962 432.29139679 193.5625 436.4375 C194.10519531 436.80101562 194.64789063 437.16453125 195.20703125 437.5390625 C199.60797755 440.63161936 203.02441477 443.05420169 204.5625 448.4375 C204.28859077 452.20375193 203.49310757 454.41046803 200.94140625 457.2265625 C165.97071703 487.2392145 92.97317789 481.82919537 49.5625 479.4375 C48.41233398 479.37546387 47.26216797 479.31342773 46.07714844 479.24951172 C-25.39497849 475.11921293 -25.39497849 475.11921293 -44.4375 454.4375 C-44.7675 454.1075 -45.0975 453.7775 -45.4375 453.4375 C-46.0126634 446.53553922 -46.0126634 446.53553922 -44.0625 442.8125 C-37.57994499 436.94733118 -27.43042457 430.4375 -18.4375 430.4375 C-18.70304687 429.82003906 -18.96859375 429.20257812 -19.2421875 428.56640625 C-25.13758455 414.43036296 -25.6399422 400.64315833 -25.4375 385.4375 C-26.0975 385.7675 -26.7575 386.0975 -27.4375 386.4375 C-38.35497282 387.4548989 -49.82029618 385.54715844 -58.4375 378.4375 C-70.80827698 367.51463737 -71.59986101 349.15074647 -72.70899963 333.64094543 C-73.41894438 322.07619896 -73.61651714 310.54136482 -73.640625 298.95703125 C-73.64345238 298.02139532 -73.64627975 297.08575939 -73.64919281 296.12177086 C-73.66402407 291.18314728 -73.67335804 286.24455177 -73.67773438 281.3059082 C-73.68323865 276.25654766 -73.7073544 271.20745401 -73.73570633 266.15817738 C-73.75445727 262.22270472 -73.75954459 258.28729537 -73.76107025 254.35178185 C-73.76406216 252.49134529 -73.77197056 250.63090888 -73.78525543 248.77051735 C-73.88464487 233.80252589 -73.8560267 217.9531098 -64.4375 205.4375 C-61.9675995 203.03788122 -59.38875965 201.19919242 -56.4375 199.4375 C-55.75558594 199.02628906 -55.07367188 198.61507812 -54.37109375 198.19140625 C-52.74462073 197.24180887 -51.09354777 196.33452588 -49.4375 195.4375 C-50.19933594 195.21835937 -50.96117187 194.99921875 -51.74609375 194.7734375 C-65.74434049 190.47435049 -65.74434049 190.47435049 -70.4375 185.4375 C-70.984375 182.93359375 -70.984375 182.93359375 -70.4375 180.4375 C-68.55078125 178.94921875 -68.55078125 178.94921875 -65.4375 177.4375 C-63.88752872 176.61404542 -62.33953701 175.78685957 -60.79296875 174.95703125 C-59.0710879 174.05320874 -57.34841028 173.15090277 -55.625 172.25 C-54.74134766 171.78658203 -53.85769531 171.32316406 -52.94726562 170.84570312 C-50.77802882 169.7083195 -48.60809223 168.57229415 -46.4375 167.4375 C-46.20518862 165.28980657 -46.20518862 165.28980657 -48.0546875 163.7734375 C-48.79976562 163.12632812 -49.54484375 162.47921875 -50.3125 161.8125 C-51.1375 161.09449219 -51.9625 160.37648437 -52.8125 159.63671875 C-55.27295725 157.57535353 -57.77840824 155.59460657 -60.3125 153.625 C-74.55599814 142.23462493 -83.73668526 130.25810277 -88.4375 112.4375 C-88.67597656 111.56222656 -88.91445312 110.68695313 -89.16015625 109.78515625 C-89.4375 107.4375 -89.4375 107.4375 -87.4375 104.4375 C-83.50248739 103.76566858 -80.87053931 104.57933783 -77.375 106.25 C-66.65630771 111.27830139 -56.05071036 111.87118835 -44.4375 111.4375 C-44.85 111.01082031 -45.2625 110.58414063 -45.6875 110.14453125 C-58.49821486 96.2757886 -67.6526698 77.41874787 -67.39453125 58.24609375 C-66.41043901 43.41043901 -66.41043901 43.41043901 -63.4375 40.4375 C-58.11214679 40.05874915 -54.41383153 40.92729306 -49.52734375 43 C-48.88594955 43.26717331 -48.24455536 43.53434662 -47.58372498 43.80961609 C-46.21604542 44.38043127 -44.85058708 44.95659366 -43.48724365 45.53768921 C-39.92013408 47.05726943 -36.33633573 48.53651707 -32.75390625 50.01953125 C-32.04314941 50.31487259 -31.33239258 50.61021393 -30.60009766 50.914505 C-24.39622204 53.48195713 -18.1324578 55.8577309 -11.8125 58.125 C-10.50140259 58.59583008 -10.50140259 58.59583008 -9.16381836 59.07617188 C-4.93796613 60.58026738 -0.69921434 62.03761649 3.5625 63.4375 C3.43476336 46.01021522 1.36270768 29.15466792 -3.00146484 12.25341797 C-3.53138527 10.04650412 -3.56999488 8.01719984 -3.5625 5.75 C-3.56507813 4.96238281 -3.56765625 4.17476563 -3.5703125 3.36328125 C-3.36985791 0.45668965 -2.88185179 0.51725545 0 0 Z " fill="#050704" transform="translate(226.4375,94.5625)"/>
<path d="M0 0 C0.99 0.33 1.98 0.66 3 1 C3.33 2.65 3.66 4.3 4 6 C5.11375 5.505 5.11375 5.505 6.25 5 C11.5121552 3.59675861 16.5857837 3.84230438 22 4 C22.33 4.66 22.66 5.32 23 6 C22.36723145 6.20044922 21.73446289 6.40089844 21.08251953 6.60742188 C-5.58283833 15.11487192 -28.33866964 26.4896017 -51.67028809 41.85876465 C-52.99893976 42.7339461 -54.32922595 43.60665194 -55.66125488 44.47668457 C-69.78224581 53.61380697 -69.78224581 53.61380697 -79.375 67.125 C-79.83648437 68.09695313 -80.29796875 69.06890625 -80.7734375 70.0703125 C-83.15676164 75.76296571 -84.24239456 80.15308846 -84.125 86.375 C-84.10695312 87.62023437 -84.08890625 88.86546875 -84.0703125 90.1484375 C-84.04710937 91.08945312 -84.02390625 92.03046875 -84 93 C-82.02 92.505 -82.02 92.505 -80 92 C-79.79246094 91.11699219 -79.58492187 90.23398437 -79.37109375 89.32421875 C-73.89628671 67.99766916 -59.90632761 57.29129742 -42 46 C-41.22849609 45.51176758 -40.45699219 45.02353516 -39.66210938 44.52050781 C0.36990177 19.30950843 43.72781243 4.18216564 91.34033203 14.66674805 C117.89432321 21.17680128 141.36348427 32.95565758 156.078125 56.81030273 C163.51593761 69.45919732 168.58230465 81.67707889 168.4375 96.4375 C168.43266602 97.98727539 168.43266602 97.98727539 168.42773438 99.56835938 C168.25305519 109.36846421 166.49566671 118.55211888 164 128 C162.41632253 127.85795259 160.83306682 127.71119847 159.25 127.5625 C157.92742187 127.44068359 157.92742187 127.44068359 156.578125 127.31640625 C154 127 154 127 152.34375 126.49291992 C148.88782494 125.76609568 145.43842137 125.81738838 141.921875 125.796875 C140.73046402 125.7861496 140.73046402 125.7861496 139.51498413 125.77520752 C112.84183811 125.59039838 88.14550369 128.63903781 62.02783203 133.86938477 C49.88648569 136.29387329 37.7245534 138.47552318 25.5 140.4375 C24.72395416 140.56283112 23.94790833 140.68816223 23.14834595 140.81729126 C18.43658894 141.57552168 13.72467377 142.32614004 9 143 C7.09855225 143.27831665 7.09855225 143.27831665 5.15869141 143.56225586 C-2.54101089 144.38349697 -10.33609324 144.14326794 -18.0703125 144.1328125 C-19.83755507 144.13348761 -21.60479754 144.13445936 -23.37203979 144.13571167 C-27.06867358 144.13718119 -30.76528311 144.13505967 -34.46191406 144.13037109 C-39.15832028 144.12469947 -43.854669 144.12794125 -48.55107307 144.13394356 C-52.20090146 144.13759094 -55.85071667 144.13639117 -59.5005455 144.13381577 C-61.22978599 144.13315668 -62.95902775 144.13393855 -64.68826675 144.13629532 C-100.31319509 144.17417499 -100.31319509 144.17417499 -110.375 136.8125 C-119.91070644 126.59567167 -121.37730947 113.18415498 -122.0625 99.75 C-122.13919921 98.39688888 -122.21594291 97.04378027 -122.29272461 95.69067383 C-123.28642897 77.22837149 -123.7282489 58.73047682 -124.2440052 40.24941921 C-124.3023012 38.16580994 -124.36181285 36.08223856 -124.42163086 33.99867249 C-124.49494507 31.42391471 -124.56553411 28.84907723 -124.6328125 26.27415466 C-124.84594176 18.82028452 -125.29533532 11.42376057 -126 4 C-125.36682861 4.18933105 -124.73365723 4.37866211 -124.08129883 4.57373047 C-122.39275855 5.07704012 -120.70264074 5.57506338 -119.01171875 6.0703125 C-117.03901067 6.67926778 -115.08120726 7.33936257 -113.14453125 8.0546875 C-106.12801542 10.54178367 -100.0486926 11.18136731 -92.6875 11.25 C-83.98752385 11.39580071 -83.98752385 11.39580071 -80.29296875 13.65625 C-78.375 15.75 -78.375 15.75 -76.73046875 17.92578125 C-73.09978017 22.27769014 -67.27179385 24.24273538 -62 26 C-48.97582278 26.8561151 -38.40568429 25.91931028 -27.75390625 17.66015625 C-25.86482106 15.97434557 -25.86482106 15.97434557 -24.19921875 13.515625 C-21.5075942 10.43675074 -18.99023753 9.29580214 -15.25 7.6875 C-14.07953125 7.17574219 -12.9090625 6.66398437 -11.703125 6.13671875 C-10.81109375 5.76160156 -9.9190625 5.38648438 -9 5 C-8.505 5.99 -8.505 5.99 -8 7 C-6.68 7 -5.36 7 -4 7 C-2.68 4.69 -1.36 2.38 0 0 Z " fill="#87ABB4" transform="translate(333,391)"/>
<path d="M0 0 C7.65812337 3.54888644 14.93981316 7.62333661 22.1875 11.9375 C23.01797852 12.42702148 23.84845703 12.91654297 24.70410156 13.42089844 C35.52271174 19.92578613 44.79094953 27.31727746 52.0625 37.6875 C56.10128256 43.49737855 56.10128256 43.49737855 62 47 C75.052599 47.40704571 90.36985993 33.96814205 99.51953125 25.61230469 C104.90170446 20.8096957 104.90170446 20.8096957 109 15 C109.66 15 110.32 15 111 15 C111.04898438 16.28132813 111.09796875 17.56265625 111.1484375 18.8828125 C111.60733338 30.39439902 111.60733338 30.39439902 113.0625 41.8125 C114.28785465 49.31779724 114.13240045 56.77742485 114.01391602 64.35864258 C113.99349243 65.79759888 113.99349243 65.79759888 113.97265625 67.265625 C113.95468994 68.12961914 113.93672363 68.99361328 113.91821289 69.88378906 C113.85654167 72.05669837 113.85654167 72.05669837 115 74 C130.58933309 74.28742211 144.67381954 73.11455098 159.90625 69.5859375 C162.70164972 69.05650573 165.16668091 68.88370705 168 69 C167.73445312 70.07636719 167.46890625 71.15273437 167.1953125 72.26171875 C165.54608389 79.05160311 163.94727979 85.74670323 163.0625 92.6875 C161.62006981 102.7971642 158.05067885 113.64615952 152 122 C151.01 122.66 150.02 123.32 149 124 C148.53851563 123.31035156 148.07703125 122.62070313 147.6015625 121.91015625 C139.61210258 110.39964977 129.62627409 102.55638364 118 95 C117.05511719 94.38125 116.11023438 93.7625 115.13671875 93.125 C90.28969019 77.7287776 59.04895131 73.68747401 30.59375 80.02734375 C25.35055229 81.44642661 20.72513098 83.33305491 16 86 C15.07703125 86.515625 14.1540625 87.03125 13.203125 87.5625 C-15.1725075 104.49381663 -27.79192376 143.85230114 -35.58984375 174.296875 C-35.72519531 174.85890625 -35.86054688 175.4209375 -36 176 C-46.1037931 175.75519444 -55.39309643 172.86410436 -65 170 C-61.97847882 167.98565255 -58.90815454 166.36283472 -55.6875 164.6875 C-47.03106238 160.32858187 -47.03106238 160.32858187 -41.625 152.6875 C-41.41875 151.800625 -41.2125 150.91375 -41 150 C-41.99 149.67 -42.98 149.34 -44 149 C-45.4375 147.50390625 -45.4375 147.50390625 -47 145.5625 C-53.11085131 138.37326316 -60.25289931 132.33694714 -67.6875 126.5625 C-73.236892 122.09281803 -77.1649736 116.96961657 -81 111 C-81.88171875 109.66195312 -81.88171875 109.66195312 -82.78125 108.296875 C-83.38453125 107.15992188 -83.38453125 107.15992188 -84 106 C-83.505 105.01 -83.505 105.01 -83 104 C-82.27941406 104.28875 -81.55882812 104.5775 -80.81640625 104.875 C-72.45096181 107.7672545 -64.87183273 108.38526205 -56.0625 108.375 C-54.44613647 108.37693359 -54.44613647 108.37693359 -52.79711914 108.37890625 C-47.16507359 108.30176095 -42.31679527 107.89075223 -37 106 C-37.35051158 100.04130315 -38.59674333 97.92464182 -43 94 C-56.17495324 80.63271167 -66.04334677 61.88104944 -66.125 42.9375 C-66.09325784 40.95814929 -66.05505272 38.97883956 -66 37 C-60.29843918 38.70195845 -55.06091135 41.23398571 -49.6875 43.75 C-41.46194417 47.55352332 -33.22644443 50.89157514 -24.62890625 53.74609375 C-20.98523926 55.00510032 -17.53092521 56.45868924 -14 58 C-9.72995555 59.47809231 -5.74513789 60.17585629 -1.265625 60.5546875 C0.21502441 60.68206299 0.21502441 60.68206299 1.72558594 60.81201172 C2.47614258 60.87404785 3.22669922 60.93608398 4 61 C4.10066581 55.77544457 4.17229274 50.55148223 4.21972656 45.32617188 C4.2395488 43.55751689 4.26661492 41.78892471 4.30175781 40.02050781 C4.51995832 28.73825799 3.70174974 18.54640012 0.86621094 7.60302734 C0 4 0 4 0 0 Z " fill="#B2DBEE" transform="translate(235,109)"/>
<path d="M0 0 C0.99 0.33 1.98 0.66 3 1 C3.33 2.65 3.66 4.3 4 6 C5.11375 5.505 5.11375 5.505 6.25 5 C11.5121552 3.59675861 16.5857837 3.84230438 22 4 C22.33 4.66 22.66 5.32 23 6 C22.36723145 6.20044922 21.73446289 6.40089844 21.08251953 6.60742188 C-5.58283833 15.11487192 -28.33866964 26.4896017 -51.67028809 41.85876465 C-52.99893976 42.7339461 -54.32922595 43.60665194 -55.66125488 44.47668457 C-69.78224581 53.61380697 -69.78224581 53.61380697 -79.375 67.125 C-79.83648437 68.09695313 -80.29796875 69.06890625 -80.7734375 70.0703125 C-83.15676164 75.76296571 -84.24239456 80.15308846 -84.125 86.375 C-84.10695312 87.62023437 -84.08890625 88.86546875 -84.0703125 90.1484375 C-84.04710937 91.08945312 -84.02390625 92.03046875 -84 93 C-82.02 92.505 -82.02 92.505 -80 92 C-79.79246094 91.11699219 -79.58492187 90.23398437 -79.37109375 89.32421875 C-74.11052817 68.8322248 -61.10983676 58.24009394 -43.96362305 47.07226562 C-41.975439 45.9865881 -40.21299216 45.44228957 -38 45 C-38.47480746 49.27326712 -39.02672438 51.02672438 -42 54 C-42.58402133 56.41417872 -42.58402133 56.41417872 -42 59 C-41.01 60.0828125 -41.01 60.0828125 -40 61.1875 C-37.02840473 65.36630585 -37.27144171 69.0291075 -38 74 C-39.88813199 80.69106773 -44.13421347 84.51907124 -50 88 C-51.485 88.495 -51.485 88.495 -53 89 C-52.84273438 89.96550781 -52.68546875 90.93101562 -52.5234375 91.92578125 C-50.60445043 105.51917544 -50.70023623 118.54031723 -59.1875 129.9375 C-68.41351444 136.70324392 -77.45149169 139.34160953 -88.75 139.25 C-89.6884375 139.25773438 -90.626875 139.26546875 -91.59375 139.2734375 C-107.51321901 139.22946107 -107.51321901 139.22946107 -111.8828125 135.31201172 C-113.53439542 133.30644096 -114.76769824 131.28634604 -116 129 C-116.38929688 128.30132813 -116.77859375 127.60265625 -117.1796875 126.8828125 C-119.57635501 121.82706863 -120.45379766 116.70182425 -121.04296875 111.1796875 C-121.12695419 110.40355103 -121.21093964 109.62741455 -121.29747009 108.82775879 C-122.38259939 98.08073815 -122.68801356 87.29012249 -123.0625 76.5 C-123.14592939 74.24208857 -123.22983738 71.98419478 -123.31420898 69.72631836 C-123.84463725 55.33857254 -124.31758139 40.94829041 -124.65844727 26.5546875 C-124.85125061 19.00429144 -125.27636623 11.51866778 -126 4 C-125.36682861 4.18933105 -124.73365723 4.37866211 -124.08129883 4.57373047 C-122.39275855 5.07704012 -120.70264074 5.57506338 -119.01171875 6.0703125 C-117.03901067 6.67926778 -115.08120726 7.33936257 -113.14453125 8.0546875 C-106.12801542 10.54178367 -100.0486926 11.18136731 -92.6875 11.25 C-83.98752385 11.39580071 -83.98752385 11.39580071 -80.29296875 13.65625 C-78.375 15.75 -78.375 15.75 -76.73046875 17.92578125 C-73.09978017 22.27769014 -67.27179385 24.24273538 -62 26 C-48.97582278 26.8561151 -38.40568429 25.91931028 -27.75390625 17.66015625 C-25.86482106 15.97434557 -25.86482106 15.97434557 -24.19921875 13.515625 C-21.5075942 10.43675074 -18.99023753 9.29580214 -15.25 7.6875 C-14.07953125 7.17574219 -12.9090625 6.66398437 -11.703125 6.13671875 C-10.81109375 5.76160156 -9.9190625 5.38648438 -9 5 C-8.505 5.99 -8.505 5.99 -8 7 C-6.68 7 -5.36 7 -4 7 C-2.68 4.69 -1.36 2.38 0 0 Z " fill="#D79E73" transform="translate(333,391)"/>
<path d="M0 0 C0 0.33 0 0.66 0 1 C-0.83470825 1.08918701 -0.83470825 1.08918701 -1.6862793 1.18017578 C-29.5597261 4.27500895 -56.28308873 10.43879502 -74.5625 33.1875 C-79.38488931 40.21481658 -81.40277884 47.449729 -80 56 C-78.16348401 59.33821811 -78.16348401 59.33821811 -75 61 C-69.09598818 62.00256805 -64.88879412 60.0912981 -60 57 C-57.8904796 55.4189794 -55.96300816 53.76670734 -54 52 C-54.23783203 53.16595703 -54.23783203 53.16595703 -54.48046875 54.35546875 C-57.62722164 76.43005859 -53.50724221 96.90379917 -41.34765625 115.53125 C-33.64710608 125.32168053 -21.72595681 129.32810271 -10 132 C-9.32243652 132.17950195 -8.64487305 132.35900391 -7.94677734 132.54394531 C0.33119064 134.53149892 8.67487394 134.22127186 17.125 134.125 C18.66926501 134.11494704 20.21353638 134.10582529 21.7578125 134.09765625 C25.50534249 134.07583336 29.25262946 134.04143206 33 134 C32.38382813 135.06347656 31.76765625 136.12695312 31.1328125 137.22265625 C27.98793107 142.7324331 25.28933757 148.19439177 24 154.4375 C23 158 23 158 21.1875 159.5 C18.66160397 160.07734766 16.58133576 160.27171955 14 160 C13.34 159.34 12.68 158.68 12 158 C8.5 157.58333333 8.5 157.58333333 5 158 C4.34 158.99 3.68 159.98 3 161 C0.6171875 161.29296875 0.6171875 161.29296875 -2.125 161.1875 C-3.03507812 161.16042969 -3.94515625 161.13335937 -4.8828125 161.10546875 C-5.58148438 161.07066406 -6.28015625 161.03585937 -7 161 C-7.20753906 160.38253906 -7.41507812 159.76507813 -7.62890625 159.12890625 C-11.61294013 148.17698048 -17.35164366 141.00201452 -28 136 C-36.72319754 132.74728227 -47.67497466 132.3746042 -56.4375 135.625 C-66.75164065 140.49080722 -73.18505619 147.4941266 -77.69140625 157.92578125 C-79 160 -79 160 -80.73828125 160.78125 C-89.65796308 161.64394807 -98.32182275 161.23952961 -107 159 C-107.78865187 155.51427295 -108.13018295 152.28787968 -108.14526367 148.71679688 C-108.15164352 147.6838147 -108.15802338 146.65083252 -108.16459656 145.58654785 C-108.16570938 144.47517456 -108.1668222 143.36380127 -108.16796875 142.21875 C-108.17129715 141.05484741 -108.17462555 139.89094482 -108.17805481 138.69177246 C-108.18311829 136.22046299 -108.18546331 133.74914668 -108.18530273 131.27783203 C-108.18745974 127.56921392 -108.20553902 123.86090807 -108.22460938 120.15234375 C-108.31956246 80.17239601 -104.99495868 31.32934582 -77 0 C-58.22288805 -18.28297742 -21.22491338 -8.89756322 0 0 Z " fill="#3AF6DA" transform="translate(324,217)"/>
<path d="M0 0 C28.64794789 -1.00478436 59.79277751 4.37365117 81.8203125 24.3671875 C90.66189108 32.76987906 97.82131888 41.02318364 101 53 C101.2784375 53.90878906 101.556875 54.81757813 101.84375 55.75390625 C105.75592301 69.9355334 105.94841202 86.3447038 100 100 C99.01 100.495 99.01 100.495 98 101 C95.78515625 99.7421875 95.78515625 99.7421875 93.0625 97.875 C87.54197584 94.27558968 82.13832819 91.39449397 76 89 C74.30810547 88.29810547 74.30810547 88.29810547 72.58203125 87.58203125 C49.27904452 78.83775955 18.90582425 83.04109863 -4.7890625 89.1953125 C-8 90 -8 90 -10 90 C-9.85925049 89.46560303 -9.71850098 88.93120605 -9.57348633 88.38061523 C-8.14264911 82.5443885 -7.6488862 77.06147003 -7.6875 71.0625 C-7.69269653 69.7475354 -7.69269653 69.7475354 -7.69799805 68.40600586 C-7.8237721 60.9353053 -8.70652974 54.55883316 -12.8125 48.1875 C-14 46 -14 46 -13.625 43.6875 C-11.74232891 40.57385166 -9.49965955 38.13561001 -6.94921875 35.55078125 C-0.8622277 27.58523985 0.72257441 20.79249195 0.3125 10.875 C0.28994141 9.823125 0.26738281 8.77125 0.24414062 7.6875 C0.18586671 5.12344757 0.10412878 2.56252924 0 0 Z " fill="#97BB9D" transform="translate(391,404)"/>
<path d="M0 0 C1.96943329 2.440473 3.90193028 4.85834374 5.6875 7.4375 C15.81273026 18.65734975 29.77021265 19.2292927 44 20 C49.37927473 20.21239852 54.75848227 20.34880136 60.140625 20.45703125 C60.89072594 20.47213934 61.64082687 20.48724743 62.41365814 20.50281334 C66.40150304 20.58134978 70.38941391 20.65382487 74.37744141 20.72241211 C77.59041384 20.77894488 80.80269686 20.84816386 84.01513672 20.92944336 C112.72624461 21.64764494 140.57968231 19.79998132 168.69921875 13.50878906 C172.91333896 12.57688896 177.14399654 11.72637015 181.375 10.875 C182.20644531 10.70701904 183.03789062 10.53903809 183.89453125 10.3659668 C189.92702382 9.16632339 195.95531482 8.19629154 202.0546875 7.39453125 C205.04336133 7.04535869 205.04336133 7.04535869 208.08984375 6.2578125 C211.78145502 5.93077043 212.86321143 6.74096437 215.6875 9.0625 C219.17488768 12.03738307 221.77057655 14.46059034 223 19 C222.72609077 22.76625193 221.93060757 24.97296803 219.37890625 27.7890625 C184.40821703 57.8017145 111.41067789 52.39169537 68 50 C66.27475098 49.9069458 66.27475098 49.9069458 64.51464844 49.81201172 C-6.95747849 45.68171293 -6.95747849 45.68171293 -26 25 C-26.33 24.67 -26.66 24.34 -27 24 C-27.5751634 17.09803922 -27.5751634 17.09803922 -25.625 13.375 C-18.22761672 6.68212941 -9.29204789 3.29154048 0 0 Z " fill="#363D3A" transform="translate(208,524)"/>
<path d="M0 0 C1.97543157 -0.00856538 3.9508483 -0.02216423 5.9262085 -0.04101562 C26.09494409 -0.21340345 26.09494409 -0.21340345 35.10922241 3.29956055 C35.86316284 3.58992188 36.61710327 3.8802832 37.39389038 4.17944336 C42.87294064 6.43095867 46.87148434 10.37212792 50.10922241 15.29956055 C50.10922241 16.28956055 50.10922241 17.27956055 50.10922241 18.29956055 C50.76922241 18.29956055 51.42922241 18.29956055 52.10922241 18.29956055 C54.10922241 21.29956055 54.10922241 21.29956055 54.10922241 25.29956055 C54.76922241 25.29956055 55.42922241 25.29956055 56.10922241 25.29956055 C58.58460038 34.73693904 59.79957726 43.37924973 55.25765991 52.3503418 C53.75131673 54.90702631 52.17489016 57.16503721 50.10922241 59.29956055 C49.44922241 59.29956055 48.78922241 59.29956055 48.10922241 59.29956055 C48.10922241 59.95956055 48.10922241 60.61956055 48.10922241 61.29956055 C46.51758237 62.27855771 44.90989902 63.23147269 43.29672241 64.17456055 C42.4034021 64.70823242 41.51008179 65.2419043 40.58969116 65.79174805 C29.42338613 70.629227 16.85286217 69.65533721 4.92172241 69.61206055 C3.45530304 69.61032333 3.45530304 69.61032333 1.95925903 69.60855103 C-41.43191237 69.50663949 -41.43191237 69.50663949 -50.19546509 61.0847168 C-52.26934031 57.67763607 -52.70484998 54.6269041 -53.01577759 50.73706055 C-53.15912511 49.29019753 -53.30497422 47.84358025 -53.45327759 46.3972168 C-53.52288696 45.69226074 -53.59249634 44.98730469 -53.66421509 44.26098633 C-53.96039558 41.69685482 -54.4864696 39.19980073 -55.01577759 36.67456055 C-56.04379249 30.76755428 -56.10855949 24.90443405 -56.14077759 18.92456055 C-56.14996216 17.97242676 -56.15914673 17.02029297 -56.16860962 16.03930664 C-56.1645813 15.12745605 -56.16055298 14.21560547 -56.15640259 13.27612305 C-56.15414673 12.46224121 -56.15189087 11.64835937 -56.14956665 10.80981445 C-55.83689454 7.77689497 -54.93506081 5.15500627 -53.89077759 2.29956055 C-35.93445292 0.8756276 -18.01441978 0.07445408 0 0 Z " fill="#586F77" transform="translate(343.8907775878906,258.700439453125)"/>
<path d="M0 0 C2.57177011 3.16878817 4.28857289 6.42582161 6 10.125 C6.495 11.17945313 6.99 12.23390625 7.5 13.3203125 C10.96370637 21.8172172 12.52769697 29.24342243 12.4375 38.4375 C12.43427734 39.47068359 12.43105469 40.50386719 12.42773438 41.56835938 C12.25305519 51.36846421 10.49566671 60.55211888 8 70 C6.41632253 69.85795259 4.83306682 69.71119847 3.25 69.5625 C1.92742187 69.44068359 1.92742187 69.44068359 0.578125 69.31640625 C-2 69 -2 69 -3.65625 68.49291992 C-7.11217506 67.76609568 -10.56157863 67.81738838 -14.078125 67.796875 C-15.26953598 67.7861496 -15.26953598 67.7861496 -16.48501587 67.77520752 C-43.15816189 67.59039838 -67.85449631 70.63903781 -93.97216797 75.86938477 C-106.11351431 78.29387329 -118.2754466 80.47552318 -130.5 82.4375 C-131.27604584 82.56283112 -132.05209167 82.68816223 -132.85165405 82.81729126 C-137.56341106 83.57552168 -142.27532623 84.32614004 -147 85 C-148.90144775 85.27831665 -148.90144775 85.27831665 -150.84130859 85.56225586 C-158.54101089 86.38349697 -166.33609324 86.14326794 -174.0703125 86.1328125 C-175.83755507 86.13348761 -177.60479754 86.13445936 -179.37203979 86.13571167 C-183.06867358 86.13718119 -186.76528311 86.13505967 -190.46191406 86.13037109 C-195.15832028 86.12469947 -199.854669 86.12794125 -204.55107307 86.13394356 C-208.20090146 86.13759094 -211.85071667 86.13639117 -215.5005455 86.13381577 C-217.22978599 86.13315668 -218.95902775 86.13393855 -220.68826675 86.13629532 C-251.43588975 86.16898899 -251.43588975 86.16898899 -263 81 C-260 79 -260 79 -258.10913086 79.35791016 C-257.41311768 79.5697998 -256.71710449 79.78168945 -256 80 C-245.04846038 80.9315943 -234.7688124 81.05399373 -224.70703125 76.359375 C-219.53027839 74.46105045 -214.31719783 73.78462127 -208.875 73 C-190.8560011 70.31508477 -174.22193063 65.15020043 -157.00918579 59.32424927 C-144.29214715 55.01999297 -131.5329257 51.166614 -118.55810547 47.70239258 C-115.96286794 46.98980445 -113.38779692 46.22670601 -110.8125 45.4453125 C-78.54391927 35.67455646 -41.1301154 31.93511993 -10.5625 48.1875 C-8.34838933 49.42011616 -6.17632843 50.69974773 -4 52 C-3.03964844 52.57363281 -2.07929688 53.14726562 -1.08984375 53.73828125 C-0.40019531 54.15464844 0.28945313 54.57101562 1 55 C6.61613566 39.85649134 6.81775907 24.55030299 1.97265625 9.1640625 C1.0339288 6.11037079 0.45324116 3.15837522 0 0 Z " fill="#749E66" transform="translate(489,449)"/>
<path d="M0 0 C-0.47480746 4.27326712 -1.02672438 6.02672438 -4 9 C-4.58402133 11.41417872 -4.58402133 11.41417872 -4 14 C-3.34 14.721875 -2.68 15.44375 -2 16.1875 C0.97159527 20.36630585 0.72855829 24.0291075 0 29 C-1.88813199 35.69106773 -6.13421347 39.51907124 -12 43 C-13.485 43.495 -13.485 43.495 -15 44 C-14.84273438 44.96550781 -14.68546875 45.93101562 -14.5234375 46.92578125 C-12.82755113 58.93881264 -12.43268842 71.37483736 -19 82 C-20.57129277 84.00655393 -22.00142918 85.39004018 -24 87 C-24.33 87.33 -24.66 87.66 -25 88 C-26.50518078 88.09944475 -28.01497656 88.13080237 -29.5234375 88.1328125 C-30.45687988 88.13531006 -31.39032227 88.13780762 -32.35205078 88.14038086 C-36.36454858 88.11996515 -40.37651144 88.08944033 -44.38867188 88.03271484 C-46.42041823 88.00726103 -48.45250113 88.00814182 -50.484375 88.01953125 C-58.83067576 87.76025268 -65.10147027 83.55952388 -71.71484375 78.75390625 C-73.78515187 75.92847054 -74.33031346 72.67621586 -75.0625 69.3125 C-75.23168945 68.55501465 -75.40087891 67.7975293 -75.57519531 67.01708984 C-78.60574405 52.97087602 -79.28024619 39.32369423 -79 25 C-78.38898438 25.144375 -77.77796875 25.28875 -77.1484375 25.4375 C-66.49983397 27.59721677 -55.81625523 27.18768195 -45 27 C-45.16371094 28.00160156 -45.32742187 29.00320313 -45.49609375 30.03515625 C-45.98634185 33.89253468 -46.09949766 37.55274604 -46.0625 41.4375 C-46.05347656 42.67371094 -46.04445312 43.90992188 -46.03515625 45.18359375 C-46.02355469 46.11300781 -46.01195312 47.04242188 -46 48 C-44.02 47.505 -44.02 47.505 -42 47 C-41.79246094 46.11699219 -41.58492187 45.23398437 -41.37109375 44.32421875 C-35.93164375 23.13539886 -21.98843485 12.10715674 -4 1 C-2 0 -2 0 0 0 Z " fill="#C5C3A7" transform="translate(295,436)"/>
<path d="M0 0 C1.58332762 0.01005802 3.16666148 0.01917884 4.75 0.02734375 C8.58349088 0.04911505 12.41667418 0.08348614 16.25 0.125 C16.25 0.455 16.25 0.785 16.25 1.125 C10.64 1.125 5.03 1.125 -0.75 1.125 C-0.255 2.61 -0.255 2.61 0.25 4.125 C1.68474599 19.13534886 -0.09351195 28.4361679 -9.5625 40.25 C-10.94896625 41.8829994 -12.34153208 43.51093872 -13.75 45.125 C-13.30333984 46.23681641 -13.30333984 46.23681641 -12.84765625 47.37109375 C-11.94426446 49.63761052 -11.0536224 51.90655987 -10.1875 54.1875 C-9.93871094 54.83847656 -9.68992187 55.48945313 -9.43359375 56.16015625 C-7.60574425 61.41391796 -7.53235694 66.29159795 -7.5 71.8125 C-7.479375 72.67294922 -7.45875 73.53339844 -7.4375 74.41992188 C-7.40222001 80.27199011 -7.75676307 85.9572071 -10.75 91.125 C-13.5859375 92.88671875 -13.5859375 92.88671875 -17.125 93.8125 C-17.7742041 93.99562744 -18.4234082 94.17875488 -19.09228516 94.36743164 C-20.52588048 94.76817683 -21.96425567 95.15210026 -23.40625 95.52148438 C-26.77137708 96.3880046 -30.10884108 97.34608081 -33.45019531 98.29956055 C-35.23461132 98.8085328 -37.02043396 99.31259891 -38.80761719 99.81176758 C-45.48378497 101.69393053 -52.01142756 103.87127238 -58.50927734 106.29663086 C-61.41059308 107.36851184 -63.62749978 108.125 -66.75 108.125 C-66.75 106.805 -66.75 105.485 -66.75 104.125 C-65.80898438 103.84527344 -64.86796875 103.56554687 -63.8984375 103.27734375 C-55.2275469 100.48578373 -49.85706182 98.10634702 -45.55078125 89.81640625 C-40.83344095 79.73619488 -40.07914939 69.05206467 -43.76953125 58.4140625 C-45.87366114 53.50163177 -47.89528263 49.23783042 -52.5625 46.4375 C-53.284375 46.004375 -54.00625 45.57125 -54.75 45.125 C-55.12109375 42.77734375 -55.12109375 42.77734375 -54.75 40.125 C-53.140625 38.203125 -53.140625 38.203125 -51 36.375 C-45.54008529 31.14742209 -42.79853969 26.65376641 -42.515625 18.99609375 C-42.46304995 15.03193479 -42.57507271 11.08515941 -42.75 7.125 C-43.41 6.795 -44.07 6.465 -44.75 6.125 C-42.50192344 5.49234457 -40.25186113 4.86893259 -38 4.25 C-36.74703125 3.90195312 -35.4940625 3.55390625 -34.203125 3.1953125 C-22.70711391 0.32527023 -11.77136401 -0.13139897 0 0 Z " fill="#76B2B9" transform="translate(391.75,402.875)"/>
<path d="M0 0 C0.78375 0.00451172 1.5675 0.00902344 2.375 0.01367188 C4.29170014 0.02535907 6.20836048 0.04329092 8.125 0.0625 C8.25695444 9.38273664 8.38743795 18.70299246 8.51615143 28.02327442 C8.57599143 32.35317285 8.6362984 36.68306363 8.69775391 41.01293945 C8.75727831 45.20806525 8.81547 49.40320778 8.87281799 53.59836388 C8.89468462 55.18195924 8.91699516 56.76554856 8.93980408 58.34913063 C9.07590458 67.82276473 9.1517037 77.29239595 9.09532166 86.76712513 C9.07887578 91.40732329 9.30123417 95.92078585 9.86669922 100.53027344 C10.41133173 105.86952521 10.47434062 111.24720827 10.62768555 116.60986328 C10.68680181 118.66324864 10.75215198 120.71636367 10.81835938 122.76953125 C11.10968339 132.20437023 11.16199664 141.62307229 11.125 151.0625 C4.195 151.0625 -2.735 151.0625 -9.875 151.0625 C-10.06255859 147.63617188 -10.06255859 147.63617188 -10.25390625 144.140625 C-10.73489301 136.08251078 -11.59435374 128.09342315 -12.54626465 120.07943726 C-13.36840739 113.07906709 -14.11798184 106.07015672 -14.875 99.0625 C-15.06376709 97.33169189 -15.06376709 97.33169189 -15.25634766 95.56591797 C-17.0903191 77.92734707 -17.05386128 60.27720068 -17.0625 42.5625 C-17.06358765 41.34460785 -17.06467529 40.1267157 -17.0657959 38.87191772 C-17.06543888 35.34163413 -17.0562209 31.81150687 -17.04296875 28.28125 C-17.04175522 27.22899734 -17.04054169 26.17674469 -17.03929138 25.09260559 C-16.92829061 7.22237184 -16.92829061 7.22237184 -14.875 1.0625 C-9.85891475 0.0448597 -5.08891694 -0.05606434 0 0 Z " fill="#24A5B9" transform="translate(188.875,307.9375)"/>
<path d="M0 0 C2.9790305 -0.00983584 5.95740548 -0.04106047 8.9362793 -0.07226562 C27.4211655 -0.1741587 27.4211655 -0.1741587 36.02026367 3.24023438 C36.77299561 3.53067627 37.52572754 3.82111816 38.30126953 4.12036133 C43.78296822 6.36809568 47.78226445 10.3124043 51.02026367 15.24023438 C51.02026367 16.23023438 51.02026367 17.22023438 51.02026367 18.24023438 C51.68026367 18.24023438 52.34026367 18.24023438 53.02026367 18.24023438 C56.08223787 24.6091407 56.08223787 24.6091407 55.82299805 27.24902344 C55.02026367 29.24023438 55.02026367 29.24023438 53.17626953 30.2734375 C52.37068604 30.52029297 51.56510254 30.76714844 50.73510742 31.02148438 C49.82494873 31.30435303 48.91479004 31.58722168 47.97705078 31.87866211 C46.98068604 32.16298096 45.98432129 32.4472998 44.95776367 32.74023438 C43.40424194 33.19088257 43.40424194 33.19088257 41.81933594 33.65063477 C25.32753056 38.26714603 9.19409505 40.58983864 -7.91723633 40.67773438 C-9.81034546 40.69308228 -9.81034546 40.69308228 -11.74169922 40.70874023 C-22.53487023 40.60523118 -31.73507661 38.61433996 -39.97973633 31.24023438 C-41.83129463 28.4188122 -42.97973633 25.67733551 -42.97973633 22.24023438 C-43.63973633 22.24023438 -44.29973633 22.24023438 -44.97973633 22.24023438 C-45.32907227 21.469375 -45.6784082 20.69851563 -46.03833008 19.90429688 C-46.49336914 18.90140625 -46.9484082 17.89851563 -47.41723633 16.86523438 C-47.86969727 15.8675 -48.3221582 14.86976563 -48.78833008 13.84179688 C-49.49570949 12.29715855 -50.21996094 10.75978515 -50.97973633 9.24023438 C-51.01972833 7.24063426 -51.02320432 5.23976195 -50.97973633 3.24023438 C-43.97865109 1.96618529 -37.04268432 1.0690244 -29.93676758 0.68945312 C-29.16884384 0.64810242 -28.4009201 0.60675171 -27.60972595 0.56414795 C-18.41031403 0.1102855 -9.20928764 0.01836196 0 0 Z " fill="#94C1D3" transform="translate(342.979736328125,258.759765625)"/>
<path d="M0 0 C4.77348547 -0.52336892 7.97324721 1.22135877 11.9375 3.625 C12.58775146 4.01816406 13.23800293 4.41132813 13.90795898 4.81640625 C27.1313726 13.2221603 38.92700204 25.65352555 43 41 C43.2784375 41.90878906 43.556875 42.81757813 43.84375 43.75390625 C47.75592301 57.9355334 47.94841202 74.3447038 42 88 C41.01 88.495 41.01 88.495 40 89 C37.78515625 87.7421875 37.78515625 87.7421875 35.0625 85.875 C23.1695004 78.14531557 10.58172806 74.65218171 -3 71 C-2.97905273 70.39115967 -2.95810547 69.78231934 -2.93652344 69.1550293 C-2.14845822 54.25411665 -2.14845822 54.25411665 -6.125 40.12109375 C-7.15552413 37.62299285 -7.15053525 35.67670485 -7 33 C-5.515 32.505 -5.515 32.505 -4 32 C-3.67 30.35 -3.34 28.7 -3 27 C-2.34 27 -1.68 27 -1 27 C1.10226076 17.670132 0.95377059 9.43459553 0 0 Z " fill="#CFD288" transform="translate(449,416)"/>
<path d="M0 0 C7.69980059 3.59516282 12.13490199 7.87113026 16.37890625 15.0859375 C18.7616615 23.1608303 18.33049812 30.97007751 14.83203125 38.64453125 C10.5200016 45.96229922 3.69609843 50.84608327 -4.43359375 53.1484375 C-14.50870261 55.27154473 -23.18242015 52.97328774 -31.80859375 47.3984375 C-37.44838904 42.78194527 -40.61763072 36.15423476 -42.07421875 29.09765625 C-42.56091757 21.45427252 -39.81549277 15.10314798 -35.49609375 8.8984375 C-25.96984293 -0.85216343 -12.98363078 -4.09093171 0 0 Z " fill="#512F22" transform="translate(292.49609375,358.1015625)"/>
<path d="M0 0 C3.74973906 -0.11622939 7.49901464 -0.1872595 11.25 -0.25 C12.31347656 -0.28351563 13.37695312 -0.31703125 14.47265625 -0.3515625 C15.49746094 -0.36445313 16.52226562 -0.37734375 17.578125 -0.390625 C18.99206543 -0.4220459 18.99206543 -0.4220459 20.43457031 -0.45410156 C23.76715839 0.13579317 24.87109069 1.43192241 27 4 C30.66904894 9.37253595 30.77914489 14.71431423 30 21 C27.73964554 28.94316651 22.7067057 35.67384628 16.5625 41.0625 C13.64674291 43.78276065 13.64674291 43.78276065 13.875 47.4375 C14.89192392 50.65775908 16.20567273 53.14585429 17.9453125 56.015625 C22.64506051 64.85811385 22.35388223 74.28789881 22 84 C20.94683594 84.18175781 19.89367187 84.36351562 18.80859375 84.55078125 C9.17430927 86.22557642 -0.42072445 88.03394781 -10 90 C-9.85925049 89.46560303 -9.71850098 88.93120605 -9.57348633 88.38061523 C-8.14264911 82.5443885 -7.6488862 77.06147003 -7.6875 71.0625 C-7.69269653 69.7475354 -7.69269653 69.7475354 -7.69799805 68.40600586 C-7.8237721 60.9353053 -8.70652974 54.55883316 -12.8125 48.1875 C-14 46 -14 46 -13.625 43.6875 C-11.74232891 40.57385166 -9.49965955 38.13561001 -6.94921875 35.55078125 C-0.8622277 27.58523985 0.72257441 20.79249195 0.3125 10.875 C0.28994141 9.823125 0.26738281 8.77125 0.24414062 7.6875 C0.18586671 5.12344757 0.10412878 2.56252924 0 0 Z " fill="#ABCDA8" transform="translate(391,404)"/>
<path d="M0 0 C0.63317139 0.18933105 1.26634277 0.37866211 1.91870117 0.57373047 C3.60724145 1.07704012 5.29735926 1.57506338 6.98828125 2.0703125 C8.96098933 2.67926778 10.91879274 3.33936257 12.85546875 4.0546875 C19.87198458 6.54178367 25.9513074 7.18136731 33.3125 7.25 C42.01247615 7.39580071 42.01247615 7.39580071 45.70703125 9.65625 C47.625 11.75 47.625 11.75 49.28515625 13.9296875 C55.62847938 21.58791361 67.61510196 23.15042197 76.9375 24.125 C77.71673828 24.21136719 78.49597656 24.29773438 79.29882812 24.38671875 C81.1986337 24.59651323 83.09924174 24.79901994 85 25 C82.20400339 27.91222742 79.32055314 30.42794647 76.0625 32.8125 C75.22847656 33.43769531 74.39445312 34.06289063 73.53515625 34.70703125 C70.41583583 36.29793273 69.2907731 36.00422653 66 35 C64.73736328 34.57847656 64.73736328 34.57847656 63.44921875 34.1484375 C62.64097656 34.09945312 61.83273437 34.05046875 61 34 C58.7618513 35.92116534 58.7618513 35.92116534 56.8125 38.625 C51.40775753 45.0583579 45.36502091 48.77297295 37 50 C25.22769724 51.01945416 16.05342634 50.73719196 6 44 C5.01 43.34 4.02 42.68 3 42 C1.97703191 38.51989537 1.83454915 35.07648361 1.71875 31.46484375 C1.68136719 30.40716797 1.64398438 29.34949219 1.60546875 28.25976562 C1.57066406 27.16341797 1.53585938 26.06707031 1.5 24.9375 C1.22850258 16.59649579 0.77040949 8.3108859 0 0 Z " fill="#E9A152" transform="translate(207,395)"/>
<path d="M0 0 C2.30513336 6.91540009 2.03286565 14.76817037 -1.0625 21.375 C-3.34261701 25.4060378 -6.15413599 28.35164401 -9.55078125 31.4609375 C-11.45856624 33.48699488 -11.9164675 35.24342751 -12 38 C-11.2575 38.226875 -10.515 38.45375 -9.75 38.6875 C-3.64345136 41.60198912 -1.215171 47.9264795 1 54 C3.46795661 63.96924579 2.64253284 73.8431024 -2 83 C-5.36777167 88.42985647 -8.73752959 92.9730825 -15.015625 94.94921875 C-16.08296875 95.19285156 -17.1503125 95.43648438 -18.25 95.6875 C-19.32765625 95.93886719 -20.4053125 96.19023437 -21.515625 96.44921875 C-22.33546875 96.63097656 -23.1553125 96.81273437 -24 97 C-24 98.65 -24 100.3 -24 102 C-26.12392506 102.6700834 -28.24917524 103.33596797 -30.375 104 C-31.55835938 104.37125 -32.74171875 104.7425 -33.9609375 105.125 C-37 106 -37 106 -39 106 C-39.06058594 105.11957031 -39.12117188 104.23914063 -39.18359375 103.33203125 C-39.26738281 102.17058594 -39.35117187 101.00914062 -39.4375 99.8125 C-39.51871094 98.66394531 -39.59992188 97.51539063 -39.68359375 96.33203125 C-39.95403812 93.48401829 -40.37521747 90.78789518 -41 88 C-40.49210937 87.64808594 -39.98421875 87.29617188 -39.4609375 86.93359375 C-32.42133628 81.88459138 -26.52953441 76.5615797 -24 68 C-23.5655904 64.7185367 -23.52418278 61.49430735 -23.5625 58.1875 C-23.56789795 57.30328369 -23.5732959 56.41906738 -23.57885742 55.50805664 C-23.74531419 48.37015363 -24.56767664 41.66169103 -29.63671875 36.25390625 C-30.31154297 35.63322266 -30.31154297 35.63322266 -31 35 C-29.45457508 31.69279066 -27.53887548 28.77375601 -25.5 25.75 C-21.75265634 19.91562643 -20.27590896 15.2557257 -19.6875 8.3125 C-17.16998714 3.37071549 -13.32572959 2.64344573 -8.26171875 0.84765625 C-5.32131484 0.08350338 -3.01217909 -0.18649514 0 0 Z " fill="#A1CAB5" transform="translate(349,410)"/>
<path d="M0 0 C6.78459673 3.87143655 11.06607531 9.018566 14.07421875 16.18359375 C16.02477394 24.60503839 15.34889776 31.64739017 11.07421875 39.18359375 C10.71328125 39.87549805 10.35234375 40.56740234 9.98046875 41.28027344 C7.6020174 43.65506938 5.86062907 43.68373107 2.57757568 43.76359558 C1.84943665 43.76168716 1.12129761 43.75977875 0.37109375 43.7578125 C-0.38492126 43.77197708 -1.14093628 43.78614166 -1.91986084 43.80073547 C-4.33864421 43.84265619 -6.75668596 43.85786019 -9.17578125 43.87109375 C-11.58024398 43.90028701 -13.98452455 43.93504837 -16.38885498 43.97358704 C-17.88360377 43.9958052 -19.37846314 44.01178601 -20.87335205 44.02043152 C-24.26171352 44.05494965 -27.4543951 44.26482691 -30.80859375 44.78027344 C-33.92578125 45.18359375 -33.92578125 45.18359375 -36.03515625 43.8125 C-42.57191023 35.57930272 -45.04410533 28.8076725 -43.92578125 18.18359375 C-42.39515873 10.88762642 -38.44590038 5.64441777 -32.39453125 1.4140625 C-22.22377139 -4.42318812 -10.67617149 -5.09985713 0 0 Z " fill="#502F21" transform="translate(398.92578125,350.81640625)"/>
<path d="M0 0 C-3.2864179 9.26472584 -10.29260747 16.55597809 -19 21 C-19.66 21 -20.32 21 -21 21 C-21 25.62 -21 30.24 -21 35 C-20.01 35.33 -19.02 35.66 -18 36 C-40.64095616 40.08930458 -62.72531595 40.53506493 -85.66546631 40.33294678 C-89.30607518 40.30547389 -92.94662 40.29708816 -96.58731651 40.28938007 C-101.00355771 40.27934137 -105.41973837 40.25961426 -109.8359375 40.23828125 C-110.64893688 40.2348855 -111.46193626 40.23148975 -112.29957199 40.2279911 C-142.64672759 40.07474754 -142.64672759 40.07474754 -154 35 C-151 33 -151 33 -149.10913086 33.35791016 C-148.41311768 33.5697998 -147.71710449 33.78168945 -147 34 C-136.04846038 34.9315943 -125.7688124 35.05399373 -115.70703125 30.359375 C-110.53027839 28.46105045 -105.31719783 27.78462127 -99.875 27 C-81.03888419 24.19333052 -63.65449773 18.62451196 -45.66723633 12.5300293 C-33.53841563 8.43410993 -21.33790028 4.81135687 -8.95068359 1.56567383 C-3.25609147 -0.08568662 -3.25609147 -0.08568662 0 0 Z " fill="#6D867D" transform="translate(380,495)"/>
<path d="M0 0 C0.33 0 0.66 0 1 0 C1.01401855 0.90202148 1.01401855 0.90202148 1.02832031 1.82226562 C1.66627003 34.92059815 9.41705723 66.44910759 19 98 C19.78876776 100.63504477 20.57605669 103.27052524 21.36254883 105.90625 C21.88199896 107.61241788 22.43601088 109.30803264 23 111 C21.8125 114.125 21.8125 114.125 20 117 C11.69960175 120.26291517 0.37904357 118.16233383 -8 116 C-8.78865187 112.51427295 -9.13018295 109.28787968 -9.14526367 105.71679688 C-9.15164352 104.6838147 -9.15802338 103.65083252 -9.16459656 102.58654785 C-9.16570938 101.47517456 -9.1668222 100.36380127 -9.16796875 99.21875 C-9.17129715 98.05484741 -9.17462555 96.89094482 -9.17805481 95.69177246 C-9.18311829 93.22046299 -9.18546331 90.74914668 -9.18530273 88.27783203 C-9.18745974 84.56921392 -9.20553902 80.86090807 -9.22460938 77.15234375 C-9.28715263 50.91203616 -6.89168107 25.36278565 0 0 Z " fill="#24A4B8" transform="translate(225,260)"/>
<path d="M0 0 C2.57177011 3.16878817 4.28857289 6.42582161 6 10.125 C6.495 11.17945313 6.99 12.23390625 7.5 13.3203125 C10.96370637 21.8172172 12.52769697 29.24342243 12.4375 38.4375 C12.43266602 39.98727539 12.43266602 39.98727539 12.42773438 41.56835938 C12.25305519 51.36846421 10.49566671 60.55211888 8 70 C6.41632253 69.85795259 4.83306682 69.71119847 3.25 69.5625 C2.36828125 69.48128906 1.4865625 69.40007812 0.578125 69.31640625 C-2 69 -2 69 -3.88031006 68.49305725 C-6.14044158 67.96733214 -8.17449094 67.84131771 -10.49316406 67.79467773 C-11.37377502 67.77473251 -12.25438599 67.75478729 -13.16168213 67.73423767 C-14.10348328 67.71752518 -15.04528442 67.70081268 -16.015625 67.68359375 C-17.47207428 67.6524221 -17.47207428 67.6524221 -18.95794678 67.62062073 C-22.05522685 67.55531138 -25.15259068 67.49632677 -28.25 67.4375 C-30.35157111 67.39429708 -32.4531338 67.35068222 -34.5546875 67.30664062 C-39.70303948 67.19964902 -44.85147558 67.0983291 -50 67 C-52.02832031 63.25439453 -52.02832031 63.25439453 -51.7734375 60.96484375 C-50.95336691 58.8815331 -49.94885418 57.36374403 -48.625 55.5625 C-45.11704516 50.20397187 -44.16490571 44.21283048 -43 38 C-37.13444744 38.5699859 -31.88875152 39.73792413 -26.3125 41.625 C-25.14328003 42.01715698 -25.14328003 42.01715698 -23.95043945 42.41723633 C-15.0019375 45.53347021 -7.09680578 50.11831929 1 55 C6.61613566 39.85649134 6.81775907 24.55030299 1.97265625 9.1640625 C1.0339288 6.11037079 0.45324116 3.15837522 0 0 Z " fill="#B3A44B" transform="translate(489,449)"/>
<path d="M0 0 C9.73527715 7.94716502 16.45827731 15.84916679 20 28 C20.28230469 28.91394531 20.56460937 29.82789063 20.85546875 30.76953125 C24.73651429 44.96358983 24.95203944 61.33637661 19 75 C18.01 75.495 18.01 75.495 17 76 C14.78515625 74.7421875 14.78515625 74.7421875 12.0625 72.875 C6.60340343 69.27170742 1.0216039 66.52744303 -5 64 C-4.525625 63.0925 -4.05125 62.185 -3.5625 61.25 C-0.49616456 54.87202228 0.24018848 48.11436935 -1.82421875 41.265625 C-3.09893968 38.06223709 -4.48137576 34.97127507 -6.10546875 31.9296875 C-7.55331306 28.80639017 -7.42222294 26.37778353 -7 23 C-4.6875 20.9375 -4.6875 20.9375 -2 19 C0.65070824 14.73993318 1.50320958 10.96790418 2 6 C1.34 6 0.68 6 0 6 C0 4.02 0 2.04 0 0 Z " fill="#C6C178" transform="translate(472,429)"/>
<path d="M0 0 C2.75154006 0.00316717 5.50200954 -0.02039177 8.25341797 -0.0456543 C17.33775057 -0.07842858 25.64142235 0.0705264 34.25732422 3.31567383 C35.81966797 3.84161133 35.81966797 3.84161133 37.41357422 4.37817383 C38.18701172 4.68754883 38.96044922 4.99692383 39.75732422 5.31567383 C40.55138672 5.62504883 41.34544922 5.93442383 42.16357422 6.25317383 C44.34956048 7.36248029 45.71496879 8.41739022 47.25732422 10.31567383 C47.25732422 10.97567383 47.25732422 11.63567383 47.25732422 12.31567383 C43.68691499 13.42861288 40.38531798 13.42350299 36.65966797 13.39746094 C35.67821053 13.3928611 35.67821053 13.3928611 34.67692566 13.38816833 C33.25882741 13.3810286 31.84073907 13.37164663 30.42266846 13.36027336 C28.16751446 13.34280605 25.9124322 13.33255734 23.65722656 13.32435608 C17.24569911 13.29998667 10.83426723 13.26468421 4.42285156 13.21972656 C0.4954594 13.19269495 -3.43187621 13.1758124 -7.35934448 13.16485786 C-8.84546992 13.15871136 -10.33158535 13.14878776 -11.81765747 13.13477898 C-25.88028511 13.00352189 -42.83214692 13.04118476 -53.74267578 23.31567383 C-55.80378666 25.73560158 -57.75270791 28.22207201 -59.69580078 30.73754883 C-61.67804564 33.23426946 -63.72665371 35.57524475 -65.93017578 37.87817383 C-66.54248047 38.51883789 -67.15478516 39.15950195 -67.78564453 39.81958008 C-70.11002638 41.59650273 -71.84980989 42.03854214 -74.74267578 42.31567383 C-75.74267578 41.31567383 -75.74267578 41.31567383 -76.18017578 38.87817383 C-74.97982823 29.10391522 -66.94290941 21.40659899 -59.74267578 15.31567383 C-50.56027074 8.46616933 -39.7303518 5.10645914 -28.74267578 2.31567383 C-27.97777832 2.11772217 -27.21288086 1.91977051 -26.42480469 1.71582031 C-17.71509102 -0.20250223 -8.87301031 -0.02135597 0 0 Z " fill="#ACD5E7" transform="translate(326.74267578125,228.684326171875)"/>
<path d="M0 0 C0.80308594 0.24363281 1.60617187 0.48726563 2.43359375 0.73828125 C6.44020929 1.8376257 10.43896881 2.24494769 14.5625 2.6875 C15.33408447 2.77443115 16.10566895 2.8613623 16.90063477 2.95092773 C18.74581291 3.15876202 20.59159685 3.36120662 22.4375 3.5625 C19.64150339 6.47472742 16.75805314 8.99044647 13.5 11.375 C12.66597656 12.00019531 11.83195312 12.62539063 10.97265625 13.26953125 C7.85333583 14.86043273 6.7282731 14.56672653 3.4375 13.5625 C2.17486328 13.14097656 2.17486328 13.14097656 0.88671875 12.7109375 C0.07847656 12.66195313 -0.72976563 12.61296875 -1.5625 12.5625 C-3.8006487 14.48366534 -3.8006487 14.48366534 -5.75 17.1875 C-11.14778236 23.61257316 -17.20109327 27.35121323 -25.5625 28.5625 C-36.29680619 29.39131855 -45.28787039 29.64422434 -54.5625 23.5625 C-54.5625 17.2925 -54.5625 11.0225 -54.5625 4.5625 C-52.005 5.2225 -49.4475 5.8825 -46.8125 6.5625 C-39.61994213 8.30602549 -32.98606159 9.22307116 -25.5625 8.5625 C-24.62921875 8.49160156 -23.6959375 8.42070312 -22.734375 8.34765625 C-17.19265848 7.6588116 -13.88708001 6.29615636 -9.5 2.8125 C-6.03431782 0.19699298 -4.30582654 -0.9673563 0 0 Z " fill="#EAC68B" transform="translate(269.5625,416.4375)"/>
<path d="M0 0 C-3.2864179 9.26472584 -10.29260747 16.55597809 -19 21 C-19.66 21 -20.32 21 -21 21 C-21 25.62 -21 30.24 -21 35 C-20.01 35.33 -19.02 35.66 -18 36 C-21.89031956 36.5816722 -25.7822887 37.15063364 -29.67602539 37.70898438 C-31.63455665 37.99234028 -33.59171967 38.2851032 -35.54882812 38.578125 C-43.76214939 39.74847103 -51.70621439 40.25295036 -60 40 C-58.50260417 38.046875 -57.00520833 36.09375 -55.5078125 34.140625 C-53.12185723 30.75331026 -51.71725258 28.19166936 -51.75 24 C-51.74484375 23.34 -51.7396875 22.68 -51.734375 22 C-52.04326547 19.67423645 -52.85625828 18.03331862 -54 16 C-40.17657243 10.69322326 -26.20770642 6.16311495 -12 2 C-11.2999585 1.78956055 -10.59991699 1.57912109 -9.87866211 1.36230469 C-6.46437586 0.34967212 -3.57385025 -0.21659699 0 0 Z " fill="#549A7E" transform="translate(380,495)"/>
<path d="M0 0 C-1.43796269 4.52999807 -3.97749695 7.54751692 -7.1875 10.9375 C-7.92190308 11.73353638 -7.92190308 11.73353638 -8.67114258 12.5456543 C-11.34859622 15.4070921 -14.05740168 17.93926972 -17.1875 20.3125 C-20.33309279 22.78462995 -20.33309279 22.78462995 -20.625 26.625 C-19.98703182 30.07002819 -19.16336132 31.36634274 -17 34 C-17.33 34.99 -17.66 35.98 -18 37 C-41.58238484 41.5691466 -41.58238484 41.5691466 -53 42 C-53.66176717 37.18046332 -53.94596834 32.79325857 -53 28 C-50.5208144 25.55655041 -48.06963331 24.28531082 -44.97265625 22.71484375 C-39.01260863 19.27665596 -34.8587848 13.18692232 -32 7 C-32.66 6.67 -33.32 6.34 -34 6 C-30.52278741 5.17898519 -27.04292455 4.36978058 -23.5625 3.5625 C-22.58861328 3.33240234 -21.61472656 3.10230469 -20.61132812 2.86523438 C-13.76558988 1.28544863 -7.05623197 0 0 0 Z " fill="#81A96F" transform="translate(412,488)"/>
<path d="M0 0 C1.95679688 0.0294873 1.95679688 0.0294873 3.953125 0.05957031 C27.0602015 0.67645085 27.0602015 0.67645085 35.125 8.625 C36.12242177 11.73985345 35.87807231 14.4609723 35.125 17.625 C32.39838975 21.5201575 32.39838975 21.5201575 29.125 22.625 C23.80706021 22.81372283 18.6506178 22.12865304 13.44140625 21.08984375 C10.47355903 20.67385574 7.67482034 20.51881735 4.68359375 20.44921875 C3.68779297 20.42537109 2.69199219 20.40152344 1.66601562 20.37695312 C-0.40668965 20.33390764 -2.47967384 20.30269899 -4.55273438 20.28320312 C-12.14074154 20.07174213 -12.14074154 20.07174213 -16.02734375 17.70703125 C-18.41116291 15.02082488 -18.83217519 13.99614833 -19.25 10.375 C-18.88155647 6.69056466 -18.30387484 4.65251464 -15.83740234 1.87304688 C-11.2572187 -1.03985419 -5.22535048 -0.1432503 0 0 Z " fill="#F7F7F8" transform="translate(343.875,261.375)"/>
<path d="M0 0 C0.33 0 0.66 0 1 0 C1 1.65 1 3.3 1 5 C1.9590625 5.4640625 1.9590625 5.4640625 2.9375 5.9375 C5 7 5 7 6 8 C6.07446615 9.40443152 6.0832991 10.81249949 6.0625 12.21875 C6.05476562 13.06824219 6.04703125 13.91773438 6.0390625 14.79296875 C6.01302083 16.59765625 5.98697917 18.40234375 5.9609375 20.20703125 C5.95320312 21.05652344 5.94546875 21.90601563 5.9375 22.78125 C5.92589844 23.56564453 5.91429687 24.35003906 5.90234375 25.15820312 C5.7951172 27.01800889 5.7951172 27.01800889 7 28 C7.16526833 30.89831679 7.28094305 33.78668576 7.375 36.6875 C7.80931767 47.11776209 8.95459807 57.36965964 10.62353516 67.67285156 C10.94182917 69.64041225 11.23014714 71.61278683 11.51171875 73.5859375 C12.59810563 79.2104937 14.26117551 81.6752503 18.9375 85.0625 C20.59797144 86.08683306 22.28463816 87.07050693 24 88 C24.56307861 88.34458252 25.12615723 88.68916504 25.70629883 89.04418945 C28.87059054 90.36278467 31.75359344 90.43668159 35.171875 90.6328125 C35.8542926 90.67437469 36.53671021 90.71593689 37.23980713 90.75875854 C39.40948083 90.88902347 41.57961873 91.00717518 43.75 91.125 C45.22530748 91.21144 46.70056886 91.29867079 48.17578125 91.38671875 C51.78336531 91.60030868 55.39146522 91.80304417 59 92 C51.76203892 97.78652265 44.0761555 98.46887848 35.0625 98.3125 C34.13759766 98.31572266 33.21269531 98.31894531 32.25976562 98.32226562 C16.45572085 98.20044047 16.45572085 98.20044047 12.11645508 94.31225586 C10.46570285 92.30643923 9.23214605 90.28605713 8 88 C7.41605469 86.95199219 7.41605469 86.95199219 6.8203125 85.8828125 C4.43895712 80.85936941 3.54955766 75.76456579 2.9609375 70.27734375 C2.87715851 69.50636856 2.79337952 68.73539337 2.70706177 67.9410553 C1.56693963 56.64001058 1.27310267 45.283426 0.875 33.9375 C0.78832446 31.63865054 0.70108799 29.33982216 0.61328125 27.04101562 C0.53073523 24.82814414 0.44868598 22.61525406 0.3671875 20.40234375 C0.32971405 19.38969955 0.2922406 18.37705536 0.25363159 17.33372498 C0.05181791 11.55153617 -0.03505813 5.78571048 0 0 Z " fill="#BA9A68" transform="translate(209,432)"/>
<path d="M0 0 C0.61101562 0.144375 1.22203125 0.28875 1.8515625 0.4375 C12.50016603 2.59721677 23.18374477 2.18768195 34 2 C33.76216797 3.62615234 33.76216797 3.62615234 33.51953125 5.28515625 C33.18709301 7.66221467 32.90480318 10.04716504 32.6875 12.4375 C31.60971726 18.02237419 29.65795462 22.38455704 25.5625 26.375 C19.46091403 30.24429842 14.08522399 30.63279453 7 30 C3.375 29 3.375 29 1 27 C-0.10465791 21.0013728 -0.1232439 15.08373483 -0.0625 9 C-0.05798828 8.12988281 -0.05347656 7.25976562 -0.04882812 6.36328125 C-0.0371736 4.24215707 -0.01924357 2.1210689 0 0 Z " fill="#E4C492" transform="translate(216,461)"/>
<path d="M0 0 C4.66624916 6.22166554 4.64584979 11.43433099 4 19 C1.95763314 27.71081768 -2.9221216 33.6282573 -10.4375 38.3125 C-18.80548749 42.27628355 -26.62073822 43.31434183 -35.5 40.375 C-40.67899237 38.3669667 -44.80379291 35.60705481 -49 32 C-48.01 31.67 -47.02 31.34 -46 31 C-45.13117188 31.43957031 -44.26234375 31.87914062 -43.3671875 32.33203125 C-39.30707138 34.34324886 -35.56669947 34.99866017 -31.125 35.6875 C-30.34125 35.81705078 -29.5575 35.94660156 -28.75 36.08007812 C-26.83474158 36.39539506 -24.91754727 36.69891518 -23 37 C-23 34.36 -23 31.72 -23 29 C-24.299375 29.020625 -25.59875 29.04125 -26.9375 29.0625 C-28.29165633 29.08399454 -29.64756083 29.07148199 -31 29 C-32.58894072 27.41105928 -32.16998411 25.75198576 -32.1875 23.5625 C-32.20167969 22.75941406 -32.21585937 21.95632813 -32.23046875 21.12890625 C-32 19 -32 19 -30 17 C-26.5895416 17.35899562 -24.01346316 18.4355638 -21 20 C-20.56429688 19.59007812 -20.12859375 19.18015625 -19.6796875 18.7578125 C-15.99285853 15.4221101 -13.01861446 12.92178633 -8 12 C-5.26375196 12.14401305 -2.71035491 12.53269743 0 13 C0 8.71 0 4.42 0 0 Z " fill="#3F241A" transform="translate(306,370)"/>
<path d="M0 0 C0.33 0 0.66 0 1 0 C1.33 2.31 1.66 4.62 2 7 C3.32 7 4.64 7 6 7 C5.93950287 9.37753738 5.85232887 11.74919061 5.75 14.125 C5.73582031 14.79015625 5.72164062 15.4553125 5.70703125 16.140625 C5.45996164 21.18084512 4.20892258 24.13803353 1 28 C-6.87849691 33.90171042 -15.41614683 35.35198146 -25 36 C-25.67662 33.31466436 -26.34146121 30.627275 -27 27.9375 C-27.28617188 26.80924805 -27.28617188 26.80924805 -27.578125 25.65820312 C-28.7141096 20.97226664 -29.20486266 16.82067454 -29 12 C-28.28457031 12.15855469 -27.56914062 12.31710937 -26.83203125 12.48046875 C-19.63621724 13.80052842 -13.02413269 13.8813833 -6.5859375 10.13671875 C-2.87655548 7.47802375 -1.51734081 4.20186686 0 0 Z " fill="#C9A187" transform="translate(247,477)"/>
<path d="M0 0 C0.99 0.33 1.98 0.66 3 1 C3.495 3.475 3.495 3.475 4 6 C4.7425 5.67 5.485 5.34 6.25 5 C11.5121552 3.59675861 16.5857837 3.84230438 22 4 C22.495 4.99 22.495 4.99 23 6 C22.05084717 6.30067383 22.05084717 6.30067383 21.08251953 6.60742188 C-9.81565014 16.46532951 -35.28071839 30.81552038 -62 49 C-62.66 48.67 -63.32 48.34 -64 48 C-57.31375685 40.69178075 -50.21183924 35.44574602 -42 30 C-47.28 29.34 -52.56 28.68 -58 28 C-58 27.67 -58 27.34 -58 27 C-57.18917969 26.97421875 -56.37835938 26.9484375 -55.54296875 26.921875 C-44.2245455 26.34211874 -34.41849267 23.96850642 -26 16 C-25.40574219 15.18015625 -24.81148438 14.3603125 -24.19921875 13.515625 C-21.5075942 10.43675074 -18.99023753 9.29580214 -15.25 7.6875 C-14.07953125 7.17574219 -12.9090625 6.66398437 -11.703125 6.13671875 C-10.36507812 5.57404297 -10.36507812 5.57404297 -9 5 C-8.505 5.99 -8.505 5.99 -8 7 C-6.68 7 -5.36 7 -4 7 C-2.68 4.69 -1.36 2.38 0 0 Z " fill="#867282" transform="translate(333,391)"/>
<path d="M0 0 C5.79859195 0.56810529 10.97686594 1.73679735 16.5 3.5625 C17.22703125 3.79646484 17.9540625 4.03042969 18.703125 4.27148438 C20.47080261 4.84132781 22.23570969 5.41975404 24 6 C23.38769531 6.45761719 22.77539062 6.91523438 22.14453125 7.38671875 C19.77929037 9.16603475 17.8158627 10.64610391 16 13 C16.14780354 16.39948131 17.00107092 19.00287459 18.1875 22.1875 C18.455625 23.115625 18.72375 24.04375 19 25 C18.34 25.99 17.68 26.98 17 28 C14.56982422 28.43237305 14.56982422 28.43237305 11.5546875 28.51171875 C10.47832031 28.54716797 9.40195312 28.58261719 8.29296875 28.61914062 C7.16503906 28.64169922 6.03710938 28.66425781 4.875 28.6875 C3.17150391 28.73874023 3.17150391 28.73874023 1.43359375 28.79101562 C-1.37750579 28.87369502 -4.18828553 28.94277937 -7 29 C-9.02832031 25.25439453 -9.02832031 25.25439453 -8.7734375 22.96484375 C-7.95336691 20.8815331 -6.94885418 19.36374403 -5.625 17.5625 C-2.11704516 12.20397187 -1.16490571 6.21283048 0 0 Z " fill="#A3AB59" transform="translate(446,487)"/>
<path d="M0 0 C3.774375 0.0309375 3.774375 0.0309375 7.625 0.0625 C7.625 7.3225 7.625 14.5825 7.625 22.0625 C4.6240625 22.7121875 4.6240625 22.7121875 1.5625 23.375 C-3.41497252 24.51239851 -7.75149919 25.95177137 -12.375 28.0625 C-13.365 28.0625 -14.355 28.0625 -15.375 28.0625 C-15.40398816 24.12501542 -15.42179464 20.18755821 -15.4375 16.25 C-15.44587891 15.13044922 -15.45425781 14.01089844 -15.46289062 12.85742188 C-15.46611328 11.78427734 -15.46933594 10.71113281 -15.47265625 9.60546875 C-15.47789307 8.61571045 -15.48312988 7.62595215 -15.48852539 6.60620117 C-15.375 4.0625 -15.375 4.0625 -14.375 1.0625 C-9.51803391 0.08957462 -4.92346633 -0.05741504 0 0 Z " fill="#3AF5D8" transform="translate(188.375,307.9375)"/>
<path d="M0 0 C4 4 4 4 4.625 7.625 C4.36501971 13.15738056 1.28648013 17.69798952 -2 22 C-5.25389988 24.16926659 -6.13395957 24.24080049 -9.88671875 24.1953125 C-10.82451172 24.18886719 -11.76230469 24.18242188 -12.72851562 24.17578125 C-14.19321289 24.15064453 -14.19321289 24.15064453 -15.6875 24.125 C-16.67556641 24.11597656 -17.66363281 24.10695313 -18.68164062 24.09765625 C-21.12133765 24.0740843 -23.56054697 24.04118022 -26 24 C-25.01 22.515 -25.01 22.515 -24 21 C-23.34 21 -22.68 21 -22 21 C-21.7525 20.484375 -21.505 19.96875 -21.25 19.4375 C-20.20779731 17.40520476 -19.09909008 15.46414322 -17.9375 13.5 C-16.5072995 11.02772032 -15.45675276 8.85470472 -15 6 C-15.66 5.67 -16.32 5.34 -17 5 C-11.39 3.35 -5.78 1.7 0 0 Z " fill="#7BA480" transform="translate(325,511)"/>
<path d="M0 0 C-0.28746094 0.56074219 -0.57492187 1.12148438 -0.87109375 1.69921875 C-3.9467234 7.96754354 -6.39246894 14.0133928 -7 21 C-5.2984375 20.7525 -5.2984375 20.7525 -3.5625 20.5 C1.71619476 20.48121461 4.44355019 23.28909381 8.078125 26.8359375 C11.64118074 30.8479962 13 33.64301556 13 39 C8.38 39.99 3.76 40.98 -1 42 C-7.51169461 35.1197189 -11.04406397 30.09714501 -11.375 20.5 C-11.10796453 12.44443012 -8.67716204 7.26302441 -3.40234375 1.25 C-2 0 -2 0 0 0 Z " fill="#3F241A" transform="translate(366,354)"/>
<path d="M0 0 C3.09972043 1.51278222 6.06218539 3.19467628 9 5 C9 9 9 9 8 11 C8 12.32 8 13.64 8 15 C8 19 8 19 7 21 C-4.55 21 -16.1 21 -28 21 C-28 20.67 -28 20.34 -28 20 C-22.39 20 -16.78 20 -11 20 C-9.50570481 15.21782434 -9.50570481 15.21782434 -11.5 12.0625 C-13 9 -13 9 -13 5.875 C-10.66141907 -0.84842017 -6.45363062 -1.82852867 0 0 Z " fill="#989B4D" transform="translate(474,495)"/>
<path d="M0 0 C7.09537694 1.01362528 12.65056745 5.67708927 18.57421875 9.4765625 C22.58404833 11.99481296 25.21452201 12.24478793 29.9765625 12.53515625 C31.00443375 12.59962196 31.00443375 12.59962196 32.05307007 12.66539001 C34.24348432 12.8018287 36.43421089 12.93223297 38.625 13.0625 C40.10939949 13.15389993 41.5937749 13.24569192 43.078125 13.33789062 C46.71848142 13.56314517 50.35914182 13.78298893 54 14 C46.76203892 19.78652265 39.0761555 20.46887848 30.0625 20.3125 C29.13759766 20.31572266 28.21269531 20.31894531 27.25976562 20.32226562 C11.40211746 20.20002727 11.40211746 20.20002727 7.0847168 16.24584961 C3.5224555 11.86772478 0 5.76939426 0 0 Z " fill="#A59677" transform="translate(214,510)"/>
<path d="M0 0 C-1.03120587 2.69699998 -2.11153312 5.20012883 -3.51953125 7.7265625 C-7.08801141 15.61676401 -7.01177521 25.65085375 -4.1015625 33.76953125 C-2.2270625 37.56506139 0.24224283 40.80492858 3 44 C2.01 44.495 2.01 44.495 1 45 C-6.79386715 42.09515746 -12.68018926 36.53876015 -16.4375 29.1875 C-17.69380916 22.06841478 -18.09888678 15.23087761 -14.4140625 8.7890625 C-10.96005316 4.41907279 -5.70577363 0 0 0 Z " fill="#E6D570" transform="translate(489,531)"/>
<path d="M0 0 C2.375 2.3125 2.375 2.3125 2.734375 4.34765625 C2.75 6.5625 2.75 6.5625 2.375 10.3125 C1.66988281 10.01472656 0.96476563 9.71695313 0.23828125 9.41015625 C-2.6338225 8.30911784 -5.45474259 7.49666666 -8.4375 6.75 C-9.90123047 6.37681641 -9.90123047 6.37681641 -11.39453125 5.99609375 C-19.02851523 4.38067997 -26.34954567 4.18367395 -34.125 4.25 C-35.64480469 4.25676758 -35.64480469 4.25676758 -37.1953125 4.26367188 C-39.67193827 4.27535407 -42.14843657 4.29173418 -44.625 4.3125 C-31.34480092 -6.21798151 -14.92258945 -6.94672267 0 0 Z " fill="#74986A" transform="translate(558.625,516.6875)"/>
<path d="M0 0 C13.86 0.495 13.86 0.495 28 1 C28.33 4.63 28.66 8.26 29 12 C19.67281071 13.9636188 10.93724389 13.38249856 2 10 C1.34 9.34 0.68 8.68 0 8 C0 5.36 0 2.72 0 0 Z " fill="#239EB0" transform="translate(217,383)"/>
<path d="M0 0 C1.60935425 0.0012085 1.60935425 0.0012085 3.2512207 0.00244141 C12.42964145 0.07356493 20.82804439 0.57439976 29.375 4.1875 C29.375 4.8475 29.375 5.5075 29.375 6.1875 C21.9012121 7.75820369 14.69970421 8.60424849 7.0625 8.625 C5.57061157 8.63080078 5.57061157 8.63080078 4.04858398 8.63671875 C-4.3411459 8.50604396 -11.0792236 6.84922858 -18.625 3.1875 C-18.295 2.5275 -17.965 1.8675 -17.625 1.1875 C-11.90871431 -0.31326397 -5.86946376 -0.0045188 0 0 Z " fill="#E79E54" transform="translate(525.625,523.8125)"/>
<path d="M0 0 C-1.0828125 1.051875 -1.0828125 1.051875 -2.1875 2.125 C-8.43997875 8.43076692 -11.98126227 13.21943455 -12.375 22.25 C-12.25389549 29.64746727 -9.27586088 35.52205888 -6 42 C-12.43968834 38.78015583 -17.68594827 32.81359677 -20 26 C-20.69234053 19.88005159 -21.04373961 13.82397282 -17.390625 8.6015625 C-11.99739113 2.39025382 -8.4969847 -1.06212309 0 0 Z " fill="#F6A191" transform="translate(481,529)"/>
<path d="M0 0 C2.3203125 1.82421875 2.3203125 1.82421875 4.3203125 4.82421875 C3.30324219 4.60765625 3.30324219 4.60765625 2.265625 4.38671875 C-12.53005738 1.43577933 -24.64757069 3.6592819 -38.1015625 10.5859375 C-38.95234375 10.99457031 -39.803125 11.40320313 -40.6796875 11.82421875 C-41.3396875 11.49421875 -41.9996875 11.16421875 -42.6796875 10.82421875 C-31.61491972 -2.4053949 -15.22623167 -10.11547703 0 0 Z " fill="#E4D26F" transform="translate(551.6796875,506.17578125)"/>
<path d="M0 0 C0.66 0 1.32 0 2 0 C1.98428955 0.64960693 1.9685791 1.29921387 1.95239258 1.96850586 C1.88940663 4.95807931 1.85080979 7.94751249 1.8125 10.9375 C1.78736328 11.95908203 1.76222656 12.98066406 1.73632812 14.03320312 C1.68009134 19.90057437 2.14906184 24.65362698 4.38085938 30.10742188 C5.3008311 32.9195752 4.78774877 35.20707254 4 38 C-0.23751854 36.48660052 -1.80187236 33.81008791 -4 30 C-7.192825 23.13542624 -6.92322939 15.19330005 -4.6875 8.0625 C-3.52679776 5.00744411 -2.34462013 2.34462013 0 0 Z " fill="#739669" transform="translate(492,534)"/>
<path d="M0 0 C4.53475654 4.53475654 3.29619714 12.05495213 3.32568359 18.05981445 C3.23219926 25.78064361 2.11408033 32.85125355 -1 40 C-1.99 40.495 -1.99 40.495 -3 41 C-4.32 39.68 -5.64 38.36 -7 37 C-6.50371094 36.2678125 -6.00742187 35.535625 -5.49609375 34.78125 C-2.54216608 28.87685969 -3.93537777 21.51262266 -4.20507812 15.12109375 C-4.36120654 8.73125278 -4.36379074 4.85055409 0 0 Z " fill="#E8D76B" transform="translate(492,464)"/>
<path d="M0 0 C-0.99902344 0.55429687 -1.99804688 1.10859375 -3.02734375 1.6796875 C-4.33088911 2.41117338 -5.63426584 3.14295982 -6.9375 3.875 C-7.59685547 4.23980469 -8.25621094 4.60460937 -8.93554688 4.98046875 C-12.57936369 6.85417898 -12.57936369 6.85417898 -15 10 C-14.34 10.66 -13.68 11.32 -13 12 C-22.18467155 18.55388623 -31.597568 24.76501036 -41 31 C-41.66 30.67 -42.32 30.34 -43 30 C-36.31375685 22.69178075 -29.21183924 17.44574602 -21 12 C-26.28 11.34 -31.56 10.68 -37 10 C-37 9.67 -37 9.34 -37 9 C-35.78376953 8.96132813 -35.78376953 8.96132813 -34.54296875 8.921875 C-23.99348994 8.38150589 -15.62392265 6.09984773 -7 0 C-3.89029928 -1.1550317 -3.26714381 -1.08904794 0 0 Z " fill="#9D8D7A" transform="translate(312,409)"/>
<path d="M0 0 C6.45505711 3.70457665 6.45505711 3.70457665 7.84277344 7.00341797 C8.32595638 9.31666908 8.63702224 11.58650999 8.875 13.9375 C9.0296875 15.11602539 9.0296875 15.11602539 9.1875 16.31835938 C9.38658246 17.84338204 9.57426188 19.36994844 9.74902344 20.89794922 C10.07346135 23.61527452 10.52424706 26.30550834 11 29 C6.545 28.01 6.545 28.01 2 27 C1.66027199 24.18814406 1.32809788 21.37571764 1 18.5625 C0.90460938 17.77939453 0.80921875 16.99628906 0.7109375 16.18945312 C0.08488869 10.75624381 -0.08759571 5.46925737 0 0 Z " fill="#A47857" transform="translate(211,483)"/>
<path d="M0 0 C10.27787758 -0.57994294 17.59088697 0.46327225 26.25 6.125 C32.16669661 12.31063737 35.53538504 18.38256976 36.1875 26.96875 C36 29 36 29 34 31 C33.81824219 30.33613281 33.63648438 29.67226563 33.44921875 28.98828125 C31.64117424 22.0447848 31.64117424 22.0447848 28 16 C26.824375 15.54625 25.64875 15.0925 24.4375 14.625 C23.303125 14.08875 22.16875 13.5525 21 13 C20.71125 11.865625 20.4225 10.73125 20.125 9.5625 C19.38946595 6.02352952 19.38946595 6.02352952 17.2421875 4.69140625 C11.65187694 2.03260001 6.14069429 1.25639642 0 1 C0 0.67 0 0.34 0 0 Z " fill="#5F3E30" transform="translate(378,348)"/>
<path d="M0 0 C3.3 0.99 6.6 1.98 10 3 C9.01 3.33 8.02 3.66 7 4 C7.165 4.86625 7.33 5.7325 7.5 6.625 C8.39266231 12.69761822 8.07639812 18.87966132 8 25 C3.125 23.125 3.125 23.125 2 22 C1.59553544 19.24846006 1.24571417 16.51251215 0.9375 13.75 C0.80118164 12.60337891 0.80118164 12.60337891 0.66210938 11.43359375 C0.21657406 7.55442163 0 3.93185037 0 0 Z " fill="#B8802A" transform="translate(207,395)"/>
<path d="M0 0 C0 0.66 0 1.32 0 2 C-0.763125 2.185625 -1.52625 2.37125 -2.3125 2.5625 C-5.34006795 3.82102587 -5.34006795 3.82102587 -6.4375 7.375 C-8.29147703 11.67622671 -9.85454893 12.92727447 -14 15 C-16.875 15.25 -16.875 15.25 -19 15 C-19.66 17.97 -20.32 20.94 -21 24 C-21.66 24 -22.32 24 -23 24 C-23.87516857 18.45726574 -21.73006018 14.93545013 -18.8515625 10.40625 C-14.27294063 4.45597348 -7.6877457 -0.42709698 0 0 Z " fill="#5F3E30" transform="translate(275,358)"/>
<path d="M0 0 C0.33 0 0.66 0 1 0 C1 1.65 1 3.3 1 5 C1.9590625 5.4640625 1.9590625 5.4640625 2.9375 5.9375 C5 7 5 7 6 8 C6.08651611 9.41570123 6.10704904 10.835595 6.09765625 12.25390625 C6.09443359 13.10791016 6.09121094 13.96191406 6.08789062 14.84179688 C6.07951172 15.73962891 6.07113281 16.63746094 6.0625 17.5625 C6.05798828 18.46419922 6.05347656 19.36589844 6.04882812 20.29492188 C6.03700225 22.53001314 6.0205222 24.76497437 6 27 C4.68 26.67 3.36 26.34 2 26 C2 30.29 2 34.58 2 39 C1.67 39 1.34 39 1 39 C0.67 26.13 0.34 13.26 0 0 Z " fill="#A4733D" transform="translate(209,432)"/>
<path d="M0 0 C-1.04331198 2.7286621 -2.14118046 5.25412482 -3.5625 7.8125 C-5.30266315 11.67112264 -5.63778502 14.79830625 -6 19 C-6.33 18.01 -6.66 17.02 -7 16 C-8.81296615 15.37907282 -8.81296615 15.37907282 -11 15 C-12.6744239 14.3530635 -14.34302621 13.69040574 -16 13 C-13.02459122 6.53172004 -7.69856108 0 0 0 Z " fill="#B0A255" transform="translate(489,531)"/>
<path d="M0 0 C1.98 0.99 3.96 1.98 6 3 C6 9.6 6 16.2 6 23 C1 20 1 20 0.19140625 17.80078125 C-0.05070162 14.25810084 -0.1066437 10.7359742 -0.0625 7.1875 C-0.05798828 6.49462891 -0.05347656 5.80175781 -0.04882812 5.08789062 C-0.03713156 3.39188932 -0.01919924 1.69593297 0 0 Z " fill="#C09F59" transform="translate(209,417)"/>
<path d="M0 0 C0 2.31 0 4.62 0 7 C-7.92 7.33 -15.84 7.66 -24 8 C-17.19566354 2.89674765 -8.65630321 -1.00654689 0 0 Z " fill="#97C58A" transform="translate(538,513)"/>
<path d="M0 0 C2.33248051 2.91560064 4.19174139 5.99506925 6.015625 9.25 C7.29719097 11.5283395 8.64522397 13.76461956 10 16 C2.37580473 13.8216585 -2.25089519 10.14590034 -7 4 C-4.61426621 2.10786631 -2.92824652 0.97608217 0 0 Z " fill="#AEA154" transform="translate(482,560)"/>
<path d="M0 0 C1.95603562 1.62372615 2.91110295 2.50981291 3.37231445 5.05297852 C3.3693335 5.82053467 3.36635254 6.58809082 3.36328125 7.37890625 C3.36263672 8.21744141 3.36199219 9.05597656 3.36132812 9.91992188 C3.34521484 10.79197266 3.32910156 11.66402344 3.3125 12.5625 C3.31572266 13.43841797 3.31894531 14.31433594 3.32226562 15.21679688 C3.26708681 21.73291319 3.26708681 21.73291319 1 24 C-2.69967977 15.52156719 -2.97946437 8.7521766 0 0 Z " fill="#9E6C3A" transform="translate(498,537)"/>
<path d="M0 0 C2.5625 0.25 2.5625 0.25 5 1 C6.50662097 4.01324195 6.17770373 6.68286377 6 10 C4 12 4 12 1.4375 12.1875 C-1 12 -1 12 -2 11 C-2.16796875 9.00390625 -2.16796875 9.00390625 -2.1875 6.5625 C-2.20167969 5.75941406 -2.21585937 4.95632813 -2.23046875 4.12890625 C-2 2 -2 2 0 0 Z " fill="#030101" transform="translate(276,387)"/>
<path d="M0 0 C4.875 0.875 4.875 0.875 6 2 C6.0979057 3.49738124 6.12974864 4.99942892 6.125 6.5 C6.12757813 7.3146875 6.13015625 8.129375 6.1328125 8.96875 C6 11 6 11 5 12 C2.5625 12.1875 2.5625 12.1875 0 12 C-2 10 -2 10 -2.25 6.5625 C-2 3 -2 3 0 0 Z " fill="#030101" transform="translate(385,378)"/>
<path d="M0 0 C0.33 0.33 0.66 0.66 1 1 C0.65254237 7.25423729 0.65254237 7.25423729 -1.75 10 C-4.5806311 11.25805827 -6.08518324 10.89063845 -9 10 C-8.39779006 3.61657459 -8.39779006 3.61657459 -6.75 1.0625 C-4.38923823 -0.37081965 -2.71076028 -0.28534319 0 0 Z " fill="#010000" transform="translate(279,366)"/>
<path d="M0 0 C2.6875 0.375 2.6875 0.375 5 2.5625 C6.79130798 5.54801329 7.07638658 6.9722424 6.6875 10.375 C4.5 11.1875 4.5 11.1875 1.6875 11.375 C-1.125 9.25 -1.125 9.25 -3.3125 6.375 C-3.6875 3.625 -3.6875 3.625 -3.3125 1.375 C-2.3125 0.375 -2.3125 0.375 0 0 Z " fill="#010000" transform="translate(388.3125,356.625)"/>
<path d="M0 0 C0.66 0 1.32 0 2 0 C1.67 6.6 1.34 13.2 1 20 C0.67 20 0.34 20 0 20 C0 18.02 0 16.04 0 14 C-1.65 14 -3.3 14 -5 14 C-5 17.3 -5 20.6 -5 24 C-5.33 24 -5.66 24 -6 24 C-6.42141291 15.64978119 -5.85660333 8.68482946 -1.4375 1.4375 C-0.963125 0.963125 -0.48875 0.48875 0 0 Z " fill="#6F9065" transform="translate(492,534)"/>
<path d="M0 0 C-0.49927002 0.29245605 -0.99854004 0.58491211 -1.51293945 0.88623047 C-3.7800016 2.21489807 -6.04625803 3.54493398 -8.3125 4.875 C-9.49102539 5.56529297 -9.49102539 5.56529297 -10.69335938 6.26953125 C-11.45068359 6.71425781 -12.20800781 7.15898437 -12.98828125 7.6171875 C-13.68477783 8.02565918 -14.38127441 8.43413086 -15.09887695 8.85498047 C-16.7617099 9.85648124 -18.38487545 10.9232503 -20 12 C-21.90112305 12.04345703 -21.90112305 12.04345703 -24.01171875 11.7578125 C-24.76904297 11.66113281 -25.52636719 11.56445312 -26.30664062 11.46484375 C-27.09232422 11.35269531 -27.87800781 11.24054688 -28.6875 11.125 C-29.48478516 11.02058594 -30.28207031 10.91617187 -31.10351562 10.80859375 C-33.07041111 10.54948177 -35.03541767 10.27610346 -37 10 C-37 9.67 -37 9.34 -37 9 C-36.18917969 8.97421875 -35.37835938 8.9484375 -34.54296875 8.921875 C-23.99348994 8.38150589 -15.62392265 6.09984773 -7 0 C-3.89029928 -1.1550317 -3.26714381 -1.08904794 0 0 Z " fill="#AF8C82" transform="translate(312,409)"/>
<path d="M0 0 C-0.8125 1.9375 -0.8125 1.9375 -2 4 C-2.99 4.33 -3.98 4.66 -5 5 C-5.33 5.66 -5.66 6.32 -6 7 C-9.96 5.68 -13.92 4.36 -18 3 C-17.67 2.34 -17.34 1.68 -17 1 C-11.4570561 -0.45866945 -5.68676891 -0.09106925 0 0 Z " fill="#AA753E" transform="translate(525,524)"/>
<path d="M0 0 C0.6875 2.0625 0.6875 2.0625 1 4 C-1.45404224 5.19716659 -3.91251679 6.3829346 -6.375 7.5625 C-7.07367187 7.90474609 -7.77234375 8.24699219 -8.4921875 8.59960938 C-10.30052216 9.46030712 -12.14851956 10.23652436 -14 11 C-14.66 10.67 -15.32 10.34 -16 10 C-4.8727491 -1.6242497 -4.8727491 -1.6242497 0 0 Z " fill="#B1A356" transform="translate(525,507)"/>
<path d="M0 0 C5.93002267 -0.37851209 10.47239641 0.89424625 16 3 C16 3.66 16 4.32 16 5 C11.38 5.66 6.76 6.32 2 7 C1.34 4.69 0.68 2.38 0 0 Z " fill="#AB753E" transform="translate(539,525)"/>
<path d="M0 0 C-2.39283902 2.39283902 -4.3989055 3.00367728 -7.5625 4.1875 C-12.84097859 6.31540653 -16.91898778 8.89145491 -21.2578125 12.546875 C-23 14 -23 14 -25 15 C-23.34218609 9.19765132 -19.5662705 6.54314453 -14.62890625 3.57421875 C-9.50747381 0.80693029 -5.82078484 -0.632694 0 0 Z " fill="#B3756A" transform="translate(533,497)"/>
<path d="M0 0 C5.71428571 0.71428571 5.71428571 0.71428571 7 2 C7.1875 4.4375 7.1875 4.4375 7 7 C6.34 7.66 5.68 8.32 5 9 C2.5 8.8125 2.5 8.8125 0 8 C-2 5 -2 5 -1.6875 2.875 C-1 1 -1 1 0 0 Z " fill="#030201" transform="translate(404,372)"/>
<path d="M0 0 C0.763125 0.20625 1.52625 0.4125 2.3125 0.625 C3.0625 2.375 3.0625 2.375 3.3125 4.625 C1.625 6.9375 1.625 6.9375 -0.6875 8.625 C-2.90594626 8.43484746 -4.10272155 8.20977845 -5.6875 6.625 C-5.9375 4.1875 -5.9375 4.1875 -5.6875 1.625 C-2.6875 -0.375 -2.6875 -0.375 0 0 Z " fill="#020101" transform="translate(259.6875,381.375)"/>
<path d="M0 0 C1.65 0 3.3 0 5 0 C5.33 3.63 5.66 7.26 6 11 C4.02 11 2.04 11 0 11 C0 7.37 0 3.74 0 0 Z " fill="#97C58B" transform="translate(487,548)"/>
<path d="M0 0 C-3.16952847 3.26008643 -6.39937989 6.22237877 -10 9 C-10.66 7.02 -11.32 5.04 -12 3 C-8.2391768 -0.7608232 -5.0273023 -0.25136512 0 0 Z " fill="#B5766B" transform="translate(481,529)"/>
<path d="M0 0 C4.59306496 1.4859916 7.43569245 3.85014682 11 7 C7.36804504 8.21065165 5.93468371 7.62784815 2.3125 6.5625 C1.31863281 6.27503906 0.32476563 5.98757813 -0.69921875 5.69140625 C-1.45847656 5.46324219 -2.21773437 5.23507812 -3 5 C-2.01 3.35 -1.02 1.7 0 0 Z " fill="#A59850" transform="translate(545,503)"/>
<path d="M0 0 C2 2 2 2 2.3125 4.9375 C2 8 2 8 0.9375 9.9375 C-2.12469653 11.61676907 -4.69370941 10.68621125 -8 10 C-7.01 9.34 -6.02 8.68 -5 8 C-2.15291233 5.48786382 -0.54497739 3.81484173 0 0 Z " fill="#3C2319" transform="translate(280,368)"/>
<path d="M0 0 C0.66 0 1.32 0 2 0 C2 4.62 2 9.24 2 14 C0 13 0 13 -1 10 C-1.09182942 8.46050671 -1.13002352 6.91722145 -1.125 5.375 C-1.12757813 4.57835937 -1.13015625 3.78171875 -1.1328125 2.9609375 C-1 1 -1 1 0 0 Z " fill="#E69E54" transform="translate(498,547)"/>
<path d="M0 0 C0 1.65 0 3.3 0 5 C-6.435 5.495 -6.435 5.495 -13 6 C-9.92197881 3.69148411 -8.23479944 2.52603582 -4.8125 1.3125 C-4.11769531 1.06113281 -3.42289063 0.80976562 -2.70703125 0.55078125 C-1 0 -1 0 0 0 Z " fill="#6E8F64" transform="translate(527,515)"/>
<path d="M0 0 C0.66 0 1.32 0 2 0 C2.25 2.8125 2.25 2.8125 2 6 C0.25 7.9375 0.25 7.9375 -2 9 C-4.25 8.6875 -4.25 8.6875 -6 8 C-6 7.34 -6 6.68 -6 6 C-5.38125 5.7525 -4.7625 5.505 -4.125 5.25 C-1.64931313 3.79371361 -1.04874998 2.62187494 0 0 Z " fill="#3E241A" transform="translate(263,384)"/>
<path d="M0 0 C0.33 1.65 0.66 3.3 1 5 C-6.50769231 5.36923077 -6.50769231 5.36923077 -9 3.5 C-9.33 3.005 -9.66 2.51 -10 2 C-8.7090864 1.66376204 -7.41723903 1.33110751 -6.125 1 C-5.40570313 0.814375 -4.68640625 0.62875 -3.9453125 0.4375 C-2 0 -2 0 0 0 Z " fill="#37E8CE" transform="translate(349,382)"/>
<path d="M0 0 C2 3 2 3 4 6 C4.99 6.66 5.98 7.32 7 8 C4.75 8.75 4.75 8.75 2 9 C-0.375 7.3125 -0.375 7.3125 -2 5 C-1.80984746 2.78155374 -1.58477845 1.58477845 0 0 Z " fill="#3F251A" transform="translate(401,374)"/>
<path d="M0 0 C-2.03529587 2.03529587 -3.23417382 2.6384272 -5.875 3.625 C-6.89207031 4.01558594 -6.89207031 4.01558594 -7.9296875 4.4140625 C-10 5 -10 5 -14 5 C-14 4.34 -14 3.68 -14 3 C-9.03006806 0.56574762 -5.65394631 -0.34615998 0 0 Z " fill="#D1897C" transform="translate(533,497)"/>
<path d="M0 0 C2.96659857 3.55991828 5.381348 7.65222543 7 12 C6.67 12.66 6.34 13.32 6 14 C5.01 14 4.02 14 3 14 C1.79534844 9.34201396 0.71452588 4.76350585 0 0 Z " fill="#9D8D5B" transform="translate(489,449)"/>
<path d="M0 0 C0.2475 0.5775 0.495 1.155 0.75 1.75 C2.80878691 5.45581643 5.50009355 7.66672903 9 10 C3.62686567 11.31343284 3.62686567 11.31343284 1.125 10.0625 C-0.67836628 6.75632849 -0.18323695 3.72581793 0 0 Z " fill="#3C2219" transform="translate(384,359)"/>
<path d="M0 0 C-1.55367366 1.01365893 -3.11837836 2.01042256 -4.6875 3 C-5.99267578 3.8353125 -5.99267578 3.8353125 -7.32421875 4.6875 C-10.16973337 6.08325608 -11.8788594 6.26993648 -15 6 C-10.76325167 2.27679693 -5.77650185 -1.92550062 0 0 Z " fill="#B19092" transform="translate(312,409)"/>
<path d="M0 0 C0.66 0.33 1.32 0.66 2 1 C0.90344712 2.31886772 -0.20253423 3.62990057 -1.3125 4.9375 C-1.92738281 5.66839844 -2.54226562 6.39929688 -3.17578125 7.15234375 C-5 9 -5 9 -8 10 C-6.5682479 4.98886765 -4.01554307 3.05530451 0 0 Z " fill="#19390B" transform="translate(168,295)"/>
<path d="M0 0 C2.64 0 5.28 0 8 0 C3.375 4.875 3.375 4.875 0 6 C0 4.02 0 2.04 0 0 Z " fill="#33D7BF" transform="translate(317,384)"/>
<path d="M0 0 C1.0209375 0.2165625 1.0209375 0.2165625 2.0625 0.4375 C-0.96022532 3.69274265 -4.19468301 6.05570737 -7.9375 8.4375 C-8.5975 8.1075 -9.2575 7.7775 -9.9375 7.4375 C-3.86310175 0.57535558 -3.86310175 0.57535558 0 0 Z " fill="#886D62" transform="translate(278.9375,431.5625)"/>
<path d="M0 0 C1.51400391 0.01740234 1.51400391 0.01740234 3.05859375 0.03515625 C4.07050781 0.04417969 5.08242188 0.05320312 6.125 0.0625 C7.29869141 0.07990234 7.29869141 0.07990234 8.49609375 0.09765625 C8.49609375 0.42765625 8.49609375 0.75765625 8.49609375 1.09765625 C5.52609375 1.09765625 2.55609375 1.09765625 -0.50390625 1.09765625 C-1.16390625 4.06765625 -1.82390625 7.03765625 -2.50390625 10.09765625 C-2.83390625 10.09765625 -3.16390625 10.09765625 -3.50390625 10.09765625 C-3.53079841 8.61858733 -3.55025246 7.13938142 -3.56640625 5.66015625 C-3.57800781 4.83644531 -3.58960938 4.01273437 -3.6015625 3.1640625 C-3.45649662 0.09446858 -3.08407765 0.12028384 0 0 Z " fill="#495D64" transform="translate(292.50390625,260.90234375)"/>
<path d="M0 0 C0.33 0 0.66 0 1 0 C1.0825 1.093125 1.165 2.18625 1.25 3.3125 C1.63689209 7.03276664 1.63689209 7.03276664 4.0625 8.9375 C4.701875 9.288125 5.34125 9.63875 6 10 C3.625 10.125 3.625 10.125 1 10 C-1 8 -1 8 -1.1875 5 C-1 2 -1 2 0 0 Z " fill="#3D2319" transform="translate(382,381)"/>
<path d="M0 0 C4 4.625 4 4.625 4 8 C1.69 6.02 -0.62 4.04 -3 2 C-2.01 1.34 -1.02 0.68 0 0 Z " fill="#A76D63" transform="translate(470,563)"/>
</svg>
